<?xml version="1.0" ?><!DOCTYPE svg  PUBLIC '-//W3C//DTD SVG 1.1//EN'  'http://www.w3.org/Graphics/SVG/1.1/DTD/svg11.dtd'><svg height="100%" style="fill-rule:evenodd;clip-rule:evenodd;stroke-linejoin:round;stroke-miterlimit:2;" version="1.1" viewBox="0 0 32 32" width="100%" xml:space="preserve" xmlns="http://www.w3.org/2000/svg" xmlns:serif="http://www.serif.com/" xmlns:xlink="http://www.w3.org/1999/xlink"><path d="M27.996,6.919c0,-0.796 -0.316,-1.559 -0.879,-2.121c-0.562,-0.563 -1.325,-0.879 -2.121,-0.879c-4.184,-0 -13.816,-0 -18,-0c-0.796,-0 -1.559,0.316 -2.121,0.879c-0.563,0.562 -0.879,1.325 -0.879,2.121c0,4.184 0,13.816 0,18c0,0.796 0.316,1.559 0.879,2.121c0.562,0.563 1.325,0.879 2.121,0.879c4.184,-0 13.816,-0 18,-0c0.796,-0 1.559,-0.316 2.121,-0.879c0.563,-0.562 0.879,-1.325 0.879,-2.121l0,-18Zm-16.996,11.092c-1.656,-0 -3,1.344 -3,3c-0,1.655 1.344,3 3,3c1.656,-0 3,-1.345 3,-3c0,-1.656 -1.344,-3 -3,-3Zm9.992,-0c-1.656,-0 -3,1.344 -3,3c0,1.655 1.344,3 3,3c1.656,-0 3,-1.345 3,-3c0,-1.656 -1.344,-3 -3,-3Zm-6.007,-5.98c-0.549,0.003 -0.994,0.449 -0.995,0.999c-0,0.55 0.445,0.998 0.995,1.001l-0,0.997c-0,0.552 0.448,1 1,1c0.552,0 1,-0.448 1,-1l-0,-0.994l0.004,-0c0.552,0.001 1.001,-0.447 1.001,-0.999c0.001,-0.552 -0.446,-1 -0.998,-1.001l-0.007,-0l-0,-3.013c-0,-0.552 -0.448,-1 -1,-1c-0.552,-0 -1,0.448 -1,1l-0,3.01Zm6.002,-2.016l-0.005,0c-0.552,-0 -1,0.447 -1.001,0.999c-0.001,0.552 0.447,1.001 0.999,1.001l0.007,0l-0,3.013c-0,0.552 0.448,1 1,1c0.552,0 1,-0.448 1,-1l-0,-3.01c0.548,-0.003 0.993,-0.449 0.994,-0.999c0.001,-0.55 -0.444,-0.998 -0.994,-1.001l-0,-0.997c-0,-0.552 -0.448,-1 -1,-1c-0.552,-0 -1,0.448 -1,1l-0,0.994Zm-11.981,0l-0.005,0c-0.552,-0 -1,0.447 -1.001,0.999c-0.001,0.552 0.447,1.001 0.999,1.001l0.007,0l-0,3.013c-0,0.552 0.448,1 1,1c0.552,0 1,-0.448 1,-1l-0,-3.01c0.548,-0.003 0.993,-0.449 0.994,-0.999c0.001,-0.55 -0.444,-0.998 -0.994,-1.001l-0,-0.997c-0,-0.552 -0.448,-1 -1,-1c-0.552,-0 -1,0.448 -1,1l-0,0.994Z"/></svg>