<?xml version="1.0" encoding="UTF-8"?>
<svg width="488.65" height="315.08" enable-background="new 0 0 488.646 315.076" viewBox="0 0 488.646 315.076" xmlns="http://www.w3.org/2000/svg">
 <g fill-rule="evenodd">
  <path d="m480.89,208.18c-1.514.154-1.588-1.32-3.104-1.168v-7.605c3.61.02 3.17,4.61 3.1,8.78z" fill="#fff"/>
  <path d="m477.79,171.34c-1.812-.678-2.789-2.303-5.168-2.341-.402-3.964.705-6.219.518-9.942 3.22,2.19 5.23,5.78 4.65,12.28z" fill="#fff"/>
  <path d="m473.14,226.9c-3.502-.5-2.068-6.736-2.068-10.529v-12.867c6.05,2.65 1.91,16.59 2.07,23.4z" fill="#fff"/>
  <path d="m468.48,167.83c-1.719-.979-2.799-2.683-4.652-3.51 .379-4.327-.578-7.145-.518-11.113 6.08-.05 5.45,7.48 5.17,14.62z" fill="#fff"/>
  <path d="m467.45,229.83c-.719,2.301-3.475-2.504-5.17-2.924-.479-10.572-.65-21.49-1.033-32.17 9.83,2.9 3.79,23.77 6.2,35.09z" fill="#fff"/>
  <path d="m457.63,173.68v16.377c-2.186-.646-4.92-.674-7.756-.586-.34-5.266.686-12.083-.516-16.376 2.28-1.57 5.27,1.05 8.28.59z" fill="#fff"/>
  <path d="m457.11,221.05h-7.238v-25.15c2.818-.264 4.25,1.043 7.238.584 .09,6.01-.06,16.66 0,24.57z" fill="#fff"/>
  <path d="m455.04,149.69v13.453c-2.299-.907-3.258-3.331-5.686-4.094-.322-4.122-.34-8.585-1.033-12.283 1.92,1.34 4.62,1.79 6.72,2.92z" fill="#fff"/>
  <path d="m443.67,151.45c-2.152-.293-3.016-2.046-5.17-2.339 .348-2.929-.479-4.528-.516-7.02 4.44.24 6.75,2.9 5.69,9.36z" fill="#fff"/>
  <path d="m436.95,299.43c.096.498-.201.553-.516.584-11.219.051-24.785.045-35.672.586-4.344.217-10.119,2.381-12.408-2.34 14.648-1.365 31.535-.195 47.045-.584 .29.84.8,1.42 1.55,1.75z"/>
  <path d="m436.43,167.83c-3.963,4.21-19.207,4.413-23.781.585 6.9-1.37 16.03-.2 23.78-.59z"/>
  <path d="m431.78,284.22c-2.768-12.119.512-27.482-.516-41.529-1.75-7.77-15.863-1.549-21.197-5.264 1.184-3.18 5.875-1.754 9.305-1.754 7.969,0 12.963-1.457 14.477,5.848 1.418,6.848-.518,19.135-.518,28.076 .01,5.48 1.24,11.97-1.54,14.61z"/>
  <path d="m430.75,194.73c1.734,4.666 1.273,11.816 1.551,18.133-5.23-.906-10.994-1.211-16.543-1.756 .672-5.727-2.838-14.447.518-17.547-6.03-17.96 22.68-10.94 14.47,1.18z"/>
  <path d="m431.78,216.96v5.264h-2.584c-.277-2.264.922-2.855.516-5.264h2.06z"/>
  <path d="m426.61,278.96c-1.578-.422-1.883.6-3.102.586v10.527c-3.904-.324-6.902.379-10.34.586 .545-3.539-.129-5.701-3.617-4.68-.516-8.014-.775-18.494-1.035-26.904-.115-3.727-1.561-7.801 1.551-9.943 1.043,2.523.695,6.623 3.102,7.604 .402,2.014-.287,2.793-2.066,2.34v19.885c1.129.859 2.895-2.551 4.652-2.924 .902-8.531-1.1-20.35 2.586-25.734-.297-1.455-2.902-3.301-2.068-4.096 3.115-.016 6.363-.182 8.789.586 2.45,8.51 1.3,21.11 1.55,32.14z"/>
  <path d="m402.31,284.81c-2.863-1.131-1.537-6.051-1.551-8.773-.051-10.76.857-22.109.516-33.924-3.287-7.979-20.77.105-26.363-5.264 8.668.137 25.834-4.273 28.434,4.678 0,14.81-.2,29.4-1.04,43.27z"/>
  <path d="m400.76,212.87c-2.85-1.061-1.539-6.127-1.551-8.773-.043-8.959.031-20.498 0-29.832-2.4-8.202-18.566-.83-23.781-5.849 9.121.406 24.688-4.481 26.883,4.095 1.396,5.455-.207,14.537-.516,22.226-.27,6.81 1.02,13.46-1.03,18.12z"/>
  <path d="m402.31,216.37c.398,2.791-.809,3.766-.516,6.436h-3.621c-.289-2.67.916-3.645.518-6.436h3.62z"/>
  <path d="m398.18,261.41v23.396c-2.055.988-5.453.461-8.27.586 .277-8.654.754-17.084 1.033-25.736-1.998-.115-3.811-.021-5.17.584-3.602,5.48-2.367,16.432-2.586,25.736h-6.721v-24.566c-.789-2.648 3.377.311 2.586-2.338 1.346-3.668-2.844-1.074-2.586-3.51 1.521-12.93 19.418-12.18 21.197,0-.51,2.346-2.148,3.418-2.586,5.848h3.11z"/>
  <path d="m396.11,212.28h-20.162c-1.578-6.531.555-13.75 0-21.057-.496-2.119 2.232-.596 2.586-1.756-3.121-4.508 1.695-8.934 3.617-12.867 17.9-6.93 13.66,19.03 13.95,35.69zm-7.24-31.59c-1.555-.578-2.307-2.068-4.652-1.754-2.805,2.092-1.947,8.324-2.584,12.869 4.145,2.135.912,12.613 2.584,17.547 2.76-.201 4.262,2.141 6.721.584 .95-12.4-3.44-17.67-2.07-29.25z"/>
  <path d="m390.94,209.94c-2.459,1.557-3.961-.785-6.721-.584-1.672-4.934 1.561-15.412-2.584-17.547 .637-4.545-.221-10.777 2.584-12.869 2.346-.314 3.098,1.176 4.652,1.754-1.37,11.58 3.02,16.85 2.07,29.25z" fill="#fff"/>
  <path d="m368.71,287.15c-2.941-13.633.549-34.545-3.102-47.377-8.459-1.602-20.004,3.219-24.814-1.754 7.297-1.689 16.65-1.049 25.332-1.17 5.4,3.248 3.617,16.414 3.617,28.66-.01,8.09.79,16.42-1.04,21.64z"/>
  <path d="m368.19,143.26c-2.328-1.047-1.934-7.74-2.068-11.113-.396-9.841 1.215-22.717-2.586-29.245-8.455-.765-19.629,1.542-26.365-1.17 .195-3.171 4.115-1.681 5.688-1.754 9.396-.436 24.334-2.532 26.365,5.849 2.4,9.9-.99,28.22-1.03,37.44z"/>
  <path d="m369.23,171.34c-.684,13.849 1.369,30.794-1.033,42.697-2.875-1.215-1.539-6.023-1.553-8.773-.049-10.395-.803-22.039-.516-32.753-4.307-6.438-19.766-.255-26.365-4.095 8.16-1.81 24.85-3.18 29.47,2.92z"/>
  <path d="m367.68,216.96c.404,2.408-.795,3-.518,5.264h-2.584v-5.264h3.1z"/>
  <path d="m366.64,75.998c-.338,3.322.68,8.178-.516,10.528h-1.035c-2.305-1.291-.422-7.321-1.033-10.528h2.59z"/>
  <path d="m366.64,148.52v5.849h-2.584v-6.433c1.46-.48 1.34.82 2.58.58z"/>
  <path d="m362.51,288.32h-2.068c-1.338-2.387.938-7.623 1.035-11.697 .139-5.842-1.803-11.787-2.068-16.963-11.352.889-7.867,17.215-8.789,28.66-4.094-1.023-1.117-10.045-7.238-8.773-1.408,2.209 1.838,7.248 1.035,8.773-3.762.553-1.887-5.273-4.137-6.434 .691-7.799-1.762-19.152 2.068-23.396-6.428-11.854 11.686-18.111 19.129-11.113 .713,3.803 3.123,7.344 1.033,11.113 3.94,6.65 2.12,22.72 0,29.83z"/>
  <path d="m362.51,144.43c-3.059-5.313 1.361-19.088-3.102-22.812 .375-1.332.461-2.988 1.033-4.095-1.238-8.684-13.75-7.364-18.094-4.679 .59-8.633 19.006-6.044 20.162,1.755-.37,9.6 2.3,21.93 0,29.83z"/>
  <path d="m361.99,211.69c-1.963-3.625-1.168-10.375-1.551-15.791-1.105-2.062-5.115-.84-7.754-1.17-3.303,2.111-1.688,9.787-2.068,15.207 1.072,1.322 4.484-.004 5.17,1.754-2.494,3.889-10.156-.24-15.51,1.172v-22.227c-.422-2.234 1.102-2.266 2.068-2.926-.109-1.102-2.072-3.039-1.033-3.508 1.521-4.242 4.246-7.448 7.754-8.191 17.78-3.75 15.08,19.44 12.92,35.69z"/>
  <path d="m335.1,16.337v1.754c.531,1.965-1.607.911-2.584,1.17 .693,15.397 1.332,30.857 2.068,46.207-2.361.838-1.346,5.497-3.104,7.018-3.982-3.329.336-6.524 1.035-9.357 1.473-5.966-1.998-13.623-.516-21.057h-8.791c-.33-2.162.67-5.827-.516-7.018 1.906-1.354 6.023-.205 8.787-.586 .383-4.721-.84-7.628-.516-12.283 .234-2.801-3.518-1.09-2.584-4.679 .36-2.524 4.7-.537 6.72-1.169zm-8.78,21.642c-.072,2.422 3.598.609 5.17,1.169v-2.339c-1.58.56-5.25-1.253-5.17,1.17z"/>
  <path d="m332.01,288.32c-1.832-.465-.994-3.947-1.553-5.848-.828-2.303 2.232-.205 2.068-1.756-.564-12.426-.988-25.008-1.551-37.434-4.246-6.699-20.283-.059-26.883-4.094 2.299-3.07 7.357-1.756 11.891-1.756h12.924c1.094,1.494 2.539,2.586 4.135,3.51-.83,15.44 4.38,36.06-1.03,47.38z"/>
  <path d="m333.04,144.43c-4.41-2.709-2.584-11.275-2.584-18.133v-20.472c-5.477-7.255-24.693,1.034-31.018-5.264 10.066.31 28.82-4.143 34.119,3.51 .36,14.05-.87,26.31-.52,40.35z"/>
  <path d="m333.04,8.733c-.641,2.215-6.797,1.255-8.27.584v-1.17c.66-2.565 5.408-.507 7.754-1.169-.04.831-.08,1.657.52,1.755z"/>
  <path d="m331.49,214.03c-2.402-10.93-.352-26.896-1.033-39.773-4.09-7.988-21.273-.351-27.916-4.094 1.297-3.136 7.666-1.755 11.891-1.755 8.895,0 16.568-.872 18.609,5.849-.34,12.63.49,27.58-1.55,39.76z"/>
  <path d="m331.49,36.809v2.339c-1.572-.561-5.242,1.252-5.17-1.169-.08-2.423 3.59-.61 5.17-1.17z" fill="#fff"/>
  <path d="m329.94,92.375c-10.334,2.173-24.459,1.896-34.119,0-3.051-.8.162,2.265-2.068,1.754-13.516,2.221-29.43-4.43-38.256,1.754-7.709-1.689-18.691,3.368-22.746-1.754 28.518-5.792 64.811-5.738 97.707-4.679 .17,1.356-.08,2.246-.51,2.925z"/>
  <path d="m329.94,75.412c-19.475,1.57-45.393,2.661-64.104,1.17 6.598-4.037 18.869-1.656 28.434-2.339 1.426-10-.744-20.992 0-32.17-.541-1.922-5.607,1.275-4.652-2.34-.977-3.639 2.719-1.991 4.652-2.34-1.342-5.109.613-13.952-1.553-18.131 1.486-.682 5.861-1.14 6.205-1.17 .562,2.391-.553,2.884-1.551,3.51 .73,16.916 1.375,33.927 2.068,50.886h29.984c-.43,1.652.73,1.515.52,2.924z"/>
  <path d="m329.42,154.37h-2.068c.412-2.651-.301-6.578 1.551-7.603 1.92.19 1.14,6.48.52,7.6z"/>
  <path d="m329.94 218.13v5.264h-2.584v-5.264h2.58z"/>
  <path d="m327.35,287.73c-2.574-6.055-1.168-16.617-2.068-24.566h-3.617c-.822,7.062-1.01,14.844-1.035,22.811 .01,1.746 3.832-.824 3.102,1.756-4.711,2.543-12.732-1.148-19.645,0 1.074-9.182-2.965-21.164 1.551-26.906 .828-2.303-2.232-.203-2.066-1.754 .617-14.846 22.215-15.434 24.297-2.926 .98,5.87 1.1,22.22-.51,31.59z"/>
  <path d="m324.77,146.77c-2.77.793-1.602-2.868-3.102-3.51-2.303.127-2.309,2.849-3.619,4.095h-5.688c-.277-2.417-.758-4.603-1.033-7.019h-5.688v-5.849h19.645c1.045-3.623-2.686-9.536 1.033-10.529 2.89,6.91 1.42,17.63-1.54,22.81z"/>
  <path d="m326.32,214.62c-2.357-1.078-1.904-6.32-2.066-9.943-.113-2.527.086-5.301 0-7.604-5.908.92-3.846,10.857-4.652,17.547h-16.025c.373-6.662-.852-11.516-.52-18.133-1.607-2.275-5.012-2.516-5.168-6.434 4.619-1.521 4.178,2.682 7.754,2.34-.365,2.168.883,2.51.518,4.68 1.678-.34 2.404.396 3.619.584 1.58-2.979-.658-6.65 0-10.527-3.605-.33-3.092,2.803-6.723,1.168 .016-11.183 12.535-15.291 21.715-10.527 3.99,5.43 3.09,27.24 1.54,36.84z"/>
  <path d="m326.32,119.28c-2.984.649-2.451-2.686-3.617-4.094-3.492-3.97-10.734-3.149-14.992-.585 3.27-9.12 21.04-6.6 18.61,4.68z"/>
  <path d="m321.67,6.394v3.509c-2.424-.378-6.191.765-7.756-.585v-1.17c1.18-2.17 5.23-1.098 7.76-1.754z"/>
  <path d="m321.67,85.355h-3.104c.254-1.846-.932-2.065-.516-4.095h-4.137c-.605-.875-.643-2.392-1.551-2.924 1.906-1.353 6.023-.204 8.787-.584-.4,3.176.82,4.532.52,7.603z"/>
  <path d="m318.56,36.224c.277,2.263-.922,2.855-.516,5.264h-6.205v-5.264h6.72z"/>
  <path d="m310.81,8.147c-.643,2.216-6.799,1.257-8.271.586v-1.17c.66-2.566 5.408-.509 7.756-1.17-.05.831-.09,1.657.51,1.754z"/>
  <path d="m307.71,35.639c.404,2.603-.689,3.51-.518,5.849h-5.688c.365-1.927.832-3.739 1.035-5.849h5.17z"/>
  <path d="m304.6,121.62c-.666,1.975.115,5.588-2.066,5.849-2.141.083-.539-4.07-1.035-5.849h3.1z"/>
  <path d="m298.92,7.563v2.924c-2.422-.378-6.189.765-7.754-.585v-1.169c.65-2.566 5.4-.508 7.75-1.17z"/>
  <path d="m296.33,147.36c-3.059-12.504 2.352-26.527-.516-37.434-3.129-11.902-21.783-.785-28.434-8.774 10.342-.587 26.996-3.25 31.018,5.264v21.641c0,7.1 1.33,15.13-2.07,19.3z"/>
  <path d="m298.4,288.32c-3.111-2.172-2.379-8.344-2.584-13.453-.447-11.117 1.273-26.326-3.104-33.34-8.447-1.385-19.248,2.658-24.814-1.17 9.641-.182 26.756-3.754 30.502,4.68-.01,14.42-.01,28.85-.01,43.28z"/>
  <path d="m296.85,214.62c-2.812-1.135-1.803-7.729-2.066-12.283-.451-7.77-1.137-16.561-1.551-25.151-1.447-1.678-2.297-4.033-4.137-5.265-6.928-.936-17.482,2.232-21.197-2.339 8.658-.239 24.291-3.306 28.434,3.509-.17,13.46 2.48,30.28.53,41.53z"/>
  <path d="m293.75,148.52c.031,2.569-.207,4.835-1.035,6.435-1.811-.679-1.129-4.18-1.549-6.435h2.58z"/>
  <path d="m293.75,224.56h-2.584c.264-2.822-1.057-7.434 2.068-7.02-.37,2.95.87,4.08.51,7.02z"/>
  <path d="m293.23,273.11c.375,6.273-.85,10.736-.52,16.961h-24.297c3.104-6.43.883-18.889 1.553-28.074 .908-.336 3.037.707 3.102-.586 .373-2.566-1.725-2.338-3.619-2.338 1.076-16.102 25.461-14.863 22.746,4.094-3.451-2.918-2.967-10.289-8.789-10.529-2.404,7.602-.826,23.775-.516,33.924 2.633.641 2.459-1.895 2.586-4.092 2.492-.301 6.568,1.193 6.203-2.34-1.789-1.795-3.223,1.787-6.203.584v-8.189c2.99-.25 5.3.26 7.76.6z"/>
  <path d="m292.71 120.45c-1.221-1.737-2.195-3.754-3.1-5.849-3.17-1.319-8.385-2.681-12.408-1.17-2.816 1.494-2.342 6.709-7.236 5.849 1.38-13.62 22.46-13.49 22.75 1.17z"/>
  <path d="m292.2,145.6c-4.85,2.7-14.111.411-20.678,1.17 .357-4.498-.875-7.2-.518-11.698h19.645c.62,3.4.88,7.2 1.56,10.53z"/>
  <path d="m290.65,200.58v14.037h-21.195c.355-7.227-.873-12.66-.518-19.887-.477-1.021-1.617-1.291-3.102-1.17 .826-1.016 2.328-1.268 4.137-1.17-4.566-16.609 21.246-21.377 20.16-2.926-5.049-1.381-12.078-2.135-14.475,2.342 2.863,3.75-.926,10.729 1.033,16.961 4.8-2.55 6.97-8.09 13.96-8.18z"/>
  <path d="m288.58,42.073v18.716h-13.959c.357-6.836-.871-11.879-.516-18.716h3.619c1.014-.811-1.086-3.021-1.035-4.68h7.756c.459,1.43 1.205,2.537 1.035,4.68h3.1zm-12.41,2.924c.164,4.298.783,8.083 1.033,12.283h8.273c-.324-4.655.896-7.562.516-12.283-3.97-.404-5.48-.002-9.82,0z"/>
  <path d="m287.54,9.318c-.641,2.214-6.799,1.256-8.271.585v-1.169c.66-2.567 5.408-.509 7.754-1.17-.04.83-.08,1.656.52,1.754z"/>
  <path d="m285.99,44.997c.381,4.721-.84,7.628-.516,12.283h-8.273c-.25-4.201-.869-7.985-1.033-12.283 4.34-.002 5.85-.404 9.82,0z" fill="#fff"/>
  <path d="m276.17,11.658h-8.273c-.902-5.116 4.529-3.064 7.756-3.51-.38,1.79.89,1.72.51,3.51z"/>
  <path d="m272.04,37.979v5.263h-5.17c.277-2.262-.922-2.854-.516-5.263h5.69z"/>
  <path d="m269.45,123.37v7.019c-1.246.24-1.125-1.068-2.586-.585 .4-2.791-.809-3.764-.516-6.434h3.11z"/>
  <path d="m266.86,19.846c.422,3.011-3.275,1.364-4.652,2.34-.361,18.347.865,34.896.518,53.226-3.381-1.479-2.068-7.256-2.068-11.698 0-6.665.096-13.446-.518-19.302h-6.719v-5.849c2.277-.151 3.998-.935 6.719-.584 1.648-8.935-2.576-15.957-1.033-21.057 2.277-.823 1.4,1.925 1.551,3.51 1.93-.241 4.36-2.101 6.2-.586zm-10.34,19.887c-.799,2.282 4.561,2.884 3.619,0h-3.62z"/>
  <path d="m263.25,8.733v3.509c-2.424-.379-6.191.765-7.756-.585v-1.17c1.19-2.17 5.24-1.097 7.76-1.754z"/>
  <path d="m261.7,216.96c-3.545.092-2.031-5.572-2.066-8.189-.152-10.711 1.742-31.016-2.584-36.263-7.572-1.042-16.148,1.965-21.715-.586 7.689-1.36 22.02-4.437 26.365,2.34-.44,14.02 2.17,30.62 0,42.7z"/>
  <path d="m262.21,146.19c-3.652-1.961-2.891-8.224-3.102-13.454-.361-9.035-.002-17.57-.518-26.906-8.98-2.833-20.365,3.714-27.398-.584 9.086-1.176 24.777-7.457 31.018.584v40.36z"/>
  <path d="m260.66,291.24c-2.867-1.6-1.551-6.795-1.551-9.943v-33.34c-3.111-8.57-19.508-2.105-26.883-5.85 1.961-2.766 7.305-1.824 11.373-1.756 8.672.15 15.836.533 18.094,7.02-.354,11.561.518,22.133.518,33.926 0,3.38 1.29,8.51-1.55,9.94z"/>
  <path d="m259.63,157.3c-2.207-.233-.494-4.901-1.035-7.019 3.89-1.04 2.81,6.19 1.03,7.02z"/>
  <path d="m260.66,78.336c-8.934,1.005-18.783.976-27.916,1.755-.34-6.246 6.855-4.094 11.373-4.094h14.992c.53.777.5,2.176 1.56,2.339z"/>
  <path d="m260.14,39.733c.941,2.884-4.418,2.282-3.619,0h3.62z" fill="#fff"/>
  <path d="m258.08 219.88v5.85h-2.584v-5.85h2.58z"/>
  <path d="m257.56,136.83c1.342,5.807-3.178,4.982-2.068,10.529-3.182-4.176-11.984-1.782-17.576-1.755v-8.188c6.37-.39 12.73-.81 19.65-.58z"/>
  <path d="m257.04 119.87c-1.256 1.041-7.217-8.281-12.926-3.511-1.031 3.513-4.26 4.54-6.721 6.435-2.68-13.69 18.52-16.69 19.65-2.93z"/>
  <path d="m257.04,257.32c.197,2.176-2.49,1.082-2.586,2.924 .004,1.557 1.438,1.494 2.066,2.342-.324,9.92.896,18.094.52,28.074-6.658,1.244-15.262.283-22.748.586 .775-.684 1.264-1.691 2.584-1.756 .566-9.498-.812-21.195 2.068-28.076-1.248-1.797-1.512-6.184-4.652-4.094 .98-11.83 22.62-14.1 22.75.01z"/>
  <path d="m252.39,81.847v4.679c-2.666.87-2.559-1.396-4.135-1.754-1.219.573-.465,3.375-1.551,4.094h-1.035c-2.207-.232-.492-4.901-1.033-7.018l7.74-.001z"/>
  <path d="m251.36,10.488v3.509c-2.422-.378-6.191.765-7.756-.584-.51-4.48 4.75-2.431 7.76-2.925z"/>
  <path d="m248.77,39.733c-.375,1.331-.461,2.988-1.033,4.095h-5.17v-4.095h6.2z"/>
  <path d="m239.46,15.752h-8.27v-2.924c3.156.453 4.836-.766 7.754-.585-.37,1.788.9,1.72.52,3.509z"/>
  <path d="m238.95,44.997c-2.279-.151-3.998-.935-6.721-.585v-4.679h6.205c-.41,2.409.79,3.001.51,5.264z"/>
  <path d="m236.36,126.3c.338,2.72-1.213,3.307-3.617,2.924-.54-2.96 1.46-3.04 3.62-2.92z"/>
  <path d="m233.78,193.56c-1.195,2.35-1.131,6.129-1.033,9.943h-2.585c-.314-3.865.904-5.996.517-9.943h3.1z"/>
  <path d="m233.26,262.58v15.791c-4.72-.898-1.766-10.48-2.584-15.791h2.58z"/>
  <path d="m230.68,26.281v1.169c.654,2.301-1.219,1.74-2.584,1.755-.773,16.867 1.702,37.41-1.551,51.472-10.126.047-18.461,2.12-27.917,2.924 .804-4.4 8.495-4.306 12.924-4.679 5.072-.428 9.798-1.398 13.958-2.34-.396-9.69-.345-19.886-1.034-29.245h-4.653c-.386,7.261.829,12.71.517,19.887-5.457-.13-9.078,1.817-13.959,2.339v-21.056c-.075-1.646 1.267-1.688 2.585-1.754 .276-2.264-.923-2.856-.518-5.265 3.123-.218 5.714.165 8.272.585 .283.849-.604,3.023.517,2.924 1.737.601.805-1.819 1.034-2.924 2.203-.043 3.616-.979 6.204-.585 .301-5.995-.908-10.282-.518-16.377 3.17-.671 3.37,2.033 6.72,1.17zm-9.31,16.377c-.06,2.019 1.043,2.719 3.103,2.339v-2.339h-3.1zm-5.17,5.264c-1.552.778-3.955.595-6.203.585v17.547c2.363-.25 4.383-.889 7.237-.585-.36-5.829-.4-12.027-1.04-17.547zm-5.68-4.094c.403.129.602.49.517,1.169 1.48.115 2.822.072 2.585-1.755-.91.337-3.04-.706-3.1.586z"/>
  <path d="m228.61,15.752c-.642,2.214-6.797,1.256-8.271.585v-1.17c.661-2.565 5.409-.508 7.754-1.17-.04.831-.08,1.656.52,1.755z"/>
  <path d="m214.65,97.639c.176-5.518 8.844-4.335 12.924-3.51 1.43,5.749-9.31,1.629-12.92,3.51z"/>
  <path d="m226.54,151.45c-2.88-.938-1.519-5.817-1.552-8.188-.157-11.193-.001-25.475-1.551-35.094-9.412-1.477-20.259,5.219-26.365,0 8.853-.495 28.226-7.228 30.501,3.509-.69,12.87 1.36,28.84-1.04,39.77z"/>
  <path d="m226.54,219.88c-2.418-1.236-1.955-5.992-2.068-8.773-.388-9.561-.415-20.691-1.035-29.83-1.222-2.127-2.533-4.152-4.135-5.849-7.372-.94-15.227,2.255-20.162-1.17 9.247-.517 25.025-3.359 27.917,5.265-1.01,13.64 2.26,28.62-.52,40.36z"/>
  <path d="m225.51,292.41c-3.047-14.342 4.036-42.385-4.653-49.131-7.597-.764-17.902,1.537-23.781-1.17 8.737-1.428 27.698-4.486 29.984,5.264-.371,11.469.575,23 .517,35.096-.02,3.7 1.03,8.59-2.07,9.94z"/>
  <path d="m224.48,42.658v2.339c-2.059.38-3.163-.32-3.103-2.339h3.1z" fill="#fff"/>
  <path d="m223.96,160.22c-3.396.333-1.645-5.157-2.068-8.188 2.98.15 1.89,4.88 2.07,8.19z"/>
  <path d="m223.44,220.47c-.203,2.109.192,4.896-1.55,5.266-2.096.227-.568-3.646-1.034-5.266h2.58z"/>
  <path d="m222.92,140.92v10.528c-3.825.428-6.986.106-7.754-2.925-3.751-.345-6.001,1.011-9.306,1.17v-8.773h17.06z"/>
  <path d="m221.89,218.13c-6.084-.256-11.509.234-17.06.584-.372-7.439.853-13.072.516-20.473-.363-2.164 2.21-1.008 2.585-2.338-1.859-2.742-2.258-9.016 0-11.697-1.793.504-2.868,1.822-4.135,2.924-.438-10.069 17.783-9.631 17.577,1.754 .531,1.965-1.607.912-2.585,1.17 3.59,6.47 2.84,17.85 3.09,28.09z"/>
  <path d="m217.75,15.752v2.925c-2.423-.379-6.191.764-7.754-.585v-1.17c.66-2.566 5.41-.508 7.75-1.17z"/>
  <path d="m217.24,65.469c-2.854-.304-4.874.335-7.237.585v-17.547c2.249.01 4.651.193 6.203-.585 .64,5.52.68,11.718 1.04,17.547z" fill="#fff"/>
  <path d="m213.62,43.242c.237,1.828-1.104,1.871-2.585,1.755 .084-.68-.114-1.041-.517-1.169 .06-1.292 2.19-.249 3.1-.586z" fill="#fff"/>
  <path d="m209.48,25.111c-2.02,1.036-8.616,1.943-12.407,2.924 .375-1.789-.892-1.72-.517-3.51 4.05.493 8.29.764 12.93.586z"/>
  <path d="m198.62,21.016c-.404-4.746 3.882-4.187 7.238-4.679 3.31,5.074-4.29,3.331-7.24,4.679z"/>
  <path d="m205.86 221.05v1.756c-4.553-1.254-4.428 2.787-8.789 1.754v-3.51h8.79z"/>
  <path d="m204.83,48.507c-2.692-.317-3.833,1.123-6.204,1.17-.365-1.927-.831-3.74-1.034-5.849 2.481-.117 3.787-1.566 6.721-1.17-.18,2.339.91,3.246.51,5.849z"/>
  <path d="m202.24,194.15c-1.484,2.221-2.258,5.246-2.584,8.775-1.88-1.383-1.146-5.725-1.551-8.775 1.38.01 2.76.01 4.13.01z"/>
  <path d="m197.08,263.17c-.608,7.307 1.462,17.641-1.551,22.227-.505-6.645-1.734-15.582-.517-22.227h2.07z"/>
  <path d="m193.97,82.431c-2.363.642-3.769,2.364-5.687,3.51-7.284-.796-15.555,3.409-20.679,1.169 6.438-3.44 17.131-2.065 23.781-5.263v-28.661c-1.224-1.345-4.641-.209-6.721-.584v-5.265c2.279-.151 4-.935 6.721-.584 .403-7.476-.175-13.84-1.551-19.303 6.791-.123 5.471,7.879 5.17,15.208-.51,12.489-.35,28.775-1.03,39.773zm-5.68-32.754c.284,1.027 4.172,1.267 3.102-1.17-.29-1.027-4.17-1.267-3.1,1.17z"/>
  <path d="m194.49,21.016c-3.226-.334-5.051.914-7.755,1.17 .212-1.41-.945-1.271-.517-2.924 2.71.132 8.5-3.67 8.27,1.754z"/>
  <path d="m193.46,152.62c-2.88-1.009-1.516-5.728-1.551-8.188-.145-10.27-.721-21.613-.517-32.171h-21.196c.011,4.549 2.783,11.954 0,15.792-2.636-.858.274-4.462-.518-7.018-1.203-2.733-1.954-5.978-1.55-10.529 8.618-.387 16.594-1.501 25.848-1.169-1.02,14.63 2.26,30.58-.51,43.29z"/>
  <path d="m193.46,219.88c-3.027,2.424-9.802.607-14.475,1.17-.769.887-.833,2.568-1.034,4.094-4.055-.828-8.702,2.516-9.822-1.754 1.393-1.348 4.986-.207 7.237-.584 1.596-7.27-.461-15.465 0-23.398-.262-2.244 3.105-.385 3.102-2.338 .583-2.805-1.972-2.061-2.585-3.51-.142-4.645 2.391-6.264 4.135-8.773-4.8-1.23-5.161,5.322-8.271,4.094-.408-11.802 19.243-8.385 18.094,3.51-1.403.361-4.102-.744-4.653.586v1.754c-.414,2.223 2.445.744 3.619,1.17 .343,6.631-.687,14.814.517,20.471h1.034c.826-9.602 3.874-34.014-2.585-38.604-7.164-1.645-16.504,5.094-19.645-1.169 7.234-1.088 21.171-3.469 25.332,2.339-.68,14.02 1.56,27.83-.01,40.94z"/>
  <path d="m193.46,292.41h-19.128c-2.611-.449 1.629-1.617 1.034-3.508-.524-15.104-2.198-31.717 6.204-38.02-6.078-.049-10.009,5.438-10.856,9.357-3.245-.48.23-4.562 0-7.018 4.192-3.055 7.262-7.381 14.993-6.434 3.294,2.902 2.615,10.299 2.584,16.961h2.068c2.771-4.773-.433-12.709.517-19.301-6.668-1.691-14.366.512-21.196.584 .967,5.082.462,8.691-2.584,10.529-1.12-3.609-.126-9.605-1.034-13.453 8.8-.377 17.537-.824 26.882-.586-.34,17.56.89,33.32.53,50.89z"/>
  <path d="m191.9,161.39c-3.832,1.351-3.028-5.575-1.035-5.849 .94,1.29.46,4.17 1.04,5.85z"/>
  <path d="m191.9,229.24h-3.102v-5.264h2.585c-.4,2.41.8,3 .52,5.26z"/>
  <path d="m191.39 48.507c1.07 2.437-2.818 2.197-3.102 1.17-1.07-2.437 2.81-2.197 3.1-1.17z" fill="#fff"/>
  <path d="m190.35,143.26c1.401,5.68-2.518,5.34-2.068,9.943-4.05-.293-7.306.312-10.856.585-.687-4.459-.087-6.469 1.551-9.357 3.11-1.16 7.11-1.32 11.38-1.16z"/>
  <path d="m189.84,122.2c-6.269-.403-11.219,1.45-12.407,8.189-2.129-.905-2.431-3.877-4.135-5.264 1.43-7.29 12.8-9.47 16.54-2.93z"/>
  <path d="m186.22,27.45c-2.306,5.97-11.192,4.496-16.543,7.019v-3.509c5.75-.9 10.38-3.063 16.54-3.51z"/>
  <path d="m185.18,89.45v4.679c-2.322-.288-3.874.297-5.687.585v-4.679c1.82-.289 3.37-.872 5.69-.585z"/>
  <path d="m183.63,23.356c-3.226-.335-5.051.914-7.755,1.169 .146-.944-.489-1.007-.517-1.755 1.12-2.632 4.542-2.66 7.754-2.925-.37,1.79.9,1.722.52,3.511z"/>
  <path d="m183.12,52.016c-.623,2.219-4.398.874-6.204,1.755v-5.264c1.629.054 3.9-2.172 5.17-.585 .728,2.577-1.7,1.584-3.101,1.755-.51,2.9 3.26.982 4.13,2.339z"/>
  <path d="m175.36,132.73c-2.232,2.934-3.145,7.361-3.619,12.284-4.278-.035-1.078-8.529-2.068-12.284 1.57-.79 4.13-.79 5.69,0z"/>
  <path d="m174.33,54.356c-2.691-.317-3.832,1.123-6.203,1.17-.365-1.927-.831-3.741-1.034-5.849 2.481-.117 3.787-1.566 6.721-1.17-.18,2.339.91,3.246.51,5.849z"/>
  <path d="m163.47,26.281c.146-.945-.489-1.007-.517-1.755 1.09-2.47 4.097-2.773 7.238-2.924 3.24,4.91-3.86,3.362-6.72,4.679z"/>
  <path d="m167.09,278.96c-.846-4.695-1.049-10.121-1.034-15.791h3.101c.74,6.65.59,11.81-2.07,15.79z"/>
  <path d="m168.64,191.22c-3.855-.123-1.359-7.432-2.068-11.113 3.7,1.29 2.22,6.57 2.07,11.11z"/>
  <path d="m169.16,195.32c-.911,5.012.492,12.645-2.067,15.793-3.827-2.207.168-9.648-1.034-14.623 1.51.15 1.58-1.33 3.1-1.17z"/>
  <path d="m167.09,32.13c-4.281,14.264 1.533,39.947-3.619,53.226h-2.584c-.511-3.893.49-6.074 2.067-7.604v-19.301c-.385-1.32-2.9-.229-4.136-.586-.332,6.225.893,10.689.518,16.963-4.574-.302-7.927.779-11.891,1.17 .323-4.655-.898-7.562-.517-12.284 1.257-.722 3.355-.493 3.619-2.339 .654-2.301-1.219-1.741-2.585-1.755 .366-2.169-.883-2.51-.517-4.68 2.481-.118 3.786-1.565 6.721-1.169 .498,2.708-2.139,1.869-3.102,2.925 .223,1.308 2.548.237 3.619.585-.36,2.942.877,4.077.517,7.02h-3.102v8.187c.885,1.339 3.946.216 5.687.586-.748-7.343-1.611-14.556-2.068-22.227h7.237c1.2-3.321.177-9.158.517-13.453-.476-1.021-1.616-1.291-3.102-1.169 .75-4.298 3.47-2.743 6.71-4.095zm-8.27,22.81c.742.989 4.514.462 4.653-1.169-1.43.525-4.85-1.203-4.65,1.169z"/>
  <path d="m164.5,153.79c-4.996.196-7.382,3.346-12.924,2.925-.436-2.822-.708-5.828-1.034-8.773 3.669-.333 7.178-.849 11.373-.585-.776-4.386.062-10.599-2.584-12.867 .268-2.037 3.106-1.165 2.584-4.096-1.12-5.868-7.107-4.664-11.373-2.924-.333,2.354.672,6.22-.517,7.604h-1.551c-2.221-.995.279-7.334-3.618-6.434 .607-8.861 13.498-8.25 17.06-2.924 1.298-4.323-.259-7.023-2.068-9.359-6.467-.297-11.212,1.353-17.06,1.755-.646,4.535 1.317,12.02-1.034,14.623-3.458-2.131-.634-11.371-1.551-16.377 6.634.065 13.965-4.779 19.645-3.509 6.949,1.553 4.949,10.146 5.17,19.887 .455,1.88-1.704.803-1.551,2.34 .27,6.31.75,12.4 1.02,18.71z"/>
  <path d="m163.47,53.771c-.139,1.631-3.912,2.159-4.653,1.169-.2-2.372 3.22-.644 4.65-1.169z" fill="#fff"/>
  <path d="m160.37,294.17h-13.958c5.709-5.625-2.944-23.594 3.619-28.076-.59-2.258-2.228-3.328-2.585-5.85 1.197-1.959 2.455-3.85 3.619-5.85-4.605-1.492-6.549,3.105-8.271,2.926-1.065-5.199 5.084-6.803 8.788-5.85 5.703,1.469 6.597,10.135 6.204,18.133h2.584c.861-6.438-.869-15-1.034-22.227-6.61,1.295-18.134-2.969-20.679,2.926-.826-1.602-1.064-3.865-1.033-6.436h22.229c1.57,14.57 4.25,37.16.52,50.31z"/>
  <path d="m161.92,222.22h-12.407c.897-8.561-2.732-19.344 1.551-24.566 .531-1.965-1.608-.91-2.585-1.17v-7.02c-3.863-.082-2.699,5.527-6.203,5.85-1.667-6.416 10.968-15.535 16.026-6.434-.307-2.771-.423-5.76-1.551-7.604h-15.509c-1.482,3.197.259,10.041-2.067,12.283-3.361-.877-.703-8.564-1.55-12.283 3.222-3.26 22.428-5.633 24.297.584 2.95,9.83-2.2,28.9-.01,40.36z"/>
  <path d="m160.89,87.696c.375,1.789-.893,1.72-.518,3.509-6.932-.626-13.627,2.125-19.128,1.17-.863-3.6 2.574-1.939 4.137-2.34 4.192-1.076 8.716-2.132 13.958-2.339h1.55z"/>
  <path d="m160.37,229.83c-3.544.891-3.299-2.506-4.136-4.68h3.619c-.36,2.17.89,2.51.52,4.68z"/>
  <path d="m159.85,28.62c-3.225-.334-5.05.914-7.754,1.17 .146-.945-.488-1.007-.517-1.754 1.12-2.632 4.542-2.66 7.755-2.924-.38,1.787.89,1.719.51,3.508z"/>
  <path d="m157.27 35.055v2.338c-5.034-1.059-10.754 3.955-13.441 0 3.73-1.63 8.38-2.215 13.44-2.338z"/>
  <path d="m150.03,30.375c-3.225-.335-5.051.915-7.754,1.169 .146-.944-.489-1.007-.517-1.754 1.12-2.633 4.542-2.66 7.754-2.925-.37,1.788.9,1.72.52,3.51z"/>
  <path d="m149,226.32c-2.077,1.354-6.369.203-9.305.586-3.655-5.031-1.958-19.229-1.552-26.906h2.069c2.784,6.131-.431,15.459.517,23.396 2.61,1.12 6.91.34 8.26,2.92z"/>
  <path d="m146.93,59.62v2.925h-6.721v-5.849c1.792-.253 5.337-1.623 6.203.585-.07,1.675-3.548-.506-3.618,1.17-.31,2.305 2.84.687 4.14,1.169z"/>
  <path d="m146.93,138c-.634,2.987-3.588,3.35-4.653,5.85-.705,5.052.175,11.895-2.068,15.207-.661-6.017-1.536-17.332 1.033-21.641 1.9.18 4.58-.51 5.69.58z"/>
  <path d="m140.21,265.51c.003,7.217.624,15.133-2.069,19.301-.885-4.906-.828-13.799 0-18.717 .93.07 1.09-.71 2.07-.58z"/>
  <path d="m139.17,33.884c-3.225-.334-5.051.914-7.754,1.171 .146-.945-.489-1.007-.518-1.756 1.186-2.559 4.36-2.866 7.755-2.924-.38,1.789.89,1.72.51,3.509z"/>
  <path d="m132.45,223.39c-3.382-.316-5.885.361-8.789.586-.632-9.812 1.301-22.529-1.034-30.416-4.206-1.055-.577,6.756-5.169,5.264-1.673-2.021 1.598-8.236 3.619-9.943 3.548-.115 6.192.793 8.789,1.756 .69-1.201-1.61-4.006-2.068-5.85h-13.958c.03,6.664-.166,13.07-1.034,18.717-2.781-.99-1.55-6.207-1.55-9.943v-11.113c6.454-.146 13.67-2.416 20.162-.586 2.27,11.66.45,27.95 1.03,41.52z"/>
  <path d="m129.87,225.73c-.328,1.969.666,5.432-.517,6.434-2.335-.283-1.271-4.412-2.068-6.434h2.59z"/>
  <path d="m127.8,99.394v5.263h-4.653v-4.679c1.7-.028 2.57-.99 4.65-.587z"/>
  <path d="m126.77,64.884c-2.201-.346-3.419.421-5.17.585v-4.68c1.702-.025 2.574-.987 4.653-.584-.11,1.883.91,2.475.52,4.679z"/>
  <path d="m125.73 162.56c-1.495 2.412-5.654 4.899-9.305 2.925v-1.17c1.47-2.44 5.91-1.5 9.31-1.75z"/>
  <path d="m123.15,145.02c-1.138,1.05-3.684.51-5.169,1.17-.383,4.634 1.119,11.402-1.551,13.452-1.202-4.294-.175-11.11-.517-16.378 2.74-1.03 6.34-.91 7.24,1.76z"/>
  <path d="m121.08,226.32c-2.882,1.223-5.654,2.572-8.789,3.51 .375-1.789-.891-1.721-.517-3.51h9.31z"/>
  <path d="m119.53,62.544v4.679c-1.948-.45-2.472.714-4.136.585 .277-2.263-.923-2.855-.517-5.264h4.66z"/>
  <path d="m119.01,202.34c.415,2.029-.771,2.248-.517,4.094h-2.585v-4.094h3.11z"/>
  <path d="m113.84,223.39h-1.551c-2.048-3.576-.823-13.344.517-16.963 1.64,3.8 1.89,12.29 1.03,16.96z"/>
  <path d="m113.33,267.26c-.179,5.258.916,11.955-2.068,14.039-1.201-3.518-.177-9.551-.518-14.039h2.59z"/>
  <path d="m109.19,224.56c-2.988-.262-5.297.246-7.754.584-.794-9.045.019-19.908-2.068-27.49-3.698-.285-2.436,5.043-3.619,7.604-3.696-1.158-2.202-10.758 0-12.281 2.076-.576 4.536-.717 7.237-.586-.386-2.293-2.017-3.178-2.585-5.264-3.339-.316-7.837.678-10.339-.586 4.555-3.156 11.118-.701 17.577-1.17 .48,13.11 1.1,26.06 1.55,39.2z"/>
  <path d="m108.16,97.639c.375,1.79-.893,1.721-.518,3.509-5.714.748-9.73,3.419-14.992,4.679 1.294-7.115 9.752-6.129 15.512-8.191z"/>
  <path d="m106.6,72.487v14.039c-1.514-.153-1.589,1.322-3.102,1.17v-12.868c-5.662-.362-.3,11.749-3.619,14.037-1.97-3.425-1.201-9.949-1.551-15.208 2.83-.311 4.97-1.399 8.27-1.17z"/>
  <path d="m105.57,227.49v6.434h-2.585c.234-2.799-.374-4.646-1.551-5.85 .39-1.32 2.9-.23 4.14-.58z"/>
  <path d="m101.44,66.638v4.095h-3.102v-3.509c1.213.013 1.517-1.008 3.102-.586z"/>
  <path d="m99.884,228.07c-2.117,1.701-4.212,3.424-8.271,2.926-.375-1.789.892-1.721.517-3.51 2.987-.26 5.296.24 7.754.58z"/>
  <path d="m99.367,145.02v3.508c-1.666-.26-2.801-1.119-4.653-1.169-1.197,2.544-.179,7.596-.517,11.113-1.58-.423-1.884.598-3.102.585 .254-4.977.854-9.562 1.034-14.622 2.819-.27 4.248,1.03 7.238.58z"/>
  <path d="m96.265,72.487c-1.58-.422-1.884.599-3.102.586v-3.51c2.3-.458 3.305.551 3.102,2.924z"/>
  <path d="m93.681,140.92h-1.034c-1.917-.194-1.137-6.48-.517-7.603h1.034c1.916.19 1.137,6.48.517,7.6z"/>
  <path d="m92.129,270.19v19.301c-1.678-.338-2.405.398-3.618.584-.357-7.227.872-12.658.516-19.885 1.035.01 2.069.01 3.102.01z"/>
  <path d="m89.027,105.83c-2.871-1.622-1.551-6.833-1.551-9.943 0-12.212.875-25.475.517-38.019-5.984-1.299-8.879,6.438-12.924,3.51 .103-2.633 5.177-5.15 9.305-5.849 1.897-.321 4.178.242 6.204,0-.995,16.462 3.892,38.095-1.551,50.301z"/>
  <path d="m90.579,225.73c-2.849-.352-1.387-5.25-1.551-8.189-.229-4.125-1.754-9.553.517-11.697 2.869.719 1.404,6.449 1.551,9.943 .151,3.61 1.836,8.2-.517,9.95z"/>
  <path d="m91.096,201.17c-1.461-.482-1.339.824-2.584.586-.358-4.109.874-6.42.516-10.529 2.198,1.6 1.734,6.22 2.068,9.94z"/>
  <path d="m86.442,75.998h-2.068c.176-1.814-1.197-2.795 0-4.095 2.141-.276 1.374,2.735 2.068,4.095z"/>
  <path d="m85.409,105.24c-1.35,4.906-7.374,4.526-10.856,7.018 .253-1.846-.932-2.065-.518-4.094 3.868-.89 7.16-2.43 11.374-2.93z"/>
  <path d="m84.375,135.07c-3.182.885-7.615.353-9.305,2.925-.022-1.926-.873-2.911-.517-5.265 2.704-.255 4.529-1.504 7.754-1.169 .852.98 1.123,2.62 2.068,3.5z" fill="#fff"/>
  <path d="m83.858,49.091c.414,2.03-.77,2.249-.517,4.095-7.262-.807-10.016,3.487-14.993,5.265-1.197-1.301.176-2.282 0-4.095 4.064,1.284 3.354-2.835 5.169-4.095 2.564-.755 2.54,1.416 4.653,1.17 1.121.098.233-2.074.517-2.924 2.202-.346 3.42.421 5.171.584z"/>
  <path d="m83.341,111.09v4.679h-4.653v-4.095c1.702-.03 2.574-.99 4.653-.59z"/>
  <path d="m82.307,229.83c-.618,2.225 1.476,7.518-1.551,7.02-2.039.357-.609-3.211-1.034-4.68-4.59-1.295-3.682,3.633-8.271,2.34 .366-2.17-.883-2.51-.518-4.68h11.374z"/>
  <path d="m81.79,77.752c-1.58-.423-1.884.597-3.102.584-.337-2.721.182-4.474 2.584-4.094-.011,1.379.892,1.723.518,3.51z"/>
  <path d="m80.239,169.58c.375,1.788-.892,1.721-.517,3.509-2.588-.394-4.001.542-6.204.585v-4.094c2.241-.01 4.481-.01 6.721-.01z"/>
  <path d="m76.62,209.94c-.385,1.318-2.899.229-4.135.584-.813,5.711 1.953,15.469-2.068,17.547-.833-6.465-1.028-13.652-1.034-21.055 2.249-.01 4.651-.193 6.204.584 .07,1.09.339,1.96 1.033,2.34z"/>
  <path d="m76.103,77.167v2.924c-2.139.471-2.653-.897-2.585-2.924h2.585z"/>
  <path d="m70.417,293c-.531-7.232-1.533-20.059.516-26.322 1.425,2.838 1.354,8.627 1.552,13.455 .204,4.95 1.066,11.1-2.068,12.86z"/>
  <path d="m67.832,78.336v3.51c-2.219-.562-3.08.414-2.584,2.924-1.366.015-3.24-.546-2.585,1.754h-5.169c-.212-1.409.944-1.271.516-2.924h3.102c.427-1.653-.729-1.515-.517-2.924 1.862.158 3.576.146 3.102-2.34h4.135z"/>
  <path d="m65.764,56.11c-.375,1.332-.461,2.988-1.034,4.095-4.813-1.547-3.755,3.55-7.237,3.509-1.442-2.376-1.581-3.652 0-5.849 4.364,1.235 4.569-2.239 8.271-1.755z"/>
  <path d="m64.213,173.09v3.51c-2.692-.315-3.832,1.123-6.204,1.169 .375-1.789-.891-1.72-.516-3.509 2.481-.12 3.785-1.56 6.72-1.17z"/>
  <path d="m62.662,193.56v4.094c-4.043.301-4.439,4.727-7.238,6.436-2.283-.928-.438-6.523-1.034-9.359 2.535-.64 5.917-.32 8.272-1.17z" fill="#fff"/>
  <path d="m62.662,254.98c-.002,5.262-2.677,7.5-4.136,11.113-.343,10.916.884,20.057.517,31-13.684.342-28.689,1.541-41.358,1.17-.98-12.734-1.321-26.191-2.068-39.188h5.687v34.508c1.373-.004 2.952.223 3.619-.584 1.205-9.945.172-22.42.517-33.34h4.652v33.34c.717,1.334 3.599.219 5.17.584-.355-12.686.873-23.578.518-36.264 2.711.441 7.161-1.082 8.271,1.17-3.413.82-3.822,5.033-4.653,8.773 .55,1.328 3.25.223 4.653.586v24.564c.717,1.336 3.598.219 5.169.586-.278-12.553-.756-24.881-1.034-37.434 1.644-.09 2.274-1.326 4.136-1.172 .344,12.09-.689,25.736.517,36.852 2.772-1.361 1.551-8.412 1.551-12.869v-14.037c1.566-1.932 4.169-2.691 5.169-5.264-2.663-.869-2.223,1.773-4.652,1.168v-5.264c2.586-.01 5.171-.01 7.755-.01zm-22.23,16.38c-.114-.457-.433-.682-1.034-.586 .343,6.438-.686,14.424.517,19.887 2.263-3.34 2.346-15.21.517-19.3z" fill="#fff"/>
  <path d="m60.594,154.96c-4.014,1.698-.91,11.449-3.102,15.208-2.595-.135-1.66-5.606-1.551-8.774 .115-3.349-.21-7.293 1.551-8.188 2-.51 1.84,1.42 3.102,1.75z"/>
  <path d="m54.908,66.054c-1.118.49-1.763,1.515-3.619,1.17 .375-1.79-.893-1.721-.518-3.51 1.552-1.708 4.787-1.498 4.137,2.34z"/>
  <path d="m41.466,91.205c.189-4.699.236-9.236-2.584-10.528 3.519-2.063 6.043-5.252 11.89-4.679-.339,3.71.682,8.96-.517,11.698-2.817,1.296-5.632,2.596-8.789,3.509z" fill="#fff"/>
  <path d="m50.771,117.52c-3.116.017-6.365.183-8.788-.584 .115-7.539-.657-14.076-1.034-21.058 1.8-3.812 6.531-4.31 8.789-7.604 2.395,7.43.357,19.872 1.033,29.242z" fill="#fff"/>
  <path d="m50.771,123.96c-2.026,1.411-3.881,3.018-6.203,4.094-.52-.776-.489-2.175-1.551-2.338 1.873-1.34 5.592-4.32 7.754-1.75z"/>
  <path d="m46.636 136.83v2.341h-4.137c1.082-1.12 2.469-1.89 4.137-2.34z" fill="#fff"/>
  <path d="m43.534 123.37c-3.074 1.608-5.759 6.061-9.822 4.679 2.679-2.05 5.174-6.72 9.822-4.68z"/>
  <path d="m39.915,290.66c-1.203-5.463-.174-13.449-.517-19.887 .601-.096.919.129 1.034.586 1.829,4.09 1.746,15.96-.517,19.3z"/>
  <path d="m40.949,147.94c-.542,13.425 1.218,29.453-4.135,37.433-3.524-.477-5.14,1.205-7.755,1.756 .791-4.76 6.771-3.648 8.271-7.604-3.525-1.066-1.331-6.039-1.55-9.944-.411-2.061-2.43,1.771-2.585,0-.139-5.941 1.91-13.178-1.55-16.378 2.711-2.2 5.142-4.72 9.304-5.27z"/>
  <path d="m20.271,245.03c-.114-1.883.915-2.475.517-4.68 2.109-.148 2.553-2.18 5.17-1.754 1.191,3.71-2.191,6.2-5.687,6.43z"/>
  <path d="m25.957,186.54c.415,2.029-.77,2.25-.517,4.096-1.607-.521-2.408-1.955-4.135-2.342 1.43-.72 2.767-1.55 4.652-1.76z"/>
  <path d="m19.236,188.3c.844.807-.362,4.236-.516,5.85-1.232-.945-2.279-2.102-3.619-2.924 1.342-1.02 4.243-.28 4.135-2.93z"/>
  <path d="m17.168,241.52c-.186,2.326-.556,4.441-2.068,5.266-2.899-1.57-.73-5.27 2.068-5.27z"/>
  <path d="m11.481,233.34c-1.367-5.863-1.154-13.512-1.551-20.471 1.294-.488 2.03-1.604 3.619-1.756-.967,7.62 3.169,18.72-2.068,22.23z" fill="#fff"/>
  <path d="m14.066,297.09h-3.618c.64-10.67-1.596-21.197 0-31 3.751,2.35 2.338,9.768 2.584,15.209 .251,5.52.825,11.21 1.034,15.79z" fill="#fff"/>
  <path d="m14.583,147.94c21.754-13.896 47.847-22.413 74.961-30.416 36.631-10.81 72.863-19.911 118.39-20.471-10.327,1.99-18.571,4.082-29.984,4.679-23.024,1.206-45.314,9.369-66.689,14.623-21.92,5.389-42.789,11.875-62.554,19.302 4.054.177 10.633-.514 16.026-2.339 1.674-.567 3.163-2.315 4.653-2.926 5.973-2.444 11.443-.46 18.611-1.754 6.351-1.147 13.876-5.708 21.712-3.51 4.219,14.781-.967,31.315-1.034,46.792 7.626-1.119 14.889-2.651 22.747-3.509v-8.189c-1.223-1.345-4.64-.208-6.721-.584 .292-2.671-.917-3.643-.517-6.435 3.551-.271 6.806-.878 10.856-.585-1.31-7.319 1.197-21.295-4.653-22.227-3.697-.589-7.324,5.197-5.687,11.698-10.705-3.59-4.353-20.262 7.237-14.038 1.179-.81.193-4.07.518-5.849-6.163-.147-10.451,1.826-16.026,2.341 .004,5.659.475,11.844-1.551,15.207-.846-5.085-1.048-10.901-1.034-16.961 7.589-1.357 14.083-3.954 22.229-4.68-.365,12.891.862,23.981.517,36.849 .531,1.966-1.607.911-2.585,1.17 .434,3.799.3,8.239 1.034,11.698 7.474-.708 14.517-1.902 22.23-2.34 1.477-1.129-2.131-7.025.517-7.603 3.458-.6 1.807,4.582 2.584,7.018 35.308-2.205 73.988-2.408 111.15-5.849 19.805-1.834 42.963,0 65.137,0 23.631,0 47.881-.462 68.24.585 10.08.517 20.09-2.617 29.469,2.924-5.777.087-11.678,1.707-17.578,1.171-2.65-.242-5.309-2.041-7.236-2.341-14.266-2.221-33.861,0-52.73,0-54.031,0-100.84,2.662-151.48,5.265-34.177,1.756-65.777,7.628-96.673,11.699-7.903,1.041-15.217,1.178-22.747,2.924-6.916,1.604-13.825,3.838-20.678,5.264-13.835,2.881-27.583,4.504-39.291,9.943-3.13,1.455-8.236,2.621-8.789,7.605 16.349-9.773 42.302-13.752 67.206-15.795 4.476,9.863.568,25.977 1.551,39.189h-6.721c-.135-8.312-2.581-18.35 1.551-23.395-.595-2.059-2.932-2.143-3.619-4.096-1.142.072-.219,2.48-.517,3.51-1.607-.521-2.408-1.955-4.135-2.34 .66-4.127 3.817-5.43 7.237-6.434-.002-5.684-5.509-2.674-8.789-2.34-1.217.666 1.85,6.92-.516,7.018-3.749,1.123.646-6.969-3.102-5.848-3.302,1.596-1.161,6.797-1.034,9.943 .339,8.432-.047,18.332.517,26.32 .49,2.113-2.036.816-3.102,1.17v5.85c-2.169-1.445-6.723-.193-8.271-2.34-.666-3.873 5.299-.244 6.204-2.34 .967-2.654-2.054-.797-1.55-2.924-1.096-4.611 2.362-14.373-2.069-15.209-3.265,2.789 3.021,13.898-2.067,15.209-2.387-5.488-.364-15.967-1.034-23.396 .233-1.629-2.817.459-2.585-1.17v-9.359c-6.394-.656-3.325,14.334-3.102,19.887 .239,5.947-.185,11.621 0,16.377-2.373.541-2.498-1.463-4.652-1.168 .956,3.217 5.799,5.125 3.619,9.941-3.953.379-1.481-6.512-5.688-5.848 1.803-9.488.491-19.746.518-30.414-5.406,4.021.961,21.363-3.619,26.32-.871-9.566-1.386-23.793 1.551-31.002-1.638-2.08-4.721-.727-6.72,0 5,10.66-.421,29.271 1.033,41.529-3.298-1.625-3.08-1.791-5.687.584-1.964-4.113 1.198-4.002 3.619-4.678 .147-2.506-1.85-2.586-3.619-2.926 4.256-6.688-1.392-24.58 3.619-30.414-1.726-.957-7.253-1.203-8.271.586-.941,3.207 2.154,1.852 2.067,4.092-1.213,9.352 2.169,23.902-4.136,27.492-2.71-7.268.291-20.996-1.55-29.246-6.064,1.668-3.809,12.633-4.136,21.057-.139,3.584-.936,6.988-.517,9.943-2.931.314-4.008.695-6.203-.584-.357,5.277.874,8.76.517,14.037 24.562-4.305 49.172-10.486 75.477-12.283 12.171-.83 24.637-2.279 37.222-2.924 49.258-2.531 100.81-3.691 149.41-8.189 26.934-2.494 55.793.857 84.783-.584 28.578-1.422 57.207-.963 82.197-.586-1.066-1.521-3.342-1.678-4.652-2.924 .373-7.051-.852-12.295-.518-19.301 5.324.02 2.33,9.451 3.104,14.621 1.389,3.525 3.744,2.676 4.652,5.85 1.111,3.887-3.215,8.295 1.033,10.527-7.383,6.428-4.111,22.004.518,28.66 2.061-5.061-1.686-11.084-1.551-14.037 .635-.256 1.061-.748 1.033-1.754 3.799-1.639 8.537.387 10.34,2.924 .238,12.793.947,25.055 1.033,38.02-2.959,4.449-10.637,3.561-17.576,3.508 1.154-3.178 5.957-2.229 9.822-2.34 3.695-14.98-6.611-21.689-9.305-32.754-1.273-5.23-2.357-19.529 2.066-21.055-.893-2.74-2.123-4.705-.516-7.605-145.88-.115-288.19,3.832-416.16,23.98 7.082,3.65 14.067.275 21.196-.584 7.241-.873 14.712.197 22.229-.586 21.555-2.242 43.798-6.002 65.656-6.434-.348,16.381.88,30.98.517,47.377h-10.856c1.346-12.123-2.42-30.031 4.135-36.264-3.972-6.686-6.798,2.551-8.789,5.264-5.25-8.742 10.575-14.266 12.408-5.264v-8.188c-5.024-.227-9.491.18-13.958.584-2.635,1.699-1.53,7.627-2.584,11.113-3.254-.607-.797-7.678-2.585-9.943h-2.584c-.835,14.068-1.027,28.863-1.034,43.867h-7.238v-23.395c-.31-1.521.208-2.105 1.551-1.756-2.179-2.871-3.714-10.109 2.068-11.697-4.991-3.342-8.333,1.229-10.339,4.678-1.052-5.49 4.753-7.729 9.305-8.773-2.492-1.049-8.52-1.07-10.339.586-1.061,3.09-.294,8.244-1.551,11.113-1.935-2.49-1.158-8.049-1.551-12.283-1.678-.34-2.405.398-3.618.584-1.459,12.777-.902,27.836-1.551,41.529h-6.203c1.109-8.383-.387-18.283 1.033-25.736 .604-3.164 3.329-5.275 1.551-8.189-.789-1.838-3.964-.973-6.204-1.168 .913-3.391 5.846-3.559 8.272-3.51 .375-4.908-5.921-2.27-9.305-2.926-1.805,2.248.059,8.646-2.585,9.945-2.935-.902 1.143-6.268-1.034-8.191-4.517-.473-2.43,8.863-2.585,12.869-.365,9.389-1.295,20.699-1.55,29.246 54.723,2.377 115.46,2.275 171.12-.586 19.732-1.014 40.889-.168 61.004-1.168 38.387-1.91 76.479-3.896 113.73-2.342-76.463,5.832-155.51,3.639-235.22,7.604-45.257,2.252-90.33-1.641-134.41,1.756 41.653,2.904 83.463,5.963 128.21,8.188 25.465,1.268 60.062-2.158 87.886,0-2.523-.195.029,1.441 2.584.586-4.516,1.512-7.834-1.232-11.373,0-48.642,4.158-101.65,6.518-152.51,2.34-23.762-1.953-49.952-1.832-71.859-5.264-6.635-1.041-13.409-4.203-20.162-4.094-4.767-8.236-.195-22.564 1.551-32.17-1.072-2.111-4.484,1.086-5.17-.586-.74-5.906 4.229-5.354 2.585-12.283-.564-2.068-2.538,2.068-3.102,0-.768-4.377 2.773-3.881 3.102-7.02 .49-4.164-.991-8.281-.518-12.281 .244-2.066 1.709-3.424 2.068-5.266 1.011-5.195 1.355-13.6.517-18.131-.411-2.225-2.931-4.354-3.102-7.02-.148-2.318 1.56-4.232 2.068-7.018 .999-5.477.203-15.559.517-23.396 .162-4.028.932-7.539.517-9.944-.612-3.548-3.163-4.922-2.067-8.189 .786-2.349 3.116-2.984 5.686-4.094-.417-2.062-3.155-1.499-3.101-4.094 1.156-9.222-.901-22.077 3.101-28.076-2.56-2.951-2.372-9.014-2.584-14.623 .803-2.467-2.87.128-2.068-2.339 5.013-14.168 15.304-24.58 24.815-34.51 9.595-10.018 21.773-16.578 33.086-24.565 6.721,1.223 9.853-4.253 15.509-2.339 2.712-.05 2.02-3.954 4.652-4.095 6.059.943 8.153,6.373 12.924,8.773 4.922-2.425 14.07-.068 16.027-5.849 10.766,1.848 12.99-5.97 11.89-17.547 18.407-8.691 39.644-11.939 61.52-15.792 47.312-8.332 100.23-14.11 156.13-9.358 1.658,3.852-1.086,4.587-2.584,6.433 1.734,3.498 4.793,5.496 7.754,7.604 6.084,15.732 10.672,33.158 16.025,49.717 4.105,2.959 9.277,4.71 11.891,9.359 2.479,23.138 3.561,48.666 11.373,68.433h16.025c1.318-2.995 1.012-7.826 1.035-12.283 4.711-.455 8.469.168 10.855,2.341 28.957.578 50.854,9.144 67.725,23.396 5.664,10.13 4.396,28.738 5.17,47.962 1.035,25.809 1.418,50.107 2.584,74.867-6.387,3.691-14.17,5.805-21.713,8.189-1.146.846-1.367,2.742-1.551,4.678-4.73-2.965-3.102-11.232-3.102-18.717v-22.227c-.303-2.289 2.127-1.492 2.586-2.924 .186-2.744-2.715-1.998-2.586-4.68-.582-2.607 3.762.355 2.586-2.924-.41-3.242-3.963-2.926-5.172-5.264-.422-3.811-.824-7.645-1.551-11.113h-10.855c-5-3.701-2.533-15.85-3.102-24.566-.244-3.088 1.391,1.359 1.551-.586 .912-4.346-2.17-4.172-2.584-7.018-1-8.641 1.939-14.117.516-20.472-1.453-6.492-9.898-8.535-9.305-16.377-5.08-.489-9.439-1.8-14.994-1.755-1.867.554-.719-2.305-1.031-3.509h-7.756c.16-2.131-.082-3.807-.518-5.264h-5.17c-1.578,1.08.598,2.778 0,4.678-5.484-2.566-14.166-1.517-21.713-1.754-3.465-8.556-4.395-19.982-10.34-25.737 .35-1.359 2.715-.44 2.07-2.924-.766-8.494-.664-17.966-1.553-26.321-12.34-.315-23.377.847-35.152,1.17 .434-.679.682-1.568.516-2.924 3.223-3.169 10.707-1.755 16.543-1.755h17.576c-.91-9.498-3.195-17.439-11.889-18.132-3.521-14.195-12-26.966-15.51-41.528-.611-2.536-.127-5.657-1.033-8.188-1.982-5.533-9.918-6.751-8.271-14.623-6.5-3.851-21.125-2.34-33.088-2.34-64.129,0-127.3,8.443-177.84,23.396v11.698c3.833.047 7.7.133 10.856-.585 2.187,2.122 3.673,1.801 6.721,2.34 .735,2.977-2.604,1.344-4.136,1.754-.882,18.843 1.922,42.438-5.17,52.642-6.045-.016-10.66,1.587-16.026,2.34 1.418-6.001 11.708-1.962 15.509-5.265 .946-9.652 3.099-17.94 2.584-29.245-1.572-2.117-5.539,1.09-6.72-.584-1.432-5.324 3.841-3.063 6.72-3.51 .376-6.274-.849-10.737-.517-16.962-9.981-3.881-13.938,4.115-21.196,5.264v49.132c-2.079-.403-2.951.561-4.653.585-.003-9.751-.179-19.7.517-28.66-.788-2.351-4.244,1.952-4.135-1.17-.515-3.312 2.175-2.999 4.135-3.509v-13.454c-6.215-2.891-11.27,2.438-16.025,1.756-5.075-.73-6.048-6.949-10.857-8.774-1.935.345-1.6,3.259-3.102,4.094-9.789-.509-16.492,3.197-23.781,7.604-10.069,6.087-18.25,13.368-25.332,22.226 4.394,1.266 4.152-2.71 6.204-4.095 2.686-.28 3.071,4.114 5.169,1.17 3.147-1.538-3.849-2.732-.517-4.679-.415-2.225 2.444-.744 3.619-1.17 1.237-.746-.516-4.873 2.584-3.51 2.651,1.025-.215,4.951.518,7.604 5.604-6.528 16.208-7.397 23.264-12.284-.719,17.516 5.119,40.661-2.585,52.057-4.433.443-7.753,2.145-11.373,3.509-.535-3.15 5.447-3.966 8.788-4.679 .173-9.371-4.034-14.943-1.551-25.735 1.665.128 2.188-1.035 4.135-.585 .721-8.772-3.591-11.129-1.033-19.302-4.82,2.213-7.611,2.869-11.891,3.509-2.874,15.287 4.253,39.003-3.619,49.132-3.38.661-5.973,2.211-8.789,3.509-2.455-.537-4.16-1.921-7.238-1.754 .625-7.906-3.144-18.931.518-24.566 2.164.087.205,4.837 2.068,5.265 1.35-1.201.782-4.574 1.55-6.434-1.401-1.729-3.262-2.938-3.102-6.434-2.804.336-3.929,2.574-6.203,3.51-.664,10.037 1.258,23.597.517,33.339-.347,4.561-.902,9.62-4.653,11.114-2.078-3.733 2.179-5.32 3.102-7.604-.916-.134-2.588.59-2.067-1.17 .377-5.885-.848-9.96-.517-15.793 .62-3.234-2.676-2.04-2.584-4.679 1.954-1.699 2.897-7.628 1.551-11.114-3.549,1.68-2.896,8.3-3.102,13.453-.349,8.682 1.349,19.519-3.102,23.396-7.124-3.557-6.114-19.708-.517-23.981-5.761-.278-5.004,6.817-8.272,9.358 2.633,5.924 2.259,19.388-1.033,23.981 4.154-2.318 8.11-4.861 11.89-7.603 .131,1.142-2.973,3.638-4.652,4.679 1.556,3.08-.775,5.72-3.117,8.74zm463.21,51.47v7.605c1.516-.152 1.59,1.322 3.104,1.168 .07-4.18.51-8.77-3.1-8.78zm-4.65-40.36c.188,3.724-.92,5.979-.518,9.942 2.379.038 3.355,1.663 5.168,2.341 .58-6.49-1.43-10.08-4.65-12.28zm-2.07,44.46v12.867c0,3.793-1.434,10.029 2.068,10.529-.16-6.82 3.98-20.76-2.07-23.4zm-7.76-50.31c-.061,3.969.896,6.786.518,11.113 1.854.827 2.934,2.53 4.652,3.51 .28-7.13.91-14.66-5.17-14.62zm-2.06,41.53c.383,10.68.555,21.598 1.033,32.17 1.695.42 4.451,5.225 5.17,2.924-2.41-11.31 3.63-32.18-6.2-35.09zm-11.89-21.64c1.201,4.293.176,11.111.516,16.376 2.836-.088 5.57-.061 7.756.586v-16.377c-3.02.46-6.01-2.16-8.28-.59zm7.75,23.4c-2.988.459-4.42-.848-7.238-.584v25.15h7.238c-.06-7.92.09-18.57 0-24.57zm-8.79-49.72c.693,3.698.711,8.161 1.033,12.283 2.428.763 3.387,3.187 5.686,4.094v-13.453c-2.1-1.13-4.8-1.58-6.72-2.92zm-10.34-4.68c.037,2.491.863,4.091.516,7.02 2.154.293 3.018,2.046 5.17,2.339 1.06-6.46-1.25-9.12-5.69-9.36zm-428.57,50.89c-.311-.355 3.578-.596 3.102,1.168 1.077,3.949-4.105.816-2.585,5.264 20.666-9.957 48.071-17.359 74.444-22.81-1.345-.343-3.144-7.163 0-7.019 1.187,1.191.188,4.857.518,7.019 7.055-1.181 13.802-2.712 20.679-4.094v-5.85c-5.39-2.105-6.953,6.042-10.856,1.755 3-2.455 8.336-2.268 6.721-9.943 10.241,1.279 6.422-11.657 6.721-20.472h-5.17c-1.13,2.019-1.345,4.842-1.551,6.435-3.814-1.038-5.286-4.822-4.136-9.943 2.381-1.415 5.988-2.503 9.306-1.17 .011-1.379-.891-1.723-.517-3.511-5.721-1.919-11.446,1.038-17.061,1.17-1.101,10.843-1.391,22.604-2.067,33.925-2.262.561-3.399,2.394-6.721,1.755v-15.208h-4.136c-1.675,4.733-.15,13.089-4.136,15.208-.695-5.082-.527-14.24 2.585-16.963 2.026-.631 6.367,1.355 6.72-1.17 .415-2.223-2.444-.743-3.618-1.169-.293-1.813.14-4.448-1.552-4.681-1.099,2.268-2.085,4.661-3.618,6.436-.287-5.331.792-12.204-1.552-15.208h-1.55c-2.011,10.788-1.457,24.478-3.102,35.68-1.948-.45-2.471.713-4.135.585 .309-5.694-.84-13.038 1.033-16.963-.792-3.004-4.636-2.553-7.237-3.51 .498-2.75-.332-7.004 1.551-8.188 1.599.141-.809,4.813 1.551,4.095 1.784-2.895 8.334-4.501 5.687-8.774-3.042-.506-8.032,1.825-11.891,2.341-.662,15.443 2.83,33.136-2.585,43.867-1.432-1.889-5.029-1.328-7.237-2.34-.059-3.186 4.415-1.242 5.17-3.508-2.35-7.221.5-21.927-1.034-31.585-4.846,3.485-.856,16.969-5.169,21.057-.342-8.771.593-16.097 1.034-23.982-4.097-1.123-3.705,2.829-5.687,4.096-3.335,1.686-6.199,3.904-9.822,5.265v4.679c-.37,1.588 2.438-.419 2.068,1.171 .34,8.571-.886,15.372-.517,23.979-1.599-.02-3.206,2.959-4.136,1.756-.575-9.684.649-21.402-2.068-28.661-.821,1.997-3.556,1.825-4.652,3.51 1.036.973 2.403,1.57 2.584,3.509 .435,3.794-.342,8.526-.517,12.867-.178,4.443 1.446,10.142-2.585,11.115-.861-7.02 2.522-18.841-3.619-19.887-.338,8.181.888,14.592.517,22.811h-4.653c.044,1.22-1.417,3.73-.519,4.04zm72.893-61.42c-3.226-.335-5.051.914-7.754,1.169-.356,2.354.495,3.339.517,5.265 1.69-2.572 6.124-2.04 9.305-2.925-.945-.89-1.216-2.53-2.068-3.52zm-27.916,63.17c.595,2.836-1.249,8.432 1.034,9.359 2.799-1.709 3.195-6.135 7.238-6.436v-4.094c-2.356.85-5.738.53-8.272,1.17zm.517,60.25v5.264c2.429.605 1.99-2.037 4.652-1.168-1,2.572-3.603,3.332-5.169,5.264v14.037c0,4.457 1.221,11.508-1.551,12.869-1.206-11.115-.172-24.762-.517-36.852-1.861-.154-2.492,1.082-4.136,1.172 .278,12.553.755,24.881 1.034,37.434-1.571-.367-4.453.75-5.169-.586v-24.564c-1.403-.363-4.103.742-4.653-.586 .831-3.74 1.24-7.953 4.653-8.773-1.111-2.252-5.56-.729-8.271-1.17 .355,12.686-.873,23.578-.518,36.264-1.571-.365-4.453.75-5.17-.584v-33.34h-4.652c-.344,10.92.688,23.395-.517,33.34-.667.807-2.246.58-3.619.584v-34.508h-5.687c.747,12.996 1.088,26.453 2.068,39.188 12.669.371 27.674-.828 41.358-1.17 .367-10.943-.86-20.084-.517-31 1.458-3.613 4.134-5.852 4.136-11.113-2.585.01-5.17.01-7.755.01zm-5.17-166.7c-2.258,3.294-6.989,3.792-8.789,7.604 .377,6.981 1.149,13.519 1.034,21.058 2.423.767 5.672.601 8.788.584-.676-9.37 1.362-21.812-1.033-29.24zm.516-.584c1.199-2.738.178-7.988.517-11.698-5.847-.573-8.371,2.616-11.89,4.679 2.82,1.292 2.773,5.829 2.584,10.528 3.158-.913 5.973-2.213 8.789-3.509zm-7.754,51.474h4.137v-2.341c-1.669.45-3.056,1.22-4.137,2.34zm-28.95,71.94c-1.589.152-2.325,1.268-3.619,1.756 .397,6.959.184,14.607 1.551,20.471 5.236-3.51 1.1-14.61 2.068-22.23zm-.517,70.19c-.247-5.441 1.167-12.859-2.584-15.209-1.596,9.803.64,20.33 0,31h3.618c-.21-4.58-.784-10.27-1.034-15.79z"/>
  <path d="m234.81,182.45c5.799-6.576 19.789-5.983 22.746,2.924v31c-7.367-.342-13.441.781-20.162,1.17-.299-6.873-.684-13.654-1.035-20.471 .123-1.814 1.836-1.826 3.102-2.34-2.133-1.486-2.35-5.139-2.066-9.359-.916-1.557-2.188,1.381-3.102,1.756-.94-.55.8-2.95.52-4.68z"/>
  <path d="m204.31,128.05c-11.585-14.778 19.484-21.48 19.127-4.679-6.762-10.059-18.451-3.709-19.127,8.773h-5.17v-4.095c1.73.01 3.45.01 5.17.01z"/>
  <path d="m222.41,291.24c-7.067-.389-15.508.777-21.713-.586 .271-2.227 3.044-1.625 5.17-1.754 .383-8.037-.833-14.264-.518-22.229-.796-2.461 2.676-.092 2.585-1.754 .828-3.275-1.444-3.045-2.585-4.094 .012-2.912.805-4.939 1.552-7.02-2.967.154-3.928,2.574-5.687,4.096 .871-5.777 6.206-11.584 12.924-9.943 6.367,1.553 5.742,10.094 8.789,15.791 .33,9.74-.89,17.71-.52,27.48z"/>
  <path d="m9.931,188.88h4.653c.371-8.219-.855-14.63-.517-22.811 6.142,1.046 2.758,12.868 3.619,19.887 4.031-.973 2.407-6.672 2.585-11.115 .174-4.341.951-9.073.517-12.867-.182-1.938-1.548-2.536-2.584-3.509 1.096-1.685 3.832-1.513 4.652-3.51 2.718,7.259 1.494,18.977 2.068,28.661 .93,1.203 2.537-1.775 4.136-1.756-.37-8.607.856-15.408.517-23.979 .37-1.59-2.438.417-2.068-1.171v-4.679c3.623-1.36 6.487-3.579 9.822-5.265 1.982-1.267 1.59-5.219 5.687-4.096-.441,7.886-1.376,15.212-1.034,23.982 4.313-4.088.323-17.571 5.169-21.057 1.534,9.658-1.316,24.364 1.034,31.585-.755,2.266-5.229.323-5.17,3.508 2.208,1.012 5.806.451 7.237,2.34 5.415-10.731 1.923-28.423 2.585-43.867 3.859-.516 8.849-2.847 11.891-2.341 2.648,4.273-3.902,5.88-5.687,8.774-2.359.719.048-3.954-1.551-4.095-1.883,1.185-1.053,5.438-1.551,8.188 2.601.957 6.445.506 7.237,3.51-1.874,3.925-.724,11.269-1.033,16.963 1.665.128 2.187-1.035 4.135-.585 1.646-11.202 1.091-24.892 3.102-35.68h1.55c2.343,3.004 1.265,9.877 1.552,15.208 1.533-1.774 2.52-4.168 3.618-6.436 1.692.232 1.259,2.867 1.552,4.681 1.174.426 4.033-1.054 3.618,1.169-.353,2.525-4.693.539-6.72,1.17-3.112,2.723-3.28,11.881-2.585,16.963 3.985-2.119 2.461-10.475 4.136-15.208h4.136v15.208c3.322.639 4.458-1.194 6.721-1.755 .677-11.321.967-23.082 2.067-33.925 5.614-.132 11.34-3.089 17.061-1.17-.374,1.788.528,2.132.517,3.511-3.318-1.333-6.925-.245-9.306,1.17-1.149,5.121.322,8.905 4.136,9.943 .206-1.593.421-4.416 1.551-6.435h5.17c-.298,8.814 3.521,21.751-6.721,20.472 1.616,7.676-3.72,7.488-6.721,9.943 3.903,4.287 5.467-3.86 10.856-1.755v5.85c-6.877,1.382-13.624,2.913-20.679,4.094-.33-2.161.669-5.827-.518-7.019-3.144-.145-1.345,6.676 0,7.019-26.373,5.451-53.778,12.853-74.444,22.81-1.52-4.447 3.663-1.314 2.585-5.264 .476-1.764-3.413-1.523-3.102-1.168-.906-.29.555-2.8.509-4.08zm82.198-44.45c-.18,5.06-.78,9.646-1.034,14.622 1.217.013 1.522-1.008 3.102-.585 .338-3.518-.68-8.569.517-11.113 1.852.05 2.987.909 4.653,1.169v-3.508c-2.99.46-4.419-.84-7.238-.58zm1.035-11.11h-1.034c-.62,1.122-1.399,7.408.517,7.603h1.034c.62-1.12 1.399-7.41-.517-7.6zm-19.646,36.26v4.094c2.203-.043 3.616-.979 6.204-.585-.375-1.788.892-1.721.517-3.509-2.24.01-4.48.01-6.721.01zm-16.025,4.68c-.375,1.789.891,1.721.516,3.509 2.372-.047 3.512-1.485 6.204-1.169v-3.51c-2.935-.39-4.239,1.05-6.72,1.17zm0-21.06c-1.761.896-1.437,4.84-1.551,8.188-.108,3.168-1.043,8.64 1.551,8.774 2.192-3.759-.913-13.51 3.102-15.208-1.263-.32-1.103-2.25-3.102-1.75zm-25.849,0c3.46,3.2 1.411,10.437 1.55,16.378 .155,1.771 2.175-2.061 2.585,0 .219,3.905-1.975,8.877 1.55,9.944-1.5,3.955-7.48,2.844-8.271,7.604 2.615-.551 4.231-2.232 7.755-1.756 5.354-7.98 3.594-24.008 4.135-37.433-4.161.56-6.592,3.08-9.304,5.27zm-10.339,35.1c1.728.387 2.528,1.82 4.135,2.342-.253-1.846.932-2.066.517-4.096-1.885.21-3.222,1.04-4.652,1.76zm-6.204,2.92c1.34.822 2.387,1.979 3.619,2.924 .154-1.613 1.36-5.043.516-5.85 .108,2.66-2.793,1.92-4.135,2.93z" fill="#fff"/>
 </g>
</svg>
