<?xml version="1.0" encoding="UTF-8"?>
<svg width="323.65" height="292.16" enable-background="new 0 0 323.646 292.155" viewBox="0 0 323.646 292.155" xmlns="http://www.w3.org/2000/svg">
 <g fill-rule="evenodd">
  <path d="m97.616,22.069c.484-1.247 1.805-1.658 1.598-3.596 .645-.554 2.06-.338 2.397-1.199 .59,1.926-2.455,3.663-3.994,4.795z" fill="#fff"/>
  <path d="m103.61,18.474c-.249,1.083-1.669.994-1.598,2.397h-1.998c1.05-.952 1.67-2.327 3.6-2.397z" fill="#fff"/>
  <path d="m149.16,49.238c-2.681-2.922-8.527-.944-12.785-.799 2.3-3.35 12.59-5.86 12.78.799z"/>
  <path d="m115.6,45.642c.468.064.337.729.399,1.199h-1.998c-.17-1.104 1.49-.375 1.6-1.199z" fill="#fff"/>
  <path d="m90.025,46.841c1.344-.146.666,1.731 1.198,2.397-1.235.037-1.19-1.207-1.198-2.397z"/>
  <path d="m135.57,48.439c-2.97,1.957-2.535,7.319-4.395,10.388-.44-5.364.27-9.585 4.39-10.388z"/>
  <path d="m140.77,51.635c.298-.901 2.241-.156 3.196-.4-.77.857-2.09.876-3.2.4z" fill="#fff"/>
  <path d="m140.77,54.032c.914-.846 1.416.178 2.797-.399-.18,1.783-1.81.826-2.8.399z" fill="#fff"/>
  <path d="m131.18,60.025c.646-.113.688.377 1.199.399-.36,3.15 1.505,6.041-3.596,5.594-.749-.761-.044-1.004 0-1.998-2.798.416-7.063,1.686-7.991-1.598 2.397.325 5.327-1.158 8.39.799 1.52-.206 2.04-1.425 2-3.196z"/>
  <path d="m130.38,73.21c-4.086-.309-6.336-2.454-10.388-2.797 1.13,2.6 4.259,3.199 7.991,3.196-.556,6.529-10.059,3.278-9.189-1.198 1.394,1.834 4.754,4.95 7.191,3.196-2.669-1.46-6.736-1.521-7.191-5.194-1.63-.421-2.854.532-3.196-1.598 5.82.118 13.48-1.557 14.79,4.395zm-3.2-2.398c-4.72-2.166-3.65.622 0,0z"/>
  <path d="m76.84,76.406c.806,1.149-1.789,5.613-3.596,6.792 1.166-2.297 2.393-4.533 3.596-6.792z" fill="#fff"/>
  <path d="m71.247,76.806c.966.499 1.292,1.638 1.598,2.797-.808-.657-1.594-1.336-1.598-2.797z" fill="#fff"/>
  <path d="m78.838,77.605c3.015,1.244-1.603,3.548-.799,6.393-2.639,2.555-3.258,7.129-4.395,11.187 1.498-.899 1.065-3.729 1.998-5.194 1.109,4.013-2.7,9.608-2.797,13.584 .174.593.511-.158 1.199,0v3.196c.853.187.761-.571.799-1.199 1.154,1.051-.241,2.932-1.998,2.397-.214-1.546.713-1.951.399-3.596-1.954-.223-.954,2.509-1.198,3.996-1.677.055-1.484,1.979-3.196,1.998 1.716-2.986 4.677-10.198 4.794-14.783-2.865,3.26-1.788,10.464-5.593,12.785 4.051-9.4 5.396-21.506 11.187-29.166 .051-.728-.489-.854-.4-1.609z" fill="#fff"/>
  <path d="m64.055,79.603c-.668.53-.852,1.545-2.397,1.199 .182-1.067 1.555-1.994 2.397-1.199z" fill="#fff"/>
  <path d="m68.45,79.603c1.143,1.121 1.986,2.542 2.397,4.395-1.712-.552-1.872-2.656-2.397-4.395z" fill="#fff"/>
  <path d="m59.661 80.002c2.874 3.785 4.821 8.496 6.792 13.185-2.626-3.786-5.547-9.345-6.792-13.185z" fill="#fff"/>
  <path d="m57.263,80.801c1.251-.186 1.784.347 1.598,1.598-.593-.472-1.785-.345-1.598-1.598z" fill="#fff"/>
  <path d="m80.037,80.801c1.243.089.675,1.988.799,3.196-1.539-.451-1.078-1.713-.799-3.196z" fill="#fff"/>
  <path d="m57.663,83.598c2.522,4.936 5.143,9.774 7.591,14.783-3.866-1.994-3.535-8.185-6.792-10.788 .493,4.304 4.474,8.576 5.194,13.984-3.553-5.104-5.203-12.11-8.39-17.58 1.757.374 1.414,2.848 3.196,3.196 .909-.72-1.888-2.634-.799-3.598z" fill="#fff"/>
  <path d="m49.272 83.998c4.658 5.463 7.587 12.656 10.388 19.977-3.246-1.682-2.035-7.82-5.993-8.79 1.441-3.66-3.375-7.394-4.395-11.192z" fill="#fff"/>
  <path d="m111.6,88.792c1.846.896 1.347,6.003.799,7.991-2.56-1.911.67-4.987-.8-7.991z"/>
  <path d="m68.85,89.191c.921-.122.443,1.154 1.198,1.199-.837.76-.232,2.963-2.397,2.397 .032-1.566.704-2.492 1.199-3.596z" fill="#fff"/>
  <path d="m119.59,89.99c.616,1.296-1.899,2.885-2.397,4.395-.88-1.561 1.68-3.111 2.4-4.395z"/>
  <path d="m35.688 90.39c2.384 2.144 3.524 5.532 5.194 8.39-2.914-1.614-3.425-5.631-5.194-8.39z" fill="#fff"/>
  <path d="m71.646,90.39c-.499,2.833-1.605,8.514-3.995,10.787 1.059-3.871 2.599-7.259 3.995-10.79z"/>
  <path d="m85.63 91.189c3.168 1.892 7.111 3.011 8.79 6.393-3.445-1.616-7.07-3.052-8.79-6.393z"/>
  <path d="m67.651 93.187c1.902 2.242-1.675 5.368-1.598 8.391-1.72-2.229 1.58-5.349 1.598-8.393z" fill="#fff"/>
  <path d="m78.039,93.187c.388,3.721-1.405,8.714-3.196,11.587 .986-3.94 2.333-7.519 3.196-11.583z" fill="#fff"/>
  <path d="m30.495 93.586c2.053 2.075 3.172 5.084 4.395 7.991-1.95-2.183-3.503-4.758-4.395-7.994z" fill="#fff"/>
  <path d="m128.38,93.586c1.177.155.781,1.882 1.599,2.397-1.13,1.36-1.33-1.578-1.6-2.397z" fill="#fff"/>
  <path d="m35.688,94.785c.879.585 1.871,1.059 1.598,2.797-.966-.499-1.292-1.638-1.598-2.797z" fill="#fff"/>
  <path d="m132.38 95.983c2.183 2.878 2.311 7.811 3.195 11.986-2.19-2.88-1.73-8.396-3.2-11.987z" fill="#fff"/>
  <path d="m24.501,98.381c1.5-.688 1.961,3.089 2.397,4.794-1.768-.63-1.301-3.498-2.397-4.799z" fill="#fff"/>
  <path d="m37.287 97.981c4.198 4.991 8.028 10.35 11.187 16.381-4.068-5.12-8.676-9.7-11.187-16.379z" fill="#fff"/>
  <path d="m30.495,103.18c-1.622-.784-3.385-3.53-3.596-4.395 1.874-.686 2.912,2.585 3.596,4.395z" fill="#fff"/>
  <path d="m131.58,99.979c1.324-1.038 1.381,2.6 1.599,3.995-1.45-.41-.5-3.23-1.6-3.991z" fill="#fff"/>
  <path d="m65.254,101.58c-.875,2.599.146,3.605.799,5.593-4.159,1.32-3.041-4.29-.799-5.59z" fill="#fff"/>
  <path d="m127.18,102.38c3.5,3.692 2.834,11.549 9.189,12.386-.558.774-2.068.596-2.797,1.199 .364,2.628-1.164,3.364-.799,5.993-1.589-3.073-2.27-7.053-3.197-10.787 1.103-.171.375,1.489 1.199,1.598 .04-3.11-2.81-6.77-3.59-10.39z" fill="#fff"/>
  <path d="m137.57,102.38c1.346,1.851.782,5.61 1.599,7.991-1.99.37-1.27-5.39-1.6-7.99z" fill="#fff"/>
  <path d="m18.508,103.18c.512.657 1.035,2.167.399,2.796-1.365-.22-.611-1.93-.399-2.8z" fill="#fff"/>
  <path d="m51.67,103.58c1.961.574 3.604,4.916 4.794,7.591-2.215-1.92-2.789-5.47-4.794-7.59z" fill="#fff"/>
  <path d="m143.96,104.77c2.557.772 2.779,3.879 4.795,5.194-1.71-.02-3.47-3.44-4.8-5.19z" fill="#fff"/>
  <path d="m56.464,105.57c1.002,1.56 2.026,2.276 1.998,3.996-1.715-.19-.866-3.56-3.196-1.998-.349-1.386.615-1.371 1.199-.799-.001-.4-.001-.8-.001-1.2z" fill="#fff"/>
  <path d="m50.871,105.97c.525.141.628.704 1.199.799-.599.466-.977,1.154-1.998,1.199 .171-.76.861-1 .799-2z" fill="#fff"/>
  <path d="m60.859,105.97c1.292.307 2.091,1.106 2.397,2.397-1.208-.39-2.007-1.19-2.397-2.4z" fill="#fff"/>
  <path d="m108.8,107.57h1.199c-.282,8.836 3.103,17.384 3.596,26.769 1.116,1.227 2.973.164 3.996.799 .055.744.263,1.336.799,1.599-.792,1.506-2.097,3.603-4.395,2.397 2.94,11.234 1.338,22.765-.4,35.158 .585.943 1.059-1.573 2.797-.799 .607,1.124 1.893,1.57 1.598,3.596-1.346,1.655-3.328,1.117-4.794,0 .547,6.403-1.574,11.807-3.196,17.979-1.886-3.05-.056-6.896.399-9.988 1.281-8.696 1.585-17.097 1.998-25.57 .359-7.377.727-15.373 0-22.374-1.07-10.17-4.88-20.05-3.61-29.58zm6.4,30.37c.756.09.882-.45 1.598-.399 .183-1.248-.854-1.277-1.998-1.198-.03.69.09,1.24.4,1.6zm-.8,38.35c.464.335 1.071.527 1.998.399 .186-1.251-.347-1.783-1.598-1.598 .01.55-.19.88-.4,1.2z"/>
  <path d="m144.76,107.97c1.62.644 2.371,2.157 2.797,3.995-1.1-1.16-2.52-2-2.8-3.99z" fill="#fff"/>
  <path d="m139.97,108.37c.61.006.876,2.961-.399,2.397-.05-.99-.06-1.93.4-2.4z" fill="#fff"/>
  <path d="m150.36 109.97c2.267 2.032 4.561 6.044 4.795 8.79-1.56-2.98-3.37-5.7-4.8-8.79z" fill="#fff"/>
  <path d="m61.259,110.37c1.012.453 1.159,1.771 1.199,3.196-1.045-.43-1.307-1.63-1.199-3.2z" fill="#fff"/>
  <path d="m142.36,111.96c1.168-.832 1.839,1.86 1.198,3.196 3.836-4.006 6.014,5.624 1.998,6.792 .694.495 2.652-.305 4.395,0 3.336,7.585 6.586,15.255 10.388,22.374-6.088-4.833-6.268-15.573-11.586-21.175-.914,1.883-3.073,2.521-4.396,3.996-1.271-.996-.494-1.961 0-3.196-2.184,1.11-4.36,1.466-6.393,0 .393,1.906 2.755,2.945 4.795,1.997-.296,1.17-.967,1.964-1.599,2.797-2.653.39-2.226-2.302-4.794-1.997 .102-1.497.963-2.234 1.198-3.596 1.602.072 3.894,2.548 5.194.399 .291-1.09-.794-.804-.8-1.598-2.377,1.828-.907-1.185-3.195-1.598-.422-1.669.841-2.707 0-3.596-1.045.42-1.307,1.624-1.199,3.196-.028,1.36 1.176,1.488 1.998,1.998-1.341,1.314-2.074-1.369-3.196-1.598-.965.361-.171,2.255.399,2.397 .286,1.085-1.884-.286-1.599.799-2.782-1.184-.9-4.51-.799-7.191 1.223-.29 1.175.689 2.397.399 1.186-1.079.827-3.701 2.797-3.995 1.605-.008 2.57.625 3.196,1.598 .97-.36.17-2.25-.4-2.4zm-2.39,4.4c.364,1.684 1.869-.089 3.196.799-.079,1.144-.05,2.181 1.198,1.998-.286-1.179-.456-2.474-1.198-3.196-1.16.05-2.62-.22-3.2.4zm2.79,5.59c1.045.113 1.719-.146 1.598-1.198-1.04-.11-1.72.15-1.6,1.2z" fill="#fff"/>
  <path d="m15.711,111.96c.883.05.17,1.695.4,2.397-1.095-.01-.949-1.88-.4-2.4z" fill="#fff"/>
  <path d="m149.56 111.96c3.133 3.926 5.533 8.583 7.191 13.983-2.53-4.52-4.83-9.28-7.19-13.98z" fill="#fff"/>
  <path d="m51.271,113.56c.966.499 1.292,1.638 1.598,2.797-.942-.124-.744-1.388-1.998-1.199 .31-.35.429-.9.4-1.6z" fill="#fff"/>
  <path d="m48.873 115.56c2.739 1.576 3.248 5.462 4.794 8.391 1.571 2.975 3.383 6.104 5.194 8.79 1.792 2.658 4.545 4.51 4.395 7.99-5.317-7.87-10.244-16.12-14.383-25.17z" fill="#fff"/>
  <path d="m58.062 115.56c1.92 1.543 2.79 4.136 3.196 7.192-1.055-2.4-2.417-4.51-3.196-7.19z" fill="#fff"/>
  <path d="m143.16,115.96c.742.722.912,2.017 1.198,3.196-1.248.183-1.277-.854-1.198-1.998-1.327-.888-2.832.885-3.196-.799 .59-.62 2.05-.35 3.2-.4z"/>
  <path d="m53.667 120.36c2.684 1.58 4.841 7.144 6.393 11.187-2.241-3.63-4.643-7.09-6.393-11.19z" fill="#fff"/>
  <path d="m22.903 120.36c6.487 12.087 13.924 22.335 22.773 31.963 6.582 7.16 12.561 14.559 19.577 21.574 2.173 2.173 5.211 4.307 5.993 7.592-17.684-18.8-37.267-35.71-48.343-61.12z" fill="#fff"/>
  <path d="m144.36,120.76c.121,1.052-.553,1.311-1.598,1.198-.12-1.06.56-1.32 1.6-1.2z"/>
  <path d="m14.513,124.75c.598.866.681,2.249.799,3.596-1.143-.3-1.045-3.15-.799-3.6z" fill="#fff"/>
  <path d="m148.36 125.15c3.919 3.939 5.243 10.473 7.592 15.981-2.78-5.07-5.15-10.57-7.59-15.98z" fill="#fff"/>
  <path d="m254.23,133.14c-.006-1.06.222-2.353-.799-2.397-2.155,1.029.74,1.948.399,3.596-1.256.475-2.113,1.349-3.596,1.598 .062-.993-.628-1.236-.799-1.997-1.13.068-2.741-.344-2.797.799 1.184-2.814 4.959-6.492 7.191-9.589 1.784-.053 2.583.88 3.596,1.599 .12,3.31-1.44,4.93-3.19,6.39z" fill="#fff"/>
  <path d="m147.16 127.15c3.42 3.506 6.123 9.857 6.792 14.782-2.6-4.59-4.41-9.97-6.79-14.78z" fill="#fff"/>
  <path d="m145.96,127.95v1.598c-1.248-2.479.015.603-1.599.8 .289-1.221-.408-1.456-.399-2.397 .76-.75.72.23 2,0z" fill="#fff"/>
  <path d="m147.56,131.14c2.604,2.999 4.062,8.332 4.795,11.986-2.004-.035-.936-1.901-1.199-2.797-.92-3.11-2.94-5.95-3.6-9.19z" fill="#fff"/>
  <path d="m71.247,135.14c.285-1.312.189-3.007 1.598-3.196-.137,1.46-.041,3.16-1.598,3.2z"/>
  <path d="m315.36,147.92c-7.725,17.358-41.338,19.642-54.336,5.594 .831-1.35 2.78-4.295.799-5.993 2.842-.761 4.886-6.56.799-7.591 11.91-13.3 46.17-8.09 52.74,7.99z" fill="#fff"/>
  <path d="m251.44,143.13c-1.363-.235-.986-2.211-1.998-2.797-1.148-.083-2.029.102-2.397.799 1.104-3.026 7.739-3.979 9.189-7.99 .567.034 1.132.065 1.198-.399 .896.437 2.002.661 2.797,1.198 1.31,5.79-4.07,8.13-8.79,9.19zm4.79-2.8c.196-1.662-.474-2.456-1.598-2.797 .01,1.47.79,2.15 1.6,2.8zm-1.2.8c.078-1.144.05-2.181-1.199-1.997 .14.93.41,1.72 1.2,2z" fill="#fff"/>
  <path d="m15.711,133.94c1.143,1.92 2.279,3.847 2.797,6.393-1.854-.544-1.266-3.528-3.196-3.995 .597-1.22-.131-1.56.399-2.4z" fill="#fff"/>
  <path d="m72.446,134.74c1.795.483-.159,5.358.799,5.194 .056,1.967 1.52,4.812-.399,6.792-.809-4.12-2.215-7.55-.4-11.98z"/>
  <path d="m249.04,135.14c.439,2.56-2.061,2.703-3.196,1.599 .2-1.63 1.81-2.28 3.2-1.6z" fill="#fff"/>
  <path d="m147.96,135.94c1.447.95 1.775,3.02 2.397,4.795-1.92-.49-2.48-2.33-2.4-4.8z" fill="#fff"/>
  <path d="m114.8,136.34c1.144-.079 2.181-.05 1.998,1.198-.716-.051-.842.489-1.598.399-.31-.36-.43-.91-.4-1.6z" fill="#fff"/>
  <path d="m254.63,137.54c1.124.341 1.794,1.135 1.598,2.797-.81-.66-1.59-1.34-1.6-2.8z"/>
  <path d="m253.83,139.13c1.249-.184 1.277.854 1.199,1.997-.79-.28-1.06-1.07-1.2-2z"/>
  <path d="m253.83,148.72c.543-2.961-1.164-3.879-3.196-3.195 .615.717 2.342.321 2.397,1.598 .177,2.007-2.849,1.941-3.596.799 .972-5.554 8.858-4.192 11.986-7.591 6.06,3.9-2.9,7.9-7.59,8.39zm4-2c1.994.188 2.051-2.959.399-3.196-.9.73-.94,2.03-.4,3.2z" fill="#fff"/>
  <path d="m249.84,141.93v1.599c-1.087.795-3.841.588-3.596-1.199 1.04-.3 2.41-1.48 3.6-.4z" fill="#fff"/>
  <path d="m149.96,142.73c1.285.712 2.026,1.969 2.397,3.596-1.13-.88-2.41-1.6-2.4-3.6z" fill="#fff"/>
  <path d="m154.75 143.13c6.84 8.609 11.289 19.609 17.181 29.166-6.79-8.66-11.74-19.16-17.18-29.17z" fill="#fff"/>
  <path d="m258.23,143.53c1.651.237 1.595,3.385-.399,3.196-.54-1.18-.5-2.48.4-3.2z"/>
  <path d="m18.109 143.93c2.515 2.412 3.573 6.282 4.794 9.988-2.557-2.37-3.272-6.59-4.794-9.99z" fill="#fff"/>
  <path d="m157.55 144.33c6.369 8.015 10.873 17.895 15.981 27.169-6.15-8.24-10.72-18.06-15.98-27.17z" fill="#fff"/>
  <path d="m56.864 146.32c2.477 3.007 8.268 4.751 7.991 9.189-3.04-2.68-5.359-6.09-7.991-9.19z" fill="#fff"/>
  <path d="m149.16,146.32c.702.096.91.688.799,1.598h-1.198c-.17-.83.27-1.06.4-1.6z" fill="#fff"/>
  <path d="m22.104,147.52c.806.526 1.352,1.312 1.598,2.397-1.238-.09-1.246-1.42-1.598-2.4z" fill="#fff"/>
  <path d="m152.75,147.52c1.564-.233 1.021,1.644 1.997,1.998-.83,1.07-1.77-1.13-2-2z" fill="#fff"/>
  <path d="m260.23,147.52c1.732-.267 1.076,1.854 1.199,3.196-1.966.832-3.572,2.022-6.393,1.998 .337-1.669-.777-1.887-.8-3.196 1.713-.04 3.033-.906 3.996.399 .91-.55 1.27-1.64 1.99-2.4z" fill="#fff"/>
  <path d="m148.76,148.72c.314,1.539-1.913,1.539-1.599,0 1.09.04.8-.66 1.6,0z" fill="#fff"/>
  <path d="m253.44,150.72c1.017.041.944,1.489.399,1.998-1.303.104-1.923-.475-1.997-1.599 .63-.03 1.52.19 1.6-.4z" fill="#fff"/>
  <path d="m250.64,159.51c2.853-1.793 4.369-3.195 8.79-2.797 .26-1.591-2.356-.307-1.998-1.998 2.833-1.146 4.001,2.367 5.594,3.596 5.093,3.929 12.172,7.725 21.176,7.991 14.382.426 25.795-6.278 31.963-15.582h1.198c16.841,39.163-32.473,62.806-57.134,39.554-6.9-6.5-11.55-17.25-9.59-30.76z" fill="#fff"/>
  <path d="m75.243,153.12c-.44,1.158-.495,2.702-1.998,2.797 .858-.75.043-3.16 1.998-2.8z"/>
  <path d="m255.43,153.92c-.168,1.431-1.274,1.923-2.797,1.998-.5-2.11 1.04-2.16 2.8-2z" fill="#fff"/>
  <path d="m22.903,155.11c2.766,1.965 1.603,6.047 4.395,8.391-1.153,1.499-.179,4.019 1.598,4.795-1.645,2.759 1.671,6.263 3.995,7.591-.4,1.585-1.613-.063-2.397-.399-.183,2.846 2.56,2.768 2.796,5.193-1.674.077-1.235-1.961-3.196-1.598-2.579-7.8-4.816-15.95-7.191-23.97z" fill="#fff"/>
  <path d="m24.901,155.11c1.012.72 1.502,1.961 1.998,3.196-1.067-.58-2.489-2.31-1.998-3.2z" fill="#fff"/>
  <path d="m74.443,155.91c2.646.653-.696,3.267 1.199,3.995-.204,1.128-.967,1.697-1.199,2.797-1.639-1.72-1.331-4.78 0-6.79z"/>
  <path d="m151.95,160.71c.292-.711.727-.058 1.198,0 3.514,5.81 9.068,11.707 11.187,17.58-4.58-5.41-7.87-12.11-12.39-17.58z" fill="#fff"/>
  <path d="m199.1,164.3c-2.712,2.882-4.697,6.49-4.395,12.386-2.802.597-2.014-2.766-1.998-3.596 .07-3.51 3.88-8.16 6.4-8.79z"/>
  <path d="m76.042,164.7c1.665,1.126-.252,5.249-1.598,5.993 .461-2.06.667-4.39 1.598-5.99z"/>
  <path d="m44.878,169.9c1.962.968 3.427,2.433 4.395,4.395-1.686-.39-4.638-2.38-4.395-4.4z" fill="#fff"/>
  <path d="m179.12,172.69c-1.743,1.188-4.015,1.846-3.995,4.794-1.09-1.888-2.471.696-2.797,1.998-1.786-2.246 3.117-4.2 3.196-7.191-2.445.884-4.339,2.319-5.594,4.395-1.685-.995-2.021,1.105-3.196-.399 3.12-1.408 5.711-3.346 8.79-4.794 1.64.48 1.6,2.02 3.6,1.2z" fill="#fff"/>
  <path d="m74.044,178.69c-.313-1.654.568-5.552 2.397-6.393-.368,2.56-1.869,3.99-2.397,6.39z"/>
  <path d="m114.8,175.09c1.251-.186 1.784.347 1.598,1.598-.926.128-1.534-.064-1.998-.399 .21-.32.41-.65.4-1.2z" fill="#fff"/>
  <path d="m50.871 176.69c4.395 4.129 9.966 7.081 13.584 11.986-5.255-3.27-10.244-6.81-13.584-11.99z" fill="#fff"/>
  <path d="m140.77,177.89c4.004,4.919 6.405,11.44 10.388,16.381-1.701,2.293-3.632,4.357-4.794,7.191-1.129.33-1.035-.563-1.998-.399-1.437.375-.358,2.124-1.198,2.797-1.864,1.492-5.488-1.442-7.592-1.199-2.906.337-4.951,5.029-7.99,1.998-7.387,4.406-10.367,16.525-11.187,27.968-1.102,15.364 3.246,33.57 11.586,39.953 2.452.721 1.428-2.035 3.596-1.598-1.53,4.5-6.905.908-8.79-1.599-4.938-6.568-7.547-22.52-7.591-32.762-.062-14.569 4.554-27.675 11.986-32.762 1.989-.524 1.7,1.229 3.196,1.198-.824-9.995 6.512-18.441 9.589-27.168h.78z" fill="#fff"/>
  <path d="m162.34,177.89c1.746.053 1.143,2.475-.399,2.396-.29-1.23.69-1.18.4-2.4z" fill="#fff"/>
  <path d="m34.889,187.48c1.259,3.762 3.417,9.47 6.393,13.584-2.655.083-3.9-3.91-5.194-6.792-1.601-3.566-2.997-6.708-3.995-10.788-.601-1.13-1.616-1.847-1.598-3.596 2.331,2.331 4.242,5.08 5.593,8.391-.322-.34-1.094-.23-1.199-.79z" fill="#fff"/>
  <path d="m62.058 183.48c4.06 2.865 7.969 5.882 11.586 9.189-4.572-2.35-8.534-5.32-11.586-9.19z" fill="#fff"/>
  <path d="m78.838,186.28c1.975,2.953 3.753,6.103 5.993,8.79 1.288.576 2.867.861 2.797,2.797-4.247-2.55-7.993-5.6-8.79-11.59z"/>
  <path d="m127.98,192.67c1.019,4.352-3.434,6.685-3.596,11.188-1.082-.517-1.42-1.776-3.196-1.599 3.46-2.02 5.83-5.1 6.8-9.59z" fill="#fff"/>
  <path d="m59.661,193.47c3.867-1.291 6.361,4.998 10.787,1.998-.574,1.69-3.099,1.429-3.995,2.797-2.081-1.79-4.155-3.57-6.792-4.8z" fill="#fff"/>
  <path d="m56.464 195.07c3.344 1.717 6.106 4.016 8.79 6.393-3.832-1.23-6.307-3.81-8.79-6.39z" fill="#fff"/>
  <path d="m54.866,197.47c3.04.559 7.178,3.473 9.589,5.993-3.755-1.44-6.418-3.97-9.589-5.99z" fill="#fff"/>
  <path d="m72.845 197.07c4.905 1.62 10.103 2.948 14.783 4.794-5.191-1.33-11.324-1.73-14.783-4.79z" fill="#fff"/>
  <path d="m98.815,197.86c-7.237,5.147-8.152,16.619-13.984,23.173-.3,2.165 2.155,1.574 1.598,3.995-1.668-.462-3.264-.997-5.194-1.198 .168-6.933 3.155-18.231 8.39-22.773 2.18-1.88 5.798-4.84 9.19-3.19z" fill="#fff"/>
  <path d="m107.6,199.06c-5.7,7.618-11.401,15.235-12.785,27.169-1.897-.5-4.077-.718-5.594-1.599 4.107-1.884-.374-7.499 2.397-10.388 .949.25-.062,2.459.799,2.797 2.234-8.55 4.956-19.99 15.183-17.98z" fill="#fff"/>
  <path d="m69.25,201.06c2.972,1.023 5.834,2.156 8.79,3.196-2.706.3-7.051-1.2-8.79-3.2z" fill="#fff"/>
  <path d="m116,202.26c-7.133,5.786-13.134,12.703-15.582,23.173-1.941-1.378-.093-4.891 0-6.792-1.745,1.46-2.381,7.15-.399,8.79-1.553,2.986-1.474,8.789-1.998,11.587-.821-1.523-2.82-9.239.399-10.788 .35-1.282-1.036-.828-1.199-1.598 1.925-10.993 6.279-19.558 13.185-25.57 1.61.64 4.6-.08 5.59,1.2zm-9.59,7.99c1.519-2.348 4.361-5.49 4.794-7.592-1.98,2.14-4.87,3.38-4.79,7.59z" fill="#fff"/>
  <path d="m111.2,202.66c-.434,2.102-3.275,5.244-4.794,7.592-.08-4.21 2.81-5.45 4.79-7.59z"/>
  <path d="m123.19,204.66c-.941.009-1.176-.688-2.397-.399-9.889,9.874-15.144,39.065-8.79,58.332 1.642,4.978 5.32,12.616 9.989,7.191-7.177,9.911-12.392-8.64-13.584-15.981-3.03-18.66 3.078-41.014 10.788-49.542-.074-.34.156-.377.399-.399 .324-.076.398-.401.799-.399 1.31.01 2.82-.16 2.79,1.2z" fill="#fff"/>
  <path d="m116,203.86h1.998c-.232,1.857-1.444.421-2.397,1.198-15.721,9.765-20.481,44.956-10.788,64.725-4.117-2.766-5.359-8.448-5.993-13.185-2.762-20.64 3.493-44.69 17.183-52.74z" fill="#fff"/>
  <path d="m78.838,205.06c1.279-.861 3.521.728 5.194.799-1.159.74-3.803-.45-5.194-.8z" fill="#fff"/>
  <path d="m122.39,206.26c-1.477,2.803-3.144,5.869-4.395,9.589-.993,2.953-.779,8.615-5.194,8.391 1.239-7.151 3.663-13.117 7.191-17.979h2.39z" fill="#fff"/>
  <path d="m198.3,207.06c.502,1.938-2.229,1.965-2.797,1.598-.43-1.91 1.3-1.64 2.8-1.6z" fill="#fff"/>
  <path d="m79.238,209.45c.548-1.03 2.448-.088 3.196,0-.739,1.22-1.898-.46-3.196,0z" fill="#fff"/>
  <path d="m187.51,209.05c1.744-.195.85,1.231 2.396.399 .291,1.091-.794.805-.799,1.599 .264.72 2.481-.088 3.196.399-.945,1.865-5.277.093-6.393.799 .24-1.35 1.41-1.78 1.59-3.2z" fill="#fff"/>
  <path d="m198.3,209.45c-2.567,2.674-7.11.738-7.99.399 2.59-.92 5.11.37 7.99-.4z" fill="#fff"/>
  <path d="m64.854,209.85c1.557-.092 2.072.859 3.196,1.199-.651.75-3.162-.01-3.196-1.2z" fill="#fff"/>
  <path d="m80.836,210.65c1.344-.096 2.064,1.483 1.199,2.397-.86-.34-1.414-.99-1.199-2.4z" fill="#fff"/>
  <path d="m165.54,214.25c-4.38-.22-2.02-2.57 0,0z" fill="#fff"/>
  <path d="m108.8,213.45c-.538,3.654-2.714,8.929-.399,13.185-1.277.597-3.984-.8-4.395-2.397 1.127-1.164.499,1.195 1.998.799-.52-3.22.78-8.6 2.8-11.59z" fill="#fff"/>
  <path d="m186.31,213.45c.003,1.334-1.604,1.059-1.997,1.997-1.1-.357.931-1.621-1.199-1.198 .1-1.25 1.99-.68 3.2-.8z" fill="#fff"/>
  <path d="m178.72,217.44c-.732,2.286-2.76.943-4.395,1.997 .34-1.8 2.88-1.39 4.4-2z" fill="#fff"/>
  <path d="m159.94,218.64c.425-.906 2.512-.151 3.596-.399-.08,1.26-2.95.93-3.6.4z"/>
  <path d="m155.95,219.04c.948-.53 4.286-.037 4.395,1.599-1.29-.71-3.45-.54-4.39-1.6z"/>
  <path d="m86.829,219.04c1.321-.39.577,2.941-.4,2.797 .005-1.06-.151-2.28.4-2.8z" fill="#fff"/>
  <path d="m148.36,219.04c2.692.815 6.717-1.158 7.592,1.998-1.366-.232-1.86-1.337-3.596-1.198 .293.373.727.604 1.198.799-1.24.56-5.2.41-5.19-1.6z"/>
  <path d="m89.625,220.24c1.471-.368.727,2.107.4,2.396-.882-.05-.17-1.7-.4-2.4z" fill="#fff"/>
  <path d="m132.38,266.58c-3.16-3.499-3.705-9.613-5.194-14.782 1.839-1.007 2.446,2.227 4.395,2.396 .236-9.707-2.915-20.485-2.397-29.565 1.192-.485 2.556-.798 3.596-.399 1.81,11.96 1.99,30.78-.4,42.34z" fill="#fff"/>
  <path d="m121.59,225.03c.806,3.474.577,9.363-.399,12.386-1.04-3.38-.44-8.99.4-12.39z" fill="#fff"/>
  <path d="m125.98,225.03h1.199c.173,7.509.588,11.888-.399,19.577-1.64-5.41.36-12.97-.8-19.58z" fill="#fff"/>
  <path d="m114.4,225.43c.645-.112.688.378 1.199.399-1.491,9.493-1.362,16.803 0,25.171-1.755,1.309-1.829,4.298-3.996,5.194-2.376-6.912 2.192-13.67 1.598-22.374-1.75,3.31-1.026,9.096-2.397,12.785-1.134-3.315.543-7.541.799-11.587 .204-3.22-1.001-7.127 1.199-9.189 .261,2.402-.526,5.854.399,7.592 .84-2.21.28-5.83 1.2-7.98z" fill="#fff"/>
  <path d="m118.39,225.43h1.199c.954,4.326-.795,9.296-1.598,13.185 .645,2.204 2.275,6.299 0,7.991-.69-7.79-1.13-13.95.4-21.18z" fill="#fff"/>
  <path d="m103.21,226.23c1.124.074 1.702.694 1.598,1.997-1.48.28-1.77-.63-1.6-2z" fill="#fff"/>
  <path d="m94.42,227.83c-.692,3.569-.301,8.222-.399,12.386-1.951-.047-4.21.215-5.593-.399-.731-2.592-.328-7.783 0-11.587 1.668-.33 4.489-1.19 5.992-.4zm-2.397,7.19c-.96-.504-2.416-.514-3.196-1.198-.332,1.72 2.898,2.57 3.196,1.2z" fill="#fff"/>
  <path d="m105.61,228.23c1.792,1.793-.504,6.681 0,10.788-.936.929-2.589,1.14-3.596,1.997 .301,1.278 2.955-.418 2.797.399-1.146,3.915-1.404,8.718-3.996,11.188-.062-8.928-.002-15.629 1.598-23.173 2,.32 2.4.26 3.2-1.21z" fill="#fff"/>
  <path d="m76.84,230.23c2.173.954 5.808,2.363 5.594,4.395-2.41-.92-4.721-1.94-5.594-4.39z"/>
  <path d="m46.076,250.6c-2.983-3.426-6.133-7.403-8.39-11.187-1.653-1.474-4.335-3.836-4.395-5.594-.703-.519-3.744-.753-3.196-1.198 .581-.618 2.045-.353 3.196-.4 4.527,5.87 9.494,11.29 12.785,18.38z" fill="#fff"/>
  <path d="m29.695,233.82c1.634.088-.374,2.594-1.199,2.797-.938,4.789-4.458,6.994-5.194,11.986-2.511,1.75-2.523,6-5.194,7.591 3.775-7.55 6.368-16.28 11.587-22.38z" fill="#fff"/>
  <path d="m88.827,233.82c.78.685 2.236.694 3.196,1.198-.298,1.37-3.528.52-3.196-1.2z"/>
  <path d="m106.81,237.42c.718,6.979-2.379,13.601-4.794,18.778-.804-2.505 1.343-5.639 2.397-8.79 1.07-3.24 1.97-6.5 2.39-9.99z" fill="#fff"/>
  <path d="m120.39,238.22h1.198c-.953,4.508-.521,10.399-2.796,13.585 .62-4.44 1.58-8.54 1.6-13.58z" fill="#fff"/>
  <path d="m96.817,239.82c1.848.032 1.326,4.062.799,5.193-1.262-1.55-.017-3.16-.799-5.19z" fill="#fff"/>
  <path d="m88.827,241.02c1.114,1.745 2.765.83 5.194.799 1.584,4.051-1.378,7.449-3.196,10.389-1.888-2.29-2.52-7.82-1.998-11.19zm1.598,9.58c.747-.851 3.581-3.429 1.998-3.995-.094,1.8-3.047,2.35-1.998,4z" fill="#fff"/>
  <path d="m95.219 241.81c1.708 4.194 2.402 10.938 3.196 14.783-3.036-2.95-3.135-8.84-3.196-14.78z" fill="#fff"/>
  <path d="m106.81,245.81c1.221,4.021-.231,8.821-2.797,10.388-.58-3.43 2.56-6.46 2.8-10.39z" fill="#fff"/>
  <path d="m92.422,246.61c1.583.566-1.251,3.145-1.998,3.995-1.048-1.65 1.905-2.2 1.998-3.99z"/>
  <path d="m121.19,249.4c.874.591 2.151.779 2.797,1.598 .269,4.146-.544,9.438-1.199,13.185-2.7-3.51-4.21-10.3-1.6-14.78z" fill="#fff"/>
  <path d="m49.672,252.2c.195,1.261-.72,1.41-.4,2.797h-1.598c.003-1.208-.436-1.569-1.598-2.397 1.561-.45 2.13-.54 3.596-.4z" fill="#fff"/>
  <path d="m89.226 253c2.036 2.9 4.103 9.1 9.189 6.393-3.641 3.97-8.798-2.04-9.189-6.39z" fill="#fff"/>
  <path d="m107.6,255.8c1.717.477 1.57,3.822 1.198,5.193-1.312-.419-1.747-1.716-2.397-2.796 .01-1.19 1.04-1.35 1.2-2.39z" fill="#fff"/>
  <path d="m116.4,256.2c.926,2.797-1.225,5.961-1.998,8.391-1.58-2.04 1.47-5.84 2-8.39z" fill="#fff"/>
  <path d="m124.38,260.59c.653,1.334.562,5.347-1.199,5.594 .15-2.12 1.26-3.26 1.2-5.59z" fill="#fff"/>
  <path d="m125.98,260.99c1.244,3.055 4.153,6.451 3.596,9.989-2.239,1.406-3.58-1.094-4.794-1.998-.01-3.07.85-5.27 1.19-7.99z" fill="#fff"/>
  <path d="m117.99,261.79c1.593,1.47 2.036,4.09 3.196,5.993-.541,1.651-1.74,3.652-3.596,2.796-.67-2.82-.17-5.61.4-8.79z" fill="#fff"/>
  <path d="m111.2,266.98c.389.012.31.489.399.8-.599,2.18-5.226,4.705-6.393,1.598 2.05,1.63 4.89-.66 5.99-2.4z" fill="#fff"/>
  <path d="m134.37,270.98c1.255-.189 1.056,1.075 1.998,1.198-.68,1.16-2.29-.07-2-1.2z"/>
  <path d="m201.9,185.88c-.901-1.589-3.05-3.748-2.397-5.594 3.424,2.037 4.383,6.539 9.988,6.393-.596,2.544-2.512-.376-3.995.8 1.938,3.229 9.081-.471 5.993-3.597-.899.166.06,2.191-1.198,1.998-5.19-.69-7.979-5.842-7.991-10.388 2.424,2.77 2.796,7.592 6.393,9.189 2.52-2.437 5.534-6.413 8.79-6.792 .569,2.766-3.5,3.812-5.194,5.593 .562.77 1.057,1.608 1.199,2.797-4.902,6.019-11.885,9.957-17.979,14.783-3.67-.438-7.394-2.092-10.388,0 4.59,3.129 18.194.617 13.983,9.988-3.411,1.001-7.106,1.36-10.388,2.797-1.371.6-2.868,2.234-4.395,2.797-.9.331-2.079.026-2.797.399-2.892,1.5-2.906,2.821-7.191,3.995-1.185.324-2.217,1.344-3.196,1.598-2.166.563-5.357.041-8.391.4-6.71.795-11.138,2.727-16.78.399 .282,7.023 1.661,16.579 1.198,26.769-.586,12.899-4.728,31.466-14.782,22.374-2.248,4.033-7.42,1.741-9.19-1.198-2.273.789-2.708,3.418-6.393,2.797-.1,4.411-1.766,9.756 0,13.584-39.481-.631-78.308,2.522-116.66,4.395-.332-2.75.037-5.446.399-8.391 .535-4.348 2.427-7.29 3.596-11.586 .767-2.817.129-5.926.799-8.79 .917-3.92 3.356-8.126 4.794-12.386 2.986-8.849 5.754-16.443 9.189-25.171 1.622-4.12 3.986-7.812 4.395-11.586 .42-3.877.158-9.14-.399-13.584-.33-2.624-1.864-5.18-2.397-7.991-1.613-8.496-2.807-17.204-2.796-26.369 .007-6.431.706-13.975-.4-18.778-1.571-6.83-4.585-12.046-5.194-21.175-1.672-25.095 12.268-34.722 31.164-41.952 5.748-2.199 10.273-4.482 16.78-6.393 4.417-1.297 9.269-3.912 15.582-3.996 5.615-4.373 15.781-4.196 16.381-13.584-.299-1.565-2.13-1.599-2.397-3.196 .242-.957.575-1.823.4-3.196-3.088-3.318-5.854-14.382 1.198-16.381-1.664-6.727-1.763-14.829 1.998-20.776 1.687-2.668 5.629-4.679 9.589-7.591 2.404-1.769 4.985-5.851 7.191-6.792 4.304-1.837 14.691-2.812 20.376-2.397 3.352.245 8.84,1.729 11.986,3.996 1.454,1.048 2.822,3.924 4.794,5.993 2.171,2.277 6.021,5.865 7.191,9.189 1.04,2.951 1.037,7.876 1.199,11.986 .345,8.776-1.588,18.442-6.792,23.573-1.574,15.339-8.884,24.944-19.578,31.164-2.223-.358-2.932.797-3.596,1.998 4.982,5.006 11.623,8.354 16.781,13.185 15.746,3.1 16.476,20.761 17.579,37.556 .979,1.818 2.803,2.791 2.397,5.993 5.329,7.456 8.976,16.595 13.185,25.171 1.023.309 2.265.398 2.797,1.198 2.863-1.132 5.454-2.536 6.792-5.193 5.428-.832 9.316-3.203 13.584-5.194 1.493-.427 1.139.992 2.397.799 1.545-.053 1.576-1.62 2.797-1.997 1.312.153 1.762,1.168 2.797,1.598 7.598-5.053 15.648-9.655 22.773-15.182 .631-6.028 2.456-10.862 5.593-14.384 6.002-2.655 10.178-7.136 13.186-12.785 .746-.782 1.463-.123 2.396,0 2.559-9.07 6.66-14.307 13.584-19.178 1.442-.851 1.285-.851 2.797-1.598 7.112-3.428 13.31-6.386 24.372-5.194 15.573,1.678 26.381,12.664 30.364,25.57 2.245,7.271 2.783,14.012 0,22.374-.824,2.479-3.136,5.101-3.196,7.191-.088,3.049 2.765,5.295 3.597,8.79 6.1,25.64-12.367,44.713-33.562,46.346-22.206,1.711-45.207-16.144-40.353-42.351-3.19,2.259-5.906,1.263-9.189,1.998-7.401,1.656-9.77,11.976-17.58,11.986 4.123-5.333 9.707-9.205 15.582-12.785-.155-1.132-1.883,1.491-2.397,0 3.019-4.172 10.386,1.255 13.984-3.196 .273-3.322 1.802-5.39 2.396-8.391-.646-.819-1.922-1.008-2.796-1.599-4.356,1.305-8.707,8.629-13.585,4.396-.506-2.323 3.706-2.817 3.996-.799 4.242-.419 4.933-4.39 6.393-7.592-1.553-1.702-.272-5.173-2.797-4.395 1.734-2.911.929-6.556 3.196-9.189 .919-1.067 2.703-.872 3.596-1.998 1.541-1.944 1.918-5.021 1.198-7.99-1.311,2.566-4.521,3.466-6.792,5.594-1.296,1.213-2.752,4.253-4.794,5.993-2.405,2.047-5.003,2.522-5.993,5.593-.982,3.043.163,6.155-1.599,8.79-2.131,3.187-9.287,6.509-12.785,8.79-4.345,2.833-8.112,6.601-13.584,7.591-2.321,2.442-2.876,7.518-2.797,11.188-2.61-3.385-.549-10.754 1.998-12.785-1.702,1.01-2.682.97-5.194,1.198-2.535.23-5.911,2.771-9.189,3.995-1.303.487-2.638.246-3.596.799-8.697,5.028-7.335,22.937-.399,28.367 1.978,1.549 6.689,3.544 9.189,3.196 4.479-.622 8.208-8.147 13.185-9.189-5.797-2.46-11.749-4.765-12.386-12.385 2.116,3.344 3.923,6.997 7.191,9.188 .354-1.527 1.947.05 2.397-.799-1.29-.81-2.12-1.39-3.22-.41zm-75.12-178.19c-3.375-2.718-8.041-1.162-13.185-.799-.566,2.231-4.479,1.114-5.993,2.397 1.459.978-1.643.717-1.598,1.598 1.739,2.817-4.357,4.327-5.993,6.393 1.705-1.239 4.397-.211 5.993-.799-.289-1.609 3.787-1.672 3.596-3.596 4.211.403 7.415-3.284 11.187-.799 .045-.487.119-.946.799-.799 .761.171 1.004.861 1.998.799 6.557-3.935 11.065,1.447 15.183,4.395-.112-.911.096-1.502.799-1.598 .723.741.066,2.863 1.198,3.196 .068-.598-.143-1.475.399-1.598 1.259.87.512,1.259 1.998.399-.059.991-.074,1.939.799,1.998 .081-2.187 1.813-.641 2.797-.399 .374-.337.854-2.547 0-2.797-.045.487-.119.946-.799.799 .117-2.102-2.681-4.237-3.996-2.397-.513-.525-.513-1.473 0-1.998-1.488-.423-1.289.841-1.997,1.199-1.7-4.961-8.33-7.249-13.2-5.594zm-28.364,33.561c.079,1.144.05,2.181-1.199,1.998-1.235-1.162-1.844-2.95-2.797-4.395-10.569.15-3.179,13.144-1.998,19.577 1.59.258 1.606-1.058 3.196-.799 .35,1.415.05.982.399,2.397-.741,1.195-2.863-.508-3.196.399 .924,2.671-1.231,4.066-.799,6.393 .866,4.659 7.179,7.092 10.388,9.988 .166-1.387-2.28-2.217-1.198-3.196 4.371,3.792 10.319,11.612 17.979,12.386 6.326.639 11.569-3.091 15.582-6.792 .761-.171 1.004-.861 1.998-.799 5.668-6.184 8.605-15.1 10.787-24.771-1.3.579-1.908,3.48-3.596,2.397 .383-1.215 2.388-.809 1.998-2.796-1.243.809-5.819,4.652-6.792-.4-1.484-.152-1.045,1.619-2.797,1.199-.878-.84-.083-1.776.399-2.397-.973.258-2.056.807-1.998-.799 .363-.835 1.18-1.218 2.397-1.199 .63.036.312,1.019 1.198.799 3.91-3.217 6.935.187 10.788,1.199 3.449-5.607 4.254-13.858 4.395-22.774-.699-1.019-2.694-4.599-1.198-5.194-.636-2.028-1.625-3.703-3.596-4.395-.768,2.831-1.706,4.192-3.996,4.794-8.3,2.185-9.572-10.084-16.78-11.986-2.684,3.539-9.945,1.421-12.785,3.995-1.386.321-1.536-.595-2.796-.399-.385,1.747-2.966,1.295-4.794,1.598-1.241,2.754-4.512,3.479-7.192,4.794 1.364,1.416-.676,3.007 1.199,3.196 .352,1.284-1.317.547-1.199,1.598 .355.843 1.704.694 1.598,1.998-.083,2.048-2.293,1.969-1.998,4.395-.123,1.249 1.154-1.016 1.199.399-.391,3.746-.276,4.251-1.598,7.192-.062-.47.068-1.134-.4-1.199-.897,1.062.598,2.035-.399,2.797-.071-.469.061-1.133-.407-1.198zm1.594-20.376h1.998c-.071-1.403 1.35-1.314 1.598-2.397-1.93.07-2.55,1.445-3.6,2.397zm1.6-3.596c-.338.861-1.752.645-2.397,1.199 .207,1.938-1.114,2.349-1.598,3.596 1.54-1.133 4.585-2.87 3.995-4.795zm42.35,33.96c-.955.244-2.898-.501-3.196.4 1.12.476 2.44.457 3.2-.4zm-.4,2.398c-1.381.578-1.883-.446-2.797.399 1,.427 2.63,1.384 2.8-.399zm-27.16,47.147c1.761-.103 3.09-.638 5.194-.399 .23.835.991,1.14.799,2.397-1.489-.391-3.884-1.505-5.594-.399 .09.755-.45.881-.399,1.598 2.113,2.015 5.312,2.945 7.991,4.395 .623-3.906 1.416-7.64 1.998-11.586-1.667.472-7.891,1.957-9.988,1.998 .213-2.317 2.959-2.102 3.996-3.596 .63-3.366 2.962-5.029 3.995-7.991-6.765.294-8.011,6.105-10.388,10.787-1.683-2.686.312-5.6.799-8.39-5.004-8.979-16.367-11.6-22.374-19.577-.702-.896-.325-2.872-1.998-2.797-5.697,3.508-2.712,10.823-1.598,15.981-1.861-2.001-2.439-5.285-3.196-8.39-5.256,3.206-2.554,9.658-1.598,13.984-1.778-.086-.549-3.18-2.397-3.196-7.45,32.81 3.831,74.109-3.995,105.08 .776,1.887 2.571,2.756 3.196,4.794-2.745-.064-2.674-2.696-3.596-3.596-.099,1.233-.405,2.259-.799,3.196 3.655,2.071 9.133,2.32 12.785,4.395 3.067-2.084 7.235-5.658 11.187-2.396 .901-1.23 2.542-1.72 4.395-1.998 1.305,1.226 2.226,2.835 3.596,3.995 1.62-.244 2.351-1.378 4.395-1.198 2.331,1.132 3.164,3.761 5.593,4.794 7.721-2.4 7.229-13.015 12.386-17.979 6.274-24.672 3.032-54.647-4.794-75.912-4.625,1.25-6.379-2.274-9.988-3.196-.844.355-1.181,1.216-2.397,1.199-4.51-2.898-9.06.673-15.182.399-1.392-3.146-3.193-7.07-2.397-11.187-2.727-1.5-1.672-1.866-3.196-4.395 2.18.484 2.769,2.559 4.794,3.196-1.385-4.609-7.46-6.655-7.191-11.586 2.637,3.223 4.646,7.073 7.991,9.589 .403-.7.69-2.143 1.598-1.199-.172,2.814-4.936,5.11-2.397,7.991 1.739-1.191-.157-6.017 2.797-5.993-.198,4.12-2.959,7.166-1.598,11.586 3.773.583 9.468-.028 10.788-3.196-1.163-.835-2.986-1.009-4.395-1.598-.062.47.069,1.134-.399,1.199-.573-.626-2.083-.315-1.998-1.598 1.837-2.644 6.38,1.724 6.792.399-1.483-3.578-5.476-4.646-7.991-7.192 .004-.528.7-.365.799-.799-.766-.699-2.46-.47-2.397-1.998 4.628.965 7.068,4.119 9.189,7.591 1.329-.848 2.464-1.764 3.196.4-1.129.33-1.035-.563-1.998-.4 .365,2.673.233,3.51-.399,6.393 2.375-1.25 2.866-.39 3.596,1.199 4.068-.233.763-5.033 1.998-7.591 .3.856 1,1.355.77,2.791zm-43.155-17.582c1.807-1.179 4.402-5.643 3.596-6.792-1.204,2.259-2.431,4.495-3.596,6.792zm-.4-3.595c-.306-1.159-.632-2.298-1.598-2.797 .004,1.461.79,2.14 1.598,2.797zm-.399,1.997c-.279,3.493-4.551,6.069-1.998,7.991 .889-3.775 3.471-7.979 3.596-11.187-.739.859-.479,2.717-2.397,2.397-1.537-.194-.228-3.235-1.998-3.196 .61,1.899 1.156,4.22 2.797,3.995zm-4.795,23.97c3.441-7.612 6.019-16.089 8.79-24.372-2.521,1.607-2.379,5.877-4.395,7.991-.068-.598.143-1.475-.4-1.598-1.395,5.413-5.384,12.441-5.194,16.78 .159-1.306.347-2.583 1.598-2.796 .07,3.133-1.72,4.406-1.998,7.191 1.908.32 1.565-1.62 1.599-3.19zm11.587-26.367c-5.791,7.66-7.136,19.766-11.187,29.166 3.806-2.321 2.728-9.525 5.593-12.785-.117,4.584-3.078,11.796-4.794,14.783 1.712-.019 1.52-1.943 3.196-1.998 .244-1.487-.756-4.218 1.198-3.996 .313,1.646-.613,2.05-.399,3.596 1.756.535 3.151-1.346 1.998-2.397-.038.628.054,1.385-.799,1.199v-3.196c-.688-.158-1.024.593-1.199,0 .097-3.977 3.906-9.572 2.797-13.584-.933,1.465-.5,4.295-1.998,5.194 1.137-4.058 1.756-8.632 4.395-11.187-.804-2.845 3.814-5.148.799-6.393-.089.76.451.886.4,1.603zm-17.58,1.598c1.545.347 1.729-.668 2.397-1.199-.842-.794-2.215.133-2.397,1.199zm9.19,3.197c-.411-1.853-1.254-3.274-2.397-4.395 .524,1.739.684,3.843 2.397,4.395zm-4.395,9.189c-1.971-4.688-3.918-9.399-6.792-13.185 1.245,3.84 4.166,9.399 6.792,13.185zm-7.592-10.788c.186-1.251-.347-1.784-1.598-1.598-.187,1.253 1.005,1.126 1.598,1.598zm21.975,1.599c-.124-1.208.444-3.107-.799-3.196-.279,1.482-.74,2.744.799,3.196zm-13.984,6.792c-1.344-3.184-2.274-6.782-4.395-9.189 1.392,3.135 2.607,6.449 4.395,9.189zm2.398-5.994c.764.585-.655-2.893-1.598-3.196 .087,1.51 1.255,1.941 1.598,3.196zm-.8,4.395c-.854-2.341-1.516-4.876-3.196-6.393 1.298,1.899.968,5.426 3.196,6.393zm-14.383,0c4.694,1.529 5.205,10.439 8.391,14.783-1.951-8.304-5.783-14.727-9.989-20.776 .017,2.313 4.367,4.656 1.598,5.997zm11.587,6.393c-1.476-4.784-3.928-8.592-6.393-12.386 2.231,4.029 3.584,8.935 6.393,12.386zm-7.192-8.39c-1.783-.349-1.439-2.823-3.196-3.196 3.187,5.47 4.837,12.476 8.39,17.58-.72-5.408-4.701-9.68-5.194-13.984 3.257,2.603 2.926,8.794 6.792,10.788-2.449-5.009-5.069-9.847-7.591-14.783-1.089.961 1.708,2.875.799,3.593zm-4.795,7.991c3.958.969 2.748,7.107 5.993,8.79-2.801-7.321-5.73-14.513-10.388-19.977 1.02,3.793 5.836,7.527 4.395,11.182zm-3.995-5.994c-.665-1.732-1.274-3.521-2.797-4.395 .737,1.661 1.595,3.2 2.797,4.395zm66.328,2.397c.444-2.22 2.487-2.84 3.995-3.995-2.758-.438-4.835-1.558-6.792-2.797 .98,2.249 3.03,4.506 2.79,6.792zm-59.935,12.382c-3.364-6.358-5.831-13.614-10.788-18.378 2.953,5.037 5.799,10.182 8.39,15.582-.628.038-1.385-.053-1.199.799 2.902-1.69 2.22,2.59 3.597,2zm19.577-6.388c.377-3.408 4.569-8.753 1.998-11.187 .005,3.905-2.101,9.834-1.998,11.187zm-26.769,0c-1.576-4.284-4.009-7.71-6.792-10.788 1.963,3.897 4.268,7.452 6.792,10.788zm0,2.798c-2.622-4.437-5.141-8.976-8.39-12.785 2.794,4.262 4.709,9.406 8.39,12.785zm1.199,5.59c.113-1.216-1.28-1.553-.399-2.397-4.863-3.529-6.665-12.246-11.187-14.783 4.405,5.188 6.422,12.763 11.586,17.183zm17.579-13.183c2.165.566 1.56-1.637 2.397-2.397-.755-.044-.277-1.321-1.198-1.199-.495,1.104-1.167,2.03-1.199,3.596zm-21.575,10.793c-2.408-4.785-5.592-10.92-8.79-13.584 2.847,4.607 4.975,9.936 8.79,13.584zm-5.194-4.8c-1.669-2.858-2.81-6.246-5.194-8.39 1.769,2.759 2.28,6.776 5.194,8.39zm-9.189-6.792c.604,2.593 1.678,4.715 3.196,6.393-.053-3.144-1.944-4.449-3.196-6.393zm34.36,9.592c-.077-3.023 3.5-6.149 1.598-8.391-.018,3.042-3.318,6.162-1.598,8.391zm8.79,3.19c1.792-2.873 3.584-7.866 3.196-11.587-.863,4.068-2.21,7.647-3.196,11.587zm-39.954-3.19c-1.223-2.906-2.341-5.916-4.395-7.991 .893,3.233 2.446,5.808 4.395,7.991zm95.091-5.597c-.817-.515-.422-2.242-1.599-2.397 .27.819.47,3.757 1.6,2.397zm-92.693,1.599c.273-1.738-.719-2.211-1.598-2.797 .305,1.159.631,2.298 1.598,2.797zm83.103-1.199c.236,1.06 2.947-.041 4.395-.799-1.71-1.322-2.88.662-4.39.799zm-87.898,5.197c-.233-2.564-2.689-2.905-2.397-5.993-1.545,1.25.837,5.203 2.397,5.993zm240.12-3.199c-1.236.4-.819.295-1.598.799-9.917,4.733-16.729,12.57-19.178,24.771 4.113-2.058 9.679,3.846 5.593,7.591 3.093.104 4.422,1.972 4.396,5.194 2.354-.842 4.138-2.255 5.594-3.995 4.48-1.296 8.237-3.455 12.785-3.996 17.181-2.043 30.254,7.501 37.156,16.781 14.33-29.46-14.64-59.576-44.75-47.139zm-137.04,9.589c-.885-4.176-1.013-9.108-3.195-11.986 1.47,3.59 1.01,9.106 3.19,11.986zm2.4,4.79c-1.416-4.71-1.372-10.88-3.196-15.183 .82,3.743 1.09,11.413 3.2,15.183zm-111.07-9.58c-.436-1.705-.896-5.483-2.397-4.794 1.096,1.296.629,4.164 2.397,4.794zm21.576,11.18c-3.159-6.031-6.989-11.39-11.187-16.381 2.511,6.681 7.119,11.261 11.187,16.381zm88.296-1.6h-1.199c-1.993-5.331-5.054-9.595-7.191-14.783-1.917-.693-1.15,3.353-.399,1.998-.523-.006-.509-1.108 0-1.199 3.47,3.864 3.18,13.604 8.79,13.984zm-109.87-13.98c.211.865 1.975,3.611 3.596,4.395-.683-1.81-1.721-5.081-3.596-4.4zm106.28,5.19c-.218-1.396-.274-5.033-1.599-3.995 1.1.765.15,3.585 1.6,3.995zm-85.106,4.8c-3.066-2.395-4.332-6.589-7.591-8.79 2.838,4.621 6.822,10.223 9.988,13.185-1.225-.97.459-.249.399-.799-.007-1.66-3.37-5.22-2.796-3.59zm-23.173-3.6c7.071,15.969 16.182,29.898 28.767,40.354 .378-1.548-1.557-1.646-.399-2.797 .934.131 1.65.479 2.397.799-2.853-4.742-7.427-8.369-11.187-12.785-3.655-4.293-5.984-10.091-9.988-13.185-.263,1.595 4.894,4.275 2.797,6.393 .55.017.877-.188 1.199-.4 2.218,6.433 10.598,12.543 13.983,18.778-12.517-11.41-22.337-24.985-28.767-41.551-.243.956.502,2.899-.399,3.196-.935-.53-.183-2.748-1.598-2.797-.106,1.439.738,1.926.799,3.196 1.38-.32 1.685.44 2.396.79zm26.769-.4c-.263-1.735-1.817-2.178-2.397-3.596 .42,1.59.684,3.32 2.397,3.6zm14.383,2.4c-.653-1.988-1.674-2.995-.799-5.593-2.242,1.3-3.36,6.91.799,5.59zm-28.766-3.2c.976,2.074 2.218,3.843 3.596,5.594 1.042,1.324 3.537,4.874 2.397,2.397-.933-2.026-2.07-3.123-3.596-5.194-.971-1.318-1.692-4.179-3.995-4.395-.385,1.45 1.795.33 1.598,1.59zm7.99,14.79c3.731,5.541 6.486,11.751 9.589,17.18-3.509-3.95-6.498-10.547-10.388-12.785 4.411,7.708 10.537,13.702 16.381,19.977-8.476-13.898-16.53-28.218-26.369-40.753 1.75,6.49 7.16,10.98 10.787,16.37zm1.199,3.19c-5.026-4.92-9.048-12.296-13.185-17.58-.26-.332-1.312-1.743-1.998-1.198 1.334,1.329 2.401,2.926 3.196,4.794-.532.06-1.206-1.625-1.598-.4 3.451,3.607 5.62,8.498 9.189,11.986-.173-1.968-3.064-3.315-2.397-4.794 2.609,3.651 5.195,7.324 7.991,10.787-.056-1.54-1.349-1.85-1.198-3.6zm84.304-9.19c-.824-.109-.096-1.77-1.199-1.598 .927,3.734 1.608,7.714 3.197,10.787-.365-2.628 1.163-3.364.799-5.993 .729-.603 2.239-.424 2.797-1.199-6.355-.836-5.689-8.694-9.189-12.386 .77,3.63 3.62,7.29 3.59,10.39zm8.39-2.39c-.816-2.38-.253-6.14-1.599-7.991 .33,2.6-.39,8.36 1.6,7.99zm-62.33,63.92c.42,1.642-1.881,2.617-.799,3.597 .096-.435.658-.96.799-.4-.621,1.784-2.664,4.251-2.397,5.594 .761-.97.843-2.619 2.397-2.797-2.433,2.788-4.177,7.735-.799,10.788 7.092-29.703-1.048-61.15 1.598-88.298-1.669,1.128-1.34,4.253-1.998,6.393-.694.904-2.826.371-3.196,1.598 1.105-.067 1.372.614.799,1.199-2.875.053-7.069-1.245-9.189-3.196 2.735,12.024 4.798,24.679 5.594,37.557 .597,9.654 2.042,19.179 2.397,29.166-1.2-5.417-3.363-11.15-2.797-15.981-.005.938-1.09-.146-.799-.799 .921-.793.444.1 1.199.399 .429-1.761-1.731-.933-1.598-2.397-.163-3.74-1.125-10.631-1.598-13.584-.011-.066.011-4.371-.399-1.199 .604,14.401 3.016,29.137 7.191,41.152 1.63-2.34.962-6.65 3.595-8.79zm-57.932-68.32c.635-.629.112-2.14-.399-2.796-.213.88-.967,2.59.399,2.8zm37.556,5.2c-1.19-2.676-2.833-7.018-4.794-7.591 2.005,2.12 2.579,5.67 4.794,7.59zm7.591,39.95c-7.065-11.989-14.85-18.332-22.773-29.166-.666-2.514-2.973-4.365-5.194-7.591-2.907-4.223-4.639-9.885-7.191-10.788-.245-.086-2.08,1.361-1.998,0 1.646,5.013 4.529,8.789 7.192,12.785-.428-2.214-2.705-4.463-3.996-6.792-.697-1.258-2.669-4.197-.799-4.794 9.016,18.01 22.709,31.36 34.759,46.34zm84.705-41.15c-2.016-1.315-2.238-4.421-4.795-5.194 1.33,1.74 3.09,5.16 4.8,5.19zm1.2-.4c-.307-1.966-2.5-4.147-3.596-3.996 1.29,1.24 2.17,2.9 3.6,4zm-93.496-2.8c-.584-.572-1.547-.587-1.199.799 2.331-1.562 1.481,1.808 3.196,1.998 .029-1.719-.995-2.436-1.998-3.996 .001.4.001.8.001,1.2zm-6.392,1.2c1.021-.045 1.398-.732 1.998-1.199-.57-.096-.674-.658-1.199-.799 .062,1-.628,1.24-.799,2zm13.184.4c-.307-1.292-1.105-2.091-2.397-2.397 .39,1.21 1.189,2.01 2.397,2.4zm84.304,3.59c-.426-1.838-1.177-3.351-2.797-3.995 .28,2 1.7,2.84 2.8,4zm-112.67,18.38c8.226,9.887 18.023,20.331 27.168,27.967-13.636-15.663-28.385-30.213-37.956-49.941 3.087,8.899 8.448,15.524 12.785,23.173-.835,0-1.501-2.17-1.997-1.2zm104.68-19.57c1.275.564 1.01-2.391.399-2.397-.46.47-.45,1.41-.4,2.4zm15.58,7.99c-.234-2.745-2.528-6.758-4.795-8.79 1.43,3.09 3.24,5.81 4.79,8.79zm-94.691,20.37c-2.622-4.703-5.203-9.447-8.39-13.585 .21-1.13.13-2.227-.399-3.196-2.216-4.052-5.793-9.922-8.39-11.587 7.005,9.25 8.653,19.97 17.179,28.38zm1.999-25.57c-.04-1.425-.187-2.744-1.199-3.196-.108,1.58.154,2.78 1.199,3.2zm-37.557,6c-.775-3.354-1.957-6.3-3.995-8.39 1.404,2.72 1.96,6.29 3.995,8.39zm117.86-5.2c-.626-.973-1.591-1.606-3.196-1.598-1.97.294-1.611,2.917-2.797,3.995-1.223.29-1.175-.689-2.397-.399-.102,2.682-1.983,6.007.799,7.191-.285-1.085 1.885.286 1.599-.799-.57-.142-1.364-2.036-.399-2.397 1.122.229 1.855,2.913 3.196,1.598-.822-.509-2.026-.637-1.998-1.998-.107-1.573.154-2.776 1.199-3.196 .841.889-.422,1.927 0,3.596 2.288.414.818,3.426 3.195,1.598 .006.794 1.091.508.8,1.598-1.301,2.149-3.593-.328-5.194-.399-.235,1.362-1.097,2.099-1.198,3.596 2.568-.305 2.141,2.387 4.794,1.997 .632-.833 1.303-1.627 1.599-2.797-2.04.948-4.402-.091-4.795-1.997 2.032,1.466 4.209,1.11 6.393,0-.494,1.235-1.271,2.2 0,3.196 1.322-1.475 3.481-2.112 4.396-3.996 5.318,5.602 5.498,16.342 11.586,21.175-3.802-7.119-7.052-14.789-10.388-22.374-1.742-.305-3.7.495-4.395,0 4.016-1.168 1.838-10.798-1.998-6.792 .641-1.336-.03-4.028-1.198-3.196 .57.15 1.37,2.04.4,2.4zm-126.65,0c-.23-.703.483-2.348-.4-2.397-.549.52-.695,2.39.4,2.4zm46.746,17.18c-.187-5.58-2.916-8.249-4.794-11.986-1.433-2.849-1.912-6.344-4.395-7.192 3.923,5.54 5.458,13.46 9.189,19.18zm93.893-5.59c-1.658-5.4-4.059-10.058-7.191-13.983 2.36,4.69 4.66,9.45 7.19,13.98zm-105.88-10.79c1.254-.189 1.056,1.075 1.998,1.199-.306-1.159-.632-2.298-1.598-2.797 .029.7-.09,1.25-.4,1.6zm99.089,3.2c-.74-.223-.993-2.96-1.998-1.598 3.812,6.443 6.993,13.516 9.988,20.776-.826-7.564-6.126-12.783-7.191-18.778 3.283,3.109 3.759,9.026 6.792,12.386-.92-3.137-2.503-6.489-3.995-9.589-1.421-2.954-3.076-6.341-5.194-7.591 .81.92 2.51,3.04 1.59,4.39zm-95.094-2c-.666-.667-.741-1.923-1.598-2.397 .26.84.645,3.58 1.598,2.4zm11.187,21.18c-.652-8.442-.586-16.474-3.996-22.773 2.589,7.03 2.323,14.64 3.996,22.77zm0-12.79c-.214,2.312.713,1.385.399-.399-.877-3.118-1.477-6.514-2.397-9.589-.091,2.55 1.007,7.21 1.998,9.99zm-33.161,3.99c-.682-3.093-3.854-5.671-3.596-8.39-2.324-.479-2.624-5.092-4.395-4.794 2.476,4.58 3.997,10.12 7.991,13.18zm30.364,11.99c.15-3.48-2.603-5.332-4.395-7.99-1.811-2.686-3.623-5.815-5.194-8.79-1.546-2.928-2.056-6.814-4.794-8.391 4.139,9.05 9.066,17.3 14.383,25.17zm-1.997-17.98c-.407-3.056-1.276-5.649-3.196-7.192 .778,2.68 2.14,4.79 3.196,7.19zm-1.199,8.79c-1.552-4.043-3.708-9.607-6.393-11.187 1.75,4.11 4.152,7.57 6.393,11.19zm11.187,49.94c-.782-3.285-3.82-5.419-5.993-7.592-7.016-7.016-12.995-14.414-19.577-21.574-8.849-9.628-16.286-19.876-22.773-31.963 11.075,25.41 30.658,42.32 48.343,61.12zm69.523-42.35c-.066.362-1.219,1.599-.799,3.195 .055-.744.263-1.335.799-1.598-1.099,5.239.61,11.348-2.397,15.981-.154-4.995 1.171-10.46-.799-13.185 1.972-8.259.407-16.201-4.794-19.977 5.292,20.547 4.139,40.898-.399,59.531-1.62,6.65-4.896,13.22-3.996,19.977 .461-2.404 2.043-5.134 1.199-7.591 3.115-3.497 3.646-8.982 4.794-13.983 1.108-4.825 3.652-8.886 5.194-13.585 3.615-11.023 2.798-24.742 4.395-36.357-3.95,1.02-2.72,5.01-3.19,7.59zm-125.46-10.78c-.118-1.347-.201-2.729-.799-3.596-.246.45-.344,3.3.799,3.6zm140.64,12.78c-2.349-5.509-3.673-12.042-7.592-15.981 2.44,5.41 4.81,10.91 7.59,15.98zm101.48-14.38c-1.013-.719-1.812-1.651-3.596-1.599-2.232,3.097-6.008,6.774-7.191,9.589 .056-1.143 1.667-.73 2.797-.799 .171.761.86,1.004.799,1.997 1.482-.249 2.34-1.123 3.596-1.598 .341-1.647-2.555-2.566-.399-3.596 1.021.045.793,1.338.799,2.397 1.74-1.46 3.3-3.08 3.19-6.39zm-103.48,15.18c-.669-4.925-3.372-11.276-6.792-14.782 2.38,4.81 4.19,10.19 6.79,14.78zm-9.99-13.98c-.009.941.688,1.177.399,2.397 1.613-.197.351-3.279 1.599-.8v-1.598c-1.28.23-1.24-.75-2,0zm-93.888,21.97c-1.249-.272-.672-1.217 0-1.599-6-5.453-11.699-11.207-15.981-18.378-1.402-.08-2.913-2.125-3.596-1.599 6.025,7.43 12.519,16.52 19.577,21.58zm93.088,9.99c.738-2.591-.391-7.05 1.198-8.79 .688,13.416-6.939,24.51-9.988,35.159 9.452-14.095 12.192-34.918 11.986-55.935-.089-.312-.335-.465-.799-.399 .88,11.4-3.92,19.25-2.4,29.97zm-79.904-23.57c.11-2.907-1.6-3.994-2.397-5.993 .393,2.4 1.161,4.43 2.397,5.99zm87.894,3.99c.264.896-.805,2.762 1.199,2.797-.733-3.654-2.19-8.987-4.795-11.986 .66,3.24 2.68,6.08 3.59,9.19zm111.47-.4c4.087,1.031 2.043,6.83-.799,7.591 1.981,1.698.032,4.644-.799,5.993 12.998,14.048 46.611,11.765 54.336-5.594-6.57-16.08-40.83-21.29-52.74-7.99zm-2.39-5.99c-.795-.537-1.901-.762-2.797-1.198-.066.465-.631.434-1.198.399-1.45,4.012-8.085,4.964-9.189,7.99 .368-.697 1.249-.882 2.397-.799 1.012.586.635,2.562 1.998,2.797 4.72-1.06 10.1-3.4 8.79-9.19zm-190.18,43.55c-1.34-4.851-5.981-7.592-9.189-11.187-9.768-10.945-19.146-22.785-28.367-32.762 10.212,16.96 25.349,28.99 37.556,43.95zm-54.736-41.15c1.93.467 1.343,3.451 3.196,3.995-.518-2.546-1.654-4.473-2.797-6.393-.53.83.198,1.17-.399,2.39zm230.53.4c1.136,1.104 3.636.961 3.196-1.599-1.39-.68-3-.03-3.2,1.6zm-95.48,3.99c-.622-1.775-.95-3.845-2.397-4.795-.08,2.47.48,4.31 2.4,4.79zm111.07-1.6c1.285-.846 2.563-1.698 3.596-2.797-1.74.41-2.82,1.45-3.6,2.8zm0,1.2c-3.128,3.398-11.015,2.037-11.986,7.591 .747,1.143 3.772,1.208 3.596-.799-.056-1.276-1.782-.881-2.397-1.598 2.032-.684 3.739.234 3.196,3.195 4.68-.49 13.64-4.49 7.59-8.39zm-15.19,2c-.245,1.787 2.509,1.994 3.596,1.199v-1.599c-1.19-1.08-2.56.1-3.6.4zm-93.89,3.99c-.371-1.627-1.112-2.884-2.397-3.596 0,2.01 1.28,2.73 2.4,3.6zm19.58,25.98c-5.892-9.557-10.341-20.557-17.181-29.166 5.44,10.01 10.39,20.51 17.18,29.17zm-5.59-5.6c-4.38-7.873-8.23-16.274-13.584-23.173 3.26,7.4 8.85,15.91 13.58,23.17zm151.02-19.18c.508-1.105 2.388-2.919 1.599-3.995-.36,1.27-2.13,3.18-1.6,4zm-294.46,6.4c-1.222-3.706-2.279-7.576-4.794-9.988 1.522,3.4 2.237,7.62 4.794,9.99zm40.753-6c-.072-1.792-1.263-2.466-1.998-3.596 .313,1.56 1.119,2.62 1.998,3.6zm109.87,23.58c-5.108-9.274-9.612-19.154-15.981-27.169 5.26,9.11 9.83,18.93 15.98,27.17zm-108.68-15.98c.277-4.438-5.514-6.183-7.991-9.189 2.633,3.09 4.952,6.5 7.991,9.19zm83.906-7.6h1.198c.111-.91-.097-1.502-.799-1.598-.13.54-.57.77-.4,1.6zm-125.06,2c-.246-1.086-.792-1.871-1.598-2.397 .352.98.36,2.31 1.598,2.4zm131.05-.4c-.977-.354-.433-2.231-1.997-1.998 .23.87 1.17,3.07 2,2zm103.48.4c-.963-1.306-2.283-.439-3.996-.399 .022,1.31 1.137,1.527.8,3.196 2.82.024 4.427-1.166 6.393-1.998-.123-1.342.533-3.463-1.199-3.196-.71.76-1.07,1.85-1.99,2.4zm-111.07-1.2c-.314,1.539 1.913,1.539 1.599,0-.8-.66-.51.04-1.6,0zm-100.28,14.78c8.48,8.566 17.264,16.829 26.369,24.771-.627-3.368-4.44-3.551-5.593-6.393 .006-.66 1.108-.224 1.199-.799-7.812-7.549-15.084-16.63-22.374-24.372-2.538-2.695-4.827-5.584-7.591-7.591 7.817,12.559 19.653,21.099 28.767,32.362-8.401-4.25-12.92-14.51-20.777-17.98zm19.578-1.59c-2.572-4.755-6.231-10.549-10.388-12.386 4.014,3.31 6.732,10.05 10.388,12.39zm89.897-6.8c-.725-1.672-1.497-3.297-2.797-4.395 .26,1.71 3.14,4.71 2.8,4.39zm3.19,4c-.688.157-1.024-.594-1.198,0 2.882,2.805 5.399,10.49 9.988,13.983-1.818-3.683-4.574-7.283-6.792-11.187-2.207-3.885-3.969-8.834-6.793-10.788 1.62,2.65 3.37,5.16 4.79,8zm92.3-7.99c.074,1.124.694,1.702 1.997,1.599 .545-.509.617-1.957-.399-1.998-.08.59-.97.37-1.6.4zm8.39,39.15c24.661,23.252 73.975-.391 57.134-39.554h-1.198c-6.168,9.304-17.581,16.008-31.963,15.582-9.004-.267-16.083-4.062-21.176-7.991-1.593-1.229-2.761-4.742-5.594-3.596-.358,1.691 2.258.407 1.998,1.998-4.421-.398-5.938,1.004-8.79,2.797-1.96,13.51 2.69,24.26 9.59,30.76zm-195.38-22.77c-5.222-4.633-8.302-13.538-15.182-15.182 5.662,4.19 10.001,11.84 15.182,15.18zm101.49,7.19c.439-2.15-1.635-3.942-2.797-5.594-3.896-5.537-7.008-12.011-11.187-16.78 3.88,8.24 9.25,14.99 13.99,22.37zm-104.68-12.78c2.042,2.568 4.255,5.385 6.393,6.792-3.72-5.07-8.138-11.572-12.785-14.384 2.401,2.06 4.249,4.89 6.392,7.59zm190.98-6c1.522-.075 2.629-.567 2.797-1.998-1.77-.15-3.31-.1-2.8,2zm-93.89,10.39c2.445,3.766 3.959,8.354 7.591,11.187-4.64-7.878-9.433-15.604-14.782-22.773 1.26,4.55 4.76,7.85 7.19,11.58zm-128.66,12.79c1.961-.363 1.522,1.675 3.196,1.598-.237-2.426-2.979-2.348-2.796-5.193 .784.336 1.997,1.984 2.397.399-2.324-1.328-5.64-4.832-3.995-7.591-1.777-.776-2.751-3.296-1.598-4.795-2.792-2.344-1.629-6.426-4.395-8.391 2.374,8 4.611,16.15 7.191,23.96zm-3.197-20.78c-.496-1.235-.985-2.477-1.998-3.196-.49.89.932,2.62 1.998,3.2zm18.379,6.39v-1.997c-3.433.369-2.548-3.578-5.194-3.995 1.395,2.34 3.206,4.26 5.194,6zm119.06,13.59c-2.118-5.873-7.673-11.771-11.187-17.58-.472-.058-.906-.711-1.198,0 4.52,5.47 7.81,12.17 12.39,17.58zm-22.78-13.19c-.031-1.514 1.815-3.223.8-4.396-.24,1.25-1.56,3.48-.8,4.4zm-82.299,15.58c-4.779-5.343-10.008-10.234-15.582-14.782 4.281,5.58 10.301,11.54 15.582,14.78zm8.39,4.4c-6.496-6.156-12.976-12.328-19.577-18.379 4.979,7.67 12.819,12.49 19.577,18.38zm102.68-12.39c-.975-1.955-2.403-3.457-3.596-5.194 1.03,1.91 1.44,4.43 3.6,5.19zm-121.06,1.6c-.967-1.962-2.433-3.427-4.395-4.395-.242,2.02 2.71,4.01 4.395,4.39zm111.07,0c-1.405-.857-1.152-3.375-3.196-3.596 .6,1.43 2.21,3.92 3.2,3.6zm15.19-2.79c-3.079,1.448-5.67,3.386-8.79,4.794 1.176,1.505 1.512-.596 3.196.399 1.255-2.075 3.148-3.511 5.594-4.395-.079,2.991-4.982,4.945-3.196,7.191 .326-1.302 1.707-3.886 2.797-1.998-.02-2.948 2.252-3.606 3.995-4.794-2,.81-1.96-.73-3.59-1.2zm-129.45,3.59c4.118,4.806 9.115,10.86 14.783,12.785-5.471-3.2-11.041-10.52-14.783-12.79zm18.379,13.59c-3.618-4.905-9.189-7.857-13.584-11.986 3.34,5.18 8.329,8.72 13.584,11.99zm75.515-10.79c-3.077,8.727-10.413,17.173-9.589,27.168-1.497.031-1.208-1.723-3.196-1.198-7.432,5.087-12.049,18.192-11.986,32.762 .044,10.242 2.654,26.193 7.591,32.762 1.884,2.507 7.26,6.099 8.79,1.599-2.168-.438-1.144,2.318-3.596,1.598-8.34-6.383-12.688-24.589-11.586-39.953 .82-11.442 3.8-23.562 11.187-27.968 3.039,3.031 5.084-1.661 7.99-1.998 2.104-.243 5.728,2.691 7.592,1.199 .84-.673-.238-2.422 1.198-2.797 .963-.164.869.729 1.998.399 1.162-2.834 3.093-4.898 4.794-7.191-3.982-4.94-6.384-11.462-10.388-16.381h-.78zm21.97,2.39c1.542.078 2.146-2.344.399-2.396 .29,1.23-.69,1.18-.4,2.4zm-125.85,8c-1.351-3.311-3.263-6.06-5.593-8.391-.018,1.749.997,2.466 1.598,3.596 .998,4.08 2.395,7.222 3.995,10.788 1.294,2.882 2.539,6.875 5.194,6.792-2.976-4.114-5.134-9.822-6.393-13.584 .105.55.877.44 1.199.79zm13.584-6c-.087-1.265-2.085-2.683-2.797-1.998 1.283.32 1.746,1.46 2.797,2zm204.56,2c-1.363-.635-1.246-2.749-2.396-3.597 .19,1.57 1.41,4.18 2.4,3.6zm-201.76,1.2c-1.274-.237-1.235.75-1.998,0 1.81,3.384 5.277,5.11 8.39,7.191-1.963-2.698-5.6-3.723-7.191-6.792 5.512.485 9.933,9.349 15.981,7.991-7.052-3.015-12.51-8.203-17.58-11.188 .776.96 2.045,1.42 2.398,2.8zm21.175,7.19c-3.617-3.308-7.526-6.324-11.586-9.189 3.052,3.87 7.014,6.84 11.586,9.19zm96.686-5.19c1.918.319 1.659-1.538 2.397-2.397-.942-.978-.743.597-1.998.399 .002-.222-.323-.453-.399,0 1.17.34-.24,1.29 0,2zm-2.79,7.59c3.914-.645 7.106-6.173 5.993-9.189-1.073.524-1.435,1.762-2.396,2.397-4.372.117-5.882,2.888-8.79,3.995-2.281.868-5.164.565-7.592,1.599-6.91,2.939-8.468,15.818-20.775,12.785-3.761,4.097-5.686,10.028-7.191,16.381 5.491-.007 10.462-2.641 15.582-2.397 2.869.137 5.438,1.703 7.99,1.997 6.265.723 13.315-1.304 20.376-1.598-.462-6.987 10.87-2.183 11.986-7.591-3.532.596-8.09.167-10.388,1.997 1.312-1.685-1.361-2.021-.399-3.196 2.935-.164 6.825.812 11.187.399 .979-2.179 3.432-.503 3.596-3.596-5.079-.135-11.331-2.211-14.782-.399 .365-5.154 7.771-1.279 11.986-.799 3.811.434 7.62-.239 10.388.799 .497-1.5 1.755-2.24 2.797-3.196-13.338-2.111-23.29-7.607-35.959-10.388 1.24-1.92 4.43.06 6.37.01zm141.03-1.2c.935-1.197 2.461-1.802 3.196-3.196-1.23.65-3.78,2.07-3.2,3.2zm-187.38,8.39c1.776-.178 2.114,1.082 3.196,1.599 .162-4.503 4.614-6.836 3.596-11.188-.98,4.49-3.35,7.57-6.8,9.59zm-54.737-4c.896-1.368 3.421-1.106 3.995-2.797-4.426,3-6.92-3.289-10.787-1.998 2.637,1.24 4.711,3.02 6.792,4.8zm-1.599,0c-2.761-1.104-5.46-4.39-7.991-4.395 2.865.85 5.615,5.7 7.991,4.4zm15.583-.4c-2.148-.872-5.943-1.006-4.794-3.995-1.555.496-2.891-.269-3.996,1.198 3.759-.15 5.459,3.87 8.79,2.8zm-15.183,3.6c-2.684-2.377-5.446-4.676-8.79-6.393 2.483,2.58 4.958,5.16 8.79,6.39zm-.799,2c-2.411-2.521-6.549-5.435-9.589-5.993 3.171,2.02 5.834,4.55 9.589,5.99zm23.173-1.6c-4.68-1.846-9.877-3.174-14.783-4.794 3.459,3.06 9.592,3.46 14.783,4.79zm1.997-.8c-5.235,4.542-8.222,15.841-8.39,22.773 1.93.201 3.525.736 5.194,1.198 .557-2.421-1.898-1.83-1.598-3.995 5.832-6.554 6.747-18.025 13.984-23.173-3.392-1.66-7.01,1.3-9.19,3.19zm-1.598,44.75c-3.216-20.918 3.617-40.148 13.984-48.743-11.099,6.03-18.942,31.34-13.983,48.74zm4.395-28.77c-.861-.338.15-2.547-.799-2.797-2.771,2.889 1.71,8.504-2.397,10.388 1.517.881 3.696,1.099 5.594,1.599 1.384-11.934 7.085-19.551 12.785-27.169-10.227-2.01-12.949,9.43-15.178,17.98zm-16.38-15.58c-1.789-.434-4.534-3.409-5.993-1.599 1.419.67 5.793,2.34 5.993,1.6zm30.768,0c-7.875,7.248-13.413,24.489-11.187,39.154-.417-19.062 4.545-32.745 15.183-40.753 1.221-.288 1.456.409 2.397.4-1.82-2.61-5.35.22-6.4,1.2zm-21.18,1.6c-2.788-.28-5.729-2.521-7.991-1.997 2.709.36 5.457,2.79 7.991,2zm-7.591,1.2c-2.956-1.04-5.817-2.173-8.79-3.196 1.74,2 6.085,3.5 8.79,3.2zm32.361-3.2c-6.905,6.013-11.259,14.577-13.185,25.57 .163.77 1.549.315 1.199,1.598-3.219,1.549-1.221,9.265-.399,10.788 .523-2.798.445-8.601 1.998-11.587-1.981-1.64-1.346-7.33.399-8.79-.093,1.901-1.941,5.414 0,6.792 2.448-10.47 8.449-17.387 15.582-23.173-.98-1.28-3.97-.56-5.59-1.2zm-54.735,23.97c-2.397,1.521 2.066,4.358 2.797,3.995-.549-1.644-2.149-3.243-1.598-4.794-5.179-3.478-8.331-8.982-11.586-14.384 .928.165 1.688,2.538 2.797,1.199-4.803-1.761-4.22-6.917-7.991-9.189 3.916,9 8.744,17.09 15.581,23.17zm27.968-17.18c-5.339-1.322-11.255-4.192-15.981-4.795 4.914,1.74 10.474,4.97 15.981,4.79zm36.757-4.39c-.401-.002-.476.323-.799.399-.244.022-.473.06-.399.399-7.709,8.528-13.818,30.882-10.788,49.542 1.192,7.342 6.407,25.893 13.584,15.981-4.669,5.425-8.347-2.214-9.989-7.191-6.354-19.267-1.099-48.458 8.79-58.332 1.221-.289 1.456.408 2.397.399 .04-1.36-1.47-1.19-2.79-1.2zm-21.575,53.14c.634,4.736 1.876,10.419 5.993,13.185-9.694-19.769-4.934-54.96 10.788-64.725 .953-.777 2.165.659 2.397-1.198h-1.998c-13.69,8.05-19.945,32.1-17.185,52.74zm26.365-37.96c.649-5.077 2.882-8.57 5.194-11.985-8.024-2.027-7.69,8.286-9.589,12.385-.683-.127.368-1.236-.799-1.598-.101,2.121-2.271,5.673-.799,6.792 .5-.269 2.664-.625 4.395-.799 1.313-.817.02-4.241 1.998-4.396-2.865,11.07-2.537,29.224.799,40.354 1.428,4.762 6.128,14.823 11.187,14.383 5.884-.512 7.645-12.24 8.391-18.378 1.301-10.716.251-23.078-1.998-32.362 .591,13.585 3.745,35.98-2.397,46.745-.712,1.249-2.781,3.879-4.794,2.797 3.348-1.566 5.184-5.864 5.993-9.988 2.226-11.34 1.191-28.599-.399-39.554-2.179.086-4.804-.275-6.393.399 1.465,15.395 3.35,34.456-2.397,47.145-8.172-9.455-11.473-37.62-6.792-53.937 1.521-5.305 5.987-13.333 11.586-11.986-8.03-1.96-10.21,8.33-13.19,14.01zm-48.739-10.79c-3.554-.841-6.189-2.601-9.589-3.596-.425,1.49 1.499.632 1.199,1.997-1.129.331-1.035-.562-1.998-.399 1.425,2.308 6.576,3.008 8.79,3.196-1.663-.734-4.19-.604-4.395-2.797 1.85.43 4.382,2.27 5.993,1.6zm7.591-1.99c-1.673-.071-3.915-1.66-5.194-.799 1.391.35 4.035,1.54 5.194.8zm25.168,18.37c1.397-6.728 4.869-13.509 6.792-18.379-4.95,3-8.95,10.9-6.79,18.38zm10.79-17.97c-3.528,4.862-5.953,10.828-7.191,17.979 4.415.225 4.201-5.438 5.194-8.391 1.251-3.72 2.918-6.786 4.395-9.589h-2.39zm75.51,2.39c.567.367 3.299.341 2.797-1.598-1.5-.03-3.23-.3-2.8,1.6zm-113.07.8c-.749-.088-2.648-1.03-3.196,0 1.298-.46 2.457,1.22 3.196,0zm103.48,2.8c1.115-.706 5.447,1.066 6.393-.799-.715-.487-2.933.32-3.196-.399 .005-.794 1.09-.508.799-1.599-1.547.832-.652-.595-2.396-.399-.17,1.42-1.34,1.85-1.59,3.2zm4.4-2.4c.88.339 5.423,2.274 7.99-.399-2.88.77-5.4-.52-7.99.4zm-122.26,1.2c-1.125-.34-1.639-1.291-3.196-1.199 .033,1.19 2.544,1.95 3.196,1.2zm13.984,2c.866-.914.145-2.493-1.199-2.397-.215,1.41.339,2.06 1.199,2.4zm23.975,11.98c-1.5.396-.871-1.963-1.998-.799 .411,1.598 3.118,2.994 4.395,2.397-2.315-4.256-.139-9.53.399-13.185-2.02,3-3.32,8.38-2.79,11.59zm77.11-10.78c2.13-.423.1.841 1.199,1.198 .393-.938 2-.663 1.997-1.997-1.22.12-3.11-.45-3.2.8zm-8.79,5.19c1.635-1.054 3.662.289 4.395-1.997-1.52.61-4.06.2-4.39,2zm-87.901,2.4c.977.145 1.721-3.187.4-2.797-.551.52-.395,1.74-.4,2.8zm3.596.8c.327-.289 1.071-2.765-.4-2.396 .23.7-.482,2.35.4,2.4zm42.755,1.59c-1.04-.398-2.404-.086-3.596.399-.518,9.08 2.633,19.858 2.397,29.565-1.948-.17-2.556-3.403-4.395-2.396 1.489,5.169 2.034,11.283 5.194,14.782 2.4-11.56 2.22-30.38.41-42.35zm.4,43.55c-1.082-.115.913,1.881.799.799-.244-.022-.473-.06-.399-.399 3.599-8.769 3.038-27.236 1.997-38.755-.161-1.795.389-4.965-1.598-5.194 1.99,12.51 1.93,31.57-.8,43.55zm-11.99-30.36c.977-3.022 1.205-8.912.399-12.386-.84,3.4-1.44,9.01-.4,12.39zm5.59,7.19c.987-7.689.572-12.068.399-19.577h-1.199c1.16,6.61-.84,14.17.8,19.58zm-13.58-11.19c-.926-1.738-.138-5.189-.399-7.592-2.2,2.062-.995,5.97-1.199,9.189-.256,4.046-1.933,8.271-.799,11.587 1.371-3.689.646-9.476 2.397-12.785 .594,8.704-3.974,15.462-1.598,22.374 2.167-.896 2.24-3.886 3.996-5.194-1.362-8.368-1.491-15.678 0-25.171-.511-.021-.554-.512-1.199-.399-.92,2.15-.36,5.77-1.2,7.99zm4.79,13.19c2.275-1.692.645-5.787 0-7.991 .803-3.889 2.552-8.858 1.598-13.185h-1.199c-1.53,7.22-1.09,13.38-.4,21.17zm-13.18-18.38c.104-1.303-.475-1.923-1.598-1.997-.17,1.37.12,2.28 1.6,2zm-16.383,0c-.328,3.804-.731,8.995 0,11.587 1.383.614 3.642.353 5.593.399 .098-4.164-.293-8.816.399-12.386-1.502-.79-4.323.07-5.992.4zm-28.766,11.99c-.472-.058-.906-.712-1.199,0 6.323,5.663 13.003,10.969 19.977,15.981 1.495,1.761 3.017,5.426 5.194,5.194-1.667-2.782 2.659-5.274 4.794-6.793-1.4-3.66-2.391-7.73-2.397-12.785-1.551.185-4.133,1.26-4.794,0 .88-2.025 4.204.558 4.395-1.198-1.173-1.225-3.076-.058-4.395-1.598 .776-1.85 2.388.617 4.395,0-.065-4.351-.318-6.891.399-10.788-8.577.894-19.437,2.357-26.769,1.998 .118,2.129 1.771.123 1.998.799-.769.829-1.261,1.936-1.998,2.797-.409-2.531-1.876.541-3.196-.799 1.716,1.671-1.242,3.178-.799,4.794 .357-1.289-1.303-.562-1.598-1.198 .532,2.543-.328,4.041-1.598,5.193 .872-.072 1.271.327 1.199,1.199-1.27-1.111-2.555,1.13-1.598,1.997 1.384-1.943-.117.729.799,1.199 2.432-3.297 3.363-10.219 6.393-11.587 .082,1.681-1.518,1.679-1.598,3.196 .921-.122.444,1.154 1.199,1.199 .382-.744-1.197-1.336 0-1.599-.337,1.43 2.031,2.19 1.197,2.8zm42.749-10.79c-1.6,7.544-1.66,14.245-1.598,23.173 2.591-2.47 2.85-7.272 3.996-11.188 .158-.817-2.496.879-2.797-.399 1.007-.857 2.66-1.068 3.596-1.997-.504-4.107 1.792-8.995 0-10.788-.8,1.48-1.2,1.54-3.2,1.21zm-69.119,2.79c-1.151.048-2.615-.218-3.196.4-.548.445 2.493.68 3.196,1.198 .06,1.758 2.742,4.12 4.395,5.594 2.257,3.783 5.407,7.761 8.39,11.187-3.291-7.09-8.258-12.51-12.785-18.38zm-15.182,23.98c2.671-1.591 2.683-5.841 5.194-7.591 .735-4.992 4.256-7.197 5.194-11.986 .825-.203 2.833-2.709 1.199-2.797-5.22,6.1-7.813,14.83-11.587,22.38zm86.301-8.79c-1.054,3.151-3.201,6.285-2.397,8.79 2.415-5.178 5.513-11.799 4.794-18.778-.41,3.49-1.31,6.75-2.39,9.99zm14.38,4.39c2.275-3.186 1.844-9.077 2.796-13.585h-1.198c-.02,5.04-.98,9.14-1.6,13.58zm-21.174-6.79c.527-1.131 1.049-5.161-.799-5.193 .782,2.03-.463,3.64.799,5.19zm-6.792,7.19c1.818-2.939 4.781-6.338 3.196-10.389-2.429.031-4.08.946-5.194-.799-.521,3.38.111,8.91 1.998,11.19zm7.592,4.4c-.794-3.845-1.489-10.589-3.196-14.783 .06,5.93.159,11.82 3.196,14.78zm5.594-.4c2.566-1.566 4.018-6.366 2.797-10.388-.24,3.93-3.38,6.96-2.8,10.39zm-55.137-5.2c.755-.089.881.45 1.598.399 .314-1.55 1.238-2.49 1.199-4.395-2.7-.43-2.326,2.21-2.797,4zm73.917,13.19c.654-3.746 1.467-9.038 1.199-13.185-.646-.818-1.923-1.007-2.797-1.598-2.61,4.48-1.1,11.27 1.6,14.79zm-76.714-11.59c1.163.828 1.602,1.189 1.598,2.397h1.598c-.32-1.387.595-1.536.4-2.797-1.466-.14-2.035-.05-3.596.4zm55.534,6.79c3.63.65 5.468-3.818 6.393-7.191-1.76,2.76-3.34,5.72-6.39,7.19zm-3.194,0c-5.086,2.707-7.154-3.492-9.189-6.393 .39,4.35 5.547,10.36 9.189,6.39zm7.994-1.19c.65,1.08 1.085,2.377 2.397,2.796 .372-1.371.519-4.717-1.198-5.193-.17,1.03-1.2,1.19-1.2,2.39zm7.99,6.39c.772-2.43 2.923-5.594 1.998-8.391-.53,2.55-3.58,6.35-2,8.39zm-106.28,11.98c2.507-6.682 6.845-11.533 8.79-18.778 .987.021 1.474-2.047.399-.799-3.298,6.88-7.72,12.7-9.189,19.58zm17.179-19.17c-3.811,1.594-1.854,6.493-4.395,9.189 .31.09.788.011.799.399-3.267,1.379-1.598,5.966-3.596,7.991 1.668,1.414-1.1,3.785.799,3.995-1.993,2.591-1.041,8.001 1.199,7.591-1.002,1.262-3.716.812-3.196,3.596 1.394.102 4.351.691 5.194-.799-.666-.665-1.922-.74-2.397-1.598 1.159-1.273.094-2.734 0-4.396 .291.653-.794,1.738-.799.8 .378-.844 1.891-2.607.799-3.596-.637.295.091,1.955-1.199,1.598 .152-1.917 3.303-4.708 1.199-5.194 .095-2.169 1.942-2.586 1.998-4.794-1.074-.712-.772,1.76-1.199.399 .294-1.334 2.522-3.07.799-3.995 2.249-2.221 1.765-4.96 3.196-7.592-.688-.157-1.024.594-1.199,0 .88-1 1.476-2.27 1.998-3.61zm97.89,8.79c1.761-.247 1.852-4.26 1.199-5.594 .05,2.32-1.06,3.46-1.2,5.59zm1.59,2.79c1.214.904 2.555,3.404 4.794,1.998 .558-3.538-2.352-6.935-3.596-9.989-.33,2.72-1.19,4.92-1.19,7.99zm-7.19,1.6c1.856.856 3.055-1.145 3.596-2.796-1.161-1.903-1.604-4.523-3.196-5.993-.57,3.18-1.07,5.97-.4,8.79zm-12.38-1.2c1.167,3.107 5.793.582 6.393-1.598-.089-.311-.011-.788-.399-.8-1.1,1.74-3.94,4.03-5.99,2.4z"/>
  <path d="m98.815,42.446c.997-.762-.498-1.735.399-2.797 .468.064.337.729.4,1.199 1.322-2.94 1.208-3.446 1.598-7.192-.044-1.415-1.321.849-1.199-.399-.295-2.426 1.915-2.347 1.998-4.395 .105-1.304-1.243-1.154-1.598-1.998-.118-1.051 1.55-.314 1.199-1.598-1.875-.189.166-1.781-1.199-3.196 2.68-1.315 5.951-2.04 7.192-4.794 1.828-.303 4.41.148 4.794-1.598 1.261-.195 1.411.72 2.796.399 2.84-2.574 10.101-.456 12.785-3.995 7.208,1.902 8.48,14.17 16.78,11.986 2.29-.603 3.229-1.964 3.996-4.794 1.971.692 2.96,2.367 3.596,4.395-1.496.595.499,4.175 1.198,5.194-.141,8.916-.945,17.167-4.395,22.774-3.854-1.012-6.878-4.416-10.788-1.199-.886.22-.568-.763-1.198-.799-1.218-.02-2.034.363-2.397,1.199-.058,1.606 1.025,1.057 1.998.799-.482.621-1.277,1.557-.399,2.397 1.752.42 1.312-1.351 2.797-1.199 .973,5.052 5.549,1.208 6.792.4 .39,1.987-1.615,1.581-1.998,2.796 1.688,1.083 2.296-1.818 3.596-2.397-2.182,9.671-5.119,18.587-10.787,24.771-.994-.062-1.237.628-1.998.799-4.013,3.701-9.255,7.431-15.582,6.792-7.66-.773-13.608-8.594-17.979-12.386-1.082.979 1.364,1.81 1.198,3.196-3.209-2.896-9.521-5.329-10.388-9.988-.433-2.327 1.723-3.721.799-6.393 .333-.907 2.455.796 3.196-.399-.35-1.415-.049-.982-.399-2.397-1.59-.258-1.606,1.058-3.196.799-1.181-6.434-8.571-19.428 1.998-19.578 .953,1.445 1.562,3.233 2.797,4.395 1.249.183 1.277-.854 1.199-1.998 .468.065.336.729.399,1.199zm23.975,5.593c-.75-5.378-10.776-4.173-13.984-2.796-.042,2.306 1.115,3.413 2.797,3.995 1.112-.913-.922-2.493 1.199-2.397-.016,5.556 6.662,3.509 6.792-.4 1.926.472.058,4.737 2.397,4.794 .782-1.42-.522-1.452-.4-3.196 1.389.476 2.668,1.061 3.996,1.598 .547-1.503-.263-2.584.399-4.395-2.547-3.798-10.657-9.359-15.981-5.194 6.441.047 11.59,1.317 13.185,6.792-.076-.262.144-.827.4-.799-.24.712-.22,1.66-.81,1.998zm-33.564-4.794c1.95.218 1.69-1.772 3.596-1.598 .997.394 2.147,3.321.799,3.596-.755-.044-.277-1.321-1.199-1.199-.378,3.677.074,6.843 2.397,9.189 .943-2.132-.679-4.106-1.598-5.594 2.309-.375 2.099-5.237.399-7.591-3.023-.493-3.8,1.26-4.394,3.197zm47.144,5.194c4.258-.145 10.104-2.123 12.785.799-.19-6.659-10.48-4.149-12.79-.799zm-45.146.799c-.533-.666.146-2.542-1.198-2.397 .007,1.19-.038,2.434 1.198,2.397zm39.956,9.589c1.859-3.068 1.425-8.431 4.395-10.388-4.13.803-4.84,5.024-4.4,10.388zm-2,4.395c-3.063-1.957-5.993-.475-8.39-.799 .927,3.284 5.192,2.014 7.991,1.598-.044.994-.749,1.237 0,1.998 5.101.447 3.236-2.443 3.596-5.594-.512-.022-.554-.512-1.199-.399 .04,1.77-.48,2.989-2,3.196zm-13.58,5.593c.343,2.13 1.566,1.177 3.196,1.598 .455,3.673 4.522,3.734 7.191,5.194-2.437,1.754-5.798-1.362-7.191-3.196-.87,4.477 8.633,7.728 9.189,1.198-3.731.003-6.861-.597-7.991-3.196 4.052.343 6.302,2.488 10.388,2.797-1.32-5.952-8.98-4.277-14.79-4.395z" fill="#fff"/>
  <path d="m117.19,46.042c2.063.271.653,2.698-.4,3.196-.77-.421 1.01-1.624.4-3.196z" fill="#fff"/>
  <path d="m115.6,97.981c-1.235,2.559 2.07,7.358-1.998,7.591-.73-1.588-1.221-2.448-3.596-1.199 .632-2.883.765-3.72.399-6.393 .963-.164.869.73 1.998.4-.732-2.164-1.868-1.248-3.196-.4-2.122-3.472-4.561-6.626-9.189-7.591-.063,1.528 1.631,1.298 2.397,1.998-.099.434-.794.271-.799.799 2.515,2.546 6.508,3.614 7.991,7.192-.412,1.325-4.955-3.043-6.792-.399-.085,1.283 1.425.972 1.998,1.598 .468-.064.337-.729.399-1.199 1.409.589 3.232.763 4.395,1.598-1.319,3.168-7.015,3.779-10.788,3.196-1.361-4.42 1.4-7.467 1.598-11.586-2.954-.024-1.058,4.802-2.797,5.993-2.538-2.881 2.225-5.177 2.397-7.991-.908-.944-1.195.499-1.598,1.199-3.344-2.516-5.354-6.366-7.991-9.589-.269,4.932 5.806,6.978 7.191,11.586-2.025-.638-2.615-2.712-4.794-3.196 1.524,2.529.469,2.896 3.196,4.395-.796,4.117 1.005,8.041 2.397,11.187 6.123.274 10.672-3.297 15.182-.399 1.216.018 1.554-.844 2.397-1.199 3.609.922 5.364,4.446 9.988,3.196 7.827,21.265 11.069,51.24 4.794,75.912-5.157,4.964-4.665,15.578-12.386,17.979-2.429-1.033-3.262-3.662-5.593-4.794-2.044-.18-2.775.954-4.395,1.198-1.37-1.16-2.291-2.77-3.596-3.995-1.853.278-3.494.768-4.395,1.998-3.952-3.262-8.12.312-11.187,2.396-3.652-2.074-9.13-2.323-12.785-4.395 .394-.938.701-1.963.799-3.196 .921.899.851,3.531 3.596,3.596-.625-2.038-2.42-2.907-3.196-4.794 7.826-30.969-3.455-72.268 3.995-105.08 1.848.017.619,3.11 2.397,3.196-.956-4.326-3.658-10.778 1.598-13.984 .757,3.105 1.335,6.389 3.196,8.39-1.114-5.158-4.099-12.474 1.598-15.981 1.673-.075 1.296,1.9 1.998,2.797 6.007,7.977 17.37,10.598 22.374,19.577-.486,2.79-2.482,5.705-.799,8.39 2.376-4.682 3.623-10.493 10.388-10.787-1.033,2.962-3.365,4.625-3.995,7.991-1.036,1.494-3.782,1.279-3.996,3.596 2.098-.041 8.321-1.526 9.988-1.998-.582,3.946-1.375,7.681-1.998,11.586-2.679-1.45-5.877-2.38-7.991-4.395-.051-.717.489-.843.399-1.598 1.71-1.105 4.105.009 5.594.399 .191-1.257-.569-1.562-.799-2.397-2.104-.239-3.433.296-5.194.399 .25-1.436-.45-1.935-.78-2.799zm-3.2-1.198c.548-1.988 1.046-7.094-.799-7.991 1.47,3.004-1.76,6.08.8,7.991zm4.79-2.398c.498-1.51 3.013-3.099 2.397-4.395-.72,1.284-3.28,2.834-2.4,4.395zm-22.77,3.197c-1.679-3.382-5.621-4.5-8.79-6.393 1.72,3.341 5.345,4.777 8.79,6.393zm17.98,39.558c.727,7.001.359,14.997 0,22.374-.413,8.474-.717,16.874-1.998,25.57-.455,3.092-2.285,6.938-.399,9.988 1.622-6.173 3.744-11.576 3.196-17.979 1.467,1.117 3.449,1.655 4.794,0 .294-2.025-.991-2.472-1.598-3.596-1.738-.774-2.211,1.742-2.797.799 1.738-12.394 3.34-23.924.4-35.158 2.297,1.205 3.603-.892 4.395-2.397-.536-.263-.744-.854-.799-1.599-1.023-.635-2.879.428-3.996-.799-.493-9.385-3.878-17.933-3.596-26.769h-1.199c-1.25,9.54 2.56,19.42 3.62,29.58zm-24.772,60.72c.07-1.936-1.509-2.221-2.797-2.797-2.24-2.688-4.018-5.837-5.993-8.79 .797,6 4.543,9.05 8.79,11.59z" fill="#fff"/>
  <path d="m127.18,70.812c-3.65.622-4.72-2.166 0,0z" fill="#fff"/>
  <path d="m69.649,77.605c1.77-.039.46,3.002 1.998,3.196 1.918.32 1.659-1.538 2.397-2.397-.125,3.208-2.707,7.412-3.596,11.187-2.553-1.922 1.719-4.498 1.998-7.991-1.641.225-2.187-2.096-2.797-3.995z" fill="#fff"/>
  <path d="m66.053,108.77c.278-2.785 2.067-4.059 1.998-7.191-1.251.213-1.439,1.49-1.598,2.796-.19-4.339 3.799-11.367 5.194-16.78 .542.124.332,1 .4,1.598 2.015-2.113 1.874-6.383 4.395-7.991-2.771,8.283-5.348,16.759-8.79,24.372-.035,1.56.308,3.5-1.599,3.19zm1.598-7.59c2.39-2.273 3.496-7.954 3.995-10.787-1.396,3.528-2.936,6.916-3.995,10.787z" fill="#fff"/>
  <path d="m62.458 81.6c2.121 2.407 3.05 6.006 4.395 9.189-1.789-2.739-3.004-6.053-4.395-9.189z" fill="#fff"/>
  <path d="m67.651,81.6c.943.303 2.362,3.781 1.598,3.196-.342-1.255-1.51-1.686-1.598-3.196z" fill="#fff"/>
  <path d="m65.254,82.799c1.68,1.516 2.342,4.051 3.196,6.393-2.228-.968-1.898-4.495-3.196-6.393z" fill="#fff"/>
  <path d="m52.469 83.198c4.206 6.049 8.038 12.472 9.989 20.776-3.186-4.343-3.697-13.253-8.391-14.783 2.769-1.337-1.581-3.68-1.598-5.989z" fill="#fff"/>
  <path d="m59.261 83.198c2.465 3.794 4.917 7.602 6.393 12.386-2.809-3.451-4.162-8.357-6.393-12.386z" fill="#fff"/>
  <path d="m46.875,84.796c1.523.874 2.132,2.663 2.797,4.395-1.202-1.195-2.06-2.734-2.797-4.395z" fill="#fff"/>
  <path d="m113.2,84.796c1.957,1.239 4.034,2.358 6.792,2.797-1.508,1.155-3.551,1.775-3.995,3.995 .24-2.286-1.81-4.543-2.8-6.792z" fill="#fff"/>
  <path d="m52.469,101.98c-.187-.853.571-.761 1.199-.799-2.591-5.4-5.437-10.544-8.39-15.582 4.957,4.765 7.424,12.02 10.788,18.378-1.378.58-.696-3.7-3.597-2z" fill="#fff"/>
  <path d="m77.64,86.395c2.572,2.434-1.62,7.779-1.998,11.187-.103-1.353 2.003-7.282 1.998-11.187z" fill="#fff"/>
  <path d="m42.081 86.794c2.783 3.077 5.216 6.504 6.792 10.788-2.524-3.336-4.829-6.891-6.792-10.788z" fill="#fff"/>
  <path d="m40.483 87.593c3.249 3.809 5.769 8.348 8.39 12.785-3.681-3.379-5.596-8.523-8.39-12.787z" fill="#fff"/>
  <path d="m38.485,88.792c4.522,2.537 6.324,11.254 11.187,14.783-.881.844.513,1.181.399,2.397-5.163-4.43-7.18-12.005-11.586-17.188z" fill="#fff"/>
  <path d="m37.287 89.99c3.197 2.664 6.381 8.8 8.79 13.584-3.816-3.638-5.944-8.967-8.79-13.58z" fill="#fff"/>
  <path d="m34.889 98.381c-1.519-1.678-2.593-3.8-3.196-6.393 1.252 1.944 3.143 3.249 3.196 6.393z" fill="#fff"/>
  <path d="m124.78,95.584c-1.447.758-4.159,1.858-4.395.799 1.52-.137 2.69-2.121 4.4-.799z" fill="#fff"/>
  <path d="m30.095,95.584c-.292,3.088 2.165,3.429 2.397,5.993-1.56-.79-3.942-4.743-2.397-5.996z" fill="#fff"/>
  <path d="m134.77 97.582c1.824 4.302 1.78 10.472 3.196 15.183-2.11-3.77-2.38-11.44-3.2-15.178z" fill="#fff"/>
  <path d="m127.98,98.78c-.509.09-.523,1.192 0,1.199-.75,1.354-1.518-2.691.399-1.998 2.137,5.188 5.198,9.452 7.191,14.783h1.199c-5.61-.38-5.32-10.12-8.79-13.98z" fill="#fff"/>
  <path d="m50.871,112.36c.06.55-1.625-.17-.399.799-3.166-2.962-7.15-8.564-9.988-13.185 3.259,2.201 4.525,6.395 7.591,8.79-.575-1.62 2.788,1.94 2.796,3.6z" fill="#fff"/>
  <path d="m22.504,104.37c-.061-1.271-.906-1.757-.799-3.196 1.416.049.663,2.267 1.598,2.797 .901-.297.156-2.241.399-3.196 6.429,16.566 16.25,30.141 28.767,41.551-3.386-6.234-11.766-12.345-13.983-18.778-.322.211-.649.417-1.199.4 2.097-2.117-3.06-4.798-2.797-6.393 4.004,3.094 6.333,8.892 9.988,13.185 3.76,4.416 8.334,8.043 11.187,12.785-.747-.319-1.463-.668-2.397-.799-1.158,1.151.778,1.249.399,2.797-12.585-10.455-21.696-24.385-28.767-40.354-.71-.35-1.015-1.11-2.396-.8z" fill="#fff"/>
  <path d="m49.272,101.18c.58,1.418 2.135,1.861 2.397,3.596-1.712-.29-1.976-2.02-2.397-3.6z" fill="#fff"/>
  <path d="m35.688,102.38c2.303.216 3.024,3.077 3.995,4.395 1.526,2.071 2.664,3.168 3.596,5.194 1.14,2.477-1.355-1.073-2.397-2.397-1.378-1.75-2.62-3.52-3.596-5.594 .198-1.27-1.982-.15-1.598-1.6z" fill="#fff"/>
  <path d="m34.49 102.38c9.839 12.535 17.894 26.854 26.369 40.753-5.844-6.275-11.97-12.269-16.381-19.977 3.891 2.238 6.879 8.834 10.388 12.785-3.103-5.429-5.858-11.639-9.589-17.18-3.627-5.39-9.037-9.88-10.787-16.38z" fill="#fff"/>
  <path d="m47.674,125.55c-2.795-3.463-5.382-7.136-7.991-10.787-.667,1.479 2.225,2.826 2.397,4.794-3.57-3.489-5.738-8.379-9.189-11.986 .393-1.225 1.066.459 1.598.4-.795-1.869-1.862-3.465-3.196-4.794 .685-.544 1.738.866 1.998,1.198 4.137,5.283 8.159,12.659 13.185,17.58-.151,1.75 1.142,2.06 1.198,3.6zm-12.785-17.18c.957,1.847 2.548,5.168 3.996,5.194-1.358-1.7-2.221-3.9-3.996-5.19z" fill="#fff"/>
  <path d="m73.245,183.08c-4.176-12.016-6.587-26.751-7.191-41.152 .41-3.172.389,1.133.399,1.199 .473,2.953 1.436,9.844 1.598,13.584-.133,1.465 2.027.637 1.598,2.397-.755-.3-.277-1.192-1.199-.399-.291.652.794,1.737.799.799-.566,4.831 1.597,10.564 2.797,15.981-.355-9.987-1.801-19.512-2.397-29.166-.796-12.878-2.858-25.533-5.594-37.557 2.12,1.952 6.314,3.25 9.189,3.196 .573-.585.307-1.266-.799-1.199 .371-1.227 2.502-.694 3.196-1.598 .657-2.139.329-5.265 1.998-6.393-2.646,27.147 5.494,58.595-1.598,88.298-3.378-3.053-1.634-8 .799-10.788-1.554.178-1.636,1.827-2.397,2.797-.267-1.343 1.776-3.81 2.397-5.594-.141-.56-.703-.034-.799.4-1.082-.979 1.219-1.955.799-3.597-2.633,2.14-1.965,6.45-3.595,8.79zm3.196-10.78c-1.829.841-2.71,4.738-2.397,6.393 .528-2.4 2.029-3.83 2.397-6.39zm-3.596-25.58c1.919-1.98.455-4.825.399-6.792-.958.164.996-4.711-.799-5.194-1.814,4.43-.408,7.86.4,11.98zm0-14.78c-1.409.189-1.313,1.884-1.598,3.196 1.557-.04 1.461-1.74 1.598-3.2zm.4,23.97c1.503-.095 1.558-1.639 1.998-2.797-1.955-.35-1.14,2.06-1.998,2.8zm1.198,6.8c.232-1.1.995-1.669 1.199-2.797-1.895-.729 1.447-3.342-1.199-3.995-1.331,2-1.639,5.06 0,6.79zm0,7.99c1.346-.744 3.263-4.867 1.598-5.993-.93,1.59-1.136,3.92-1.598,5.99z" fill="#fff"/>
  <path d="m29.296,104.77c-1.871.597.102,3.536.799,4.794 1.291,2.329 3.568,4.578 3.996,6.792-2.663-3.996-5.546-7.772-7.192-12.785-.082,1.361 1.753-.086 1.998,0 2.553.903 4.285,6.565 7.191,10.788 2.221,3.226 4.528,5.077 5.194,7.591 7.923,10.834 15.708,17.177 22.773,29.166-12.05-14.97-25.743-28.32-34.759-46.34z" fill="#fff"/>
  <path d="m146.36,105.57c1.096-.151 3.289,2.029 3.596,3.996-1.43-1.1-2.31-2.76-3.6-4z" fill="#fff"/>
  <path d="m38.885,113.56c-1.448-.026-3.039-3.347-3.996-5.194 1.775,1.29 2.638,3.49 3.996,5.19z"/>
  <path d="m36.887,131.54c-4.337-7.649-9.698-14.273-12.785-23.173 9.57,19.729 24.32,34.278 37.956,49.941-9.145-7.636-18.943-18.08-27.168-27.967 .495-.97 1.161,1.2 1.997,1.2z" fill="#fff"/>
  <path d="m43.28,110.77c2.597,1.665 6.174,7.535 8.39,11.587 .53.969.609,2.066.399,3.196 3.187,4.138 5.768,8.882 8.39,13.585-8.526-8.42-10.174-19.14-17.179-28.37z" fill="#fff"/>
  <path d="m20.906 111.17c2.038 2.09 3.22 5.036 3.995 8.39-2.035-2.1-2.591-5.67-3.995-8.39z" fill="#fff"/>
  <path d="m53.667,112.36c2.483.848 2.962,4.343 4.395,7.192 1.879,3.737 4.608,6.406 4.794,11.986-3.73-5.72-5.265-13.64-9.189-19.18z" fill="#fff"/>
  <path d="m148.36,113.96c2.118,1.25 3.773,4.638 5.194,7.591 1.492,3.1 3.075,6.452 3.995,9.589-3.033-3.359-3.509-9.276-6.792-12.386 1.065,5.995 6.365,11.214 7.191,18.778-2.995-7.26-6.177-14.333-9.988-20.776 1.005-1.362 1.258,1.375 1.998,1.598 .93-1.34-.77-3.46-1.59-4.39z" fill="#fff"/>
  <path d="m53.268,113.96c.857.475.933,1.731 1.598,2.397-.953,1.18-1.338-1.56-1.598-2.4z" fill="#fff"/>
  <path d="m62.058 114.76c3.409 6.3 3.344 14.331 3.996 22.773-1.674-8.12-1.408-15.73-3.996-22.77z" fill="#fff"/>
  <path d="m64.055,114.76c.921,3.075 1.52,6.471 2.397,9.589 .313,1.784-.613,2.711-.399.399-.991-2.78-2.089-7.44-1.998-9.99z" fill="#fff"/>
  <path d="m24.901,115.56c1.771-.298 2.071,4.315 4.395,4.794-.259,2.719 2.914,5.297 3.596,8.39-3.994-3.06-5.515-8.6-7.991-13.18z" fill="#fff"/>
  <path d="m143.96,131.54c-1.597,11.615-.779,25.334-4.395,36.357-1.542,4.699-4.086,8.76-5.194,13.585-1.148,5.001-1.68,10.486-4.794,13.983 .844,2.457-.738,5.187-1.199,7.591-.9-6.757 2.376-13.326 3.996-19.977 4.538-18.633 5.691-38.983.399-59.531 5.201,3.776 6.766,11.718 4.794,19.977 1.97,2.725.645,8.189.799,13.185 3.008-4.634 1.299-10.742 2.397-15.981-.536.263-.744.854-.799,1.598-.42-1.597.732-2.833.799-3.195 .47-2.57-.76-6.56 3.19-7.58z" fill="#fff"/>
  <path d="m30.495,128.35c.683-.526 2.193,1.519 3.596,1.599 4.282,7.171 9.982,12.925 15.981,18.378-.672.382-1.249,1.326 0,1.599-7.058-5.07-13.552-14.16-19.577-21.58z" fill="#fff"/>
  <path d="m60.859,130.34c.797,1.999 2.508,3.086 2.397,5.993-1.236-1.55-2.004-3.58-2.397-5.99z" fill="#fff"/>
  <path d="m32.492 133.54c9.221 9.977 18.599 21.816 28.367 32.762 3.208 3.595 7.85 6.336 9.189 11.187-12.207-14.96-27.344-26.99-37.556-43.95z" fill="#fff"/>
  <path d="m265.02,136.34c-1.032,1.099-2.311,1.951-3.596,2.797 .79-1.36 1.87-2.4 3.6-2.8z" fill="#fff"/>
  <path d="m152.75 143.53c5.354 6.898 9.204 15.3 13.584 23.173-4.72-7.26-10.31-15.77-13.58-23.17z" fill="#fff"/>
  <path d="m318.96,143.53c.789,1.076-1.091,2.89-1.599,3.995-.53-.82 1.24-2.73 1.6-3.99z" fill="#fff"/>
  <path d="m61.658,144.33c.735,1.13 1.925,1.804 1.998,3.596-.879-.99-1.685-2.05-1.998-3.6z" fill="#fff"/>
  <path d="m67.651,181.48c-9.113-11.264-20.95-19.804-28.767-32.362 2.764,2.007 5.053,4.896 7.591,7.591 7.29,7.742 14.562,16.823 22.374,24.372-.091.575-1.193.139-1.199.799 1.153,2.842 4.966,3.024 5.593,6.393-9.105-7.942-17.889-16.205-26.369-24.771 7.858,3.47 12.377,13.73 20.777,17.98z" fill="#fff"/>
  <path d="m56.065 149.52c4.157 1.837 7.816 7.631 10.388 12.386-3.656-2.34-6.374-9.08-10.388-12.39z" fill="#fff"/>
  <path d="m153.55,150.72c1.3,1.098 2.072,2.723 2.797,4.395 .34.31-2.54-2.69-2.8-4.4z" fill="#fff"/>
  <path d="m154.75,151.12c2.824,1.954 4.586,6.903 6.793,10.788 2.218,3.903 4.974,7.504 6.792,11.187-4.589-3.493-7.106-11.179-9.988-13.983 .174-.594.511.157 1.198,0-1.42-2.85-3.17-5.36-4.79-8z" fill="#fff"/>
  <path d="m49.672 152.32c6.88 1.644 9.96 10.549 15.182 15.182-5.181-3.34-9.52-10.99-15.182-15.18z" fill="#fff"/>
  <path d="m152.35 152.32c4.179 4.77 7.29 11.243 11.187 16.78 1.162 1.651 3.236 3.443 2.797 5.594-4.74-7.38-10.11-14.13-13.99-22.37z" fill="#fff"/>
  <path d="m55.266 154.32c4.647 2.812 9.065 9.313 12.785 14.384-2.137-1.407-4.351-4.224-6.393-6.792-2.143-2.7-3.991-5.53-6.392-7.59z" fill="#fff"/>
  <path d="m151.55 154.72c5.35 7.169 10.143 14.896 14.782 22.773-3.632-2.832-5.146-7.421-7.591-11.187-2.42-3.73-5.92-7.03-7.19-11.58z" fill="#fff"/>
  <path d="m40.083,158.71c2.646.417 1.761,4.364 5.194,3.995v1.997c-1.988-1.74-3.799-3.66-5.194-5.99z" fill="#fff"/>
  <path d="m142.36,160.71c1.016,1.173-.831,2.882-.8,4.396-.76-.93.56-3.16.8-4.4z" fill="#fff"/>
  <path d="m43.679 165.9c5.574 4.548 10.803 9.439 15.582 14.782-5.281-3.24-11.301-9.2-15.582-14.78z" fill="#fff"/>
  <path d="m48.074 166.7c6.601 6.051 13.082 12.223 19.577 18.379-6.758-5.89-14.598-10.71-19.577-18.38z" fill="#fff"/>
  <path d="m166.74,167.5c1.192,1.737 2.621,3.239 3.596,5.194-2.17-.76-2.58-3.28-3.6-5.19z" fill="#fff"/>
  <path d="m157.15,170.7c2.044.221 1.791,2.738 3.196,3.596-1,.31-2.61-2.18-3.2-3.6z" fill="#fff"/>
  <path d="m60.859 187.88c-5.667-1.925-10.665-7.979-14.783-12.785 3.742 2.26 9.312 9.58 14.783 12.78z" fill="#fff"/>
  <path d="m46.875,180.28c.711-.685 2.71.733 2.797,1.998-1.051-.54-1.514-1.68-2.797-2z" fill="#fff"/>
  <path d="m251.84,180.68c1.15.848 1.033,2.962 2.396,3.597-1,.58-2.22-2.03-2.4-3.6z" fill="#fff"/>
  <path d="m50.072,182.68c5.07,2.984 10.528,8.173 17.58,11.188-6.049,1.357-10.469-7.506-15.981-7.991 1.592,3.069 5.229,4.094 7.191,6.792-3.113-2.081-6.58-3.808-8.39-7.191 .762.75.723-.237 1.998,0-.354-1.38-1.623-1.84-2.398-2.8z" fill="#fff"/>
  <path d="m170.33,185.48c.076-.453.401-.222.399,0 1.255.197 1.056-1.377 1.998-.399-.738.859-.479,2.717-2.397,2.397-.24-.71 1.17-1.66 0-2z" fill="#fff"/>
  <path d="m161.14,195.07c12.669,2.78 22.621,8.276 35.959,10.388-1.042.956-2.3,1.696-2.797,3.196-2.768-1.038-6.577-.365-10.388-.799-4.215-.48-11.621-4.355-11.986.799 3.451-1.812 9.703.265 14.782.399-.164,3.093-2.617,1.417-3.596,3.596-4.361.412-8.252-.563-11.187-.399-.962,1.176 1.711,1.512.399,3.196 2.298-1.83 6.855-1.401 10.388-1.997-1.116,5.408-12.448.604-11.986,7.591-7.061.294-14.111,2.32-20.376,1.598-2.553-.294-5.121-1.86-7.99-1.997-5.12-.243-10.091,2.391-15.582,2.397 1.505-6.353 3.431-12.284 7.191-16.381 12.308,3.033 13.865-9.846 20.775-12.785 2.428-1.033 5.311-.73 7.592-1.599 2.908-1.107 4.418-3.878 8.79-3.995 .962-.636 1.323-1.873 2.396-2.397 1.113,3.017-2.079,8.545-5.993,9.189-1.91.05-5.1-1.93-6.37,0zm6.4,20.77c-.434-.096-.959-.657-.399-.799 .963.32 2.905.587 3.196-.799-2.005-1.591-5.567-1.624-7.99-2.797-.554.245-.061,1.538-.799,1.599-3.279-1.295-9.044-1.775-11.188.799 1.679,1.384 5.331.795 7.591,1.598 .158-.688-.593-1.024 0-1.198 1.638.107 3.739,1.837 5.194.799-1.646-.884-3.984-1.076-5.594-1.997 4.34-.34 6.69,3.43 9.99,2.8zm-4,2.4c-1.084.248-3.171-.507-3.596.399 .65.53 3.52.86 3.6-.4zm-3.2,2.4c-.108-1.636-3.446-2.129-4.395-1.599 .95,1.06 3.11.89 4.4,1.6zm-6.79,0c-.472-.194-.905-.426-1.198-.799 1.735-.139 2.229.966 3.596,1.198-.875-3.156-4.899-1.183-7.592-1.998-.01,2.01 3.95,2.16 5.19,1.6z" fill="#fff"/>
  <path d="m311.77,190.67c-.735,1.395-2.262,1.999-3.196,3.196-.58-1.13 1.97-2.55 3.2-3.2z" fill="#fff"/>
  <path d="m56.864,193.87c2.53.005 5.229,3.29 7.991,4.395-2.377,1.3-5.127-3.55-7.991-4.39z" fill="#fff"/>
  <path d="m71.646,195.07c1.105-1.467 2.44-.702 3.996-1.198-1.149,2.989 2.646,3.123 4.794,3.995-3.33,1.07-5.03-2.95-8.79-2.79z" fill="#fff"/>
  <path d="m102.01 197.07c-10.367 8.595-17.2 27.825-13.984 48.743-4.958-17.4 2.885-42.71 13.984-48.74z" fill="#fff"/>
  <path d="m70.048,199.86c1.459-1.811 4.204,1.165 5.993,1.599-.199.74-4.573-.93-5.993-1.6z" fill="#fff"/>
  <path d="m113.2,200.26c-.941.009-1.176-.688-2.397-.4-10.638,8.008-15.6,21.69-15.183,40.753-2.226-14.665 3.312-31.906 11.187-39.154 1.06-.98 4.59-3.81 6.4-1.2z" fill="#fff"/>
  <path d="m77.64,201.06c2.261-.523 5.203,1.717 7.991,1.997-2.535.79-5.283-1.64-7.991-2z" fill="#fff"/>
  <path d="m40.083,201.86c3.771,2.272 3.188,7.429 7.991,9.189-1.108,1.339-1.869-1.034-2.797-1.199 3.255,5.401 6.407,10.906 11.586,14.384-.551,1.551 1.049,3.15 1.598,4.794-.731.363-5.194-2.475-2.797-3.995-6.836-6.07-11.664-14.16-15.581-23.16z" fill="#fff"/>
  <path d="m67.651,203.06c4.727.603 10.643,3.473 15.981,4.795-5.506.17-11.066-3.06-15.981-4.8z" fill="#fff"/>
  <path d="m138.37,204.66c-5.599-1.347-10.064,6.682-11.586,11.986-4.681,16.316-1.38,44.481 6.792,53.937 5.747-12.688 3.862-31.75 2.397-47.145 1.589-.675 4.214-.313 6.393-.399 1.591,10.955 2.625,28.214.399,39.554-.81,4.124-2.646,8.422-5.993,9.988 2.013,1.082 4.082-1.548 4.794-2.797 6.143-10.765 2.988-33.16 2.397-46.745 2.249,9.284 3.299,21.646 1.998,32.362-.746,6.138-2.507,17.866-8.391,18.378-5.059.44-9.759-9.621-11.187-14.383-3.336-11.13-3.664-29.283-.799-40.354-1.978.154-.684,3.578-1.998,4.396-1.731.174-3.895.53-4.395.799-1.472-1.119.698-4.671.799-6.792 1.167.361.116,1.471.799,1.598 1.898-4.099 1.564-14.412 9.589-12.385-2.312,3.415-4.545,6.908-5.194,11.985 2.98-5.7 5.16-15.99 13.19-14zm-2,67.52c-.942-.123-.743-1.388-1.998-1.198-.29,1.13 1.32,2.36 2,1.2z" fill="#fff"/>
  <path d="m70.448,206.26c.205,2.193 2.732,2.062 4.395,2.797-2.213-.188-7.364-.889-8.79-3.196 .962-.163.868.73 1.998.399 .3-1.365-1.624-.507-1.199-1.997 3.4.995 6.035,2.755 9.589,3.596-1.611.66-4.143-1.18-5.993-1.6z" fill="#fff"/>
  <path d="m116 205.86c-1.923 4.87-5.395 11.651-6.792 18.379-2.17-7.49 1.83-15.39 6.79-18.38z" fill="#fff"/>
  <path d="m133.97,224.23c1.986.229 1.437,3.399 1.598,5.194 1.041,11.519 1.602,29.986-1.997,38.755-.073.34.155.377.399.399 .114,1.082-1.881-.914-.799-.799 2.74-11.98 2.8-31.04.8-43.55z" fill="#fff"/>
  <path d="m58.462,237.42c-1.197.263.382.854 0,1.599-.755-.045-.277-1.321-1.199-1.199 .08-1.518 1.68-1.516 1.598-3.196-3.029,1.368-3.96,8.29-6.393,11.587-.916-.47.585-3.143-.799-1.199-.957-.867.329-3.108 1.598-1.997 .072-.872-.327-1.271-1.199-1.199 1.27-1.152 2.13-2.65 1.598-5.193 .295.637 1.956-.091 1.598,1.198-.443-1.616 2.516-3.123.799-4.794 1.32,1.34 2.788-1.732 3.196.799 .736-.861 1.229-1.968 1.998-2.797-.227-.676-1.879,1.33-1.998-.799 7.332.359 18.191-1.104 26.769-1.998-.718,3.897-.465,6.438-.399,10.788-2.007.617-3.619-1.85-4.395,0 1.319,1.54 3.222.373 4.395,1.598-.191,1.756-3.515-.827-4.395,1.198 .662,1.26 3.243.185 4.794,0 .007,5.055.997,9.125 2.397,12.785-2.135,1.519-6.461,4.011-4.794,6.793-2.177.231-3.699-3.434-5.194-5.194-6.974-5.013-13.654-10.318-19.977-15.981 .293-.712.727-.058 1.199,0 .836-.61-1.532-1.37-1.197-2.8zm23.972-2.8c.214-2.031-3.421-3.44-5.594-4.395 .873,2.46 3.184,3.48 5.594,4.4z" fill="#fff"/>
  <path d="m51.67,247.01c.04,1.904-.884,2.845-1.199,4.395-.717.051-.843-.488-1.598-.399 .471-1.79.097-4.43 2.797-3.99z" fill="#fff"/>
  <path d="m108,252.2c-.925,3.373-2.763,7.842-6.393,7.191 3.05-1.47 4.63-4.43 6.39-7.19z" fill="#fff"/>
  <path d="m17.31,257c1.074-1.248.587.82-.399.799-1.945,7.245-6.283,12.097-8.79,18.778 1.469-6.89 5.891-12.71 9.189-19.58z" fill="#fff"/>
  <path d="m23.303,260.99c.174.594.511-.157 1.199,0-1.432,2.632-.947,5.371-3.196,7.592 1.723.925-.505,2.661-.799,3.995 .427,1.36.125-1.111 1.199-.399-.056,2.208-1.903,2.625-1.998,4.794 2.104.486-1.046,3.277-1.199,5.194 1.29.357.562-1.303 1.199-1.598 1.091.988-.421,2.752-.799,3.596 .005.938 1.09-.146.799-.8 .094,1.661 1.159,3.122 0,4.396 .475.857 1.731.933 2.397,1.598-.843,1.49-3.8.9-5.194.799-.52-2.783 2.194-2.334 3.196-3.596-2.24.41-3.191-5-1.199-7.591-1.898-.21.87-2.581-.799-3.995 1.998-2.025.329-6.612 3.596-7.991-.011-.389-.489-.31-.799-.399 2.541-2.696.584-7.596 4.395-9.189-.523,1.34-1.119,2.61-1.998,3.59z" fill="#fff"/>
  <path d="m139.97,13.28c.708-.357.509-1.622 1.997-1.199-.513.525-.513,1.473 0,1.998 1.315-1.839 4.113.295 3.996,2.397 .68.147.754-.312.799-.799 .854.25.374,2.459 0,2.797-.983-.242-2.716-1.787-2.797.399-.873-.059-.857-1.006-.799-1.998-1.486.86-.739.471-1.998-.399-.542.124-.331,1-.399,1.598-1.132-.333-.476-2.455-1.198-3.196-.703.096-.911.688-.799,1.598-4.117-2.948-8.626-8.33-15.183-4.395-.994.062-1.237-.628-1.998-.799-.68-.146-.754.312-.799.799-3.772-2.485-6.976,1.202-11.187.799 .191,1.924-3.885,1.987-3.596,3.596-1.596.588-4.289-.44-5.993.799 1.636-2.066 7.732-3.576 5.993-6.393-.045-.881 3.057-.621 1.598-1.598 1.513-1.283 5.427-.166 5.993-2.397 5.144-.363 9.81-1.919 13.185.799 4.87-1.655 11.5.633 13.19,5.594z" fill="#fff"/>
  <path d="m93.621,40.048c1.699,2.354 1.91,7.216-.399,7.591 .919,1.487 2.542,3.462 1.598,5.594-2.323-2.346-2.775-5.512-2.397-9.189 .921-.123.444,1.154 1.199,1.199 1.348-.275.197-3.203-.799-3.596-1.906-.174-1.646,1.816-3.596,1.598 .593-1.937 1.37-3.69 4.394-3.197z"/>
  <path d="m123.59,46.042c-.256-.028-.476.537-.4.799-1.594-5.475-6.744-6.746-13.185-6.792 5.325-4.165 13.434,1.396 15.981,5.194-.663,1.811.148,2.891-.399,4.395-1.328-.537-2.607-1.122-3.996-1.598-.122,1.744 1.182,1.776.4,3.196-2.339-.058-.472-4.323-2.397-4.794-.13,3.909-6.808,5.956-6.792.4-2.121-.096-.087,1.484-1.199,2.397-1.682-.583-2.839-1.689-2.797-3.995 3.208-1.377 13.233-2.582 13.984,2.796 .61-.339.59-1.287.82-1.998zm-9.59.799h1.998c-.062-.47.069-1.134-.399-1.199-.11.824-1.77.095-1.6,1.199zm2.79,2.397c1.053-.499 2.463-2.925.4-3.196 .61,1.572-1.17,2.775-.4,3.196z"/>
  <path d="m145.56,129.94c.464-.065.71.088.799.399 .206,21.017-2.534,41.84-11.986,55.935 3.049-10.649 10.676-21.743 9.988-35.159-1.589,1.74-.46,6.199-1.198,8.79-1.52-10.72 3.28-18.57 2.4-29.97z" fill="#fff"/>
  <path d="m157.55,213.05c1.609.921 3.947,1.113 5.594,1.997-1.455,1.038-3.557-.691-5.194-.799-.593.174.158.511 0,1.198-2.26-.803-5.912-.214-7.591-1.598 2.144-2.574 7.908-2.094 11.188-.799 .738-.061.245-1.354.799-1.599 2.423,1.173 5.985,1.206 7.99,2.797-.291,1.386-2.233,1.119-3.196.799-.56.142-.034.703.399.799-3.3.62-5.65-3.15-9.99-2.8zm7.99,1.2c-2.02-2.57-4.38-.22 0,0z"/>
 </g>
</svg>
