<?xml version="1.0" encoding="UTF-8"?>
<svg viewBox="0 0 1250 1256.5" xmlns="http://www.w3.org/2000/svg">
 <path d="m37,702.75q3-1.75 2,1.25l-1,3 3.5.25q3.5.25 0,2.25t-7,1.75-2-3.5 4.5-5z" fill-rule="evenodd"/>
 <path d="m60.25,684.75 8.25-4.75-1.5,3q-1.5,3-6.75,6.25t-11.25,6.75-6.75,4.25l-.75.75 .25-1.75q.25-1.75 5.25-5.75t13.25-8.75z" fill-rule="evenodd"/>
 <path d="m50.75,716q1.25-3 2.25-3h1l.75,3q.75,3 3,2.75t5.25-1.75 3.75-.25 1,3 4.75.25l4.5-1.5-6,4q-6,4-13,7t-9.25,2.75l-2.25-.25 1.5-6.5q1.5-6.5 2.75-9.5z" fill-rule="evenodd"/>
 <path d="m285.5,16q17.5-1.5 25.5,1.5t12.25,9.25 4.25,15.75v9.5l3,5q3,5 11.5,21.5t11,21 4.25,13.25 1.5,10.5-1.5,4l-1.25,2.25 6.5,8q6.5,8 15.75,19.25t9.75,12.25 .5,4.5v3.5l-2.25,2.25q-2.25,2.25-8.25,4l-6,1.75 .75,7q.75,7-1.25,10t-2,6.5-2,7.5l-2,4 3,3.5 3,3.5-1.5,8q-1.5,8-4.75,12.25t-9.25,6.75-16,5-11.25,3.25l-1.25.75 .5,7 .5,7 5.25,3.25q5.25,3.25 15.25,6.75t21,7l11,3.5 11.5,13.5q11.5,13.5 15.5,15.5l4,2 3.25,4.75q3.25,4.75 4,9l.75,4.25 2,.5q2,.5 7.5,2t21.75,11.25 19,11.5 4,1l1.25-.75 3-2.5q3-2.5 2.75-5.75t6.75-10.75 12-13 10.5-11 6.5-5.75l1-.25v2q0,2 5.75.5t6-1.75l1.75-1.75q1.5-1.5 2.5-2l1-.5 5.5,1.5q5.5,1.5 8,2.5l2.5,1 2.25-4.25q2.25-4.25 6.75-13.75t7.5-18 8.5-19.5 9.5-16.5 4-6.5v-1l-1.25-.25q-1.25-.25-8.25,3.5l-7,3.75 2-4.75q2-4.75 4-8.5l2-3.75-6,2.25q-6,2.25-8.75,4l-2.75,1.75 1.5-3q1.5-3 6.75-6.25t9.25-3.5 5,4 4.5,2.75 3.75-1.25-1.25,8.25-3,10.5-.5,5 6.5,8.5 5.25,9l-.25,3-4.5.25q-4.5.25-7.75-3t-6.5-5.25l-3.25-2-3.25,7.5q-3.25,7.5-4.25,10t-3.5,12-5.5,14.5-4.75,10.75 2,11 2.25,11.75l-1.5,6.5-.5-.5q-.5-.5-2.75-7.25t-4.25-8.75l-2-2-3.5-.75q-3.5-.75-2.5,3.25t5.5,5.25l4.5,1.25 .25.25q.25.25 2.25,7.75t-1,16.5-7.5,15.5-11.75,17.75-13.75,19.25-13,14.5-14.75,12.25-12,7.5l-3.75,1.75-5-1.5q-5-1.5-18-6.5t-28-11.5-19-8.75l-4-2.25 2.25,9q2.25,9 5.25,18t6.75,21.5l3.75,12.5-4.25,2.5q-4.25,2.5-8.5,4.75l-8.5,4.5-4.25,2.25 1.5,21.5q1.5,21.5 7,56t7,60 1,117-3,158-3,133.5 6.25,78.25 12.75,15.25 12.5,5 20.5,0 20,1 6.25,2.25l.25.25-1.25,3.25q-1.25,3.25-9.25,8.25l-8,5 5.5-1.5q5.5-1.5 11.5-3.75l6-2.25-2,2.25q-2,2.25-6.5,4.75t-15,6.5-25,6.5-22-.5-12.5-4l-5-1-1.25,1.75q-1.25,1.75-1.75,6.25l-.5,4.5-2.25,1.25q-2.25,1.25-13.75,2.75t-15.25.75l-3.75-.75-.5-2q-.5-2-2-18.5t-2.5-21 0-58-1.5-95-3-68.5l-.5-27-.25-.25q-.25-.25-28.75-3.5l-28.5-3.25-2-13-2-13-1.25.5q-1.25.5-4,11.25t-5,11.5l-2.25.75-1.5,31q-1.5,31-9,77.5t-13.5,88.5-12,57-8.5,25l-2.5,10-5.25,3.25q-5.25,3.25-12.25,5.25t-11,0l-4-2-8.25,5.75q-8.25,5.75-11.5,9l-3.25,3.25-13,1q-13,1-33.5.75l-20.5-.25 2.25-4.5q2.25-4.5 8-10.75t13.75-8.75 19.25-7.75 17.75-13.75 11.25-14.75 7.5-9.5l2.75-3.25 6.5-31q6.5-31 8.5-41.5t3-16.5 3-57 5.5-77 4-29l.5-3-4.5-4-4.5-4-1-11q-1-11-4.5-89.5t-2-116 9-79 6-61-4.5-25.5-8.5-13.5-9.75-13.25-6.75-7.75-8.5-8-7-6h-1l-2.25,4.25q-2.25,4.25-4.25,11.25t-9,34-8,28l-1,1-2,7-3,10.5q-1,3.5-7,57.5t-6.5,54.5-2.75,7.75-2.5,7.5-3.25,13.25-5,19-2.25,17.5l-.25,11.5-4.25-2q-4.25-2-6.25-6t-3.25-12l-1.25-8-1.75,1.5q-1.75,1.5-12,10.25t-11.75,8.75h-1.5l8-8.5q8-8.5 11.25-11.75t6.25-5.25 4.5,4 4,11.5l2.5,5.5 3.5-15q3.5-15 5-20t1.5-7v-2l-1.25-.25q-1.25-.25-5.25.75t-20.5,3-19.5,3.5-4,1.5h-1l4-4q4-4 6.75-5.75l2.75-1.75-1.5-11q-1.5-11 0-47t5-68 8-47.5 8.5-26.5 11.5-32.5 14-51 11.5-42l5-12.5 10.75-8.75q10.75-8.75 19-14.5t11.25-8.25l3-2.5 2.5-14.5q2.5-14.5 5.5-16.5l3-2 1-12.5 1-12.5-1.25-.75q-1.25-.75-9.75-2.75l-8.5-2-2.5-2.5-2.5-2.5-10-3-10-3-5.5-6.5q-5.5-6.5-9.75-8.25l-4.25-1.75-1-5q-1-5-1.5-13.5l-.5-8.5-3.5-5.5q-3.5-5.5-7.5-16t-2.5-19.5 5-19.5 10-25.5 12-25 10.25-14.75l4.75-4.75 17-5q17-5 25-11t13.5-8.5 26-2.5 38-1.5zm35.25,44.25 2.25-.75 2.75,4.75q2.75,4.75 10.25,22.25l7.5,17.5-5.75,8.75-5.75,8.75 4-1.5q4-1.5 8.5-4.75l4.5-3.25-2,3.75q-2,3.75-4.75,8.5t-2,6 3.75,0l3-1.25-2.25,3q-2.25,3-6.5,7.5l-4.25,4.5 4.75,1.5q4.75,1.5 4.5,3.75t2.25,2.25h2.5l1.25-2.75q1.25-2.75 1.5-8.5t2.5-5 6,5 11,13.5 9.25,11.75 2.25,5.5l.25,3-4.5.25q-4.5.25-9.75-.5t-6.5-6-2.25-5.5l-1-.25-.25,3.5q-.25,3.5-1.75,9.5t-4.5,10.5l-3,4.5 1.25,11q1.25,11 4.75,8.75t5.5-2.5l2-.25-1.75,4q-1.75,4-.75,17l1,13-1.25,1.25q-1.25,1.25-9.25,1l-8-.25-1,1.25q-1,1.25-7.5,1.75t-16.25-1.75l-9.75-2.25 1.25,2.25q1.25,2.25 7.5,6t6.5,5.25l.25,1.5-10.5-3.25q-10.5-3.25-20.5-6.75t-23.5-5.5-34.5-4-21.25-2.25l-.25-.25 .25-1.75q.25-1.75 10.75-3.75l10.5-2 3.25-5.25q3.25-5.25 1.75-16.25t-2.75-17.5l-1.25-6.5 2.25,2q2.25,2 8.5,8.75t12.25,10.25 13,4 11.25-3.25 4.5-5.75l.25-2-7.5,1.75q-7.5,1.75-14.5-.75t-11.25-5.75-8.25-9.25-4.5-12 1.75-14l2.25-8 8.5-.75q8.5-.75 12-.75h3.5l4-2.5q4-2.5 8.25-4.75l4.25-2.25 2.25-8.25q2.25-8.25 5.25-12.75l3-4.5-4.5,1.5-6,2-1.5.5 1-2.5q1-2.5 9.75-10.25t8-8.5-1.5-2 .5-3.75 0-4-2.5-2.75-3.75-1.25h-2.5l7.5-5.5q7.5-5.5 12.75-9.75t7.5-5z" fill-rule="evenodd"/>
 <path d="m252.5,151.5q2.5,0 8.5,3.5t7.75,5.75 4,7 3.5,6.5 .5,4.5l-.75,2.75-3.75.75q-3.75.75-6-7l-2.25-7.75-2.75,1.25q-2.75,1.25-3,2.25t-2.5,0l-2.25-1-.5-2.5q-.5-2.5.75-6.25t-1.25-4.75-4.25.25-1.75-.75v-2l1.75-1.25q1.75-1.25 4.25-1.25z" fill-rule="evenodd"/>
 <path d="m261,184.5q2,0 3,.5l1,.5 2.25,1.75q2.25,1.75 2.5,3.25t-5-.5-5.5-3.75 1.75-1.75z" fill-rule="evenodd"/>
 <path d="m281.75,215.75q2.25-.25 7.5,7t5,9l-.25,1.75-4-1.5q-4-1.5-7.25-4.75t-3.75-5.75 0-4l.5-1.5 2.25-.25z" fill-rule="evenodd"/>
 <path d="m677.5,162.5h3.5l2.75.75q2.75.75 2,2.5t-3,3.5-4.75,5.25-2.5,7v3.5l1.75,1.25q1.75,1.25 18.25,3.25t18.25,3.25l1.75,1.25 3.5,15q3.5,15 4.5,20t-2.5,11.5l-3.5,6.5-1-2.5q-1-2.5-.75-9.5l.25-7-3.25,2q-3.25,2-16.75,14t-16,18-6.75,22l-4.25,16 7.5,2.25q7.5,2.25 16.75,8.5t16,11 36,20.5 32,16.5 12.25,2.25 10.5,1.75l1,.25v-1q0-1-3.25-2t-2-3.25 8.25-1.75l7,.5 5.25,4.25q5.25,4.25 7.5,9.75l2.25,5.5-3.75-2q-3.75-2-8-4.75t-4-1.5 4.75,6.75 5.25,14.5l.75,9-2.25-2q-2.25-2-10.5-11.75t-10.75-11.75-7-4.5-5.75-1.25-.5,3.25l.75,2-4.25-2q-4.25-2-10.5-6.25t-22.75-12.25-25.5-12.5-18.25-10.75-16-11-11.25-6.75-24.75-5.75-21-3.5-14.25,1.75-15,2l-1.5.5 1,.5q1,.5 4.5,2t-1.75,5.75-8.5,7.5-6.25,7.5l-3,4.25 12.75-.5q12.75-.5 11.25,3.5t-2.75,6.5l-1.25,2.5 5-2.25q5-2.25 9-4.25t24.75-1.25 23.25,4.75 23.25,22.75 27,23.5 13.5,10 16.25,9.75 21.5,9 20.25,5.75 7.75,2.75v1.5l-1.75.75q-1.75.75-14.75-.75t-25-7-21.25-11.75-17.5-12.5-13.5-10.5-17.5-15-14.5-12.5l-2.25-1.75 1.5,15.5q1.5,15.5 4,20.5t6.75,9.25 11.75,13.75l7.5,9.5 16.5,4.75 16.5,4.75 1,2.75q1,2.75 10.5,5.25l9.5,2.5 10.5-2.75 10.5-2.75-2,3.25q-2,3.25-9.5,6.25t-15.25,3.25l-7.75.25 1.5,5.5q1.5,5.5 4.25,6.75t14.75,2.25 25-1.5 36-11.25l23-8.75-2,3.25q-2,3.25-5.5,6.25t-2.5,4.5-8.5,6.5-22,9-16.75,3.75-4-2-1.75-1.75h-2l-1.5.5q-1.5.5-17.5-1t-22.25-5.75-7.75-10.25l-1.5-6-9.75-7.75q-9.75-7.75-18.5-12.5t-12.5-9.5-7.75-6.75l-4-2-4.25,6.25q-4.25,6.25-8.5,11.5t-15.25,14.25-27,18-32,15.5-31,13-18.25,9.25l-3.25,2.75-2,6.5q-2,6.5-5.25,15.25t-8.5,15.5-7.25,9.75-7.75,11.25-12.25,12.75l-6.5,4.5-2.25-2.75q-2.25-2.75-2.5-5.25l-.25-2.5h-5.25q-5.25,0-5.5-1l-.25-1-6,2.25q-6,2.25-13,4.25l-7,2-1.25-1.25q-1.25-1.25-2-3t-5-3.5l-4.25-1.75 1.5-3q1.5-3 8.25-8.75t13.75-12.25 15.25-12.25 14.25-13.75 12.75-18.25 13.25-18.25 12.75-12.75 15.5-12 15.5-12 20-16.5 20-16.5 19.75-17.25 23.25-29.25 10.75-17l1-.25-1.75,6.5q-1.75,6.5-9.75,22.5t-19.75,25.75-18,14.5-19,15.5-18,15-14.5,11.5-20.5,16.5-17.5,18.5-10.5,15.5-9,13-7.25,8.75-8,5.5-11.75,8.25-9,8.25l-2.75,3.5 4.5-1.75q4.5-1.75 15-5.75t18.75-5.75l8.25-1.75 .5,4q.5,4-3.25,13.5l-3.75,9.5 2.25-2q2.25-2 8.75-10.5t13-19.5 11.25-26.75 6.25-17.75l1.5-2 3,.5q3,.5 18-5.5t31.5-13 30.75-15.75 22-14.5 12-9.5 10.5-13 6.5-11.5l.25-2.25-5-6.5q-5-6.5-5.5-8.5l-.5-2 .5-7.5q.5-7.5-1-21t-1.75-13.75-20.5.5-23.5,2.5-10.25,3.75-11,1.25l-4-.75 2-3.25q2-3.25 3.75-5.5t1-2.5-9.75-1.75-9.25-1.75l-.25-.25 1.5-5q1.5-5 4.75-8.25t6.75-7.5-7-4-10.75,0l-.25-.25 1.25-2.75q1.25-2.75 16.25-10.25t15.5-8l.5-.5 1.5,1q1.5,1 2.5,2t26.25,2.25 28.25-10.75 8.25-23.25 22-26.5l16.75-15.25-1.5-8.5q-1.5-8.5-1.75-10l-.25-1.5-11-1.75q-11-1.75-18-3.75t-8.25-3.75 .25-9.75 2.25-12.75 4.25-4.75z" fill-rule="evenodd"/>
 <path d="m449.5,109.5q4.5,0 7,.25l2.5.25 2.25,3q2.25,3 17.75,20.5t19.75,22.75 12,15 9.25,13.25l1.5,3.5 4.5,3q4.5,3 10.25,10.25t8.75,5.75 6-2.75 3.25,3.25 .5,9.5 2.5,7 4.5,2.75 6.25.25l4-.5-11,6.5q-11,6.5-16,9.5l-5,3-.25-1.75q-.25-1.75 5-17.25l5.25-15.5-4,2.5q-4,2.5-7.25,9.5t-5.25,9.5l-2,2.5 .5-7.5q.5-7.5-9-18.5t-21.5-25-15.75-18.25-17.5-20-19-23-6-9.5l-.75-2.25 1.25-.75q1.25-.75 5.75-.75z" fill-rule="evenodd"/>
 <path d="m581.25,608.5 .75-6.5 1,1q1,1 2,6.75t3.5,6.5 3.5,0 5.5,1.25l4.5,2-3.5,1.75q-3.5,1.75-5,3.25t-4.25,1.5h-2.75l1.5,3 3.25,6.5q1.75,3.5 7.75,3.5h6l-.5,2.75q-.5,2.75-4.5,4.25t-5.25,2.75-1,18.25l.25,17 2,.75q2,.75 6.75-2t6.25-9.75 5.25-13.75 7.75-11.25 11.5-5 10.75,2.75 4.25,5.25 .5,10l-.5,8-.5,1.5-.5,1.5-.5.5q-.5.5-2-11t-3.25-13.25l-1.75-1.75-3.75.75q-3.75.75-4.5,3.5t-2.75,4.25l-2,1.5-.5,2.5q-.5,2.5-1,4t-10.25,12.75-9,13 4.25,5 2,4.5 0,1.75 7-1.75 8.25-7.25 7-12.5 2.5.5-7,15.25-11.5,9.5-9.5-.5l-3.25-2.75-3.5-.75q-3.5-.75-2,3.25t2.5,5 4.75,1.5 8.75,12l5,11.5-4-2.5q-4-2.5-6.25,2.25t-8.5,9.5-11.75,12.25-7.25,9l-1.75,1.5-.5-3.75q-.5-3.75-10.75,3t-12.75,10.25l-2.5,3.5 .75,4.5 .75,4.5-2,.5q-2,.5-2.25,7.5t-3.75,20-5.25,23.25-2.25,10.75l-.5.5 1.75,2.75q1.75,2.75.25,9.25t-2.25,7.25l-.75.75-2,1q-2,1-7,1.5l-5,.5-5,6.5q-5,6.5-15.5,10.25l-10.5,3.75 3.25-7q3.25-7 8.5-11.5l5.25-4.5 3.25-7.5q3.25-7.5 4.25-8.5l1-1-.5-7q-.5-7 3-31.5t6.5-36.5 9.25-18.75 7.5-10l1.25-3.25-4.25,3.25q-4.25,3.25-10.25,6.25t-9,4.25l-3,1.25 2-12q2-12 3-12.25l1-.25-1.25-2.25q-1.25-2.25 2.75-10.75t10.5-24.5 12.25-34.25 7.5-21-3.25-9.75-9-14.5-4-10.5v-3l1,2q1,2 3.25,5.75t4.75,4.5l2.5.75 1,3.75q1,3.75 3.5,5.75t5,2.5 3,2-1.75,3.75-2,3.25l.25,1 5-2.25q5-2.25 7.75-4l2.75-1.75 .75,6.25q.75,6.25 2.25,5.25t2.75-2.25l1.25-1.25 1.25-.5q1.25-.5.25-4t-2.75-4.5-2-6.25-2-6.5-.75-2.75 1.75-8z" fill-rule="evenodd"/>
 <path d="m554.75,579.25q6.75-1.25 7-1t7.25,1.75l7,1.5 3.5,2q3.5,2-3.75,2.25t-8-1-6.75,0-6.25-.25l-.25-1.5-3.25,1.75q-3.25,1.75-6,2.5t-4.75,3.75-2,7v4l-1-1.5q-1-1.5.5-8.5t5.75-9.25 11-3.5z" fill-rule="evenodd"/>
 <path d="m592.5,851.5 20.5-1-17,2.25-17,2.25 3,9.75q3,9.75 2.25,12t-1.5,6.5l-.75,4.25-2.75.25q-2.75.25-4.5-1.5l-1.75-1.75-1.25,3.25q-1.25,3.25-4,7t-11.25,7.5l-8.5,3.75 2-5.25q2-5.25 3.75-8.5t5.25-16.75l3.5-13.5 .25,7.75q.25,7.75 1.75,7.75h1.5l2.75-2.75q2.75-2.75 4.25-9.75t.25-9.75 19.25-3.75z" fill-rule="evenodd"/>
 <path d="m564,593.5q5,0 4.5,1.5t-1,2l-.5.5-4.25.25q-4.25.25-4-2t5.25-2.25z" fill-rule="evenodd"/>
 <path d="m568.5,611q2.5-.5 3.5-.25t.25,3.75l-.75,3.5-.25.25q-.25.25-6.25-1.25l-6-1.5 3.5-2q3.5-2 6-2.5z" fill-rule="evenodd"/>
 <path d="m574.25 780q1.75-5 2.75-5h1l-4.25 20-4.25 20 1.5-15q1.5-15 3.25-20z" fill-rule="evenodd"/>
 <path d="m587 831.5h4l6.5 1.75q6.5 1.75-1.5 1.5t-10.5-1.75 1.5-1.5z" fill-rule="evenodd"/>
 <path d="m592.5,796.5v-2.5l3.5,5.5q3.5,5.5 11.25,17.75t10,16.5 2,4.5l-.25.25-2.5-1q-2.5-1-7.75-8.25t-10.75-18.75-5.5-14z" fill-rule="evenodd"/>
 <path d="m617,752.5 .5-.5-1.5,6q-1.5,6-4,15.5t-4.5,18l-2,8.5-.5-.5q-.5-.5 1-14.5t6-23 5-9.5z" fill-rule="evenodd"/>
 <path d="m662.5,586q4.5-.5 12.5,2t12.5,7.5l4.5,5-.5.5q-.5.5-11,2t-20,7-30.5,4.25l-21-1.25 1.5-1.25q1.5-1.25 6.5-2.25t18.5-1.25l13.5-.25v-1q0-1-11-1.25t-21-2.25l-10-2 1-.5q1-.5 17.5-1t22.25-1.75l5.75-1.25 .25-3q.25-3-.5-4.5t2-2.25 7.25-1.25z" fill-rule="evenodd"/>
 <path d="m617.5,618 7.5-2 2,5.75 2,5.75 1,.5q1,.5 7.5.75l6.5.25-1,1.25q-1,1.25-9.5,3.25t-11.25-.75-4-5.5-5.75-3l-4.5-.25 1-2q1-2 8.5-4z" fill-rule="evenodd"/>
 <path d="m609.25,809.75q.75-.25 8,5t11,10.5l3.75,5.25-8.25-5.75q-8.25-5.75-11.75-10.25l-3.5-4.5 .75-.25z" fill-rule="evenodd"/>
 <path d="m609,842q0-1 17.25,1l17.25,2-2.75.75q-2.75.75-16.25-.75t-14.5-1.75l-1-.25v-1z" fill-rule="evenodd"/>
 <path d="m630.5,714.5q7.5,0 7.75.75l.25.75-1.25.75q-1.25.75-8,0l-6.75-.75 .25-.75q.25-.75 7.75-.75z" fill-rule="evenodd"/>
 <path d="m648.5,730.25q2.5-.25.5,2t-3.25,3l-1.25.75-5.25,3.25q-5.25,3.25-7.75,4.5l-2.5,1.25 2.25-3q2.25-3 8.5-7.25t8.75-4.5z" fill-rule="evenodd"/>
 <path d="m634 621.5q0-1.5 9.75 0t7 2.75l-2.75 1.25-7-1.25-7-1.25v-1.5z" fill-rule="evenodd"/>
 <path d="m646,772q8.5-10 9.25-9.25l.75.75-2.25,4.25q-2.25,4.25-6,8.5t-7.75,6.75l-4,2.5 .75-1.75q.75-1.75 9.25-11.75z" fill-rule="evenodd"/>
 <path d="m645.25,790 8.75-8-2,4.75q-2,4.75-5,8.5l-3,3.75 4,.5q4,.5 2,3.75t-2.25,5.5 4.25,13.75 5,18.5l.5,7-1.5-3q-1.5-3-5-13.5t-6-17.5-1.75-9.25-3-4.5 5-10.25z" fill-rule="evenodd"/>
 <path d="m650,679.5h1l5.25,7.25q5.25,7.25 5.75,12.75t2,9 5,11 3.5,17.5-3,18-8,14.5l-5,6.5-1-.5q-1-.5 4.5-11t7-19.5-1.5-19-4.75-14l-1.75-4-8,.25-8,.25-.75-2.25q-.75-2.25-.5-8t-2.25-6-2.25-2.75l.25-2.5 5.75-3.75q5.75-3.75 6.75-3.75z" fill-rule="evenodd"/>
 <path d="m652.5,856 8.5-1.5 4.25,6.25q4.25,6.25 7.25,14.25t1.5,14-2.25,7.25l-.75,1.25-3.5-1.5q-3.5-1.5-6.75-4.75t-5.25-7.25-3.75-13.25-5.25-9.5l-3.5-.25 .5-1.75q.5-1.75 9-3.25z" fill-rule="evenodd"/>
 <path d="m680.5,77.5 2-2.5 .5,4q.5,4 1.5,5t-1,8.5-1,14.5-2.25,12.25-7.75,11l-4.5,5.75 3.25,1.5q3.25,1.5 3.75,2.5l.5,1-.75,2.75q-.75,2.75-8.25,1.5l-7.5-1.25 1.25-3q1.25-3 1-6.75t2.25-6.25 7.25-8.25l4.75-5.75 1.5-17q1.5-17 3.5-19.5z" fill-rule="evenodd"/>
 <path d="m675,151.5q4,0 12,3t8.25,4.75l.25,1.75-2.25.25q-2.25.25-13-3l-10.75-3.25 .75-1.75q.75-1.75 4.75-1.75z" fill-rule="evenodd"/>
 <path d="m699.5,100.25q-1.5-2.25 1.5-2l3,.25 6.5,3.5 6.5,3.5-8-1.5q-8-1.5-9.5-3.75z" fill-rule="evenodd"/>
 <path d="m702,111.5q3,0 6.75.75t3.5,1.75l-.25,1 3,2.25q3,2.25-2,2.75t-7.5-2l-4.5-4.5-2-2h3z" fill-rule="evenodd"/>
 <path d="m705,244 2.5-5-1,9.5q-1,9.5-2.75,33.5l-1.75,24-1.25-8.5q-1.25-8.5.25-28.5t4-25z" fill-rule="evenodd"/>
 <path d="m711,63.5h2l5.25,4.25q5.25,4.25 7.75,8.75t7,11l4.5,6.5 2.25-.25q2.25-.25 9.25,1.75t15.25,4.75 12.25,6.75 6,9.5 2,8v2.5l-3.5-5.5q-3.5-5.5-6.75-9.25t-11.25-6.25-10-2.5h-2l4,3 4,3-8-1.5q-8-1.5-13.75-5.75t-10.75-12.75-10.25-15.75-6.25-8.75 1-1.5z" fill-rule="evenodd"/>
 <path d="m728,46q6-.5 11.25,1.25t5.5,2.75l.25,1-15,.75-15,.75 3.5-3q3.5-3 9.5-3.5z" fill-rule="evenodd"/>
 <path d="m779,175.5q1,0 1.25.25t2.75,14.25 5.25,18.75l2.75,4.75h7 7l10.5,6q10.5,6 16.75,10.25t11.25,13.25 10,22 6.5,26.5 .25,30.25l-1.25,16.75-2.25-1.25q-2.25-1.25-2.75-4.25l-.5-3-2.75,2.5q-2.75,2.5-5.75-5.25t-4-10.25l-1-2.5h.5q.5,0 6,2.25t6.75-9.75-1.75-24-9.5-27-12.25-18.75-15.5-7-11.5-3l-1.75.25-.25-.25q-.25-.25-.5-2.75t-8.5-1-9.5,2.75-6,5-9.5,10-11.25,14.25-10.75,14.25-9.5,13.5-9.5,12l-4.25,4.75 1.5-4.5q1.5-4.5 11.25-20.75t16.5-25 11.5-15.75 6.5-8.5 6.5-4.25 5.75-3l1-.25-2.75-17.5q-2.75-17.5-2-21.25l.75-3.75h1z" fill-rule="evenodd"/>
 <path d="m737,472.5q1,0 4.25,3.25t4.25,8.25 3.5,21.5 9.75,27.75 12.5,18.5 11.25,17.75 6.25,12l.25,1.5-2.75-1.5q-2.75-1.5-8-8.75t-11-15-8.5-12.25-6-5l-3.25-.5-3-6.5q-3-6.5-5.5-15t-3.75-27.25l-1.25-18.75h1z" fill-rule="evenodd"/>
 <path d="m738.25,111.75q-1.75-3.75-.5-3l1.25.75 2.75,1.75q2.75,1.75 4.75,6.75t4.25,16 3.25,12l1,1 5,1.75q5,1.75 20.5,3.25l15.5,1.5-7.5,1.5q-7.5,1.5-20.5,0t-16.25-3.75-5.25-6.25-4.25-16.75-4-16.5z" fill-rule="evenodd"/>
 <path d="m743.75,548-1.75-8 3.25,2q3.25,2 4.75,5t10,38.5 13,51.5 7.5,39 7.25,38 2.75,14.75l-1.5-.25-2.25-3.75q-2.25-3.75-7.25-18.25t-10.5-42-9.5-38-6.5-22.5-5-30-4.25-26z" fill-rule="evenodd"/>
 <path d="m744.25,40-.25-1 8.5,2.25q8.5,2.25 24.5,7.25t20.25,8.75 8.75,10.25 7.5,15.5 4.5,19.5l1.5,10.5-3.5-7.5q-3.5-7.5-7.75-18.75t-9.25-18.25-13.5-11-21.5-7.5-16.25-6.25-3.5-3.75z" fill-rule="evenodd"/>
 <path d="m957,96.5q4,0 17,2t22.25,8.25 14.75,13.75 10.5,20.5 6,16-.5,22-3.5,26-7.25,18.25-8.5,16-5.75,14.25-1,21 4.75,16.75 9.25,9.75 13.5,8.5 14.75,9.25 9.75,7.25 9,12.5 8,19.5l1.5,9-2.25,2.75q-2.25,2.75-5,5.5l-2.75,2.75v7.5q0,7.5 4.5,32.5t13,70 9.25,49l.75,4-1.25-1.5q-1.25-1.5-6.25-23t-14.5-59-10-38l-.5-.5v10.5q0,10.5 5.5,43t9,47.5 14.5,63 13.25,54l2.25,6 1.25-.5q1.25-.5-.25-16t-5-40l-3.5-24.5 6,22.5q6,22.5 17,78.5t18.5,92 23.5,111l16,75 7.5,5.5q7.5,5.5 9.75,10.25t3.25,5 2.25.75l1.25.5 .5,4.5q.5,4.5.75,7.5l.25,3-1.25.5q-1.25.5-3.75,10.5t-7.25,14l-4.75,4 3.5,2.25q3.5,2.25 4.75,4t-.25,6.75-4.5,8.5l-3,3.5 .75,3.25q.75,3.25 2,4.5t1.25,3.75v2.5l-2.25,2.25q-2.25,2.25-7.25,4.25t-18,2.5-20.75-2.25-9.75-6.75-2.25-5l-.25-1-15,2.75q-15,2.75-22.25,5.5t-9,4l-1.75,1.25-10.5,1q-10.5,1-12.5,0t-2.75-1.75l-.75-.75-2.25.75q-2.25.75-4.75,1.25t-12-1-106-3.75l-96.5-2.25 1.75,4.5q1.75,4.5 1.75,8v3.5l-1.75,1.25q-1.75,1.25-30.25,1.25t-33-2.5-4.75-2.75-.25-3.25v-3l1.75-1.75q1.75-1.75 4.25-2.5l2.5-.75-1.25-5q-1.25-5-1.5-12.5l-.25-7.5-9.5-1.75q-9.5-1.75-10.25-2.5l-.75-.75-.5-2q-.5-2 2-7.5t6.25-7.25l3.75-1.75-2.75-4.25q-2.75-4.25-1.25-22.75t4.75-22.25 9.75-6l6.5-2.25 14.75-88.5q14.75-88.5 16-98.5t-1.75-12.25-4.5-5.5l-1.5-3.25 3.5,2.25q3.5,2.25 5.25,2.5t7.75-36.25 9-56.5 4.25-28.75l1.25-8.75-.75-1.75q-.75-1.75-5.25-21.25t-4.5-42 2.5-34l2.5-11.5 .5.5q.5.5 2,40t3,43.5l1.5,4 .5-.5q.5-.5 6.5-37.5t10-63.5 9-65.5 2.5-41.5-4-5.5l-1.5-3-2,4q-2,4-5,11.5t-1.5,18 2.25,12.5l.75,2-2.25-1.5q-2.25-1.5-4.25-5.5t-.5-19 7.25-27.75 8.5-17.5 6.5-9 20.25-18.75 22.75-19.25 7.25-6.75 1-4v-2l-.75-1.75q-.75-1.75-7-4.5t-6.75-3.25l-.5-.5-1.5-3q-1.5-3-4-12t-7-18.5-5-11.5 1-18 1.75-20-4.75-4.5l-5-.5 1.5-2.25q1.5-2.25 2-3.75t-.75-3.75 .25-10.75 7.75-26.25 14.75-24.25 19.5-11.5 20.5-7.5 13.5-2.5zm-194,879q1,0 13,4.5t30.5,8 44.5,7.5 80.5,7 58,5.75l3.5,2.75-2.5,5.25q-2.5,5.25-5.25,7.5t-4,3l-1.25.75-13.5,1q-13.5,1-50.5-.5t-82.5-9-53.75-11.75-12.75-9.25-5-5.5l-.5-.5-.5-5.5q-.5-5.5.25-8.25l.75-2.75h1zm232.75-587.75q35.75-2.75 38-1.5l2.25,1.25 2.25,4.25q2.25,4.25 4.75,15.75t15,74 18.5,90 13,60.5 13.5,69 9,48 12,57.5 18,91 7.75,53-1,9-.75,4l-.5,2.5-1.25,2.5q-1.25,2.5-4.5,3.5t-5.5,2.25-5.75.75l-3.5-.5-4,3-4,3h-5.5q-5.5,0-16.5,4t-46,8-79,4.5-84.5-3-74-10.5-42.25-11.25l-8.75-4.25v-4q0-4 3.25-7.75t7.25-5l4-1.25 1.75,6.5q1.75,6.5 2.5,7.25l.75.75 5,1q5,1 8.5-.5l3.5-1.5 .75-1.25q.75-1.25 13.75-78.25t17.5-101.5l4.5-24.5 4.25,2.25q4.25,2.25 10.5,7t11.75,10.25l5.5,5.5-1.5-5q-1.5-5 .25-5.25t19.75,5.75 30.5,12.5 19,11.5 7.5,5.25l1,.25-1,23.25q-1,23.25-6.25,26.5t-8.25,4.25-9.5-7.5-16.5-28-12-23l-2-3.5 1.5,6.5q1.5,6.5 8,21.5t10,20.5 9.25,13.75 6.25,8.75l.5.5 2.5-1.5q2.5-1.5 9-6t7.5-4.75l1-.25 .25,28 .25,28-2.75.75q-2.75.75-36.75,3.75t-61.25,9.25-27.5,7.25l-.25,1 15-2.75q15-2.75 30-5.25t49-5.5 34.25-2.75 2,5l1.75,4.75 4,1q4,1 6.5.5l2.5-.5 2.75-4.25q2.75-4.25 3-7.25l.25-3 10,.75q10,.75 40,2.25l30,1.5-3-1.5q-3-1.5-26-3.5t-37-2.75-14.25-4.75 1-30.25 4.5-27.5l3.25-1.25-1.75-.75q-1.75-.75-4.75-1t-2-5.75 3-5l2,.5-2.75-5.5q-2.75-5.5-4-73.5l-1.25-68 3.5,2.25q3.5,2.25 7,4.25t27.5,11.5 29.25,13.75 11.25,11.75 6,8.5v1l-2.75.75q-2.75.75-6.5,3t-5.75,7.75-1.25,10.25l.75,4.75 1,.25q1,.25 3.5-8.5t3.5-9.75l1-1 1-.5q1-.5 7-.25l6,.25-1.75-6q-1.75-6-6.5-12.25t-13.75-13.25-23-12.5-26-11-16.75-11.75-5.75-32.75-4-117-2.5-116l.5-25.5 1.75-1.25q1.75-1.25 37.5-4zm-179.75,362.75 .5-.5 3.75,1.75q3.75,1.75 5,2.5t-.25,14.25-7.75,42.5-8,30.5l-1.75,1.5-1-4.5q-1-4.5-.5-18.5t5-41.5 5-28zm19.75-114.5 .25-1 1.25,1q1.25,1 2.75,5.5t-1.5,33-6.75,51-6.75,21.75l-3-.75-2.25-1.25q-2.25-1.25-.75-15.25t9-53.5 7.75-40.5zm47.25-217 4-31 22,2.25 22,2.25 .75,1.25q.75,1.25 1.25,15.25t2,86 1.5,102-.25,30.25l-.25.25 .25.25q.25.25 1.75,6.25t3,70l1.5,64-4.75-2.75q-4.75-2.75-17-10.5t-13.75-7.25l-1.5.5 3.25,3.25q3.25,3.25 9.25,7.25t15.75,8.25 9.5,19.5l-.25,15.25-3-1.5q-3-1.5-10-6.5t-17-9.5-38-15-33.25-13.25l-5.25-2.75 1.5-14.5q1.5-14.5 6.5-44.5l5-30 3.5,10q3.5,10 8.5,27.5l5,17.5 .5-1.5q.5-1.5-2.5-21t-8.5-38 8.25-110.5l13.75-92 3.5,2.25q3.5,2.25 7.75,6t9.75,11.25 11,21.5 7,23.5l1.5,9.5 2,.5q2,.5 5.5,14t4,33.5l.5,20 2-10.5q2-10.5.5-28t-7-31.5-11-30-11.75-25.25-14.25-15.75-9-6.75 3-31.25zm-19,54.25 1-.25-.25,15.5q-.25,15.5-3.75,43.5t-9.25,61l-5.75,33-1.25-1q-1.25-1-3.75-11t5-55.5 12.25-65.25 5.75-20zm98-368.75q8,0 17,2.5t15.75,8.75 11.25,12.75 9,18 5,14.5-1,19.5-13,42-13,32 0,20 4.5,19.5 11.75,12.75 17.75,11.25 16.75,11.25 11,14.25l3.25,7.5-14.5,4.75q-14.5,4.75-37.5,8.25t-53,4-47-2.5-26.25-6.75-11.25-5.25l-2-1.5 1.5-4q1.5-4 18.25-18.75t25-20.5 10.25-7.75l2-2 1-3q1-3 1.25-8.5l.25-5.5 7.5-2.75q7.5-2.75 9.25-5l1.75-2.25-1.25-.25q-1.25-.25-11.75,1.25t-18,0l-7.5-1.5-.75-1.25q-.75-1.25-2.5-11t1-11 2.75-2.75v-1.5l-.25-.25q-.25-.25-5.75-1.25l-5.5-1 .5-.5q.5-.5 10.75-1.25l10.25-.75-.75-1.75q-.75-1.75-5.25-3.75t-12.25-1.75l-7.75.25 .5-4q.5-4-1-9l-1.5-5 4-7.5q4-7.5 5.5-13.5t1-8l-.5-2-3.25-5.25q-3.25-5.25-5.75-7.75l-2.5-2.5 1.25-3.25 6.25-16.25q5-13 10.75-19.25t16.75-12.25 21.5-9 18.5-3zm-17,388h1l2,1.75q2,1.75 6,84.25l4,82.5-2.25-2q-2.25-2-4.75-6t-4.5-9.5-3.5-72-.25-72.75 2.25-6.25zm1,191 .5-25.5 3,5q3,5 5.5,10.5t3.5,39.5 1,69v35l-5.5-5q-5.5-5-7-54t-1-74.5zm10.5,171.75q3.5-.25 4.75,32.75t-.5,35.75-4.25,3.25l-2.5.5-2.25-1.25q-2.25-1.25-2.75-12.75t.75-34.25 2.25-23.25l1-.5 3.5-.25z" fill-rule="evenodd"/>
 <path d="m784.5,143.75q17.5-.25 26.5,2.75t12.25,5.75 5.75,8.25 2.75,10.5l.25,5-1.25-1.5q-1.25-1.5-6.25-10t-5.25-8.75l-.25-.25-9-3q-9-3-26-4.75l-17-1.75v-1q0-1 17.5-1.25z" fill-rule="evenodd"/>
 <path d="m818.5 438.75 7.5-1.75-2 2.25q-2 2.25-6.5 4.75t-12 5.5-23 3.75-15.5-1.25v-2l10-1.75q10-1.75 22-4.75t19.5-4.75z" fill-rule="evenodd"/>
 <path d="m801,327.5q6,0 13.25,3.25t11.5,9.25l4.25,6-4.25-2q-4.25-2-9.5-5.25t-7.25-3.75-14.25-.25l-12.25.25 1.25-1.75q1.25-1.75 6.25-3.75t11-2z" fill-rule="evenodd"/>
 <path d="m784,168.5q1,0 5.25,3.75t8.25,9.75 5.25,7.75l1.25,1.75 6.5,2q6.5,2 18.5,2.25l12,.25-1,1.25q-1,1.25-5.5,2.75t-13,2-15-2.5-8.75-5.25-8.5-14l-6.25-11.75h1z" fill-rule="evenodd"/>
 <path d="m798,339.5q7,0 8.75,1.25l1.75,1.25-.25,1.5q-.25,1.5-12.25,1.5t-12-2v-2l3.5-.75q3.5-.75 10.5-.75z" fill-rule="evenodd"/>
 <path d="m789.5,113.5v-2.5l5.75,6.25q5.75,6.25 17.75,10.75t18.5,7.25l6.5,2.75-1.5-4.5-1.5-4.5 3.25,2q3.25,2 7,5.25t14.25,8l10.5,4.75h-10.25q-10.25,0-9.5,2.5l.75,2.5-5-2.75q-5-2.75-9-5.25t-20.5-9.5-20.75-10.75-5.25-6.75-1-5.5z" fill-rule="evenodd"/>
 <path d="m801.5,276.25q1.5-.25-.75,10.75t-4.75,22.5-2.75,11.75l-.25.25-2,.25q-2,.25.75-17.25t5.5-22.75l2.75-5.25 1.5-.25z" fill-rule="evenodd"/>
 <path d="m814,427q15-3.5 15.25-3.25l.25.25-1.5,3q-1.5,3-4.75,4.25t-16.75,4.25-15.5,2l-2-1 5-3q5-3 20-6.5z" fill-rule="evenodd"/>
 <path d="m796.5,993.75q4.5-.25 4.75,1t-.25,3.25l-.5,2-1.25,2.75q-1.25,2.75-3.5,1.5t-3-5.75 3.75-4.75z" fill-rule="evenodd"/>
 <path d="m812,261.5q7-1 14.5,1.25t7.5,3.25v1l-17.25.5-17.25.5 2.75-2.75q2.75-2.75 9.75-3.75z" fill-rule="evenodd"/>
 <path d="m812.25,409.5q4.75-7.5 6.25-7.5h1.5l-2,6.75q-2,6.75-6,11.25t-6,4.75l-2,.25 1.75-4q1.75-4 6.5-11.5z" fill-rule="evenodd"/>
 <path d="m844.5,184q8.5-1.5 16.5,2t8.5,5.25l.5,1.75-13.5-1.25q-13.5-1.25-24,.25t-12.75.75l-2.25-.75-.25-1q-.25-1 9.25-3.25t18-3.75z" fill-rule="evenodd"/>
 <path d="m823.25,104.5q-.25-3.5 2-1.5t5.5,11l3.25,9-2.25-2q-2.25-2-4.75-6t-3-5.5l-.5-1.5-.25-3.5z" fill-rule="evenodd"/>
 <path d="m834 324-5.5-10 5.5 5q5.5 5 7 7.5t2.5 9.5l1 7-2.5-4.5q-2.5-4.5-8-14.5z" fill-rule="evenodd"/>
 <path d="m833.75,368.5q2.25-8.5 3.25-8.5h1l.25,2q.25,2-1.5,14.5t-3.25,12.5h-1.5l-.25-6q-.25-6 2-14.5z" fill-rule="evenodd"/>
 <path d="m899,217.5q1,0 3.25.75t2.5,2.75-4,.5l-4.25-1.5 .75-1.25q.75-1.25 1.75-1.25z" fill-rule="evenodd"/>
 <path d="m917,171.5q3,0 10.25,3.25t7.5,3.5l.25.25-12.5-1.5q-12.5-1.5-12-3t2-2l1.5-.5h3z" fill-rule="evenodd"/>
 <path d="m920.5,186.5q5.5-1 7.75.75t3.25,3.25 .75,2.75-1.75,1.5l-1.5.25 .5,3.25q.5,3.25-2.75,3t-5.5-4.5-4.5-6.5l-2.25-2.25 .25-.25q.25-.25 5.75-1.25z" fill-rule="evenodd"/>
 <path d="m1010.5,753.5-2.5-10.5 2.25,2q2.25,2 6.25,9.5t8,13 5,10 0,14l-1,9.5-.5-1q-.5-1-3-13.5t-6.25-17.25-4.75-5l-1-.25-2.5-10.5z" fill-rule="evenodd"/>
 <path d="m1045,792.25q10-.75 15.25,2.5t13.25,11.75 7.75,18l-.25,9.5-6.5-.75q-6.5-.75-6.75-.5l-.25.25 1.5,3.5q1.5,3.5 6,10t7.25,16.25 7,14 4.75,6.75-.75,9.25 1.75,9.75l6.25,6.25q3.25,3.25 5.75,10.75t3,21-.75,24.25-9.75,9.25-15.25-10.25-11-14-13-16-14.25-22.75-14-27.5l-8.5-15.5 8.5,10.5q8.5,10.5 17.5,29t13.25,23.75 11,12.5 12,14.5 7.75,9.25 5.5,2h3l1.75-1.75q1.75-1.75 2.25-14.75t-2-24.5-5.75-15.75-5-5.5l-1.75-1.25-.5,1.5q-.5,1.5-2.25,14.5t-2.75,13h-1l.75-4q.75-4-.75-18.5t-6.25-20.75-9-12.5-5.25-9.25l-1-3 6.25,6.25q6.25,6.25 10.75,11.25t5.75,4.25l1.25-.75-1.5-3.5q-1.5-3.5-6.5-10.5t-7.75-9.75-14-8-13-7l-1.75-1.75h1q1,0 13,4.5t15.25,6.25l3.25,1.75-1.5-5.5q-1.5-5.5-5.5-11t-2.75-10.75 6-6 3.25-5.75-9.75-14.75l-8.25-9.75-11-1.75-11-1.75 10-.75z" fill-rule="evenodd"/>
 <path d="m1122.5,928.5q6.5,0 15.25,2.25t9,3.75l.25,1.5-15-2.25q-15-2.25-16-2.5l-1-.25 .5-1.25q.5-1.25 7-1.25z" fill-rule="evenodd"/>
</svg>
