<?xml version="1.0" encoding="UTF-8"?>
<svg enable-background="new 0 0 162 158.4" viewBox="0 0 162 158.4" xmlns="http://www.w3.org/2000/svg">
 <path d="m82.56,13.2c.982-1.059 1.877,1.919.48,1.92 .345-.73.245-1.637-.48-1.92z" fill-rule="evenodd"/>
 <path d="m72.24,13.44c.847.273 1.975.265 2.88.48-.179.542-1.346.094-1.92.24 .02.94 1.3.62 1.92.96-.241.479-1.062.378-.96,1.2-1.341-.672-1.924-1.892-1.92-2.88z" fill-rule="evenodd"/>
 <path d="m82.08,15.36c.494.066.226.894.72.96-.508.853-1.438-.515-.72-.96z" fill-rule="evenodd"/>
 <path d="m131.04,24c-.356-.204-.516-.604-.48-1.2 .525.035.515.605.48,1.2z" fill-rule="evenodd"/>
 <path d="m49.68,50.64h.48c.112.512-.343.457-.72.48 .046-.194.241-.239.24-.48z" fill-rule="evenodd"/>
 <path d="m55.68,53.28c-.612,1.628-2.713,1.768-4.8,1.92 .152-.888 1.348-.732 2.4-.72 .68-.969 1.278-1.079 2.4-1.2z" fill-rule="evenodd"/>
 <path d="m111.6,54.24c-1.487,1.123-3.874-.033-6,.24 .948.892 3.388.292 4.801.72-.509,1.696-2.458.768-3.601.72-2.781-.116-5.809-.266-8.88-.24-1.507-.01.002-.405.72-.24 .691-.029 1.571.131 1.92-.24-1.137-.551-3.136-.09-3.84-.48 3.449-1.056 8.221-.549 11.521-.72 1.264-.065 2.379-.101 3.359.24z" fill-rule="evenodd"/>
 <path d="m107.76,59.76c-.527.733-1.537-.277 0,0z" fill-rule="evenodd"/>
 <path d="m14.64,60.24c.315.084.377.422.72.48-.098.598-.93.014-.72-.48z" fill-rule="evenodd"/>
 <path d="m13.68,63.6c.761.438.836,1.563 1.2,2.4-.729-.471-1.439-.961-1.2-2.4z" fill-rule="evenodd"/>
 <path d="m12.24,63.84c.104,1.656 1.03,2.489 1.68,3.6-1.38-.476-2.619-2.206-1.68-3.6z" fill-rule="evenodd"/>
 <path d="m43.92,64.56c.036-.597.813-.07.96,0-.158.719-.513-.229-.96,0z" fill-rule="evenodd"/>
 <path d="m27.6,67.2c.041.521-.852.108-1.2.24 .219-.806.446-.119 1.2-.24z" fill-rule="evenodd"/>
 <path d="m73.92,66.96c.388-.067.413.227.72.24-.402,1.118-.899,2.141-2.16,2.4 .308-1.052 1.034-1.686 1.44-2.64z" fill-rule="evenodd"/>
 <path d="m27.6,67.92c.755-.115.938.342 1.44.48-.048.337-1.57.153-1.44-.48z" fill-rule="evenodd"/>
 <path d="m27.6,69.12c.829-.657 2.203.188 3.12.24-.694.521-2.028-.363-3.12-.24z" fill-rule="evenodd"/>
 <path d="m95.04,80.16c-.356.104.095.307 0,.72-2.211-.855-3.79-.859-6-1.68 .113-1.25 2.11,1.012 2.4-.48 1.608.871 4.07.889 5.279,2.16-.437-.362-1.344-.255-1.679-.72z" fill-rule="evenodd"/>
 <path d="m103.2,78.96c1.764.316 2.956,1.204 4.56,1.68-.584.351-1.646-.201-2.399-.479-.802-.298-1.88-.553-2.161-1.201z" fill-rule="evenodd"/>
 <path d="m68.88,86.4c-.218.502-.708.731-1.44.72 .139-.582.906-.534 1.44-.72z" fill-rule="evenodd"/>
 <path d="m68.88,89.04c.318-1.121 1.455-1.426 2.4-1.92-.53.91-1.348,1.531-2.4,1.92z" fill-rule="evenodd"/>
 <path d="m89.76,88.08c-1.175,1.625-3.554,2.046-5.279,3.12-.541-1.744 3.239-1.237 3.6-2.88 .831.193.922-.357 1.679-.24z" fill-rule="evenodd"/>
 <path d="m72.48,88.56c-.926.675-1.474,1.727-2.64,2.16 .784-.816 1.042-2.158 2.64-2.16z" fill-rule="evenodd"/>
 <path d="m84.24,89.76c-.058.423-.413.547-.96.48 .158-.322.513-.447.96-.48z" fill-rule="evenodd"/>
 <path d="m86.64,18.24c.305,1.375.956,2.404 1.44,3.6 3.189.895 6.582,3.087 10.32,3.84 1.354.273 2.641.127 3.84.72 1.079.534 1.686,1.829 2.88,1.92-.106.349-.211-.024-.48,0 .942,1.059 3.076.924 3.601,2.4 3.969.519 5.723,4.506 10.319,3.6 1.79-2.851 4.263-5.018 5.521-8.4 .504-.275.936.146 1.439-.48-.014-3.374.602-6.118 2.16-7.92 .783-.062 1.155.285 1.2.96 1.121-1.383 4.316-.481 4.561,1.2 3.776.03.979,5.517-.24,7.44 .093.867.318,1.602.72,2.16-.685,2.748-2.234,4.293-3.84,6.72-.903,1.366-1.702,3.02-2.64,3.84-.856.749-2.166,1.115-3.36,1.92-1.957,1.32-3.445,3.025-5.28,3.36-2.298.419-4.77-.777-6.96.48-3.415-1.305-6.731-2.708-9.6-4.56 .1,3.755-.414,7.132-.721,11.04 5.284.541 11.089-.994 15.841-.48 .694,2.458-.412,3.749-.96,6-.49.482-.471-.106-.96-.24-.355,1.983 2.039,1.463 3.119,1.68 4.157.836 8.399,2.216 13.921,1.68 1.415-.138 3.893-.515 5.279-.96 1.748-.561 3.202-1.702 4.8-2.4 1.715-.748 3.318-1.442 4.801-2.16 .585.615.5,1.899.479,3.12 1.085-1.142-.061-2.776-.24-4.08 1.54-.14 2.218-1.143 3.841-1.2 .458.341.858.741 1.199,1.2-.541,6.099-5.856,7.423-8.159,11.76 2.337-.064 3.979-2.899 7.439-2.64 1.788,5.144-3.934,6.507-7.439,9.84-1.571,1.493-3.523,5.202-5.521,5.28-2.133.083-2.953-2.389-3.6-3.6-5.374-2.218-11.381.874-18.24-.24-2.66-.432-4.293-1.915-6.48-3.12 1.119,2.688-.866,5.646-2.399,7.2 1.209.169 1.194-.885 2.16-.96-.049,1.832-1.338,1.517-1.2,3.84 .795-.004.243-1.356.72-1.68 1.223.339.396,1.694.24,2.64-1.185.336-2.65.391-3.84.721 .765,8.172-1.059,15.707-2.641,22.319-.903.477-1.552-.233-2.64-.239-.971.745-.326,1.79-.48,2.88-.155,1.107-.823,2.298-.96,3.359-.206,1.61.448,3.222-.239,4.561-.257.896.596.684.479,1.439 .158.878-.52.921-.479,1.681 4.304,8.562-2.056,16.833-2.641,24.96 .377.515 1.021-.724 1.92-.48 .443.874.3,2.939 0,3.84-.744.315-.685-.064-1.68,0 1.273,2.713 2.639,6.894-.24,8.881-2.247.422-2.513-2.93-3.359-4.561-1.108-2.133-2.425-2.879-.96-5.28h1.68c.44-.339-.376-1.165.24-1.68-.613.027-.477.804-.48,1.44-1.286-.505-1.655.713-2.88,0-.397-.761.303-2.168.48-3.12 .949-.174 1.47.729 2.399,1.2 .211-.771-.791-.329-.72-.961-.017-8.676-3.053-15.4-1.44-23.76-1.894-2.172-.719-5.973-2.399-8.88-1.669,1.983.673,5.196-.96,6.96 2.287,3.489 1.843,8.866.479,13.44-.547,1.835-1.52,3.562-1.92,5.279-.435,1.863-.938,4.584-.72,5.761 .211,1.145 1.526,1.746 1.92,2.88-.164,1.437-1.305,1.896-.96,3.84-1.339-.139-2.123.277-3.12.479-.213-.427-.67-.609-.48-1.439-1.064.694-1.808,1.712-2.399,2.88-2.612.302-4.25,1.079-7.2.48-.361-3.401 4.158-1.923 4.8-4.32-.005-.425-1.132.382-1.44-.24-.144-1.184.624-1.456.48-2.64 1.213-.253 1.373.547 2.4.479 .037.598-.377.743-.48,1.2 4.13-3.667 1.498-10.455.96-17.04-.26-3.182.195-6.253 0-9.36-1.37-1.19-.859-4.261-2.4-5.279-1.16-6.921-3.401-12.76-4.32-19.92-.958-1.842-4.388-1.213-5.28-3.12 .462-.523 1.283.623 1.68.96 2.012.068 3.303.857 4.32,1.92 .967-.233 1.351-1.049 1.92-1.68 1.241,1.159 3.161,1.639 3.84,3.359 .423-.217.743-.536.96-.96-.235,1.375-.004,3.792-2.4,5.04-.175-.654.477-.483.48-.96-1.791.728.352,2.742.48,3.84 1.05-.266 1.175-1.771 1.44-2.64 .703-2.31 1.114-6.017 2.88-7.92 .83-.896 1.976-.904 2.88-1.92 3.103-.098 4.999-1.401 5.76-3.84-1.171.188-1.479,1.241-2.64,1.439-.67-1.775 1.567-2.327 2.16-3.6-.359-.36-.43-1.011-.96-1.2-.824.875-1.026,2.262-2.16,2.88-.998.544-2.348.062-3.36.72 .32.74 1.067-.447 1.44.24-.547,1.934-3.25,1.711-5.28,2.16 .169.95 1.329.91.96,2.4 .158.719.513-.229.96,0-.209.682-1.818,1.208-.96,2.159-.76-.237-.893.189-1.92.721 1.482-1.568 1.659-4.242-.72-5.04 .071-.489.649-.471.72-.96-.457.103-.603.517-1.2.479 1.026-2.094 4.673-1.566 6.48-2.88-1.312-1.648-4.021-1.898-6.24-2.64-.127.615 1.663,1.371 2.64,1.68-1.412.606-2.734-.941-3.84-1.44-1.303.938-4.212.269-4.8,1.921 1.237,1.162 3.214,1.585 5.04,2.159 1.121,2.109-.591,3.539-1.68,4.801-.275-1.006-1.577-.983-2.4-1.44-.843-1.157-1.459-2.541-2.64-3.36-1.285.635-1.935,1.905-3.36,2.4 .99-.851 1.357-2.323 3.12-2.4-.972-1.605-2.766.052-3.84.48 .343-1.178 1.722-1.317 2.64-1.92 2.359.521 3.732,2.027 4.56,4.08 1.062-.458 1.272-1.768 2.4-2.16-.112.848-.606,1.313-.96,1.92 .736-.464 1.086-1.313 1.68-1.92-2.937-.743-5.844-1.517-7.44-3.601-1.068-.188-1.44.32-2.4.24-.112.753.604.677.96.96-.862.454-1.963-.91-2.88-1.2-.617.023-.343.938-.96.961 .675,1.357 2.398,2.836 2.16,4.319-2.672-4.132-8.815-6.06-9.36-11.52-1.492-.939-2.96-.415-4.8-.96-.734-1.505-1.471-3.009-2.16-4.56-1.138.302-1.474,1.406-2.4,1.92 .736,1.41.539,3.617-.48,4.56-4.503-2.241-10.911-.358-16.32-2.16-1.376,4.091-6.999,8.681-11.52,5.52-1.814-1.268-2.381-3.724-3.36-6.24-2.644-.303-5.137-.495-6.96.72-1.551-.529-2.354-1.806-3.6-2.64 .395-3.374-2.825-3.691-3.36-6.72-.119-.675-.711-1.29-.72-1.68-.029-1.337.778-1.68 1.2-2.88 .468-1.332.172-2.927 1.2-4.08 2.344-.735 3.379-.88 5.76-.24-.256.897.596.684.48,1.44 1.779-.301 3.09-1.071 4.32-1.92 .483-6.957 1.982-12.898 6.24-16.08-.135-1.096.425-1.495.24-2.64 1.691-.793 3.599-3.395 5.76-3.84 2.258-.465 4.86.591 7.68.48 .425-1.015 1.762-1.118 2.4-1.92 4.286,1.074 9.829.891 14.88,1.2 .754-.113.634.646 1.2.72 2.403-.492 4.413-1.108 6.48-2.4 .147.333.924.036.96.48 1.529-.311 1.6-2.08 3.84-1.68 3.265-2.975 7.984-4.497 12.72-6-.12-1.4-2.606-.434-3.84-.72-.338-2.062-1.7-3.1-2.16-5.04-.161-.719-1.396-.363-1.68-.96-.183-1.303.38-1.86.24-3.12-1.037-.786-.042-2.468-1.44-3.12 .848-2.747-2.076-6.57 1.44-7.2 .298-2.022 2.396-2.245 3.36-3.6 .761.151 1.417-.463 2.4-.48 .726-.012 1.402.526 2.16.48 .827-.05 1.652-.744 2.4-.72 1.269.041 2.177.818 3.121,1.44 .379.677-.276,1.019.239,1.68 1.716.844 2.938,2.183 3.12,4.56 .359.804 1.201.214 1.2.96-.66.846-.125,6.037-2.401,7.443zm46.32,3.84c.588-1.152 1.319.357 1.92-.24-.378-.785-.924-.49-.479-1.68-.308-.013-.333-.308-.721-.24-.198.615-1.488,1.376-.72,2.16zm-2.64,2.4c-.222-1.316.008.619-.721.24-.585-1.78-2.242-3.208-.96-5.52-.244-.315-.235-.885-.479-1.2-.927.033-.983.937-.96,1.92-2.068,1.403-1.227,6.116.24,7.44-.352.004-.761-1.012-.721,0 1.004.916 1.759,2.082 3.601,2.16 2.122-1.638 3.873-3.647 4.319-6.96-1.563-.333-1.875-.488-3.359-.96-.262,1.074.885,1.979.479,2.4-.913-.286-.126-2.274-1.68-1.92-.323,1.058 1.05,1.653.241,2.4zm-52.56-20.64h.48c.373-.59-.815-.706-.72-.24 .147.014.284.036.24.24zm2.88.72c-.566-.074-.447-.833-1.2-.72-.117.619.849,1.361 1.2.72zm3.12.24c-.441-.061-.842-1.367-1.2-.72 .502.001.902,1.307 1.2.72zm-1.68.24c-.345-.375-.604-.835-1.2-.96-.001.58.84,1.534 1.2.96zm-10.08,1.92c1.684-.236 2.799-1.041 3.84-1.92-.795-.234.268-.475.24-.72-.811.278-1.024-.169-1.44.24 .44,1.166-2.085,1.431-2.64,2.4zm8.4,0c.035-1.241-1.281-2.39-1.92-2.16 .947.413.973,1.747 1.92,2.16zm1.2-.24c.595.035 1.165.044 1.2-.48-.899.243-1.543-.996-1.92-.48 .493.067.479.641.72.96zm-5.52-.48c-.204-.204-.685.174-.72.24-.227.421.886-.074.72-.24zm6.72.96c.578.098.521-.438 1.2-.24v-.72c-.704.016-.892.549-1.2.96zm-3.36,0c.211-.495-.791-.909-.72-.48 .378.022.188.612.72.48zm-6.24.48c.674.246 1.668-.374.96-.72-.065.495-1.063.057-.96.72zm1.2.48c.99-.496 1.542.062 2.16-.72-.763-.997-1.78-.032-2.16.72zm10.8-.24c.721-.419-.344-1.484-.72-.72 .454.027.166.794.72.72zm-3.84.24c.427-.133.997-.124 1.2-.48-.457-.103-.434-.686-1.2-.48v.96zm-3.6.24c-.151-.133-.725-.975-.96-.24 .32-.036.724.976.96.24zm.48,0c1.309.299 1.974.629 2.64-.48-1.048-.008-2.169-.088-2.64.48zm-7.92.24c.975-.189 1.672.257 1.68-.48-.545.175-1.873-.432-1.68.48zm9.84,3.12c-.598.202-1.286.314-2.16.24-.376-.824-1.3-1.101-1.92-1.68 .476-.596-.72-1.057-.96-1.68-1.888.112-3.45.55-5.04.96 0,1.636.412,2.606 0,4.08 2.896.181 1.012,4.616 1.44,6.24 .848.778.844-.752 1.92-.48-.202.598-.314,1.286-.24,2.16 .449.351 1.59.009 1.92.48-.279.201-.644.316-1.2.24 .322,1.039.992,1.729.96,3.12 2.397.671 5.038-1.396 7.2-.96 1.586-1.534 3.365-2.875 4.56-4.8-1.054-.867-1.509-2.332-2.88-2.88-.303.817-1.013,1.228-2.16,1.2-.352-.208-.761-.359-.72-.96 .745-.025.685.755 1.68.48 1.648-.873 2.393-4.388.24-5.28-1.07.129-.951,1.449-1.68,1.92-.695-.75-3.125-1.029-2.88-1.92 .418.556 1.763.019 1.92-.48zm.72-2.4c.427-.132.997-.123 1.2-.48-.595-.035-1.165-.045-1.2.48zm4.08,0c-.307-.013-.332-.308-.72-.24-.373.59.815.706.72.24zm-5.28.72c-.187-.053-.279-.201-.24-.48 .187-.054.474-.007.48-.24-.939-.237-1.394.53-1.92,0 .029.627 1.187,1.352 1.68.72zm-2.16-.48c-1.537-.277-.527.733 0,0zm5.04,1.2c.719-.001 1.009-.431 1.2-.96-.586.134-.877.563-1.2.96zm3.84.24c.412.013.615-.185.72-.48-.377.023-.832-.032-.72.48zm43.92,10.32h.479c.014-.307.308-.332.24-.72h-.72c.001.24.001.48.001.72zm.72-3.36h-1.2c-.325.819-.754,1.905-.24,2.88 1.095-.251 2.136-1.613 1.44-2.88zm.72,3.36c.362-.758 1.298-.942 1.2-2.16-.307-.013-.332-.308-.72-.24-.197.615-1.219,1.645-.48,2.4zm-49.92,3.84c.528.592.533,1.707.96,2.4 2.452-1.121 6.758-4.398 3.84-7.2-1.184,2.016-2.804,3.597-4.8,4.8zm11.04-.96c-.894.254-.774-.505-1.2-.72-.626.467 1.118,1.673 1.2.72zm-7.44,4.08c-.415.146.018,1.139-.48,1.2-2.08.59-3.237.963-5.76.72-.026-.597-.45-.743 0-1.2-1.501,1.29-2.418,3.911-3.36,6.24-1.067,2.638-2.52,6.147-2.4,7.92 .211,3.128 2.145,5.4 3.12,8.4-1.973-1.307-2.125-4.436-3.36-6.48 .186,2.425-.362,4.119-.24,6.48 3.627.414 6.355.225 9.12,0 1.225-.1 2.708.326 3.6,0 .976-.356 1.941-1.871 2.641-2.88 1.338-1.934 2.118-3.341 1.92-6-.382-5.121-1.664-11.689-1.681-17.04-1.178-.162-1.831,2.128-3.12,2.64zm2.64-4.56c-.985,1.143-3.919,2.463-2.64,4.32 .972-1.348 2.673-1.967 2.64-4.32zm-9.36,1.92c.502,1.475 1.284,2.921 3.36,2.16 .057-2.429-1.413-3.495-3.36-2.16zm47.76,3.84c1.199,1.224 3.933,2.697 5.279,1.2-2.951-.649-4.99-2.21-6.72-4.08 .229.878.639,2.062 1.441,2.88zm-42.96,0c.534-.187 1.302-.139 1.44-.72-.072-1.977-1.985-1.591-1.44.72zm-1.92.24c1.953.651 2.151-1.826.48-1.68-.517.204-.557.883-.48,1.68zm-2.16,0c.833-.192.922.358 1.68.24v-1.68h-1.68v1.44zm51.6,0h1.44c.307-1.438-1.611-1.05-1.44,0zm-35.04,1.92c.229-.371-2.002-2.717-1.68-2.4 .224,1.136 1.172,1.547 1.68,2.4zm-26.16,0c1.112,3.221-1.507,5.772-.48,8.88 .073-3.22 1.65-5.625.96-8.88 .756.177 1.598-.777 1.2-.96-.3.58-.984.776-1.68.96zm24.96,2.88c.492-.548 1.639-.442 1.681-1.44-.709.183-2.026,1.001-1.681,1.44zm.96,1.68c.23-.87-1.036-.244-1.2-.72-.088.728.782.498 1.2.72zm-58.32,6c1.043-.927 1.771-5.74 0-6.48h-.48c.581,2.272-1.19,5.451.48,6.48zm-9.36-5.76c-1.514,1.847-4.238,3.761-3.6,6.96 .596-2.204 1.914-3.687 4.08-4.32 .355.444 1.24.359 1.2,1.2-.334.706-1.172.908-1.2,1.92 2.032,1.069 3.864-1.779 6-2.16 .415-.146-.019-1.139.48-1.2 .373.396.935-.082 1.44-.24v-1.44c-2.209-.831-5.348-.733-8.4-.72zm67.2,3.84c-.084.586-.35,1.826.239,1.92-.229-2.629 1.211-3.59 1.44-5.76-.895.307-1.475,2.401-1.679,3.84zm-72-.72c-.739,2.291.542,1.443 0,0zm.96.72c.034-.283.427-.544 0-.72-.034.284-.428.544 0,.72zm1.92.96c.763.037 1.056.544 1.92.48-.046-1.006 1.178-.742.96-1.92-1.535-.094-2.102.777-2.88,1.44zm3.84,1.92c2.087,2.633 3.414,6.026 3.84,10.32 1.858.342 2.375-2.287 4.08-2.88 2.882-1.003 5.355,1.094 8.16.48 1.523-.333 2.496-1.408 3.6-1.68 2.296-.566 4.012.141 5.52.48 .329.631 1.01.91 1.2,1.68 1.445-.595 2.174.397 3.12.96 1.83-.665 3.485.154 5.04.48 1.244-.196 1.665-1.215 3.36-.96 .01-2.688-.34-4.447 0-6.96-4.227.281-8.483-.158-11.52,1.68-6.024-1.665-12.233-2.252-18.96-2.16-.453-1.307-1.234-2.286-1.44-3.84-3.012-.212-3.99,1.61-6,2.4zm-5.76,1.2c-.62-.021-.253-1.027-1.2-.72-2.357,3.569-3.593,8.972-3.84,13.92 .89.17 1.03-.41 1.92-.24 .771.83 2.025,1.175 2.4,2.4 3.229.746 4.395-1.356 5.76-3.12 .787-.333 1.616-.624 1.92-1.44-.535-3.706-1.698-6.783-2.88-9.84-1.8-.091-1.785-1.047-1.92-2.4-.454.054-.529-.271-.96-.24-.366.594-.493,1.427-1.2,1.68zm2.64,37.92c4.716-2.485 6.894-8.786 6.72-15.36-.026,1.334-.172,2.548-.72,3.36 .774-3.041.257-6.592.72-9.84 .097-.68.467-1.244.48-1.92 .068-3.607-2.006-11.031-3.36-13.2-.471-.754-1.517-1.687-2.4-1.68 6.207,9.71 6.536,30.71-1.44,38.64zm67.44-31.2c.152-1.261.927-4.711.239-5.28 .233,1.916-.71,3.923-.239,5.28zm-7.92.72c1.254-.705 1.689.653 2.88.72 .668-1.327 1.56-4.737.72-6-.82,2.14-2.516,3.404-3.6,5.28zm-67.2-2.88c-.256.029-.624.061-.72.24-1.185,2.201-.887,5.754-1.44,8.64 2.083.544 1.312-2.049 1.44-3.12 .273-2.287 1.194-5.006.96-6.48-.058.45-.395-.136-.48.24 .187.053.279.201.24.48zm36,1.92c-.282-.174-.882.111-1.2,0-.617-.216-.801-.887-1.68-.96-2.417-.2-4.62,1.905-6.96,2.16-3.154.343-7.86-2.521-8.4.96 1.495.044 4.321.162 5.52.72-2.932.054-9.592-1.48-7.68,2.88 5.115-.557 8.39.7 10.08,4.08 4.314-1.26 6.751-4.66 12-4.32 .523-1.156.961-2.399 1.2-3.84-1.249-.359-1.952,1.074-2.88.24 .689.05 1.219-.061 1.44-.48-.656-.137-.86-1.081-1.44-1.44zm45.36,15.6c-1.781-1.658-4.747-2.132-6.479-3.84 2.771.453 5.07,2.064 7.68,2.64 .72.159 1.483-.154 2.16,0 1.746.397 3.181,1.613 4.8,2.16 1.199-.296 3.277.113 4.561.48-.115-1.715.958-2.242.96-3.84-1.883.042-3.364-.316-4.08-1.44-2.47.122-4.826-.057-7.2-.24-2.747-.211-5.608-.136-7.2-1.68 1.285.715 3.441.559 5.04.96-.478-1.123-2.659-.542-3.359-1.44 .282-.038.681.041.72-.24-.523-.276-1.553-.048-1.68-.72 1.264.035 3.853,1.426 4.319,0-1.707.028-2.958-.402-4.319-.72 5.799-1.733 10.744.684 17.279.24 .467.314-.48,1.271.48,1.44 1.389-.568.172-2.252.479-3.84-1.499-.094-2.327.461-3.359-.24 .146-.333.924-.036.96-.48-.546-.175-1.873.432-1.681-.48 1.922.276 4.232,1.012 5.761-.24-.186-1.146.375-1.544.239-2.64-3.95-.513-8.82.137-12.239.48-3.623.364-7.602-.489-10.801.96 .378.023.832-.032.721.48-.873-.16-3.628-.753-4.08.24 1.202,1.091 3.005.13 4.319.96-1.522.102-3.767-.149-4.56,0 .889,1.253 3.879-.366 5.04.96-1.522.157-3.677-.316-4.8.24 1.321.119 2.678.202 3.6.72-1.566.369-3.464-.954-4.32.24 1.592.009 3.099.102 4.32.48-1.316.284-3.79-.59-4.32.48 1.433-.057 5.688-.064 3.36.72 1.054-.014 1.983.097 2.64.48-1.293.066-2.967-.247-3.6.48 .497.143 1.577-.297 1.68.24-.573.146-1.741-.301-1.92.24 .933.508 2.73.149 3.36.96-1.754-.192-2.656-.393-4.08-.48v1.2c1.199.23 2.448-.739 3.36,0-1.715.045-2.995.525-4.801.48-.063,1.033 1.818,1.37 2.16,1.2-.261-.058-.576-.396-.239-.48 2.542.991 4.883,1.425 7.439,2.88 .041-.921-1.241-.519-1.2-1.44 1.3-.015 1.726,2.106 2.88,1.44zm1.68.72c-.036-.006-.001.532-.24.48-.334-.073-.554-.423-.96-.48-2.892-.409-9.255.164-8.64-1.2-1.656.396-3.271-.939-4.801-1.92 .044.523-.196.764-.72.72 .495-1.265.563-2.957.48-4.8 1.249-1.472 2.189-4.528 1.92-6.72-1.506-.267-3.867-1.445-6-.24-1.954-1.776-3.101.88-4.08,2.16 .96.879 2.12,1.56 2.88,2.64 .438-1.166 1.583-2.892 2.4-2.88-1.421.979-1.643,3.158-2.4,4.8-.36-.28-.587-.693-1.2-.72 .21.771-.622.498-.72.96 .282.038.681-.041.72.24-.457,1.466-2.002,3.114-1.92,4.32 .855-.669 1.656-2.658 2.4-2.64-.67,1.412-2.538,2.898-2.64,4.08 1.554-1.248 2.772-4.106 4.08-4.8-.412.548-.707,1.212-1.2,1.68 .443.505.725-1.181 1.44-1.2 .477-3.043 1.824-5.216 4.08-6.48-2.613,2.416-2.69,7.999-5.28,10.08-.307.948.699.581.72,1.2-.734.306-.705,1.375-1.439,1.68 .008-.571 1.229-1.145.48-1.68-.211.917-1.571,1.939-1.2,2.64 .256-.224.075-.885.72-.72-.191.787-1.833,1.527-.72,2.16-2.371.982-3.678,3.364-6.24,4.32-1.294.483-2.822.162-4.08,1.2 .466.189 1.667.871 1.2,1.2-1.061-1.19-3.74-1.241-4.56.24 6.37,2.643 8.55-3.292 13.92-3.84 2.34-2.62 2.748-7.172 6.48-8.4 .83.695 2.696,1.618 2.64,2.4-1.147-.424-2.111-2.139-3.12-1.92-.125,1.65 2.631,1.684 2.4,2.64-1.34-.26-1.789-1.411-3.12-1.68-.55,1.121 1.578,1.396 2.16,2.16 .053.551-.017.772 0,1.2-.854-.667-2.403-.637-2.64-1.92 .661.229 1.595,1.431 2.159.96-.976-.304-1.391-1.169-2.399-1.44-.345,1.095-1.188,1.691-1.44,2.88 .889,1.194 3.578,1.859 3.84,2.88-1.673-.647-2.859-1.78-4.319-2.64 .522,2.278 3.223,2.377 4.56,3.84-2.244-.259-3.664-2.544-5.28-2.64-.961,1.89 2.403,2.68 2.4,3.6-1.229-.452-1.847-1.514-2.88-2.16 1.394,2.567 2.965,4.354 5.28,6 2.119,1.506 3.222,2.667 6.239,2.64 1.889-.017 3.757.55 5.761.72 3.034.258 6.07-.428 9.359-.479-.267-.729.153-1.823 0-3.12-2.678-.789-4.916-.702-8.16-.24 1.609.551 3.477.844 4.561,1.92-1.911-.089-3.781-.219-5.521-.479-.738-.179-.461.658-1.199.479-1.7-1.02-4.415-1.025-5.521-2.64 1.919.483 3.973,2.104 6,1.68-1.446-.714-3.696-.624-4.56-1.92 .341.228 1.278.254 1.68.24-.132.004-.547-.229-.48-.24 2.6-.438 5.459.209 8.4-.24-1.938-2.301-7.098-1.382-10.56-2.16-.416-.851-1.21-.955-2.16-.72-1.434-1.208-4.228-2.33-4.561-3.84 1.978.752 3.687,1.997 5.761,1.44 .175.545.722.718 1.199.96 .054-.186.007-.473.24-.48 .375.832 1.978,1.693 2.641,1.44-.266-.163-1.245-.797-.721-.96 2.606,1.081 5.523,2.28 8.16,2.64 .408-.792 1.172-1.228 2.4-1.2-.669,1.218 1.117,1.226 1.439,2.16-.427.144-.996-.704-1.2,0 .622.417 1.108.978 1.681.24 .379-1.324-2.012-1.667-.48-2.64 .411.389.874.727 1.681.72 1.448-1.644.338-4.192.72-6.24-.842-.286-1.639-1.872-2.4-1.44 .352.305 1.575.963.96,1.44-.563-1.604-2.216-1.667-3.359-2.16-.317.601.948.751.239.96-.809-.201-1.335-.009-2.159-.96-.317.601.948.751.239.96-.132-.2-.731-.608-1.44-.721zm-20.4-3.12c-.34.787-1.55,1.959-1.2,2.64 .584-.543 1.674-1.835 1.2-2.64zm1.92,13.2c.095.954 1.659,1.69 2.16,1.44-.782-.418-1.201-1.199-2.16-1.44zm13.2-2.64c.43.805 1.338,1.176 2.16.48-.57-.163-1.615-1.086-2.16-.48zm-3.36-8.16c-.227-1.139-1.907-2.085-2.88-1.68 1.195.325 1.831,1.21 2.88,1.68zm-22.08-12.96c-1.077.03-2.119.051-1.68.96 .905-.238 2.292-.688 3.6-.96 .96-.2 2.679.564 2.64-.96-2.018-.179-3.353.327-4.56.96zm5.52.72c.016-.389 1.026-1.507 0-1.44 .066.421-.676,1.198 0,1.44zm.48.48c.734-.174.706.414 1.44.24-.038-1.078.893-1.188 1.2-1.92-1.366-.397-1.521,1.666-2.16,1.2 .096-.624.716-.724.72-1.44-1.186-.146-1.106.974-1.2,1.92zm-16.56.48c1.634,1.71 3.936-.628 6.48-.24 .112-.848 1.076-.844.96-1.92-2.536.665-6.3.1-7.44,2.16zm7.2-.72c.782.062 1.155-.285 1.2-.96-.704.016-.891.548-1.2.96zm-5.76,1.92c-.439,1.188.145,1.862.48,2.88 .518-.442 1.662-.258 2.16-.72 1.975,1.175 5.018.603 7.92.72 2.195.089 4.491,1.39 5.76.48-1.218-.942-3.868-.453-4.56-1.92 2.498-.865 3.903,1.353 6.24,1.44-.87-2.09-3.93-1.989-6-2.88 2.692-.902 4.874.705 6.72,1.44-.824-2.376-3.797-2.603-6.48-3.12-.108-.668 1.308.188 1.2-.48-4.609-.344-9.245,1.297-13.44,2.16zm-3.12-.72c-1.251.927.955,1.242 0,0zm.72,3.36c1.681.064-.752-1.989.72-2.4-.026.597-.45.743 0,1.2 .61-.029.931-.349.96-.96-.204-.516-.591-.849-1.44-.72-.891.654-.174,1.714-.24,2.88zm-30.24-1.44c.652-.308 1.842-.078 1.68-1.2-1.026-.066-1.223.697-1.68,1.2zm18.48,14.64c2.966-.394 4.008-2.712 6.72-3.36 1.976-1.624 2.189-5.011 4.56-6.24 .345-2.417-.102-3.064-.48-5.04-5.749-1.847-9.082,2.251-13.44,3.84 .627.683 1.246,3.005.24,3.84 .262-1.941-.3-3.059-1.2-3.84-.834.046-.911.849-1.68.96-.44,1.02 1.261,1.113.72,1.44-1.06-.78-2.533-1.147-3.6-1.92-1.559.601-3.273,1.047-5.04,1.44-.148,4.412-.96,8.16-1.68,12 3.114.315 8.125.829 11.04-.48 .398.402 1.409.191 2.16.24 .867-.493 1.641-1.08 2.4-1.68-1.673-.069-3.163,1.312-4.32.96 1.175-.841 4.328-.837 3.6-2.16zm-30.24-13.92c-.329.985.579,1.959 0,2.4-.149-.891-1.183-.898-.96-2.16-1.578.275-1.921,1.314-3.12,1.44-.061.861.721.879.72,1.68-.558-.163-.643-.798-1.2-.96-.262.618-.606,1.153-1.2,1.44-.566-.074-.447-.833-1.2-.72-1.171,1.427-2.965,3.558-1.68,6 1.751-.071 2.355,1.005 3.12,1.92 2.458-.291 3.589.086 6.24.72 .407-.567 1.541-.236.96-1.2 3.956-.764 4.079-5.361 5.52-8.64-3.214.068-3.563-3.796-7.2-1.92zm42.24,3.12c.726-.33.857.114 1.92,0 .333-.307.146-1.133.48-1.44-1.699.923.063-1.732-1.44-1.92 .074,1.168-1.244,1.388-.96,3.36zm-29.52-2.64h.48c.373-.59-.815-.706-.72-.24 .146.014.284.036.24.24zm8.88.96c.057-.342.395-.405.48-.72-.346-.134-.586-.375-.72-.72-.596-.036-.996.124-1.2.48 1.504-.308 1.283.393 1.44.96zm69.84,1.68c.749,1.292 2.109.984 2.159,1.92h1.44c-.108-1.548.067-2.813.479-3.84-2.571-.694-5.203.101-7.68-.24-2.002-.275-4.165-1.874-6.24-.48 1.81.219 5.051.148 6.96.96-1.452.017-2.841-.597-3.84.24 3.151.369 6.118.922 8.641,1.92-.74-.059-1.356-.243-1.919-.48zm-79.2-1.44c.614-.186 1.36-.239 1.68-.72-1.335.102-1.537.314-1.92-.72-.032.592-.036,1.156.24,1.44zm5.76-.96c-.477-.003-.305-.655-.96-.48-.178.532.884.989.96.48zm110.88,1.44c.294-.324 1.29-2.039.72-1.68-.053.602-1.216,1.322-.72,1.68zm-56.16-1.2c-.283-.276-.848-.271-1.439-.24-.17,1.032 1.247.781 1.439.24zm11.76.24c-.35.131-1.241-.28-1.2.24 .349-.131 1.241.281 1.2-.24zm-34.08.72c-1.692-.58-1.4.82 0,0zm21.84,0c.733-.371-1.041-.211-1.44-.24-.635,1.168-1.037,3.266.48,3.6-.712-1.077-.213-1.001 1.2-.96 .275-.284.271-.849.239-1.44h-1.92c.348-.453.537-1.064 1.441-.96zm-78,1.2c.632.072.788-.333.72-.96-.993-.063-.965.285-.72.96zm90.24-.48c-.407-.062-4.774-.729-1.681-.24 1.925.304 4.033,1.604 6.48.96-.948-.457-2.835-.42-4.799-.72zm-41.52,2.16c1.207.167 1.673-.407 2.88-.24-.278-.811.17-1.024-.24-1.44-.331,1.109-1.636,1.245-2.64,1.68zm3.12-2.4c.076.636-1.345-.225-.96.72 .359-.069 1.734-.309.96-.72zm-5.52,8.64c1.469,1.66 3.902.457 6,.24 .651-.709 1.11-1.61 2.16-1.92-.307.82-1.97,1.541-1.68,2.16 2.115-1.165 3.881-2.679 5.52-4.32-.283-.038-.681.042-.72-.24 1.031-.812 3.241-1.714 3.36-2.64-1.185.738-2.789,2.327-3.84,2.4 .392-1 .815-2.264 1.2-3.84-.888-.152-1.429-.651-2.64-.48-.123.997-1.372.868-1.92,1.44-.15,1.129-.926,1.634-1.92,1.92 .074-1.053 1.978-1.532 1.44-2.4-.669,1.251-2.062,1.777-3.36,2.4 .709.171 1.694.066 1.92.72-.943.288-1.804-.734-2.4,0 .281.358.997.283.96.96-.777-.167-2.039-1.641-2.64-.48 .844.677 1.959,1.082 2.64,1.92-1.626-.134-2.019-1.501-3.6-1.68 .168,1.112 1.408,1.152 1.92,1.92-1.824.224-1.776-1.423-3.12-1.68 .27,1.09 1.268,1.453 1.92,2.16-.282.038-.681-.041-.72.24 .318.338 1.727.812 1.2,1.2-1.291-.549-2.006-1.674-2.64-2.88-.865,1.73 1.508,2.125 1.92,3.36-.345-.059-1.522-1.011-.96-.48zm12.72-6.96c.451-.75 1.47-.93 1.92-1.68-1.246-.199-2.41.939-1.92,1.68zm-6.24,9.6c.571.949 2.292.749 2.64,1.92-1.288-.158-2.493-1.661-3.6-1.2 1.235,1.938 3.895,1.753 5.52.72 3.345-2.126 6.433-5.276 8.16-8.64 .619-1.204 1.373-2.401 1.2-3.36-.777.632-1.501-.093-.72-.72h-.96c-.708.208.557.359.24.96-.578.098-.521-.438-1.2-.24-2.094,3.426-6.456,4.584-8.64,7.92 .413.095.615-.356.72,0-1.226.774-2.632,1.368-3.36,2.64zm-24.24-10.32c.651.654.598-.621 1.44-.48 .351-.004.76,1.012.72,0-.436-.497-2.187-.281-2.16.48zm29.52,2.64c1.171-1.469 3.377-1.903 4.56-3.36-2.152.33-4.365,1.873-4.56,3.36zm8.4-3.12c1.582.595 1.089-.802 0,0zm65.52,2.16c.331-.708 1.108-.972 1.439-1.68-.788.101-1.773,1.252-1.439,1.68zm-119.04,0c-.605,2.385-3.111,3.875-2.64,6.24 .165.829 2.28,2.71 3.36,3.36 1.34.806 3.212.891 4.32,1.68 1.111-3.369 1.845-7.115 1.68-11.76-2.969-.334-4.393-.938-6.72.48zm33.84.72c.072-.648 1.01-.431 1.2-.96-.5.079-1.962.412-1.2.96zm31.68,1.44c-.039-1-1.242-.837-1.68-1.44 .063.977.962,1.118 1.68,1.44zm51.6.72c-.229-.447.719-.802 0-.96-.07.147-.597.924 0,.96zm-66.96,3.6c1.031-.653 2.617-2.018 3.6-1.92-2.483,1.757-5.278,3.202-7.2,5.52 2.847-1.553 5.324-3.477 7.68-5.52-.542-.636.865-1.365.96-2.16-.941.099-.738,1.342-1.68,1.44-.035-.319.807-.893.24-.96-1.047,1.196-3.257,2.5-3.6,3.6zm22.08-3.12c-.551-1.319-2.7-.472-3.601-.72 .767.673 2.095.786 3.601.72zm4.56.24c-.042-.692-1.188-1.514-1.68-.96 .621.258.892.868 1.68.96zm32.64.48c2.203-.219-.985-.245-1.439-.48-.428.133-.997.124-1.2.48 .929-.053 1.907.073 2.639,0zm9.84,1.2c.724-1.88-.509-1.046 0,0zm-33.6-.48c-.166-.188-1.339-.534-1.439,0 .313.338 1.269.862 1.439,0zm-54.96,1.92c.222-.808.703,1.324 1.2.24-.813-.146-.385-1.535-1.44-1.44 .131.349-.281,1.241.24,1.2zm62.64-1.2c-1.724.356-3.939.22-6,.24 .001-.133-.194-.272-.239,0 1.682.59 4.528.436 6.239-.24zm-53.76,1.92c.095-.333 1.363-.68.72-.96-.095.333-1.363.68-.72.96zm-5.04.96c-.542-.49-.856-.607-.24-1.2-.547-.067-.902.058-.96.48 .502.001.902,1.307 1.2.72zm-39.36,2.64c-.062.695.608,2.928.96,3.84 .688,1.781 2.325,4.321 3.6,4.319 2.562-.002 4.268-5.516 5.04-7.2-2.952-1.127-5.382-2.778-7.68-4.56-.242,1.358-1.794,2.174-1.92,3.601zm56.88-2.64c.515.012 1.651-.559.96-.96-.023.617-.937.343-.96.96zm-17.04,0h.72c.043-.523-.196-.763-.72-.72v.72zm1.92.24c.945.145 1.246-.354 1.68-.72-.592.208-1.661-.061-1.68.72zm-13.44.72c.765-.205.911.209 1.2.48 .149-.651 1.003-.598.96-1.44-.986.054-1.572.508-2.16.96zm25.2.48c1.203.002 1.635-.766 2.16-1.44-.885.315-1.602.798-2.16,1.44zm-15.36,0c-.106-.694-.506-1.094-1.2-1.2-.017.817.706.894 1.2,1.2zm2.16-.72c.425-.055 1.202.242.96-.48-.547-.067-.902.058-.96.48zm2.4.48c.058-.342.395-.405.48-.72-.495-.21-1.078.622-.48.72zm-5.28.96c-.057-.903-.984-.936-1.68-1.2 .101.859.765,1.155 1.68,1.2zm2.88,0c.513.393 1.8.023 1.68-.96-.897-.017-1.375.386-1.68.96zm2.4,0c1.099.261 1.547,1.173 2.88,1.2-.482-1.039-1.675-1.365-2.4-2.16-.003.477-.655.305-.48.96zm73.44,1.2c1.193-.487 1.911-1.45 2.881-2.16-1.138.543-2.092,1.269-2.881,2.16zm-40.08,0c-1.744-.709-3.124-1.583-4.561-1.68 .801.785 3.904,2.191 4.561,1.68zm-37.2,1.68c-1.147-1.253-2.611-2.188-4.08-3.12 .341,2.059 2.941,1.859 4.08,3.12zm.24-3.12c-1.537-.277-.527.733 0,0zm10.08.48c.407.378 1.67.26 1.68-.48-.608.431-1.361-.456-1.68.48zm-4.8,1.68c-.388-1.052-1.561-1.319-2.64-1.68 .38,1.06 1.275,1.605 2.64,1.68zm-5.52-.48c.035-.754-.615-.824-1.2-.96-.051.771.856.584 1.2.96zm20.64-.24c.043-.523-.196-.764-.72-.72-.044.523.196.764.72.72zm-16.56,1.44c-.613-1.354-2.75-2.167-3.84-1.68 .582.379 1.062.859 1.44,1.44-.547.33-.902-.619-.96,0 .956.541 2.032.547 3.36.24zm-42.48,2.4c-.472-1.208-.785-2.575-1.2-3.84-.597-.037-.743.377-1.2.48 .337,1.503.735,2.945 1.68,3.84 .106-.534-.741-1.301-.24-1.44 .415.087.703,1.506.96.96zm88.08-3.12c-.36-.067-1.011-1.032-1.2-.48 .227.2.775,1.268 1.2.48zm-30,.24c-.405-.098-1.079-1.131-1.44-.48 .405.098 1.079,1.131 1.44.48zm-22.08,0c-.373-.055-1.12-.923-1.44-.24 .373.055 1.12.923 1.44.24zm-9.84,1.2c-1.401.361-.689-1.39-1.68-1.44-.581,1.398 1.858,2.008 1.68,1.44zm18-.96c.547.067.902-.058.96-.48-.425.055-1.202-.242-.96.48zm-17.04.72c.703-.469-.761-1.454-1.2-.72 .894-.254.775.505 1.2.72zm18.24-.24c.16-.194 1.562-.31.72-.72 .067.421-1.434.439-.72.72zm36.72-.48c.7.74 2.252.628 2.64,1.68 .69-.335 1.22.654 1.44,0-1.116-.804-2.644-1.197-4.08-1.68zm-39.36.72c.377-.023.832.032.72-.48h-.48c.001.241-.194.286-.24.48zm17.76.24h.48c.013-.307.308-.332.24-.72h-.48c-.013.307-.308.333-.24.72zm-4.32.24c.286-.713-1.012-1.031-1.2-.48 .458.102.434.686 1.2.48zm-1.2,0c-.138-.5-1.552-.3-1.44.24 .651.149.597,1.003 1.44.96 .308-.948-.699-.581-.72-1.2 .489-.143 1.322.45.72,0zm6.48.96c.166.188 1.339.534 1.439,0-.489-.071-.471-.649-.96-.72-.057.343-.395.405-.479.72zm-20.64,1.92c-.631-.624-.189.388-.96.239-.551-.027-.772-1.603-1.2-.959 1.056,1.904 2.458,3.461 4.32,4.56-.205-.56.839-1.034.24-1.2-.077.278-.743,1.131-.96.479 .395-.725 1.186-1.054 1.68-1.68-.774-.118-1.418,1.12-1.92.48 .35-.53 1.285-.476 1.44-1.2-.464-.822-2.418-1.414-1.68-2.64 .296,1.261.399.251.48,0 .691.509.621,1.779 1.44,2.16-.062-.979-.895-1.185-.72-2.399-.598-.202-1.286-.314-2.16-.24 .01,1.117 1.469,2.041 1.2,2.64-1.049-.396-1.188-2.965-2.4-2.399 .873.246 1.073,1.166 1.2,2.159zm13.2-1.68c-.566-.074-.446-.833-1.2-.72-.093.595 1.156,1.054 1.2.72zm1.2.48c.57-.164 1.792-.91 1.44-1.2-.338.542-1.563.197-1.44,1.2zm-12-.48c.543.29 1.055.694 1.44,0-.512-.139-1.307-.826-1.44,0zm18,0c-.307-.013-.333-.308-.72-.24-.373.591.815.706.72.24zm18.24.48c-.361-.374-1.477-1.226-2.16-.48 .598.135 1.911.79 2.16.48zm-11.04,5.52c-.61.14-1.171.961-1.681.48 .939-1.144-.045-.085-.72-.721 1.102-.344 2.447-1.705 3.12-1.68 .036.32-.976.725-.24.96 .107-.692 1.033-.567 1.2-1.2-2.559-.917-5.078-3.765-7.92-2.879-.18.82.975.305.72,1.2-1.382-1.492-2.812-.122-3.84.72 .035-.283.427-.544 0-.72-.358.281-.283.997-.96.96-.013-1.133.922-1.317 1.2-2.16-1.232.048-1.166,1.394-2.16,1.68-.261-1.31 1.662-1.687 1.2-2.4-.724.557-1.363,1.197-1.92,1.92-.64-.875.943-1.186.96-2.16-4.074,1.745.153,3.478 2.64,4.08 2.926.708 5.931,2.224 6.96,3.12 .442-.241 2.036-1.477 1.441-1.2zm-20.4-3.6c-.292-.915-1.516-2.155-2.16-1.92 .865.495 1.295,1.425 2.16,1.92zm0-1.92c-.97-.844-.566.772 0,0zm2.88.72c-.614-.197-1.376-1.487-2.16-.72 .932-.12 1.484,1.38 2.16.72zm.48-.48c-.32.036-.725-.976-.96-.24 .319-.035.893.807.96.24zm3.84.48c.21-.494-.623-1.078-.72-.48 .343.058.405.395.72.48zm-8.4.96c-.052-.76-1.169-1.695-1.68-1.2 .572.388 1.058.862 1.68,1.2zm2.88.48c.234-.891-.97-1.569-1.2-1.2 .441.36.598,1.001 1.2,1.2zm-4.08.96c.312-.597-.704-.996 0-1.2 .271.449.284,1.156 1.2.96 .113-1.153-1.003-1.077-1.44-1.68-.059.804-.516,1.513.24,1.92zm4.08-.48c.413.013.615-.185.72-.479-.413-.014-.615.184-.72.479zm.48.96c.28.44.627.812.96,1.2 .469-.971 1.652-1.228 2.4-1.92-1.207.072-1.789.771-2.88.96-.179-.739.659-.461.48-1.2-.611.029-.931.349-.96.96zm1.44,1.92c1.2-.56 2.102-1.418 3.12-2.16-1.439.321-2.963.557-3.12,2.16zm26.64-1.68c-1.211.162-2.425-.924-3.36-.24 .965.083 2.44.909 3.36.24zm-31.68.24c.636-.004 1.413.133 1.44-.48-.615.025-1.144.136-1.44.48zm6.24,1.92c.311-1.689 2.986-1.015 4.08-1.92-1.548-.62-4.327.756-4.08,1.92zm-8.4,0c.817.017.894-.706 1.2-1.2-.817-.018-.894.706-1.2,1.2zm26.64.96c1.155.035.98-1.26 1.68-1.681-.33.011-.526-.112-.72-.239-.21.749-.652,1.268-.96,1.92zm11.52,3.12c.857.124.549-2.152.239-2.4-.153,1.21.014,1.649-.239,2.4zm0,4.08c-.11-1.069.895-3.316 0-3.601 .334,1.384-.594,2.756 0,3.601zm-.24,1.2c-.33-.547.618-.901 0-.96-.07.147-.597.923 0,.96zm-27.6.96c.657.002 1.414-1.124.96-1.439-.157.642-.687.911-.96,1.439zm.72,1.44c.484.716 1.216,1.185 1.68,1.92 .828-.292 1.447-.793 1.92-1.439-.968.004.103-.92 0-1.44-.171-.87-.955-1.584-1.92-1.68-.331,1.109-1.055,1.824-1.68,2.639zm9.12,22.32c-1.005-.361-3.566-.427-4.561,0 1.519.352 3.169.626 4.561,0zm-.96,24.72c.488.205 1.49-.209.72-.48-.071.501-.649-.356-.72.48zm-3.12,1.2c.767.629-.917.826-.72,1.68 .549,1.005 1.788-.462 2.64.24 .093-.974-1.496-.265-2.16-.48 .611-.988 1.398-1.802 2.64-2.159 .739.438-.481,1.345.24,1.68 .371-.349.211-1.229.24-1.92-1.405-.126-1.836.723-2.88.959zm14.88.72c.031-.315.036-1.736-.24-.96-.031.315-.036,1.736.24.96zm-.96.72c1.031.175-1.854-.317 0,0z" fill-rule="evenodd"/>
 <path d="m82.32,54.72c.451-.536-1.205,1.431 0,0z" fill-rule="evenodd"/>
 <path d="m84.48,55.92c.694.481-.692.889-.48,1.68-.75-.535.473-1.109.48-1.68z" fill-rule="evenodd"/>
 <path d="m55.2,62.16c.246,1.337-1.459,1.089-2.64,2.4 .348.254 1.686-.543 2.64-.48-1.132.749-3.129,1.226-4.08,1.44 .308-1.215 3.081-2.037 4.08-3.36z" fill-rule="evenodd"/>
 <path d="m53.28,65.52c.616-.313-1.068.714-1.68.72-.582.938-1.784,1.256-2.64,1.92 .412-.951 2.319-2.478 4.32-2.64z" fill-rule="evenodd"/>
 <path d="m72.96,67.2c-.5,1.422-1.545,4.374-3.6,5.04 .94-1.94 2.047-3.714 3.6-5.04z" fill-rule="evenodd"/>
 <path d="m91.68,68.16c3.13.719 6.541.882 9.601,1.92 .846.287 1.567.951 2.399,1.2 1.155.346 2.539.125 3.601.48 .252.084 2.286,1.131 1.439,1.2-1.255-.678-2.517-.667-3.84-.96-3.267-.724-7.059-1.954-11.04-2.88-.725-.168-1.825-.144-2.16-.96z" fill-rule="evenodd"/>
 <path d="m39.84,71.04c-.832.589-3.595.866-4.08-.24 1.539.35 2.834.183 4.08.24z" fill-rule="evenodd"/>
 <path d="m83.04,72.96c1.013-.127 2.058,1.779 3.36,2.16-1.149.264-2.339-1.496-3.36-2.16z" fill-rule="evenodd"/>
 <path d="m49.68,51.6c.224.651-1.481.562-.48,1.2-1.053.908-2.061.088-3.36,0 1.003-.676 2.116-1.244 3.84-1.2z" fill-rule="evenodd"/>
</svg>
