<?xml version="1.0" encoding="UTF-8"?>
<svg viewBox="0 0 196.80278 150.02702" xmlns="http://www.w3.org/2000/svg">
 <g transform="translate(-422.27 -661.97)">
  <path d="m517.45 808.88c-2.176-4.1723-10.437-18.457-11.018-19.052-0.21177-0.21691-2.4474 0.39325-4.9681 1.3559s-4.7274 1.5901-4.9038 1.3944-1.7774-3.2809-3.5578-6.8559-3.3601-6.6389-3.5104-6.8086-1.952 0.39278-4.0036 1.25-4.2537 1.5586-4.8934 1.5586-2.597-2.9074-4.3493-6.4609l-3.186-6.4609-3.4965 1.4609c-1.9231 0.80351-4.1271 1.4609-4.8979 1.4609s-2.5617-2.6753-3.9798-5.9452c-2.5585-5.8993-2.6027-5.9382-5.7276-5.042-1.7321 0.49676-3.7839 1.4299-4.5596 2.0737-1.1435 0.94899-1.6167 0.57851-2.5009-1.958-1.2239-3.5108-2.4119-3.775-7.471-1.6611-2.671 1.116-3.5936 1.1759-3.8534 0.25-0.18789-0.66953-3.3534-9.5423-7.0344-19.717s-6.9264-19.254-7.2118-20.176c-0.42804-1.3824 1.7536-2.3907 12.442-5.75 7.1283-2.2405 13.667-4.0736 14.53-4.0736s1.8551 0.9 2.2042 2 1.303 2 2.1198 2c1.064 0 0.14475-2.4587-3.2431-8.6737-3.261-5.9823-5.7331-12.483-7.9669-20.951l-3.2389-12.277 3.3097-1.0923c2.507-0.82738 3.1918-1.5433 2.8234-2.9519-0.39797-1.5218 0.48382-2.1382 4.8548-3.3936 10.251-2.944 10.774-2.9985 11.467-1.1926 0.62769 1.6357 1.8371 1.6292 7.4901-0.0408 1.1333-0.33479 2.876 1.456 5.832 5.9931 6.0543 9.2925 5.7083 9.1398 14.674 6.478 7.6786-2.2795 7.7003-2.2802 9.2432-0.28529 1.534 1.9834 1.6379 1.9713 12.814-1.4858 10.973-3.3943 11.32-3.4375 13.293-1.6522 1.9673 1.7804 2.2465 1.7691 9.6792-0.39054 7.5374-2.1901 7.6825-2.1948 9.5665-0.31083 1.6389 1.6389 2.4614 1.7666 5.7406 0.89135 3.1711-0.84642 4.1154-0.73383 5.5057 0.65648 1.9358 1.9358 3.3662 2.0731 7.0418 0.67563 2.4002-0.91253 3.1888-0.48634 8.7894 4.75 3.384 3.1639 8.6243 8.0025 11.645 10.752 17.012 15.486 16.468 14.813 16.197 20.049-0.23347 4.5102 0.0302 5.0616 4.7172 9.8639l4.9645 5.0867-0.82133 5-0.82134 5 5.95 6.0659 5.95 6.0659-2.2657 13.145-2.2658 13.145-5.0229 2.1508c-2.7626 1.183-10.198 4.2958-16.523 6.9174-6.325 2.6216-24.55 10.271-40.5 16.999s-29.933 12.591-31.072 13.029c-1.7244 0.66276-2.3926 0.1824-3.9799-2.8612z" fill="#d5d5d7"/>
  <path d="m513.15 800.27c-3.4902-6.3526-6.4904-11.55-6.6671-11.55s-2.3705 0.87836-4.875 1.9519l-4.5536 1.9519-3.6531-6.9519c-2.0092-3.8236-4.0383-6.9519-4.509-6.9519s-2.6837 0.73133-4.9176 1.6252-4.1692 1.4564-4.3006 1.25-1.5454-3.1877-3.1424-6.6252-3.2158-6.25-3.5975-6.25-2.3095 0.675-4.284 1.5-3.8423 1.5-4.1507 1.5-1.7317-2.7-3.1628-6-2.9367-6-3.3457-6-2.6163 0.66074-4.9052 1.4683c-4.1476 1.4634-4.1655 1.4592-5.3282-1.25-0.64163-1.4951-1.2303-2.8356-1.3081-2.979s-2.0683 0.41913-4.4232 1.25-4.4045 1.5107-4.5545 1.5107-1.512-3.4875-3.0265-7.75-4.7102-13.068-7.1014-19.569-4.3478-12.421-4.3478-13.157c0-0.8295 4.2774-2.6793 11.25-4.8652 16.597-5.2029 16.45-5.1795 17.223-2.7435 0.5726 1.8041 3.5269 3.0798 3.5269 1.5229 0-0.309-2.069-4.3888-4.5977-9.0662-3.9014-7.2164-10.373-26.53-10.396-31.024-3e-3 -0.6337 1.3781-1.6346 3.0696-2.2243 2.3542-0.82069 2.9369-1.5089 2.4844-2.9346-0.50869-1.6027 0.49199-2.1557 7.1745-3.9644 6.7763-1.8342 7.9099-1.9147 8.8982-0.6326 0.81837 1.0617 2.2069 1.2975 5.0046 0.85017l3.872-0.61915 5.2005 7.4485 5.2005 7.4485 7.7949-2.2669c7.6028-2.2111 7.8444-2.2212 9.8052-0.41079s2.2676 1.778 13.346-1.5853c11.243-3.4134 11.349-3.4253 12.99-1.4558 1.6463 1.9763 1.6901 1.9744 9.2934-0.39609s7.6482-2.3729 9.6127-0.40839c1.717 1.717 2.4731 1.8354 5.8204 0.91114 3.3298-0.91939 4.1261-0.80006 5.9224 0.88745 1.8083 1.6988 2.5464 1.8051 5.7361 0.82615 4.2011-1.2894 1.9026-2.9337 24.614 17.609l13.344 12.07-0.5208 5.2368-0.5208 5.2368 5.066 4.4316 5.066 4.4316-0.69612 5.2476-0.69613 5.2476 5.9642 6.0839 5.9642 6.0839-2.1869 13-2.1869 13-21.971 9.2962c-41.25 17.453-69.969 29.462-71.471 29.883-1.0511 0.29506-3.399-3.0353-7.8458-11.129zm34.346-36.008c9.35-3.649 23.525-9.1454 31.5-12.214 7.975-3.0688 15.827-6.256 17.45-7.0828 2.883-1.4693 2.9057-1.5402 1-3.1347-2.9647-2.4806-8.4498-9.0576-8.4498-10.132 0-0.52348 1.6627-1.6465 3.6948-2.4956l3.6948-1.5438-7.1948-7.2432c-3.9572-3.9837-7.1948-7.9713-7.1948-8.8612s1.1219-1.8996 2.5-2.2455 2.5-1.0138 2.5-1.4859c0-1.3742-29.033-28.618-30.327-28.459-0.64501 0.0794-2.5825 0.41404-4.3056 0.74363-2.1484 0.41093-3.5224 0.12988-4.3724-0.89439-1.3278-1.5999-5.5413-2.0362-6.3908-0.66179-0.28275 0.45751 1.7157 3.0281 4.441 5.7124 5.3163 5.2364 5.9618 6.8366 3.2051 7.9461-6.3414 2.5523-7.3793 2.1175-15.25-6.388l-7.5-8.105-4.7572 1.4556c-7.9808 2.4421-8.1417 2.6645-4.6737 6.4616 4.5022 4.9292 6.3579 8.0686 5.3295 9.016-0.49426 0.45532-2.608 1.3743-4.6972 2.0422-4.3138 1.3791-3.9791 1.633-12.943-9.8226l-4.7416-6.0596-4.7584 1.4657c-2.6171 0.80611-5.7348 1.7254-6.9281 2.043-2.0375 0.54212-1.8005 1.0934 3.89 9.049 3.4079 4.7644 5.6702 8.8302 5.1697 9.291-1.4052 1.2934-8.2572 3.261-9.2404 2.6534-0.48916-0.30232-6.194-8.5468-12.678-18.321s-11.939-17.956-12.124-18.182c-0.46826-0.57232-10.537 1.7652-12.265 2.8473-1.1484 0.71928-0.6274 2.1464 2.75 7.533 2.2918 3.6551 4.1668 6.8663 4.1668 7.1359s1.4899 2.8312 3.3108 5.6922 3.6386 5.877 4.0392 6.702 1.2735 2.4 1.9398 3.5c2.546 4.2036 12.329 20.828 14.895 25.31 1.4764 2.5795 2.3764 4.996 2 5.37s-2.7077 1.3721-5.1807 2.2179c-3.5284 1.2069-4.7477 1.2758-5.6638 0.32001-1.4984-1.5632-4.8494-7.2663-6.8115-11.593-1.5702-3.4621-3.1686-3.759-8.7039-1.6168-1.134 0.43886-2.2018-0.15462-3.3035-1.836l-1.6279-2.4845-7.5305 2.3234c-4.1418 1.2779-7.7626 2.5555-8.0462 2.8391-0.92813 0.92813 1.8063 7.6496 3.112 7.6496 0.70027 0 2.7665-0.52055 4.5916-1.1568 3.0662-1.0689 3.4808-0.95309 5.4558 1.5239 2.0947 2.627 2.2197 2.6517 6.2438 1.2318 4.7547-1.6776 5.4968-1.1836 9.1549 6.0934l2.1074 4.1924 4.5633-1.5549c2.5098-0.85517 4.7094-1.3918 4.8881-1.1924s1.9949 2.9918 4.036 6.2055c3.1161 4.906 4.0576 5.7417 5.871 5.2111 7.9753-2.3336 8.1612-2.2624 12.28 4.7004l3.8339 6.4815 5.0952-1.753 5.0952-1.753 4.7792 7.3048 4.7792 7.3048 3.6486-1.3314c2.0067-0.73228 11.299-4.317 20.649-7.966z" fill="#a0a0a2"/>
  <path d="m518.74 809.41c-0.77728-1.2074-3.5869-6.2452-6.2437-11.195s-4.9522-9.1584-5.1011-9.3519-2.579 0.41481-5.4002 1.3519-5.2145 1.5454-5.3184 1.3519-1.7308-3.3567-3.6154-7.0294l-3.4265-6.6775-4.778 1.8155-4.778 1.8155-2.9893-6.388c-1.6441-3.5134-3.633-6.388-4.4197-6.388s-3.068 0.68423-5.0695 1.5205c-3.52 1.4707-3.6684 1.4462-4.5351-0.75-0.4928-1.2488-1.6374-4.0088-2.5436-6.1334-1.742-4.084-1.9542-4.1311-9.2481-2.052-1.7524 0.49953-2.4787 0.0692-3.4384-2.0371-1.0199-2.2384-1.631-2.554-3.7783-1.9513-6.366 1.787-7.2312 1.3148-9.3377-5.0968-1.0842-3.3-4.2124-12.216-6.9515-19.813s-4.821-13.953-4.6263-14.124 6.2039-2.1559 13.354-4.41c11.76-3.7074 13.116-3.9444 14.214-2.4838 0.66766 0.88803 1.3696 2.0817 1.56 2.6527s1.0844 0.75476 1.9868 0.40846c1.4026-0.53821 0.93488-1.98-3.2209-9.9299-2.9158-5.5778-6.0982-13.797-7.9508-20.534-1.699-6.1785-3.089-11.43-3.089-11.671s1.35-0.73348 3-1.0959c2.2787-0.50048 3-1.215 3-2.9717 0-2.0383 0.84954-2.521 7.1566-4.0666 6.5674-1.6094 7.2536-1.6212 8.3347-0.14268 0.9814 1.3421 1.8166 1.4348 5.0027 0.55509 3.0053-0.82981 3.9907-0.76876 4.6 0.28496 0.42645 0.73755 2.8612 4.1896 5.4105 7.6712 3.1646 4.3219 5.1119 6.1473 6.1378 5.7536 0.82648-0.31715 4.4367-1.3584 8.0226-2.314 6.3286-1.6863 6.5609-1.6813 7.915 0.17044 1.3572 1.8561 1.7042 1.8119 12.818-1.6338 11.299-3.5032 11.444-3.5206 13.36-1.6045s2.02 1.913 9.5905-0.28676c7.4112-2.1534 7.7171-2.1662 9.6633-0.40492 1.693 1.5321 2.5582 1.6506 5.4879 0.75144 2.964-0.90968 3.8499-0.77496 5.9939 0.91155 2.1786 1.7136 2.9796 1.8259 5.9744 0.83757l3.4585-1.1414 17.007 15.315 17.007 15.315-0.50996 5c-0.50211 4.923-0.4326 5.0762 4.5154 9.9481l5.0253 4.9481-0.63174 5.3751-0.63173 5.3751 5.8338 5.8953 5.8338 5.8953-2.2061 12.717c-1.2134 6.9942-2.3102 12.792-2.4375 12.885s-8.3314 3.5598-18.231 7.7055-29.925 12.578-44.5 18.74-27.477 11.586-28.671 12.054c-1.7002 0.66767-2.4773 0.37655-3.5841-1.3427zm16.199-39.789c30.321-11.758 64.602-25.226 64.938-25.512 0.21011-0.17872-1.9274-2.8518-4.75-5.9402s-5.132-6.0229-5.132-6.5212 1.6632-1.6009 3.6959-2.4502l3.6959-1.5442-7.8191-7.8653c-7.1342-7.1762-8.631-10.045-5.2636-10.088 0.65504-8e-3 1.866-0.47302 2.691-1.0324 1.216-0.82452-1.3402-3.7661-13.5-15.535l-15-14.518-4.4171 0.55448c-3.2003 0.40174-4.8896 0.12686-6.1324-0.99785-1.6363-1.4808-6.9898-1.169-6.9234 0.4032 0.0149 0.35287 2.0357 2.8916 4.4908 5.6416s4.4679 5.5276 4.473 6.1724-1.6562 1.7221-3.6917 2.3938l-3.7009 1.2214-7.5491-8.1526c-4.152-4.4839-8.1846-8.1486-8.9612-8.1438-1.2846 8e-3 -12.083 3.0578-12.957 3.6594-0.20302 0.13981 1.7095 2.6304 4.25 5.5346s4.6191 5.8066 4.6191 6.4497c0 1.103-5.0062 3.3743-7.3992 3.357-0.92785-7e-3 -10.119-10.977-12.712-15.172-0.65491-1.0597-2.0858-0.97084-7.5818 0.47066-3.726 0.97726-7.111 2.1133-7.5222 2.5244s1.8071 4.4479 4.9295 8.9705c3.5268 5.1083 5.3189 8.5706 4.7314 9.1408-0.52012 0.50483-2.5981 1.2214-4.6176 1.5923l-3.672 0.67446-12.218-18.347c-6.7198-10.091-12.339-18.494-12.488-18.674-0.36164-0.43701-12.754 2.9557-13.666 3.7412-0.39357 0.33929 1.7976 4.8849 4.8693 10.101s6.3784 10.834 7.3482 12.484c13.235 22.517 17.997 30.567 19.818 33.5 1.195 1.925 2.1744 3.7886 2.1764 4.1414 4e-3 0.68457-7.3916 3.8586-8.9906 3.8586-0.52466 0-2.805-3.3728-5.0675-7.4952s-4.5329-7.7544-5.0454-8.0711-2.5789-0.0323-4.5921 0.63216c-3.3247 1.0972-3.819 1.0121-5.3907-0.9289-0.95171-1.1753-2.3584-2.1369-3.1259-2.1369-1.9066 0-14.069 4.0671-15.178 5.0754-0.82906 0.75391 0.79121 6.3463 2.374 8.1939 0.3625 0.42315 2.6287 0.0745 5.036-0.7749 3.5017-1.2355 4.532-1.2893 5.1521-0.26937 2.5544 4.2009 2.4214 4.1498 7.2665 2.7933 2.5427-0.7119 4.781-1.1198 4.974-0.90637s1.5613 2.797 3.0405 5.7413c2.2458 4.4702 3.0493 5.2713 4.8703 4.8559 9.1785-2.0938 8.114-2.452 11.714 3.9418 1.8114 3.2169 3.3849 5.9765 3.4968 6.1324s2.2975-0.42758 4.8569-1.2965 5.0668-1.3245 5.572-1.0123 2.3487 3.0675 4.0968 6.1228 3.712 5.7599 4.3642 6.0102 2.8351-0.23406 4.8508-1.0763 4.017-1.5265 4.4471-1.5206 2.8071 3.1511 5.2821 6.9893 4.9248 6.9834 5.444 6.9893 5.6942-1.8314 11.5-4.0829z" fill="#6b6d70"/>
  <path d="m518.19 807.88c-0.92975-2.0125-2.0856-3.9462-2.5686-4.2973s-0.52593-1.208-0.0955-1.9045c0.43996-0.71186 0.37796-1.0162-0.14159-0.69511-0.50832 0.31416-2.467-2.3163-4.3526-5.8455s-4.0287-6.4167-4.7624-6.4167-2.9742 0.68533-4.979 1.523c-2.0605 0.86093-4.0223 1.1456-4.513 0.65493-0.47741-0.47741-1.3581-3.8255-1.957-7.4401-0.83916-5.0642-1.4217-6.4444-2.5388-6.0158-1.1876 0.45571-1.2085 0.70923-0.11591 1.4018 0.73362 0.46504 0.86135 0.85242 0.28385 0.86084s-1.5308-0.46547-2.1184-1.0531c-0.75788-0.75788-2.1594-0.61255-4.8221 0.5-2.0645 0.86262-4.1599 1.5684-4.6564 1.5684-0.90299 0-2.7048-3.8846-3.3999-7.3299-1.1743-5.8207-1.8041-6.095-8.6837-3.7821-2.0518 0.6898-4.1479 0.99617-4.6582 0.68082s-1.5174-2.8742-2.2381-5.6864-1.7946-5.2988-2.3864-5.5259-3.025 0.27479-5.4071 1.1153c-5.4222 1.913-4.951 1.9971-6.1257-1.0926-1.027-2.7012-1.762-2.7732-8.5202-0.83476-1.8887 0.54173-2.6351-1.0234-8.6918-18.226-3.6441-10.35-6.7644-19.446-6.9339-20.214-0.21755-0.98494 3.5162-2.634 12.692-5.6054l13-4.21 1.4816 2.3554c1.7738 2.8199 1.7172 2.8146 6.2895 0.59061l3.6283-1.7648-5.0303-8.9852c-6.9493-12.413-15.869-29.136-15.869-29.752 0-0.28078 1.5783-0.80659 3.5073-1.1685 3.0044-0.56364 3.4275-0.97615 2.9504-2.877-0.50824-2.025 0.0654-2.3794 6.56-4.0524 6.6842-1.7219 7.1924-1.7301 8.359-0.13465 1.0368 1.4179 1.8474 1.5316 4.9037 0.6877l3.6616-1.011 5.2231 7.1614 5.5193 7.5684c0.16288 0.22382 3.7244-0.58917 7.9145-1.8066 7.2637-2.1106 7.7082-2.1323 9.548-0.46728s2.4386 1.5996 13.425-1.5679c11.114-3.2044 11.561-3.2546 13.484-1.5142 1.9045 1.7236 2.2323 1.7258 7.7164 0.0536 3.15-0.96055 6.4388-1.9457 7.3084-2.1893s2.5721 0.41667 3.7833 1.4672c1.8672 1.6194 2.7279 1.7486 5.6584 0.84924 2.8953-0.88861 3.7777-0.7697 5.4379 0.73276s2.6192 1.6317 5.9101 0.79637c4.5122-1.1453 3.0682-2.1074 19.328 12.877 5.6659 5.2216 12.078 11.096 14.25 13.053 3.7286 3.3619 3.9328 3.844 3.6761 8.6804-0.26537 4.9998-0.15097 5.233 4.8442 9.8746l5.116 4.7538-0.97882 5-0.97881 5 6.0423 6.1334 6.0423 6.1334-2.181 12.367c-1.1996 6.8016-2.4846 12.661-2.8555 13.021s-13.05 5.8553-28.175 12.212-35.964 15.133-46.31 19.504l-18.81 7.9475-1.6905-3.6591zm22.81-40.323c5.775-2.2063 16.575-6.3916 24-9.3007 7.425-2.9091 18.338-7.1788 24.25-9.4881s10.75-4.746 10.75-5.4147-2.025-3.2034-4.5-5.6324-4.5-4.9917-4.5-5.6948 1.6514-1.9684 3.6699-2.8117l3.6699-1.5334-7.6699-7.645c-4.2184-4.2048-7.6699-8.0442-7.6699-8.5321s1.3704-1.3648 3.0454-1.9487c1.675-0.5839 2.9125-1.4156 2.75-1.8483-0.54591-1.4535-30.697-29.986-31.687-29.986-0.53823 0-2.1936 0.46196-3.6787 1.0266-2.0719 0.78773-3.2421 0.6714-5.0299-0.5-2.6524-1.7379-5.218-1.9275-7.4002-0.54697-1.227 0.77628-0.54458 1.9166 3.75 6.2661 2.8875 2.9244 5.25 5.79 5.25 6.3679s-1.5716 1.5331-3.4924 2.1226c-3.4592 1.0617-3.5519 1.0094-9.75-5.4972l-7.9708-8.3673c-1.5842-1.6629-2.0736-1.6873-6.5-0.32408-2.6327 0.81081-5.7993 1.743-7.0368 2.0716s-2.25 0.84062-2.25 1.1378 2.025 3.0001 4.5 6.0065 4.5 5.8156 4.5 6.2428-1.0832 1.0486-2.4071 1.3809-3.0662 0.85708-3.8718 1.1662c-0.98498 0.37797-3.637-2.2198-8.0966-7.931l-6.6319-8.4931-6.9836 1.9353c-3.841 1.0644-7.2143 1.9353-7.4963 1.9353-1.4611 0 0.0239 3.0033 4.9873 10.087 3.025 4.317 5.5 8.0173 5.5 8.2229 0 0.50367-8.1243 2.9145-8.4576 2.5097-0.14461-0.17562-5.7318-8.5318-12.416-18.569s-12.636-18.25-13.226-18.25-3.9848 0.77605-7.5444 1.7246c-4.8357 1.2885-6.3674 2.1102-6.0581 3.25 0.22765 0.839 8.1158 14.575 17.529 30.525l17.115 29-2.7214 1.1264c-6.7274 2.7844-6.4612 2.9156-10.924-5.3824-3.7008-6.8813-4.4786-7.7388-6.9812-7.6975-1.549 0.0256-3.8285 0.39328-5.0656 0.81714-1.8452 0.63221-2.4246 0.30948-3.2252-1.7965-0.53682-1.4119-1.3014-2.5671-1.6992-2.5671-1.9024 0-17.299 5.1472-17.795 5.9488-0.43913 0.71054 1.6379 6.5862 3.16 8.9392 0.13804 0.2134 2.374-0.2064 4.9687-0.93289 3.16-0.88474 4.8323-0.97713 5.0647-0.2798 0.19087 0.57259 0.89997 1.7973 1.5758 2.7215 1.13 1.5453 1.5806 1.5563 5.605 0.13641 4.9998-1.764 6.1864-1.2181 8.1513 3.7499 2.3832 6.0257 3.5555 6.7648 8.1557 5.1418 2.2213-0.78371 4.3694-1.4249 4.7736-1.4249s2.174 2.7 3.9329 6 3.7916 6 4.5172 6 3.0145-0.70834 5.0866-1.5741c4.0133-1.6769 3.9922-1.6866 6.668 3.0741 0.61827 1.1 2.1794 3.6805 3.4692 5.7344l2.345 3.7344 5.1273-2.021c2.82-1.1116 5.24-1.892 5.3777-1.7344s1.7294 2.7616 3.537 5.7866c5.4146 9.061 5.5808 9.186 9.8238 7.3864 1.9958-0.8465 8.3537-3.3442 14.129-5.5504z" fill="#4b4b4d"/>
  <path d="m519.87 810.47c-0.15244-0.29861-0.40791-2.2763-1.324-10.25-1.3852-12.056-1.9615-14.012-4.0826-13.853-1.0812 0.0811-5.4567 1.2708-9.7234 2.6438l-7.7576 2.4963-0.4351-2.1438c-2.5548-12.588-2.5919-12.67-5.3981-11.986-1.4584 0.35572-4.387 1.2501-6.5081 1.9876-4.432 1.5409-5.6413 1.1225-5.6491-1.9546-3e-3 -1.205-0.47422-3.8785-1.047-5.941-1.1853-4.2682-2.3849-4.5654-9.0023-2.2306-4.906 1.7309-5.6029 1.3492-6.4255-3.5194-1.3244-7.8383-1.5263-7.9674-8.5732-5.4811-4.3925 1.5498-5.89 0.99185-5.9311-2.2099-0.0277-2.1577-1.8262-2.3685-5.9909-0.70212-2.2591 0.9039-4.2482 1.4746-4.4204 1.2683-0.99218-1.1895-8.6093-24.753-8.6069-26.625 2e-3 -1.2375-0.35827-2.25-0.79962-2.25-1.1365 0-4.5796-9.9503-3.7368-10.799 0.38317-0.3857 6.2614-2.5097 13.063-4.72l12.366-4.0187 1.0337 2.2687c1.2106 2.657 2.5579 2.8012 7.3734 0.78917l3.5411-1.4796-6.4571-11.77c-3.5514-6.4737-7.6774-14.245-9.169-17.27s-3.2744-6.0946-3.9618-6.8214c-2.0877-2.207-1.4127-3.896 1.8149-4.5416 2.4337-0.48673 3-1.0594 2.75-2.7808-0.27549-1.8966 0.5405-2.4078 6.5212-4.0854 6.5375-1.8338 6.8928-1.84 8.1351-0.14111 1.1182 1.5293 1.8033 1.6216 4.9241 0.66384l3.6252-1.1126 5.1733 7.4095c2.8453 4.0752 5.8782 7.4037 6.7398 7.3966s4.4465-0.91566 7.9667-2.019c5.7414-1.7996 6.573-1.8498 8.0787-0.4871 2.2481 2.0345 2.9831 1.9599 14.297-1.4512 9.1741-2.766 12.724-3.0235 12.724-0.92281 0 1.4052 3.2958 1.0567 10.134-1.0716l6.3123-1.9646 2.2006 2.0673c1.9663 1.8473 2.5879 1.9395 5.8395 0.86637 3.1594-1.0427 3.9-0.96465 5.6202 0.59213 1.6583 1.5008 2.5993 1.6281 5.7722 0.78125l3.7909-1.0118 16.849 15.283 16.849 15.283-0.24816 5.3573c-0.24247 5.2344-0.14025 5.4539 4.4529 9.5649 4.697 4.2039 4.7006 4.2121 4.1529 9.5183l-0.54811 5.3107 5.8718 5.9634 5.8718 5.9634-1.7148 10.274c-0.94312 5.6507-1.9719 10.017-2.2861 9.7026s-0.37971 0.73424-0.14551 2.3299c0.38782 2.6424-2e-3 3.0906-4.3719 5.0235-2.6387 1.1672-5.4072 1.8884-6.1521 1.6025s-1.13-0.15675-0.85586 0.28688-3.415 2.4559-8.1981 4.4718l-26.697 11.268c-39.542 16.701-47.299 19.825-47.628 19.181zm24.18-43.842c11.246-4.4506 28.525-11.215 38.396-15.031s18.154-7.1453 18.406-7.397-1.8623-2.9108-4.6979-5.9089-5.1556-5.8933-5.1556-6.4336 1.575-1.5021 3.5-2.1374 3.5-1.469 3.5-1.8526-3.375-4.05-7.5-8.1474-7.5-7.7696-7.5-8.1602 1.6289-1.2993 3.6198-2.0192l3.6198-1.3089-15.848-15.256c-8.7162-8.3907-16.616-15.256-17.555-15.256s-2.8265 0.42561-4.1947 0.9458c-1.8491 0.70302-2.7956 0.57467-3.6875-0.5-1.356-1.6338-5.7015-1.8916-7.9479-0.47137-1.2333 0.77969-0.79857 1.6821 2.5 5.1897 2.1961 2.3353 4.6241 4.7604 5.3956 5.3892 1.9255 1.5693 0.69214 3.1571-3.0992 3.9898-3.0001 0.65893-3.587 0.247-10.742-7.539l-7.5681-8.236-7.247 2.1582c-3.9858 1.187-7.247 2.5479-7.247 3.0242s2.0574 3.3917 4.572 6.4786l4.572 5.6126-3.7172 1.5532c-2.0445 0.85423-3.9894 1.1553-4.322 0.66907-1.1258-1.6457-6.5943-8.7123-8.3146-10.744-0.94036-1.1108-2.3053-2.8359-3.0331-3.8333-1.2745-1.7467-1.5967-1.7378-8.7288 0.23853-4.073 1.1287-7.7959 2.4427-8.2732 2.92-0.49039 0.49039 0.13869 2.1262 1.4465 3.7615 4.098 5.1239 8.7984 12.192 8.7984 13.23 0 1.3968-7.3102 3.7336-7.7309 2.4713-0.17988-0.53965-5.7372-9.1162-12.35-19.059l-12.023-18.078-6.6985 1.9098c-9.2807 2.646-9.2475 2.6283-8.5117 4.5458 0.47711 1.2433 0.29621 1.4813-0.67137 0.88335-0.88782-0.54871-1.0859-0.43258-0.60084 0.35226 0.39798 0.64395 1.073 0.95486 1.5001 0.6909 1.0965-0.67767 11.235 16.616 10.644 18.156-0.26754 0.6972-0.0373 1.1605 0.51156 1.0296 1.1956-0.28513 23.104 36.24 22.616 37.704-0.18684 0.56053-2.0184 1.4161-4.07 1.9014-4.3365 1.0256-4.5579 0.81662-9.5495-9.0097-3.4528-6.7972-3.6183-6.8622-10.763-4.2323-1.717 0.63198-2.3318 0.38349-2.8146-1.1375-0.33971-1.0704-0.36141-2.3607-0.0482-2.8675 0.7438-1.2035-9.4862 1.2004-16.878 3.9662-3.7008 1.3847-5.3501 2.4502-4.5539 2.9423 0.71061 0.43918 0.91113 1.3168 0.46557 2.0377-0.48382 0.78283-0.37902 1.0169 0.27447 0.613 0.59902-0.37022 1.53 0.70329 2.1484 2.4773 0.99304 2.8486 1.3847 3.0772 4.3474 2.5377 1.7908-0.3261 4.2482-0.88257 5.4607-1.2366 1.7902-0.5227 2.3275-0.15409 2.8584 1.9611 0.74944 2.986 1.665 3.1412 7.1383 1.2101l3.9528-1.3946 3.2406 5.8946c1.7823 3.242 3.6052 5.8946 4.0508 5.8946s2.5276-0.71756 4.6266-1.5946c4.3499-1.8175 4.7008-1.57 8.6405 6.0946 1.1308 2.2 2.5124 4.2929 3.0702 4.6508s3.036-0.21586 5.5072-1.2751 4.5752-1.8021 4.6756-1.6508c2.3244 3.5018 6.5343 11.029 6.5343 11.683 0 1.7742 2.8663 1.8922 7.2931 0.30031 4.51-1.6218 4.5566-1.6159 6.5912 0.82916 1.127 1.3544 2.0641 2.7596 2.0824 3.1228 0.0543 1.0776 5.3342 8.8397 6.0128 8.8397 0.34337 0 9.8259-3.6414 21.072-8.0919zm-107.71-34.399c0.36189 0.27022 0.42382 0.18215 0.13762-0.19572-1.016-1.3414-4.2983-1.004-3.7646 0.38692 0.36223 0.94398 0.88772 1.0447 1.7437 0.33432 0.67388-0.55927 1.5213-0.79575 1.8832-0.52552zm-5.7378-5.2378c-0.33229-0.33229-0.56864 0.25834-0.52522 1.3125 0.048 1.165 0.28494 1.4019 0.60416 0.60417 0.28888-0.72187 0.25335-1.5844-0.079-1.9167zm-2.2591-1.814c-0.32569-0.84872-0.80663-1.3287-1.0688-1.0665s-0.17998 0.95654 0.18255 1.5431c0.98605 1.5955 1.5624 1.2855 0.8862-0.4766zm1.3172-3.7069c-0.27741-0.6875-0.50439-0.125-0.50439 1.25s0.22698 1.9375 0.50439 1.25 0.27741-1.8125 0-2.5zm2.5776-3.1017c0.63721 0.39382 0.77678 0.18776 0.34549-0.51008-0.85086-1.3767-2.6205-0.55006-2.5065 1.1708 0.0565 0.85244 0.22291 0.83389 0.58541-0.0652 0.27855-0.69093 0.98756-0.9589 1.5756-0.59549z" fill="#3c3c41"/>
  <path d="m519.69385,810.07982c-1.16042-1.16043.38097-2.36052 3.03183-2.36052 1.43421,0 2.28367-.32398 1.88769-.71996s-1.68594-.73348-2.86657-.75c-1.80785-.0253-2.16961-.66127-2.29243-4.03004-.0802-2.2-.49135-6.1375-.91364-8.75-.6004-3.71426-.4705-4.75663.59573-4.78041 .89262-.0199.74401-.39091-.43029-1.07422-1.14056-.66368-1.58097-1.71449-1.20932-2.88543 .32148-1.0129.12135-2.12787-.44472-2.47772-.58807-.36345-.79918-.0366-.49253.76251 .78137,2.0362-8.59706,5.82344-11.03801,4.45742-1.21642-.68075-1.59216-.67536-1.16444.0167 .34731.56197-1.05346,1.69681-3.11283,2.52187l-3.74432,1.50012-.80489-3.64542c-.44269-2.00498-.92437-5.22042-1.0704-7.14542-.25244-3.32764-.4344-3.4869-3.69511-3.23392-1.88628.14635-5.18781.9585-7.33673,1.80478-4.62925,1.82307-5.848.83404-5.32452-4.32086 .18334-1.80533-.13634-3.25681-.71915-3.26531s-.37639-.44066.44593-.96052c1.2846-.81211 1.21999-1.14638-.45887-2.37399-1.66413-1.21685-2.61586-1.22961-6.41584-.086-2.45402.73855-4.83503,1.11218-5.29113.83029s-.82929-.036-.82929.54651-.49815,1.05902-1.10699,1.05902-.839-.69837-.51145-1.55194c.33695-.87809.17223-1.29032-.37938-.94941-.57677.35647-.83098-.63356-.62248-2.4243 .19383-1.66475-.005-2.80584-.44215-2.53576s-.93923-.51144-1.11606-1.73673c-.23112-1.60159-1.22891-2.41228-3.5497-2.88407-1.77551-.36095-3.01807-.31628-2.76124.0993s-.31548.98066-1.2718,1.25579-2.48352.80804-3.3938,1.18424c-1.26802.52405-1.81276-.034-2.32945-2.38655-.77887-3.54613-.86078-3.56565-6.54576-1.55987-2.35495.83087-4.37217,1.39337-4.48273,1.25-1.19224-1.54611-4.23803-13.24593-3.7675-14.47211 .36946-.9628.21038-1.36328-.39332-.99017-.56054.34644-1.52103-1.0266-2.14864-3.07154-.92879-3.0263-.86636-3.96663.34375-5.17673 1.23541-1.23543 1.4787-1.24749 1.4787-.0733 0,.95766.45593.78699 1.43108-.53571 1.39201-1.88813 1.46085-1.87287 2.52138.55887l1.0903,2.5-.36863-2.67635c-.27588-2.00299.0463-2.64508 1.28072-2.5521 .90715.0683 1.71315.97115 1.79112,2.00625s.69573,2.54949 1.37279,3.36529c1.08719,1.30999 1.32926,1.30772 2.07198-.0194 .46253-.82649 1.73383-1.33076 2.82511-1.1206s1.98415-.0421 1.98415-.56048 .7875-.91999 1.75-.89238c1.13283.0325 2.7444,2.14905 4.56967,6.00157 2.61947,5.52878 3.00999,5.90481 5.5,5.29582 3.26128-.79762 4.26701-2.14746 3.17262-4.25811-1.70293-3.28429-3.99084-8.92272-3.95244-9.74061 .0605-1.28857 4.16683,6.95274 4.2345,8.49851 .0324.74105 1.01143,1.78134 2.17553,2.31174s2.74142,2.39908 3.50514,4.15262 2.4107,4.82632 3.65997,6.8284 1.95946,3.98672 1.5782,4.41033-.16384.46697.48314.0964c.80533-.4613.90619-1.61571.3198-3.66032-.47108-1.64259-.55043-2.98301-.17632-2.97872 1.11764.0128 3.1751,5.19142 2.49789,6.28717-.37346.60426-.12388.70328.6176.24502 .8226-.5084 1.03676-2.00113.63191-4.40451-.5719-3.39502-.5117-3.50709.91019-1.69435 1.23913,1.57971 1.5226,1.64617 1.5226.35696 0-.87128-.675-1.84316-1.5-2.15975s-1.5-1.48972-1.5-2.60699-.45-2.03138-1-2.03138-1.03553-1.0125-1.07895-2.25-.30592-1.6875-.58333-1c-.5772,1.43045-2.33772,1.6993-2.33772.35699 0-.49116.65454-1.14419 1.45455-1.45117 .99632-.38233 2.46571,1.23787 4.66429,5.14301 3.12089,5.54332 7.67773,11.07936 6.68399,8.12028-.29383-.87494.65528-1.89843 2.47511-2.66911 4.01298-1.69945 5.6631-1.57148 6.44749.5 .36446.9625 1.28289,2.37719 2.04094,3.14376 .83538.84476 1.13706,2.35487.76588,3.83378-.41383,1.64881-.25357,2.21826.4942,1.75611 .60864-.37616 1.68155.10233 2.38424,1.06332 1.20201,1.64385 1.56366,1.64977 6.1116.10014 5.50249-1.87489 6.83668-2.03695 6.0305-.73252-.31089.50302-.20869,1.06552.2271,1.25 1.73095.73273 5.30271,6.89274 4.62884,7.98309-.46031.7448-.27952.89049.50407.40621s1.42154.009 1.77114,1.34549c.30213,1.15534 1.05934,2.09541 1.68269,2.08903s7.65837-2.55847 15.63337-5.67132 15.77514-5.64531 17.33365-5.6277c1.58914.018 2.31539-.28826 1.65362-.69726-.75507-.46666-.155-1.10365 1.66636-1.76884 1.5655-.57176 10.47042-4.00875 19.78871-7.63777 10.43993-4.06583 17.73206-6.37873 19-6.02635 1.653.45938 1.76267.36531.55766-.47835-1.33333-.93351-1.33333-1.0536 0-1.08082 4.24232-.0866 3.99561-1.73298-1.0238-6.83219-2.98409-3.03153-4.79668-5.64927-4.3793-6.3246 .4407-.71307.27209-.88028-.44239-.4387-.63498.3924-1.15451.32733-1.15451-.14465s1.575-1.42765 3.5-2.12374 3.5-1.65227 3.5-2.12484-3.375-4.20155-7.5-8.28661-7.5-7.68438-7.5-7.99849 1.575-1.09091 3.5-1.72622 3.49-1.45771 3.47778-1.82755-2.28321-2.65571-5.04665-5.07971c-3.01881-2.648-4.81079-4.96397-4.48923-5.80193 .29436-.76708.0915-1.12046-.45081-.78531-1.34126.82895-17.99109-14.57397-17.99109-16.64372 0-.5389-.41891-.72092-.9309-.40448s-1.23553.0824-1.60785-.51999c-.4344-.70289-2.39108-.85957-5.46125-.43731-3.03518.41744-5.02811.26353-5.45117-.42099-.83154-1.34546-5.07537-1.40277-7.50705-.10137-1.63894.87713-1.27214,1.55484 3.56784,6.59209 2.96703,3.08794 5.16348,5.98838 4.88102,6.44542s-1.90056,1.13561-3.59577,1.50794c-2.66535.58541-3.46977.22389-5.9479-2.67306-3.21105-3.75376-3.71172-5.35747-1.39503-4.46847 .92334.35432 1.29429.17865.91584-.43369-.34985-.56607-1.44094-.77378-2.42465-.46156-1.21596.38593-2.73208-.50696-4.73574-2.789-1.62096-1.84616-3.48897-3.6915-4.15113-4.10074-1.5157-.93675-16.14079,3.32916-15.86207,4.62672 .11319.527 2.32081,3.27985 4.90582,6.11744s4.38501,5.43534 4,5.77278c-1.66137,1.45612-7.20001,2.76822-7.20001,1.70567 0-.59223-1.4625-2.73437-3.25-4.76032s-4.53732-5.34299-6.11071-7.3712c-3.27973-4.22783-3.83489-4.28633-12.63929-1.33197-5.39126,1.80907-6.44031,2.51913-6.15005,4.16271 .19247,1.08988.67393,2.2066 1.06991,2.4816 1.32592.92082 9.08014,11.90251 9.08014,12.85947 0,.51969-1.41715,1.4389-3.14922,2.0427-3.69906,1.2895-4.89103,1.37692-4.74263.34783 .23053-1.59864-1.39121-5.25-2.33177-5.25-.5447,0-.72237-.69837-.39482-1.55194 .33715-.8786.1723-1.29037-.37995-.94906-.53651.33159-3.22214-2.90754-5.96805-7.19806s-5.7345-8.56847-6.6413-9.50657c-.98189-1.01578-1.42415-2.56444-1.09346-3.82899 .41733-1.59588.18453-1.98109-.93715-1.55066s-1.3352.0773-.86165-1.41472c.5088-1.60309.27972-1.86348-1.18461-1.34653-1.52476.53829-1.60391.41721-.49441-.75629 1.1229-1.18767 1.61371-1.03889 3.27315.99219 1.10171,1.34844 1.70654,3.1633 1.38834,4.16585-.6702,2.11164 1.40667,3.74219 2.50433,1.96613 .57806-.93531.93935-.94985 1.48935-.0599 .39938.64622 1.31164.95027 2.02723.67567 1.95955-.75195 2.63701.47375 1.25518,2.27091-1.09435,1.42327-1.01393,1.42108.75867-.0206 2.40417-1.95537 15.71291-6.07088 16.45415-5.08818 2.32994,3.08892 3.75941,3.17316 11.12306.65552 4.07306-1.39258 8.19368-2.33155 9.15694-2.0866 1.07359.27302 1.49386.0287 1.08595-.6313-.41549-.67229-.0647-.84616.93402-.46292 .87969.33757 1.78776.0765 2.01794-.58006 .29035-.82823 1.03479-.64749 2.43091.59017 1.39206,1.23406 3.28621,1.69645 6.14464,1.5 2.27273-.15619 4.13289-.54599 4.13369-.86621s1.6732-1.09529 3.71643-1.72237c3.20126-.9825 3.99635-.88803 5.75.6832 2.50554,2.24493 5.95575,3.61113 4.93061,1.95241-.48178-.77953-.0182-.9656 1.44944-.5818 1.18676.31034 1.90557.15623 1.59735-.34248-.93593-1.51438 1.78266-1.01308 3.64473.67208 1.7542,1.58752 7.25708,2.78707 6.3963,1.3943-.25349-.41016.40284-.97161 1.45853-1.24768 2.14769-.56163 6.56137,3.38874 5.31723,4.75907-.41753.45988-.243.54108.38785.18045 1.53414-.87699 11.54765,8.18603 10.6938,9.67872-.3638.63597-.29321.82272.15687.415 .9797-.88754 3.68699,1.13352 3.00233,2.24132-.26289.42536.27845,1.38687 1.20297,2.13669 1.1561.93764 1.44647.97301.92997.11331-.41304-.6875-.36574-1.25.1051-1.25 1.01625,0 8.0513,7.05931 8.47079,8.5 .16014.55.68499.86873 1.16633.70828s1.67002.42762 2.64152,1.30682c1.92916,1.74586 1.56486,5.64528-.455,4.87019-.68269-.26197-1.81845.21917-2.52391,1.0692-.75761.91287-.85731,1.54551-.24355,1.54551 .57151,0 1.24536-.5625 1.49745-1.25 .36147-.98585.7326-.99158 1.7562-.0271 1.05209.99129 1.05891,1.74879.036,4-.69404,1.52742-.91268,2.43047-.48586,2.00679 .94791-.94096 8.52578,6.26107 7.80867,7.42139-.28079.45432.25987.53041 1.20147.16908 1.54253-.59192 1.64786-.0433 1.06407,5.54211l-.64793,6.19906 6.21995,5.93726c7.01547,6.69662 6.85919,8.38205-.82754,8.92493-1.60564.1134-1.36031,6.07651.25,6.07651 .7333,0 1.3333-.38115 1.3333-.84699s.96352-1.92834 2.14115-3.25l2.14115-2.40301-.64115,3.375c-.35263,1.85625-.64804,4.33125-.65646,5.5-.0114,1.581-.23641,1.77603-.87895.76185-.72914-1.15087-.94806-1.15087-1.40574,0-.35523.89325-.61011.67371-.73937-.63685-.14131-1.43271-.41379-1.14906-.96063,1l-.76337,3-.11832-2.75c-.0651-1.5125-.45581-2.69671-.86831-2.63158-2.25288.35572-2.92787-.35273-2.49475-2.61842 .46752-2.44568-1.03658-3.47185-2.23846-1.52717-.33068.53505-2.28364,1.42584-4.33991,1.97954s-4.5513,1.60093-5.5445,2.32718c-1.66713,1.21903-1.60715,1.32045.78089,1.32045 1.4227,0 2.58673-.36 2.58673-.8s1.125-.8 2.5-.8 2.50689.5625 2.51531,1.25c.0102.83333.33844.75.98469-.25 .70439-1.08997.97356-1.14217.98469-.19098 .008.71996.51562.9998 1.12711.62188 1.34482-.83114 2.85757,1.32298 2.85757,4.0691 0,1.65614-.16666,1.7421-.96937.5-.78387-1.21296-.9723-1.06944-.98469.75-.0133,1.95578-.53837,2.25-4.01531,2.25h-4v4.46862c0,3.81892.25443,4.38092 1.75,3.86546 1.43018-.49292 1.3845-.30398-.25,1.03384-2,1.63699-2,1.63699 0,1.05903 1.54516-.44652 1.65887-.36088.5.37658-2.49244,1.5861-6,2.39312-6,1.38049 0-.52292.94528-1.19795 2.10062-1.50008 3.07588-.80436 1.31989-2.68394-2.50746-2.68394-3.01652,0-3.29636.2658-3.38008,3.21048-.0579,2.03505.20678,2.72821.72282,1.89324 .50021-.80936 1.05168-.93283 1.43028-.32024 .86069,1.39262-5.7998,4.37109-7.93899,3.55021-1.0697-.41049-1.5117-.27945-1.13165.33549 .34808.5632-2.34096,2.25857-6.08596,3.83701-19.29626,8.13299-25.50708,10.43289-26.55505,9.8335-.63499-.36319-.81902-.29019-.40896.16222 .95988,1.05901-7.10604,4.70236-8.50133,3.84002-.57929-.35802-.76184-.17942-.40566.39689 .56344.91166-2.81294,2.49285-5.83858,2.73426-.55.0439-1.675.51516-2.5,1.04729-1.15999.74821-14.03387,6.47963-14.55449,6.47963-.0617,0-.39994-.28777-.75166-.63948zm13.30615-6.36052c0-.55-.45-1-1-1s-1,.45-1,1 .45,1 1,1 1-.45 1-1zm3.98809-2.41191c-.65079-.65079-1.38035-.59583-2.13717.16099-.86544.86544-.62154,1.10934.98809.98809 1.40761-.10603 1.79987-.49829 1.14908-1.14908zm-1.13172-1.3536c1.38948-.29974 2.70074.0489 3.19562.84964 .4616.74687 1.1882,1.00901 1.61468.58254s.11344-1.19406-.69563-1.70573c-2.23938-1.41623-6.23915-1.08316-8.47104.7054-2,1.60273-2,1.60273 0,.8396 1.1-.41972 3.06037-.99187 4.35637-1.27145zm11.14363-3.23449c-.5887-1.1-1.50453-2-2.03518-2s-.96482.9-.96482,2c0,1.34486.66667,2 2.03518,2 1.72531,0 1.87221-.30452.96482-2zm8.25-2.66228c-.6875-.27741-1.8125-.27741-2.5,0s-.125.50439 1.25.50439 1.9375-.22698 1.25-.50439zm4.75-1.44471c0-.60884.6-.87675 1.33333-.59534s1.33298-.008 1.33254-.64301c-.00048-.69358-1.79135-1.17482-4.48476-1.20514-2.46618-.0278-3.9149.13922-3.21938.37106 .98731.3291.9657.6209-.0986,1.33085-.87981.5869-.33519.66955 1.536.2331 2.05683-.47975 2.6934-.3433 2.19099.46963-.38948.63021-.2316,1.14584.35086,1.14584s1.05902-.49814 1.05902-1.10699zm-40.39583-2.62218c-.3323-.33229-.56864.25834-.52522,1.3125 .048,1.16495.28494,1.4019.60416.60417 .28887-.72188.25335-1.58438-.0789-1.91667zm32.9002,1.72211c.34231-.55389-.10054-1.28448-.98412-1.62354-1.91464-.73472-2.98171.0749-2.06137,1.56407 .83038,1.34358 2.23491,1.37101 3.04549.0595zm13.68313-1.67605c-.72188-.28887-1.58438-.25335-1.91667.0789s.25834.56864 1.3125.52522c1.16495-.048 1.4019-.28494.60417-.60416zm5.8125-2.81689c2.35489-1.34618 2.37651-1.43119.37244-1.46456-1.17015-.0195-2.68775.63956-3.37244,1.46456-1.5537,1.87209-.27489,1.87209 3,0zm6-2.5c-.825-.53316-2.625-.93141-4-.88501l-2.5.0844 2.5.80061c1.375.44035 3.175.83861 4,.88501 1.33333.075 1.33333-.0233 0-.88501zm-7.8125-1.68311c-.72188-.28887-1.58438-.25335-1.91667.0789s.25834.56864 1.3125.52522c1.16495-.048 1.4019-.28494.60417-.60416zm13.8125-.17822c0-.47373-1.125-.64627-2.5-.38342s-2.5.65044-2.5.86133 1.125.38342 2.5.38342 2.5-.3876 2.5-.86133zm-8.45888-10.2052c1.07627-1.74144-.14952-2.11024-1.52106-.45764-.78875.95039-.86462,1.52417-.20152,1.52417 .58488,0 1.36004-.47994 1.72258-1.06653zm-59.54112-.99249c0-.58246-.45-.7809-1-.44098s-1,.81648-1,1.05902 .45.44098 1,.44098 1-.47656 1-1.05902zm46.84195-1.05982c-1.87366-1.18754-2.54852-1.0882-3.14367.46272-.37285.97165.17693,1.21147 1.98497.86584 1.83638-.35105 2.14418-.70396 1.1587-1.32856zm-52.84195.11884c0-.55-.47656-1-1.05902-1s-.7809.45-.44098,1 .81648,1 1.05902,1 .44098-.45.44098-1zm4-2c.5887-1.1.84537-2 .57037-2-.275,0-.98167.9-1.57037,2s-.84537,2-.57037,2c.275,0 .98167-.9 1.57037-2zm78-2.5c0-1.02429-1.03071-1.50209-3.25-1.50659l-3.25-.007 2.96505-1.95447c2.21607-1.46076 3.15946-1.64855 3.73469-.74341 .46771.73596.77564.13224.78495-1.53894 .0152-2.73371-1.30312-3.66182-2.48503-1.74945-.3401.5503-2.61666,1.50372-5.05902,2.11871-4.44015,1.11805-5.99056,2.81849-2.69064,2.95103 1.49644.0601 1.46022.19481-.25.92971s-1.74644.86961-.25.92971c.9625.0387 1.75.52029 1.75,1.07029s1.8,1 4,1c2.88889,0 4-.41667 4-1.5zm-99.15049-2.50184c-.94001-2.69654-2.84951-5.04697-2.84951-3.50752 0,.91228 2.98683,6.50936 3.47366,6.50936 .23227,0-.0486-1.35083-.62415-3.00184zm19.54919,1.83793c-.25451-.41181-1.12334-.49525-1.93073-.18543-2.03585.78123-1.83381,1.2526.46275,1.07961 1.0619-.08 1.72249-.48237 1.46798-.89418zm-34.79453-2.56526c-.33229-.33229-.56864.25834-.52522,1.3125 .048,1.16495.28494,1.4019.60416.60417 .28888-.72187.25335-1.58437-.079-1.91667zm32.89583.72917c.33992-.55.16803-1-.38197-1s-1.27811.45-1.61803,1-.16803,1 .38197,1 1.27811-.45 1.61803-1zm-57.5-5.10699c0-1.28596-.57887-1.10536-2.019.62988-1.05678,1.27335-.99492,1.41968.37756.89301 .90279-.34643 1.64144-1.03173 1.64144-1.52289zm39.03195-.84132c.65312,1.05677.83566.84082.70913-.83891-.11028-1.4639-.65277-2.07691-1.53753-1.7374-.75192.28854-1.70532.52462-2.11867.52462s-.75155.66786-.75155,1.48412c0,1.16351.30451,1.23141 1.40955.31431 1.09219-.90644 1.60758-.84941 2.28907.25326zm2.7679-3.59163c-.6186-1.35768-1.31309-2.28015-1.54331-2.04993s.0521,1.29795.62726,2.37274 .72416,2.31048.33102,2.74597-.16929.47859.49747.0958c.92021-.52834.94131-1.29077.0876-3.16455zm-50.45477-1.00319c-.32569-.84872-.80663-1.32866-1.06875-1.06653s-.17998.95654.18255,1.54313c.98605,1.59546 1.56238,1.28551.8862-.4766zm2.77699-1.13187c-1.17884-2.02721-1.46351-1.37835-.49853,1.13634 .34294.8937.83419,1.41426 1.09166,1.15679s-.009-1.28938-.59313-2.29313zm-2.5179-10.05417c-.33229-.33229-.56864.25834-.52522,1.3125 .048,1.16495.28494,1.4019.60416.60417 .28888-.72187.25335-1.58438-.079-1.91667zm160-13c-.3323-.33229-.56864.25834-.52522,1.3125 .048,1.16495.28494,1.4019.60416.60417 .28887-.72187.25335-1.58438-.0789-1.91667zm.60811-2.63398c.24991.47473.37939.41315.28772-.13685-.22543-1.3526-1.92011-.8062-2.32613.75-.21951.84132-.0139.80433.62895-.11315 .52529-.74974 1.15955-.97474 1.40946-.5zm-115.40541-27.16331c-.30789-.30789-.86705.24711-1.24258,1.23333-.54268,1.4252-.42782,1.54006.5598.5598 .68342-.67834.99067-1.48524.68278-1.79313zm98.17884,1.11217c-.64761-.64762-1.32381-.64762-1.97142,0s-.30953.98572.98571.98572 1.63333-.3381.98571-.98572zm-103.9559-8.53002c-1.57275-2.93869-3.01076-3.42026-1.6863-.56472 .63607,1.37138 1.50982,2.49694 1.94167,2.50123s.31693-.86714-.25537-1.93651zm62.97019-2.4487c0-.21616-.69837-.661-1.55194-.98855-.88992-.34149-1.29132-.17385-.94098.39301 .58726.95021 2.49292,1.40545 2.49292.59554zm-65-3.83581c0-.60748-.2961-.80842-.65799-.44652s-1.2619.15679-2-.45578c-1.01474-.84216-1.34201-.77-1.34201.29587 0,.7753.9,1.47744 2,1.5603s2-.34638 2-.95387zm90.02006-3.24701c-.69572-.8383-1.65544-1.52417-2.13272-1.52417s-.1087.88653.81905,1.97006 1.88747,1.76941 2.13272,1.52417-.12333-1.13177-.81905-1.97006zm-89.54705.5195c.32507-.52598 1.36413-.70853 2.30901-.40566 1.01656.32583 1.3097.20118.71798-.30531-.55-.47078-1.24903-1.17476-1.55339-1.56439s-1.31247.1781-2.24022,1.26163-1.26778,1.97006-.75562,1.97006 1.19717-.43035 1.52224-.95633zm-5.12793-1.5868c-.32569-.84872-.80663-1.32866-1.06875-1.06653s-.17998.95654.18255,1.54313c.98605,1.59546 1.56238,1.28551.8862-.4766zm46.65492-6.39785c0-.51754-.51953-1.26207-1.15451-1.65451-.68238-.42174-.8843-.27633-.49377.35557 .36341.588.0954,1.29701-.59549,1.57556-.75786.30554-.56198.53778.49377.58541 .9625.0434 1.75-.34449 1.75-.86203zm71.27083,100.33681c.33229-.33229 1.19479-.36781 1.91667-.0789 .79773.31922.56078.55618-.60417.60416-1.05416.0434-1.64479-.19293-1.3125-.52522zm8.72917.09284c0-.29599 1.1164-.96263 2.4809-1.48141 1.76478-.67097 2.31486-1.45762 1.90567-2.72525s-.30876-1.41186.34905-.49814c1.12623,1.56439 4.26438.54086 4.26438-1.39086 0-.76615-.675-1.39301-1.5-1.39301s-1.5-.40787-1.5-.90638 .9-.67103 2-.38337c2.27445.59478 2.65476,3.50145.6733,5.14592-1.71299,1.42166-8.6733,4.33673-8.6733,3.6325zm8.38866-11.05912c.33624-.87622.61134-2.00632.61134-2.51134s.45-.91821 1-.91821c1.64714,0 1.12847,3.73672-.61134,4.40435-1.17937.45257-1.44745.19124-1-.9748zm-136.36076-14.89593c-.66934-.80651-1.04146-1.99295-.82692-2.63655s1.16745.0163 2.11759,1.46638c1.81528,2.77046.8008,3.69023-1.29067,1.17017zm-5.14979-3.43713c.80281-.50849 1.05141-1.40152.5955-2.13919-.50955-.82448-.3798-1.01735.37188-.55279 1.7808,1.10059 1.36551,3.59734-.59549,3.58018-1.38406-.0121-1.46182-.19784-.37189-.8882zm-12.21144-7.76316c-.36667-.36666-.66667-1.13166-.66667-1.7 0-.6266.46577-.56756 1.18333.15 .65084.65084.95084,1.41584.66667,1.7s-.81667.21667-1.18333-.15zm-3.22554-3.86513c1.06762-.80751 2.39113-1.4682 2.94113-1.4682s.12649.66069-.94113,1.4682-2.39113,1.46819-2.94113,1.46819-.12649-.66069.94113-1.46819zm18.55887-.63946c0-.64419-.73125-1.97928-1.625-2.96686s-1.625-2.92731-1.625-4.31051-.39184-2.27273-.87075-1.97675-1.41735-.66151-2.08542-2.12778c-1.03835-2.27891-.95769-2.85385.55558-3.96039 1.12031-.81918 1.38115-1.53494.71043-1.94947-.58291-.36026-1.05984-.22076-1.05984.31 0,1.04245-8.35192,4.18189-10.92814,4.10783-.86452-.0249.45314-1.10466 2.92814-2.39958 2.7635-1.44586 4.74118-1.96605 5.125-1.34805 .4078.65663.8627.62173 1.30902-.10042 .37621-.60872.20746-1.10676-.375-1.10676s-1.05902-.42304-1.05902-.94009c0-1.48985 4.97874-.70869 6.02432.94521 .51978.82218.94505,1.04488.94505.49488 0-2.19251-1.72214-3.45031-5.33812-3.8988-3.00693-.37295-3.68081-.17273-3.24459.96404 .63638,1.65838-.24485,1.81891-2.38666.43476-1.17043-.75639-1.19973-.97274-.13337-.98469 .89363-.01 1.17666-.74176.81776-2.11422-.30189-1.15441-.28224-1.83227.0437-1.50637s1.2475-.3425 2.04798-1.48535c1.07093-1.52896 1.16067-2.37267.3397-3.19364s-1.12377-.60057-1.14614.83427c-.0284,1.81889-.0997,1.83092-1.06147.17895-.56709-.97408-1.19694-2.63238-1.39968-3.68511s-.85007-2.81367-1.43852-3.9132c-1.33907-2.50207-1.36374-3.43027-.0699-2.63064 .55.33992 1,.14148 1-.44098s-.47656-1.05902-1.05902-1.05902-.73793-.51953-.34549-1.15451c.44563-.72104.27393-.88282-.45729-.4309-.64396.39798-.93114,1.11142-.6382,1.58541s.12244,1.11531-.3789,1.42516-1.1584-.08-1.46014-.8663-.052-1.59519.55501-1.79752c.80145-.26715.80384-.90087.009-2.3146-1.04638-1.86047-1.13699-1.83595-2.04467.55326-.62091,1.63437-.59405,2.94118.0776,3.77417 .56503.70079.8104,1.49109.54526,1.75624s-1.52645-1.54855-2.80292-4.03041-2.03949-4.79384-1.69561-5.13772 .14618-1.52038-.43934-2.61444c-.77101-1.44065-.75898-1.80032.0436-1.30427 .6314.39023 1.50757-.31079 2.03638-1.62933 .51049-1.27283.95668-1.72216.99154-.9985s-.45209,2.29866-1.08212,3.5c-1.1176,2.13104-1.09624,2.14057.87644.39109 1.81282-1.6077 2.08527-1.62818 2.63406-.19806 .33665.87731.27479,1.38664-.13748,1.13184s-1.62042.17352-2.68479.95181c-1.44056,1.05337-1.64589,1.70442-.80326,2.54704s1.55007.71386 2.76768-.50375c.89965-.89964 1.7879-1.63571 1.9739-1.63571 .92024,0 8.89283,15.70269 8.63126,17-.16634.825.0333,1.16949.44375.76554 .85066-.83727 3.36415,2.0978 3.41215,3.98446 .0175.6875-.44476,1.25-1.02722,1.25s-.73793-.51953-.34549-1.15451c.47475-.76816.27032-.88059-.61092-.33595-.96167.59434-1.14954.36275-.68589-.8455 .92702-2.41578.17813-2.04068-1.72515.86408l-1.65649,2.52813 3.56936-.39334c3.81364-.42026 5.20066.83412 8.87214,8.02374 1.66033,3.25132 1.23441,7.86785-.47488,5.1472-.4609-.73362-.60497-2.08348-.32015-2.99969s.0547-1.95209-.51138-2.30194c-.61395-.37945-.78718-.005-.42934.92718 .43561,1.13517.15862,1.39395-1.01145.94495-1.12756-.43268-1.60674-.0608-1.59603,1.23866 .0129,1.5649.16779,1.62105.98469.35699 .53316-.825.97626-1.1993.98469-.83179s.31678,1.45384.68525,2.41405c.49273,1.28404.31961,1.52931-.65451.92728-.88782-.54871-1.0859-.43258-.60084.35226 .39798.64395 1.09613.94059 1.55145.65919s.76172.94876.6809,2.73369c-.12692,2.80322.2102,3.28674 2.47472,3.54936 2.32258.26935 2.56621.014 2.13565-2.23835-.26731-1.39831-.8649-2.30821-1.32799-2.02201s-.58848,1.18096-.27866,1.98834 .0917,1.46798-.48465,1.46798c-1.92847,0-2.16864-1.76505-.70032-5.14669 .80081-1.84432 1.47364-3.01581 1.49517-2.60331 .0898,1.71984.42017,2.31055 1.93991,3.4682 .87957.67 1.22959,1.2325.7778,1.25s-.11428.73894.75,1.60323c2.26792,2.26792 1.96653,3.09519-1.57779,4.33075-4.054,1.41313-5.85104,1.39058-5.85104-.0734zm-1.87591-7.09541c-.98762-.98026-1.10248-.8654-.5598.5598 .37553.98622.93469,1.54122 1.24258,1.23333s.00064-1.11479-.68278-1.79313zm-2.94076-6.95c-.71756-.71756-1.18333-.7766-1.18333-.15 0,1.33478 1.18261,2.51739 1.85,1.85 .28417-.28416-.0158-1.04916-.66667-1.7zm-7.70839-22.01788-1.66011-2.26545 .69922,2.37364c.38456,1.30551.8418,3.10551 1.01607,4 .52045,2.67134.72066,2.73818 1.17359.39181 .23724-1.229-.31571-3.254-1.22877-4.5zm-15.20411,32.63038c.33229-.33229 1.19479-.36782 1.91667-.079 .79773.31923.56078.55619-.60417.60417-1.05416.0434-1.64479-.19293-1.3125-.52522zm-12.27083-9.35052c0-.52508 1.57106-1.24942 3.49125-1.60965s3.26957-1.01365 2.99862-1.45205 .52049-.57502 1.75875-.30361c1.79692.39388 1.94859.28044.75138-.56194-1.18196-.83165-.88707-1.00907 1.39079-.83675 1.72738.13068 3.08756-.3404 3.37973-1.17051 .28829-.81908.0442-1.11432-.5948-.7194-.59606.36838-2.33399.356-3.86208-.0275l-2.77834-.69732 3.48235-1.2572c4.77376-1.72342 6.52328-1.76606 5.162-.12581-.67529.81367-.72572,1.82036-.13776,2.75 .76788,1.2141.93012,1.15302.9428-.35497 .0137-1.63437.17233-1.66441 1.54425-.29249 .84091.84092 2.26473,1.24659 3.16404.90149 1.03435-.39692 1.38884-.22898.96483.45708-.36865.59649-.10497,1.28635.58596,1.53303 .73069.26088.8852.81954.36932,1.33541s-1.07366.36398-1.33333-.36309c-.66979-1.87541-4.12469-1.52372-12.27976,1.25-8.17078,2.77906-9,2.92144-9,1.54531zm13.44236-7.95205c.30822-.49871-.34022-.67122-1.44098-.38337-2.33499.61061-2.63015,1.29011-.5604,1.29011 .79254,0 1.69316-.40803 2.00138-.90674zm-16.17153,3.30257c.33229-.33229 1.19479-.36782 1.91667-.079 .79773.31923.56078.55619-.60417.60417-1.05416.0434-1.64479-.19293-1.3125-.52522zm27.18805-.46236c-1.02606-1.66021-.10511-1.89043 1.33055-.33261 .70918.76953.84824,1.39914.30901,1.39914s-1.27703-.47994-1.63956-1.06653zm.5763-9.86773c-1.26687-2.36717-1.32568-3.36331-.15589-2.64034 .88235.54532 2.25839,4.5746 1.56227,4.5746-.20415,0-.83703-.87042-1.40638-1.93426zm-12.95623-24.48241c-.0434-1.05416.19293-1.64479.52522-1.3125s.36782,1.1948.0789,1.91667c-.31923.79773-.55619.56078-.60417-.60417zm2.89533-2.5c.64869-1.15778.30102-1.90976-1.29358-2.7979-1.44365-.80405-1.67372-1.23171-.6807-1.26531 1.33333-.0451 1.33333-.15845 0-1.02012-.825-.53316-.9926-.97627-.37244-.98469 1.59397-.0217 3.39689,2.38914 3.91228,5.23134 .29856,1.64646-.0233,2.42002-1.00692,2.42002-1.02579,0-1.18807-.45993-.55864-1.58334zm-4.97428-2.08333c0-.55.19844-1 .44098-1s.7191.45 1.05902,1 .14148,1-.44098,1-1.05902-.45-1.05902-1zm29,.18146c0-.58488.45-1.34154 1-1.68146s1-1.06803 1-1.61803-.44485-.72507-.98855-.38905c-.58718.3629-.72119-.0857-.33006-1.10503 .44676-1.16423.28231-1.48349-.51145-.99292-.71513.44197-1.16994.0729-1.16994-.94945 0-1.29187-.68709-1.57168-3.01898-1.22943-1.71339.25148-3.4677-.0976-4.05656-.80711-1.00375-1.20945-2.5537-.91105-16.92446,3.25833-1.05563.30627-1.5-.32207-1.5-2.12101 0-1.97141.70861-2.79007 3.09738-3.57844 1.70355-.56222 3.91487-.70852 4.91404-.3251 1.16211.44594 1.58146.31654 1.16387-.35913-1.10289-1.78452 3.59986-2.3446 5.47067-.65154 1.20669,1.09204 2.64863,1.3523 4.83354.87241 3.39375-.74539 4.98364.42725 10.39308,7.66548 2.30513,3.08444 2.45432,3.62346.93507,3.37842-.99421-.16035-2.37015.15576-3.05765.70247-.83952.6676-1.25.64481-1.25-.0694zm-20.64347-9.41359c-.37096-.60023.23808-.71392 1.56623-.29239 1.22219.38791 2.78946.17832 3.58142-.47895 .77452-.64279 1.87277-.8816 2.44056-.53068 .60643.37479.79664.0238.46105-.85077-.56451-1.47108-3.40579-1.14328-3.40579.39293 0,.43672-1.57579.74937-3.50176.69477s-3.98472.3837-4.575.97398c-.76432.76432-.3373,1.07324 1.48352,1.07324 1.41886,0 2.28662-.43711 1.94977-.98213zm17.64347-.76787c0-.55-.45-1-1-1s-1,.45-1,1 .45,1 1,1 1-.45 1-1zm-28.50437,6.99294c-.6946-1.12389 2.23393-2.59671 3.21416-1.61648 .34295.34295-.23896.65517-1.29312.69382-1.83152.0672-1.82781.10847.0833.92972 1.63041.70061 1.68751.87242.30902.92971-.93004.0387-1.97107-.38289-2.31339-.93677z" fill="#333334"/>
  <path d="m504.8 785.28c-0.71752-1.3394-3.2171-5.8739-5.5546-10.077s-4.25-7.9858-4.25-8.4065c0-0.7625 7.9802-3.5076 8.433-2.9008 0.43828 0.58743 11.063 19.244 11.386 19.994 0.30264 0.70181-6.137 3.8249-7.8868 3.8249-0.45282 0-1.4104-1.0958-2.1279-2.4352zm-19.011-14.784c-5.5257-11.165-6.4704-15.923-3.3959-17.103 1.9555-0.75037 2.8017 0.23742 6.7012 7.8223 3.5838 6.9708 5.782 15.5 3.9948 15.5-0.51152 0-1.5526 0.23888-2.3134 0.53085-0.94134 0.36123-2.5347-1.7956-4.9867-6.75zm-16.537-10.518c-6.573-15.732-4.7545-23.161 2.124-8.677 3.9496 8.3166 5.1374 15.635 2.6195 16.14-1.0327 0.20675-2.5105-2.1182-4.7434-7.4626zm-13.642-6.2219c-2.3356-4.6502-5.6145-15.124-5.6145-17.935 0-4.2647 5.5171 6.2952 8.5343 16.335 2.1035 6.9996 0.29104 7.9931-2.9198 1.6005zm-10.419-0.29249c-2.0643-4.0674-7.1302-21.291-5.7003-19.381s7.7564 20.714 7.1673 21.303c-0.17922 0.17922-0.83937-0.68597-1.467-1.9226zm29.805-19.457c0.825-0.30302 2.9625-1.1445 4.75-1.87s3.25-0.93605 3.25-0.46792c0 0.993-5.5629 3.0831-7.8992 2.9678-1.3549-0.0668-1.3704-0.16357-0.10078-0.6299zm116.73-2.4152c0.67834-0.68342 1.4852-0.99067 1.7931-0.68278s-0.24711 0.86705-1.2333 1.2426c-1.4252 0.54268-1.5401 0.42782-0.5598-0.5598zm9.1391-12.626c-1.2439-1.5861-1.2085-1.6214 0.37756-0.37756 1.6658 1.3064 2.1955 2.1276 1.3724 2.1276-0.20765 0-0.99515-0.7875-1.75-1.75zm-161.6 0.14583c0.33229-0.33229 1.1948-0.36782 1.9167-0.079 0.79773 0.31923 0.56078 0.55619-0.60417 0.60417-1.0542 0.0434-1.6448-0.19293-1.3125-0.52522zm21.229-0.39583c1.1-0.47269 2.675-0.85943 3.5-0.85943 0.94548 0 0.76064 0.31771-0.5 0.85943-1.1 0.47269-2.675 0.85943-3.5 0.85943-0.94548 0-0.76064-0.31771 0.5-0.85943zm32-16.315c1.65-0.77062 3.1875-1.24 3.4167-1.043 0.72121 0.61991-0.3213 1.1749-3.4187 1.8198l-2.998 0.62426 3-1.4011zm24-7.6848c1.1-0.47269 2.675-0.85943 3.5-0.85943 0.94548 0 0.76064 0.31772-0.5 0.85943-1.1 0.47269-2.675 0.85943-3.5 0.85943-0.94548 0-0.76064-0.31772 0.5-0.85943zm28.5-3.5c4.5657-1.7582 6.3621-1.7323 2.5 0.0361-1.65 0.75552-3.675 1.3597-4.5 1.3427-0.825-0.017 0.075-0.6375 2-1.3788zm-54-10c1.925-0.74131 4.175-1.3478 5-1.3478s-0.075 0.60653-2 1.3478-4.175 1.3478-5 1.3478 0.075-0.60653 2-1.3478zm21.475-1.4599c0.35354-0.57204 1.6288-1.05 2.8338-1.062s4.1808-0.92472 6.6129-2.0281c3.3168-1.5047 4.6914-1.7179 5.5-0.85304 0.78784 0.84265 0.67431 1.0297-0.42173 0.69481-0.82489-0.25205-3.2999 0.31242-5.5 1.2544-5.48 2.3462-9.8377 3.309-9.025 1.994zm-13.725-0.70236c0.6875-0.27741 1.8125-0.27741 2.5 0s0.125 0.50438-1.25 0.50438-1.9375-0.22697-1.25-0.50438zm42.25-2.5291c1.375-0.68929 2.7369-1.5795 3.0264-1.9781s1.1198-0.35816 1.845 0.0901c0.95291 0.58892 0.62466 0.98913-1.1835 1.4429-1.3762 0.3454-3.3314 0.86883-4.345 1.1632s-0.7179-0.0288 0.6571-0.71806zm15 0.40569c0-0.43215 0.86696-0.78572 1.9266-0.78572s1.7081 0.35357 1.441 0.78572-1.134 0.78571-1.9266 0.78571-1.441-0.35357-1.441-0.78571zm-100.73-8.8185c0.33229-0.33229 1.1948-0.36782 1.9167-0.079 0.79773 0.31923 0.56078 0.55619-0.60417 0.60417-1.0542 0.0434-1.6448-0.19293-1.3125-0.52522zm4.7292-1.3958c0.825-0.53316 2.175-0.94464 3-0.9144 0.98905 0.0362 0.81874 0.34772-0.5 0.9144-2.7491 1.1813-4.328 1.1813-2.5 0z" fill="#0e0e0f"/>
 </g>
</svg>
