<?xml version="1.0" encoding="UTF-8"?>
<svg viewBox="0 0 450.14 810.6" xmlns="http://www.w3.org/2000/svg">
 <path d="m70.155 137.6s6.736-8.907 9.867-11.07c3.131-2.168 15.165-5.779 15.643-6.502 0.486-0.71999 2.649-7.7 2.649-7.7l-5.058-12.038s-6.098-11.709-3.367-23.105c2.729-11.388 0.64201-13.155 0.481-15.402-0.161-2.243-0.963-15.397-0.802-16.043 0.164-0.643-2.729-17.646 10.107-30.327 12.84-12.673 20.379-14.603 25.834-15.242 5.455-0.642 23.105 0.482 29.042 3.849 5.937 3.373 15.242 12.998 17.65 17.968 2.408 4.977 2.882 12.362 2.565 15.73s-0.80199 8.341-0.64299 9.626c0.162 1.284 0.64299 5.776 0.64299 5.776l7.703 4.652-0.963 2.729s0.806 4.171 0.321 5.134c-0.478 0.963-0.799 3.211-1.121 3.85-0.31999 0.642-1.126 3.693-1.126 3.693l-0.318 2.564s3.689 0.482 5.295 2.248c1.604 1.767 3.21 2.886 4.335 4.492 1.12 1.602 2.722 3.529 2.722 3.529l8.348-0.161 8.021 0.161 2.083-0.803s2.087-1.281 3.052 2.087c0.959 3.368 1.443 5.134 1.604 6.896 0.161 1.766 0.32199 5.78 0.482 6.422 0.161 0.643 0 4.492 0 4.492l3.85 1.762 3.689 1.927 2.408 2.248s5.939 0.963 7.541 1.12c1.606 0.165 7.062 2.733 7.062 2.733l11.874 3.208 6.742 5.776s5.773 4.812 9.299 8.02c3.531 3.208 9.151 8.024 10.91 11.87 1.773 3.853 5.138 9.312 5.619 10.436 0.48099 1.12 18.616 24.867 23.266 30.323 4.648 5.455 6.415 8.185 7.859 10.593 1.445 2.404 2.891 5.451 4.015 6.094 1.123 0.642 16.201 11.556 16.201 11.556l3.692 3.368s2.248 1.445 3.532 0 5.138-0.963 5.138-0.963l2.882-6.58 7.539-14.117 4.014-5.294s3.854-4.335 4.335-5.138c0.48102-0.80299 4.649-13.315 4.81-14.6 0.168-1.281 2.094-10.75 3.532-12.997 1.438-2.245 4.335-6.259 8.021-3.369 3.692 2.886 5.458 5.134 5.298 7.7-0.16 2.569 0.48099 4.812-0.16 8.185-0.643 3.371-1.445 10.271-1.927 11.552s-1.767 4.652-2.087 5.455c-0.32098 0.80701-3.365 5.615-3.365 5.615l3.365 2.249s3.853 0.478 4.174 0c0.32098-0.48601 2.729-3.051 4.175-1.927 1.443 1.124 5.13 1.124 6.729 1.124 1.619 0 6.268-0.802 6.751-0.802 0.47299 0 5.13-1.441 5.13-1.441s2.409-2.734 11.393-1.771c8.99 0.96399 14.441 0.646 14.441 0.646s4.497-0.321 5.138 1.445c0.63501 1.761 1.599 1.919 2.079 4.17 0.48898 2.244 1.445 3.047 0.48898 4.332-0.96997 1.28-1.451 2.083-1.451 2.083s7.377 2.566 6.91 7.547c-0.48901 4.969-3.379 8.498-14.61 9.465-11.231 0.959-11.392 2.565-11.392 2.565l-5.934 1.284-4.014 0.478-0.481 1.124s7.706 1.931 8.028 5.455c0.30502 3.533 1.277 5.298-0.81097 7.221-2.08 1.927-8.021 6.739-8.021 6.739l-0.964 0.804s-2.247 6.257-3.209 8.506c-0.965 2.243-3.533 5.294-4.818 6.253-1.283 0.96402-17.807 7.707-18.608 7.707-0.80399 0-9.787 0.95999-11.072-0.324-1.276-1.285-2.407-6.094-2.407-6.094s-0.47501-0.164-4.649 4.007c-4.175 4.17-4.977 5.134-5.298 8.345-0.31998 3.21 1.444 6.418-8.349 9.786-9.779 3.371-15.238 5.138-17.485 5.616-2.241 0.48502-6.094 1.766-7.7 0.96301-1.598-0.802-7.859-4.488-10.91-4.17-3.051 0.32101-7.224 2.244-9.625-0.16098-2.408-2.408-19.42-12.998-22.142-14.443-2.729-1.441-12.998-4.649-14.443-6.414-1.444-1.767-9.786-9.791-10.107-15.246-0.32101-5.455-1.767-9.947-1.767-9.947s-7.057 8.984-7.537 9.304c-0.48201 0.325-2.729 4.492-2.891 5.298-0.161 0.80299 0.642 10.268 0.642 10.268s1.605 5.934 1.445 9.626c-0.161 3.692-0.642 8.021-0.642 8.021l-0.161 7.221s8.984 23.587 11.713 31.29c2.723 7.699 4.978 14.603 4.978 14.603s3.525 14.443 3.364 16.366c-0.15997 1.923 0 7.539 0 7.539s4.978 9.625 6.262 12.358c1.284 2.726 4.81 8.984 6.254 16.522 1.445 7.543 3.043 6.422 1.605 11.071-1.444 4.657-4.015 9.466-4.656 11.074-0.63501 1.603-1.438 6.258-1.438 6.258s4.007 5.291 0.643 7.219c-3.371 1.926-5.78 5.458-5.78 5.458l7.226 20.376s7.691 20.218 8.815 25.991c1.124 5.783 2.248 9.79 1.766 12.841-0.48102 3.043-1.598 8.341-0.642 10.91 0.96298 2.568 4.334 14.274 4.656 15.238 0.32098 0.96301 4.335 7.063 5.451 13.8 1.131 6.735 1.452 8.509 0.96399 14.121-0.47501 5.612 0.328 10.437 0.48801 14.436 0.16101 4.014-0.96301 9.151-0.643 12.522 0.32101 3.372 2.087 10.262 2.401 11.874 0.328 1.598 5.779 31.126 7.064 34.657 1.283 3.532 2.722 13.472 3.204 14.917 0.48001 1.445 3.853 14.924 3.853 14.924s4.495 14.282 4.978 20.223c0.48001 5.933 0 5.926 0.48001 8.655 0.482 2.729 1.125 3.211 2.569 8.67 1.445 5.459 2.088 12.998 2.088 12.998s0.79501 7.698 0.95602 8.982c0.168 1.284 0.48898 8.021 0.48898 8.021l-0.489 4.816s4.006 1.285 4.655 1.928c0.64298 0.64197 1.125 3.845 1.125 3.845s-0.48202 4.336-0.32101 5.78c0.15201 1.445-0.32098 3.212 0 4.174 0.32101 0.96405 0.642 2.73 0.79501 4.648 0.16098 1.929 0.31998 4.818 0.482 5.3 0.159 0.48004 1.131 3.203 1.131 3.203l10.428 10.751s12.028 5.939 20.216 15.726c8.181 9.795 9.305 13.641 9.946 17.493 0.64999 3.847 1.132 9.627 0.32098 10.589-0.80301 0.96399-20.215 15.077-41.883-0.64099 0 0-10.581-13.151-12.188-14.926-1.604-1.765-14.603-15.084-15.887-16.208-1.277-1.124-7.539-4.327-8.502-4.648-0.96402-0.31305-17.492-5.934-19.894-8.662-2.408-2.731-6.262-5.613-6.743-8.663-0.48202-3.058-2.087-6.583-2.087-6.583s0.47998-2.088-0.80402-3.854c-1.284-1.759-3.532-4.971-3.532-4.971s3.532-12.354 3.372-13.325c-0.15997-0.95599-0.48099-3.035-0.48099-3.035s-5.459-6.744-5.78-7.386c-0.31299-0.643-1.919-9.786-2.08-10.269-0.168-0.48096-11.07-40.276-12.194-44.604-1.124-4.3361-3.051-12.363-4.014-13.961-0.964-1.605-6.094-16.69-6.094-16.69s-21.343-41.4-22.463-44.283c-1.124-2.89-14.763-31.286-15.728-33.694-0.959-2.408-11.708-23.266-12.676-25.191-0.96301-1.928-8.02-16.691-8.02-16.691l-4.17-0.802-4.014 7.866s-12.031 32.57-12.994 34.818c-0.967 2.248-5.779 15.085-6.583 17.807-0.802 2.729-6.576 11.874-7.057 12.684-0.482 0.79498-8.506 17.485-8.827 18.128-0.317 0.64203-2.248 7.853-2.248 7.853s-6.415 10.114-6.896 10.918c-0.482 0.80298-4.014 10.107-4.014 10.107l-2.729 4.014-0.317 1.759 1.285 8.991s-1.121 5.939-1.445 7.225c-0.321 1.277 0.482 7.699-0.482 11.225-0.959 3.531-3.367 10.757-3.367 13.639 0 2.891-0.964 18.938-1.124 19.42-0.158 0.48102-3.694 17.165-4.172 18.128-0.481 0.96301-2.89 12.516-2.89 12.516v4.811l1.449 4.976s2.401 3.212 2.24 8.35c-0.156 5.13-0.799 7.53-1.602 8.012-0.802 0.48297 0.96 6.904-4.813 13.165-5.775 6.256-12.198 9.138-17.167 9.459-4.974 0.32098-12.841 0.16803-15.084 2.569-2.249 2.409-19.091 20.536-19.737 21.82-0.639 1.285-13.8 14.283-14.596 14.771-0.803 0.474-18.778 4.809-26.637 3.845-7.863-0.96198-12.359-5.451-11.877-11.553 0.485-6.1 3.853-12.025 6.101-14.441 2.245-2.4 9.304-12.354 9.304-12.354l13.319-10.591 10.429-9.304 3.532-4.816 0.799-3.532s5.294-8.014 5.455-8.495c0.157-0.47998 2.889-4.174 2.889-4.174l-2.889-4.335s-4.175-6.0941-4.335-6.583c-0.157-0.47504-0.321-15.881 0.485-21.339 0.804-5.452 0.161-21.981 0.161-22.623 0-0.643 0.967-11.225 0.967-11.225l1.919-11.56 0.804-13.15s1.926-10.437 3.849-14.604c1.927-4.174 2.89-8.983 2.89-8.983s0-10.597 0.963-13.479c0.96-2.897 4.014-29.849 4.175-28.885 0.157 0.96399 2.565-11.393 2.565-13.801s-1.128-14.756-1.128-14.756l-2.4-19.573s3.046-21.98 4.01-25.994c0.963-4.014 1.926-10.597 2.404-13.005 0.482-2.408 4.331-14.756 4.331-15.559 0-0.80402 2.733-10.59 2.733-10.59s-0.482-1.441-1.124-1.441c-0.646 0-2.886 2.722-2.886 2.722l-3.853 0.964s-4.974-8.503-5.295-8.983c-0.32-0.479-2.729-10.914-2.889-10.593-0.161 0.324 8.983-4.652 8.983-4.652l4.652-2.241 4.973-7.542 7.226-8.185s-2.733-3.688-2.89-5.455c-0.161-1.766 1.121-29.844 5.295-42.199 4.173-12.356 4.812-19.737 4.812-21.339 0-1.605 0.321-22.142 0.321-22.142l1.606-20.54 0.481-23.426s-6.261 7.863-6.579 8.341c-0.321 0.482-10.593 7.385-12.516 8.185-1.927 0.80301-8.501 3.208-8.501 3.208s-14.278-12.188-14.443-12.829c-0.161-0.646-0.963-3.696-0.963-3.696l-2.405-4.653-6.579-8.502-9.629-24.072-1.766-3.368 1.284-6.098 7.221-19.894 6.415-20.701s8.667-24.225 9.473-26.312c0.799-2.084 1.284-6.58 1.284-6.58l1.602-6.74 2.087-2.726 1.125-6.422s2.565-7.217 4.331-9.625c1.761-2.407 5.935-6.016 5.935-6.016h-1.5e-5z" fill="#7f7f7f"/>
</svg>
