<?xml version='1.0' encoding='utf-8'?>
<svg xmlns="http://www.w3.org/2000/svg" version="1.0" viewBox="0 0 1388 1510"> <path d="m906.87 337.9c-4.12-2.64-1.42-5.12-0.23-8.21q5.91-14.24 10.41-28.67c2.56-8.22 2.35-12.18 0.82-20.65-2.12-11.8 0.62-23.01-2.55-35.2q-1.18-4.53-4.94-13.48c-5.63-13.41-9.88-25.14-14.24-40.6-9.3-33-24.03-61.91-41.84-91.88q-16.57-27.9-41.27-46.75c-26.7-20.38-62.83-44.24-97.5-45.34q-0.51-0.02-0.91 0.29l-3.83 2.82q-0.27-0.29-1.2-0.46 2.92-1.3 2.87-3.19a0.67 0.66 2.4 0 0-0.6-0.65q-5.2-0.46-10.43-0.03c-12.78 1.04-24.16 2.02-37.6-1.37-2.77-0.7-6.51-0.65-9.34-0.41-58.16 4.86-101.78 41.42-132.32 88.76q-4.23 6.55-5.42 11.37c-3.95 15.91-9.46 30.95-16.49 45.75-7.11 14.97-9.03 30.97-9.92 47.35q-0.68 12.6-1.45 17.25c-1.61 9.82-4.51 19.28-7.5 28.76-4.25 13.42-5.36 25.67-3.09 39.86q-1.8-4.06-3.21-2.24-1.44-13.25 0.63-25.88c1.3-7.94 4.77-17.86 7.05-26.8q4.63-18.12 5.33-36.74c0.49-12.85 3.21-24.49 7.31-36.44q1.11-3.22 6.76-16.06c7.14-16.22 9.66-34.47 18.74-48.64 32.02-49.95 79.83-87.83 141.54-89.18 7.11-0.16 13.45 2.81 20.78 2.29 15.39-1.09 29.11-1.9 43.48 1.88 33.53 8.79 63.51 25.66 91.28 47.1 10.85 8.37 19.43 16.64 27.7 27.87 14.46 19.62 25.61 41.98 36.09 63.53 7.17 14.76 12.31 31.05 16.99 46.83q6.3 21.28 14.61 41.87 3.27 8.09 4.26 11.54c3.75 13.14 0.37 26 3.04 38.25 1.27 5.85 1.61 10.38-0.41 16.34q-6.62 19.55-13.4 39.16z" fill="#3f3c3f"/> <path d="m709.59 9.77c-9.49 1.48-22.32-0.08-25.44 12.13-0.83 3.25 1.66 7.42 3.06 10.28a1.46 1.46 0 0 0 2.5 0.21q9.07-12.56 21.08-22.16l3.83-2.82q0.4-0.31 0.91-0.29c34.67 1.1 70.8 24.96 97.5 45.34q24.7 18.85 41.27 46.75c17.81 29.97 32.54 58.88 41.84 91.88 4.36 15.46 8.61 27.19 14.24 40.6q3.76 8.95 4.94 13.48c3.17 12.19 0.43 23.4 2.55 35.2 1.53 8.47 1.74 12.43-0.82 20.65q-4.5 14.43-10.41 28.67 4.62-38.2 4.22-76.25c-0.12-11.22-6.92-21.18-12.88-30.5l-4-7.12-0.32-4.8q0.65-2.02 0.1-3.35c-0.65-11.33-2.96-23.35-8.96-33.16-3.21-5.25-9.64-10.92-12.73-15.83q-5.07-8.02-5.68-11.89-2.77-17.49-10.48-29.7-15.6-24.73-40.26-51.24c-14.13-15.19-30.04-28.27-48.41-35.86q-7.41-3.07-12.58-5.69c-12.94-6.57-30.84-16.81-44.25-5.88q-9.6 7.84-16.4 16.14-0.48 0.58 0.27 0.5 28.13-2.93 56.41-2.55c0.81 0.01 1.44 0.32 2.4 0.23q0.69-0.07 0.82 0.61l0.1 0.53q0.14 0.66-0.55 0.65-11.03-0.3-21.94 1.34-1.34 0.2-1.08 1.18a0.81 0.8 3.7 0 0 0.5 0.56c16.58 6.28 32.59 13.49 47.05 23.87 7.49 5.38 12.04 10.74 14.63 19.79q6.49 22.62 12.3 45.42c1.74 6.85 0.49 14.11-0.17 23.82-0.82 12.04 6.78 20.22 13.7 29.09 8.96 11.49 12.2 27.26 13.8 41.41 0.23 2.07 1.86 4.32-0.1 6.61q-11.54-10.99-26.21-16.83a0.99 0.99 0 0 1 0.25-1.91l1.9-0.23q0.47-0.05 0.84-0.34 4.19-3.28 5.33-7.84l13.57 14.56a0.49 0.48-30.2 0 0 0.51 0.13q0.6-0.2 0.41-0.91c-4.81-17.83-13.23-35-31.66-42.69q-0.08-0.45-0.28-0.62c-13.42-12.11-27.48-21.05-46.32-20.83-2 0.03-1.97-2.15-1.29-3.55 6.61-13.83 13.41-27.81 8.82-42.05-3.82-11.84-10.81-30.47-19.15-38.15-13.55-12.49-33.89-5.9-50.43-0.66q-12.66 4.02-16.11 16.82-5.69 21.11-9.13 42.69c-4.6 28.86-22.32 28.91-46.73 28.51a0.73 0.73 0 0 0-0.72 0.89c1.72 7.99 4.91 17.35 10.22 23.64 5.45 6.45 15.68 12.26 22.86 17.45a1.62 1.58 62.3 0 0 0.93 0.3h19.02a1.94 1.94 0 0 1 1.84 1.33q1.98 5.89 3.86 12.01c1.09 3.57 3.99 2.99 5.47 0.08 5.35-10.48 13.6-15.95 23.86-22.28 12.95-8 24.39-10.12 39.84-8.51-9.32 4.44-16.48 10.17-22.01 18.9q-5.21 8.22-12.96 18.37-5.61 7.34-5.4 17.06-7.59-5.96-16.27-1.7a1.81 1.8 54.5 0 0-0.48 2.9l3.91 3.91a0.45 0.45 0 0 1-0.46 0.75c-7.11-2.3-13.98-1.23-21.31-1.12q1.27-14.67-10.32-21.9c-5.06-3.15-11.24-4.05-16.3-7-5.69-3.33-9.27-7.55-14.99-13.46-7.96-8.23-12.61-11.29-23.31-13.31q-18.89-3.56-34.62-0.5 0.09-3.98-4.5-4.13c18.26-8.72 34.46-22.45 42.69-41.26q3.28-7.49 3.22-10.64c-0.28-14.16-0.98-26.7 0.29-42.27q0.9-10.92 6.83-20.06 2.56-3.95 4.61-8.68 8.21-5.32 14.81-13.35 1.53 1.01 3.13-0.03a0.75 0.74-46.2 0 0-0.02-1.27c-5.51-3.3-12.81-6.34-16.88-11.34a0.54 0.54 0 0 1 0.45-0.88q16.02 0.7 30.72 7.07a1.25 1.25 0 0 0 1.67-0.73l1.85-5.12a1 1 0 0 1 1.4-0.54l6.8 3.58a1.23 1.23 0 0 0 1.76-1.41l-5.72-21.27a0.89 0.89 0 0 0-1.03-0.65l-8.47 1.64a2.25 2.23-88.1 0 0-1.73 1.63q-1.38 5.32-2.95 10.83-0.2 0.7-0.56 1.01a0.76 0.75-34.8 0 1-1.17-0.21l-5.8-10.97a0.8 0.8 0 0 0-0.86-0.42c-13.11 2.38-27.16 6.51-38.47 13.46-7.77 4.77-13.31 10.77-19.2 17.06-6.26 6.68-19.39 8.61-23.21 16.72q-6.71 14.26-17.86 25.37c-11.15 11.11-20.36 18.6-20.08 35.32 0.25 14.85-7.15 23.05-14.86 35.19q-5.04 7.93-5.57 11.3-1.99 12.82-7.1 24.56a0.46 0.45 76.3 0 0 0.77 0.47c8.34-10.35 18.18-21.38 20.27-35.18 0.84-5.6 1.7-8.61 5.84-11.78a0.53 0.53 0 0 1 0.85 0.42q-0.06 12.15-3.32 23.85a0.37 0.37 0 0 0 0.66 0.31l5.67-8.3a0.88 0.88 0 0 1 1.35-0.13q0.56 0.57 0.29 1.74c-2.33 9.82-9.28 16.76-16.77 24.99q-5.27 5.79-9.68 15.78c-12.86 29.14-21.86 57.5-17.04 89.85a0.21 0.21 0 0 1-0.38 0.14q-3.06-5.09-3.53-9.98c-2.27-14.19-1.16-26.44 3.09-39.86 2.99-9.48 5.89-18.94 7.5-28.76q0.77-4.65 1.45-17.25c0.89-16.38 2.81-32.38 9.92-47.35 7.03-14.8 12.54-29.84 16.49-45.75q1.19-4.82 5.42-11.37c30.54-47.34 74.16-83.9 132.32-88.76 2.83-0.24 6.57-0.29 9.34 0.41 13.44 3.39 24.82 2.41 37.6 1.37q5.23-0.43 10.43 0.03a0.67 0.66 2.4 0 1 0.6 0.65q0.05 1.89-2.87 3.19z" fill="#989296"/> <path d="m637.08 41.14q-16.67-1.81-31.06 4.07-3.62 1.48-15.97 9.01-7.56 4.62-17.5 10.08c-23.17 12.73-19.91 39.62-19.22 61.9a0.76 0.76 0 0 0 1.12 0.65q1.24-0.67 2.19-0.07 0.48 0.31 0.33 0.86l-3.33 11.97a0.73 0.72-18.2 0 0 1.27 0.64l3.41-4.36a0.7 0.69 79.6 0 1 1.14 0.79c-10.72 17.84-20.47 37.3-25.42 57.32q-1.9 7.7-2.74 19.77-1.2 17.16-2.08 34.28a0.63 0.63 0 0 0 1.17 0.37l9.06-14.44a1.59 1.51-27.9 0 0 0.24-0.71q2.28-32.96 29.44-51.74 15.73-3.06 34.62 0.5c10.7 2.02 15.35 5.08 23.31 13.31 5.72 5.91 9.3 10.13 14.99 13.46 5.06 2.95 11.24 3.85 16.3 7q11.59 7.23 10.32 21.9-8.25 1.66-10.86 8.76a0.67 0.67 0 0 0 0.85 0.86c10.13-3.52 20.43-6.42 31.31-4.19q7.21 1.48 14.38 3.22 2.95 0.72 3.53-2.12 1.19-5.85 4.44-10.47a0.48 0.48 0 0 1 0.84 0.43q-7.73 23.21 4.44 44.13a0.46 0.45-66.1 0 0 0.84-0.33l-3.54-17.2q0.66-0.7 1.33-0.59 0.28 0.21 0.56 0.54 0.24 0.27 0.3 0.66c5.38 33.46 35.16 46.33 65.72 44.41 25.94-1.63 45.53-19.85 48.04-46.09 1.03-11.38-3.42-21.69-10.91-29.9-7.65-8.39-19.45-11.59-30.82-13.69q-11.64-3.4-25.42-2.42l-8.84 1.67a1.09 1.09 0 0 0-0.8 1.51l5.31 12.12a2 2 0 0 0 2.13 1.17l10.38-1.64q11.7-0.83 23.47 3.6l12.92 8.7a1 1 0 0 0 1.51-0.52q1.53-4.63-1.25-8.52 0.34-2.25 1.68-1.73 11.89 10.18 14.27 25.93 0.16 1.05-0.19 1.56l-9.45-3.81-21.56-17q-12.61-6.03-26.56-2.05-2.23 0.63-1.88 2.77c0.84 5.19 16.58 5.64 20.71 5.84 7.69 2.17 18.45 5.19 24.45 11.2-14.62 5.67-29.77 7.77-45.19 5.96-5.67-0.67-10.1-1.05-15.96 0.14-6.35 1.29-11.36 2.68-16.81 2.01a0.94 0.94 0 0 1-0.72-0.47q-4.28-7.47-11.33-12.37-0.43-0.29-0.67-0.75-1.1-2.05-3.97-2l-0.84-0.03c3.31-42.88 58.82-41.57 87.59-31.85 22.22 7.51 36.16 25.31 31.32 49.95-3.39 17.24-14.89 30.09-24.33 44.7-1.94 2.98-4.46 5.52-7.39 6.91q-11.52 5.46-23.07 10.84-2.62 1.22-4.62 0.45-12.22-4.7-27.45-13.16c-10.91-6.06-17.68-14.76-25.88-23.78-7.54-8.29-11.15-20.77-15.24-31.89q-0.18-0.49-0.65-0.69c-7.99-3.43-27.57-8.56-33.24 1.09-8.36 14.23-7.68 31.32-12.6 46.91-2.85 9.04-7.01 18.15-13.74 25.04-8.35 8.53-21.18 14.55-11.89 29.06a0.65 0.65 0 0 0 1.15-0.58c-4.65-12.38 7.53-17.34 14.28-24.34 3.74-3.88 6.78-10.03 10.05-15.12l17.75 29.46a2.46 2.46 0 0 0 3.12 0.97c2.06-0.93 6.3-3.55 8.44-2.66 2.69 1.11 1.05 3.5 2.47 5.2q-0.49 1.11-0.37 2.5 0.84 9.61 1.59 19.94 0.1 1.4-1.3 1.52l-10.97 0.89q-0.56 0.05-0.99 0.4-8.29 6.59-12.9 16.19a1.19 1.19 0 0 0 2.05 1.21q4.92-6.89 12.21-11.26a0.89 0.89 0 0 1 1.35 0.82q-0.9 13.87-8.35 25.55-0.28 0.43-0.76 0.25l-2.44-0.92a0.58 0.57-48.2 0 0-0.47 0.03l-8.75 4.33a0.65 0.64 38.5 0 0 0.14 1.2c11.61 2.82 20.65 4.77 32.79 3.35 19.16-2.24 39.31 0.63 58.1 3.52a0.49 0.49 0 0 0 0.25-0.94q-18.37-7.18-38.03-10.35c-9.24-1.49-16.74 1.13-25.45 3.55a1.15 1.14 49.1 0 1-0.8-0.06l-6.45-2.99a1.25 1.24 14.3 0 1-0.72-1.2q0.8-15.42 8.98-29.2l3.6 2.8q0.44 0.34 0.77-0.11 3.73-5.1 9.86-6.62c5.68-1.42 13.4 10.72 16.44 14.41a1.15 1.14 60.6 0 0 1.26 0.36q0.35-0.12 0.3-0.59-0.02-0.24-0.24-0.55-0.74-1.05-1.23-2.24-0.21-0.5 0.09-0.95 0.59-0.88 1.71-1.51l1.75 1.81 6.65 11.62a0.91 0.91 0 0 0 1.65-0.16l2.15-6.33q0.71-2.09 2.51-0.81l14.15 10.11a1.29 1.28 18.9 0 0 2.03-0.99q0.05-1.49-0.57-3.15-0.91-2.38 1.74-2.1a2.06 2.05-25.8 0 1 0.87 0.3c4.39 2.78 8.53 7.47 13.56 9.05a1.32 1.32 0 0 0 1.38-2.15l-5.8-6.42q-0.78-0.86 0.3-0.44c15.06 5.87 23.03 20.3 20.65 36.32q-1.52 1.37-1.61 3.47-0.03 0.52 0.32 0.91 1.64 1.79 2.21 3.8-0.31 7.98-5.72 13.25-0.37 0.35-0.35 0.86 0.51 15.45 3.73 30.56c1.83 8.58-1.31 12.72-1.86 20.62q-0.62 8.75 0.58 17.39a0.93 0.93 0 0 0 1.47 0.62q25.89-19.02 46.9-43.7 5.61-6.58 3.48-15.09-0.44-1.75 0-2.64 7.99-16.21 9.73-32.55c1.22-11.48 1.06-25.24 2.17-36.55q1.58-16.14 3.71-32.21 1.35-5.27-0.02-10.26 3.43-8.88 2.83-18.26-0.04-0.66-0.52-0.2-6.95 6.75-10.52 12.65-14.3 23.63-33.28 40.21-0.01 0-0.46 0.51-0.47 0.54-1.09-0.21a0.9 0.89-50.9 0 1-0.1-0.99l38.84-72.34 2.58-6.4q0.75-2.59 2.83-2.47a0.9 0.9 0 0 1 0.79 1.21c-4.76 12.62-9.52 25.2-12.86 38.28a0.57 0.56 85.3 0 0 0.77 0.66q0.6-0.26 0.99-1.02 5.22-9.94 10.97-19.6c9.98-16.79 8.34-37.35 4.53-55.63-2.25-10.84-6.27-18.15-18.75-13.48q0.56-8.18-2.95-15.6-0.35-0.75-0.2-1.81 0.67 0.11 0.71-0.11 1.97 8.03 9.07 9.08c2.24 0.33 4.95-0.82 7.26-1.39a1.23 1.21 54.3 0 1 0.99 0.17q4.4 2.97 9.6 4.03a0.41 0.4-19.6 0 0 0.34-0.71l-6.68-5.48q-0.42-0.34-0.34-0.88 1.57-10.77-8.58-13.6l-18.69-49.97a0.59 0.59 0 0 0-0.75-0.35q-0.55 0.18-0.48 0.72 3.12 23.61 10.05 46.38a1.12 1.11 52.2 0 1-0.11 0.89q-1.42 2.39-3.86 2.17-0.07-0.4-0.39-0.82c1.96-2.29 0.33-4.54 0.1-6.61-1.6-14.15-4.84-29.92-13.8-41.41-6.92-8.87-14.52-17.05-13.7-29.09 0.66-9.71 1.91-16.97 0.17-23.82q-5.81-22.8-12.3-45.42c-2.59-9.05-7.14-14.41-14.63-19.79-14.46-10.38-30.47-17.59-47.05-23.87a0.81 0.8 3.7 0 1-0.5-0.56q-0.26-0.98 1.08-1.18 10.91-1.64 21.94-1.34 0.69 0.01 0.55-0.65l-0.1-0.53q-0.13-0.68-0.82-0.61c-0.96 0.09-1.59-0.22-2.4-0.23q-28.28-0.38-56.41 2.55-0.75 0.08-0.27-0.5 6.8-8.3 16.4-16.14c13.41-10.93 31.31-0.69 44.25 5.88q5.17 2.62 12.58 5.69c18.37 7.59 34.28 20.67 48.41 35.86q24.66 26.51 40.26 51.24 7.71 12.21 10.48 29.7 0.61 3.87 5.68 11.89c3.09 4.91 9.52 10.58 12.73 15.83 6 9.81 8.31 21.83 8.96 33.16q-0.82 1.33-0.1 3.35l0.32 4.8q-0.41 6.61-0.29 12.87c0.02 0.84-0.55 2.14 0.24 2.99a0.51 0.51 0 0 0 0.89-0.35q-0.01-5.39 3.16-8.39c5.96 9.32 12.76 19.28 12.88 30.5q0.4 38.05-4.22 76.25c-1.19 3.09-3.89 5.57 0.23 8.21q-3.46 7.61-1.83 15.66 1.48 7.31 1.49 7.44 2.18 22.13-13.25 38.32a1.19 1.17 66.4 0 0-0.33 0.87q0.12 2 1.02 3.21l0.84 2.65c5.33 6.33 10.55 11.69 8.45 20.33-2.52 10.36-4.38 21.8 0.87 31.48 6.08 11.21 15.42 34.47 10.35 46.53-10.32 24.58-30.06 50.7-57.52 57.07q-1.08 0.25-1.92 1.34-2.98 3.89-5.97 7.58-0.79 0.97 0.17 1.77l6.6 5.51q-0.77 0.08-1.15 1.16l-5.61-4.01q-0.45-0.32-0.83 0.07l-0.35 0.35a1.45 1.44-45.1 0 0 0 2.05c28.05 27.99-4.25 80.21-23.64 103.3q-1.16-0.29-2.05-1.03l3.69-5.02q12.36-13.83 19.43-30.61c3.04-7.21 3.42-13.16 3.06-20.85q-0.84-18.18-1.75-36.3 0.6-3.67-0.39-6.33l-4.76-81.72-0.77-27.16a0.37 0.37 0 0 0-0.74-0.06q-1.96 10.83-8.8 19.69-28.22 36.54-62.25 67.75-20.67 18.95-41.1 38.14c-13.23 12.44-18.6 30.92-6.73 46.3 9.02 11.68 18.83 21.76 10.6 37.75q-10.68 20.77-22.05 42.9-0.27 2.25-1.62 2.57l-59.93-1.18q-1.21-0.02-1 1.17l7.24 42.46a1.13 1.1-34.6 0 1-0.15 0.77q-0.59 0.96-1.3 0.33-0.26-0.24-0.39-0.71c-4.85-17.56-3.78-36.99-14.51-52.37-3.9-5.6-10.16-10.77-15.53-15.77-29.32-27.3-60.46-68.18-51.28-111.07q0.14-0.62 0.01-0.97-0.29-0.76-1.33-0.37a1.33 1.32 89.1 0 0-0.82 0.85c-3.05 9.52-5.66 18.92-8.45 28.6-19.64 68.02 13.18 136.72 80.58 161.5 26.7 9.82 55.86 16.93 84.83 17.3 47.16 0.6 85.46-21.87 114.58-57.56q3.16-3.88 4.56-9.9 5.17-22.32 7.49-36.75c1.09-6.73 2.67-16.65 0.09-23.1-1.91-4.76 1.87-9.05 6.47-7.01 4.7 2.09 2.91 8.29-0.86 10.01a2.18 2.17 82 0 0-1.25 1.67c-16.67 122.73-55.64 247.45-138.15 342.72-4.88 5.63-9.67 10.24-15.19 14.63a0.85 0.85 0 0 0 0.28 1.48c2.52 0.75 3.86 0.39 5.88-1.42q14.81-13.26 26.14-28.14c53.87-70.79 89.18-153.98 108.53-240.76q2.9-13.01 5.58-26.08 1.51-7.35 2.61-9.39c18.01-33.36 34.9-65.08 24.42-104.84q0.68-3.17 2.31-2.66 2.69 3.18 7.42 6.07c91.5 55.84 184.08 104.7 278.43 152.78q11.84 6.03 24.3 6.05 0.49 0 0.9 0.27 16.82 11.05 28.15 21.83c6.33 6.02 10.43 13.5 13.56 22.46q21.11 60.42 33.36 123.28c7.48 38.39 9.01 76.98 9.12 116.41 0.07 25.61-6.38 49.11-11.95 73.82-1.38 6.1 0.78 10.2 6.37 12.83 16.42 7.71 28.24 15.71 35.04 33.81 12.21 32.48 28.36 63.72 49.41 90.48q11.72 14.91 24.36 28.58a2.2 2.19-59.3 0 1 0.51 2.02c-11.49 45.14-23.32 91.5-28.63 136.84q-2.86 24.35-5.74 61.92l-458.36-0.23h0.4q0.47 0.01 0.51-0.46c5.34-58.76 11.5-117.42 17.59-176.11 3.34-32.17 2.39-65.15-1.34-97.2q-0.09-0.78-0.74-1.21l-18.67-12.48a0.6 0.6 0 0 0-0.93 0.41q-11.44 82.16-26.29 163.54-9.44 51.74-27.86 113.71c-1.01 3.42-2.34 6.46-3.82 9.59q-0.13 0.28 0.68 0.21-1.28 0.61-2.62-0.01c2.51-8.3 4.45-16.07 4.37-25.04q-0.29-33.09-2.21-66.13c-1.64-28.1-12.5-54.52-24.77-78.94a0.6 0.59-54 0 0-1.12 0.18l-26.58 169.93q-0.17-0.06-0.3 0.08-0.15 0.17-0.37 0.17l-197.03-0.02 1.82-154.21a0.56 0.55-14 0 0-0.82-0.49q-32.86 17.55-65.8 35.21c-0.72 0.39-1.29 1.11-1.91 1.7q-0.36 0.33-0.39 0.82c-0.87 13.78-0.09 25.88 3.25 40.04q9.12 38.57 20.14 76.65 0.02 0.06 0.08 0.07l0.26 0.07q-1.67 0.48-2.41-0.09c-0.82-2.18-1.69-4.16-2.33-6.39-23.14-81.06-43.04-162.14-52.34-245.63-0.66-5.97-0.75-11.73 0.6-16.92q2.82-10.82 3.6-15.54 3.67-0.08 4.3 3.5c0.55 3.16-2.78 6.88-4.61 9.3a0.33 0.33 0 0 0 0.48 0.45q9.33-8.02 13.61-19.56a1.74 1.74 0 0 0-1.29-2.32c-10.63-2.16-21.76 0.73-31.73 4.2q-26.39 9.19-52.91 17.99c-38.45 12.77-76.52 27.06-114.19 41.97-9.89 3.91-19.96 6.94-30 10.19a1.78 1.76 87.6 0 0-1.16 1.27l-7.48 31.45a4.48 4.47-12.5 0 1-1.6 2.5q-14.12 11.15-28.44 22.57c-2.63 2.1-5.12 1.75-8.16 1.13-15.25-3.13-29.94-10.47-43.81-17.36-1.99-0.98-3.52-0.62-4.73 1.13-11.08 15.89-21.47 32.11-31.06 49.07q-30.42 53.84-60.79 107.71c-6.25 11.08-17.46 11.75-22.79-0.76q-16.34-38.36-25.03-82.7-10.94-55.81-16.28-104.48c-0.41-3.66 0.26-7.92 2.03-10.75q19.63-31.44 29.48-51.32c15.13-30.5 20.81-65.9 26.77-101.2q5.16-30.54 14.45-61.54c16.56-55.3 33.35-110.41 51.56-165.21 9.23-27.75 18.73-46.13 31.44-74.02q15.84-34.74 25.67-68.67 0.13-0.47 0.54-0.75 2.93-2.01 4.66-2.72 88.69-36.23 180.19-64.57c8.84-2.74 15.41-6.22 24.01-10.47q40.17-19.87 89.72-41.2c5.27-2.27 11.44-6.64 15.96-10.07q25.99-19.72 53.14-37.8c2.12-1.41 4.46-3.42 5.19-5.53q0.8-2.28-1.41-1.29l-10.01 4.48q-0.03-1.19-0.68-1.53c4.56-1.85 12.95-3.98 14.39-9.25 1.45-5.3 6.29-8.09-0.45-13.01-7.74-5.64-15.25-11.56-22.85-17.38-34.9-26.76-44.29-64.18-44.23-106.47 0.01-11.39 3.43-24.82 4.3-37.17a1.66 1.64-58.7 0 0-0.22-0.93c-4.36-7.44-5.49-13.48-5.71-22.89q-0.24-10.41-1.15-20.78c-1.08-12.08-0.72-19.89 0.98-30.98q0.62-4.01-1.75-8.46c-8.49-15.97-18.29-31.71-21.65-49.56q1.41-1.82 3.21 2.24 0.47 4.89 3.53 9.98a0.21 0.21 0 0 0 0.38-0.14c-4.82-32.35 4.18-60.71 17.04-89.85q4.41-9.99 9.68-15.78c7.49-8.23 14.44-15.17 16.77-24.99q0.27-1.17-0.29-1.74a0.88 0.88 0 0 0-1.35 0.13l-5.67 8.3a0.37 0.37 0 0 1-0.66-0.31q3.26-11.7 3.32-23.85a0.53 0.53 0 0 0-0.85-0.42c-4.14 3.17-5 6.18-5.84 11.78-2.09 13.8-11.93 24.83-20.27 35.18a0.46 0.45 76.3 0 1-0.77-0.47q5.11-11.74 7.1-24.56 0.53-3.37 5.57-11.3c7.71-12.14 15.11-20.34 14.86-35.19-0.28-16.72 8.93-24.21 20.08-35.32q11.15-11.11 17.86-25.37c3.82-8.11 16.95-10.04 23.21-16.72 5.89-6.29 11.43-12.29 19.2-17.06 11.31-6.95 25.36-11.08 38.47-13.46a0.8 0.8 0 0 1 0.86 0.42l5.8 10.97a0.76 0.75-34.8 0 0 1.17 0.21q0.36-0.31 0.56-1.01 1.57-5.51 2.95-10.83a2.25 2.23-88.1 0 1 1.73-1.63l8.47-1.64a0.89 0.89 0 0 1 1.03 0.65l5.72 21.27a1.23 1.23 0 0 1-1.76 1.41l-6.8-3.58a1 1 0 0 0-1.4 0.54l-1.85 5.12a1.25 1.25 0 0 1-1.67 0.73q-14.7-6.37-30.72-7.07a0.54 0.54 0 0 0-0.45 0.88c4.07 5 11.37 8.04 16.88 11.34a0.75 0.74-46.2 0 1 0.02 1.27q-1.6 1.04-3.13 0.03z" fill="#0c0809"/> <clipPath id="c"> <path d="m491.91 241.9-2.74 20.48q-0.05 0.37 0.33 0.37 0.13 0 0.27 0.02a0.39 0.38 7.1 0 0 0.44-0.34c1.13-9.97 3.7-15.64 9.36-23.84 5.02-7.26 8.58-12.41 6.16-21.95q-0.11-0.45-0.57-0.39l-0.25 0.04q-0.6 0.08-0.46 0.67 1.75 7.5-3.1 10.98l-0.57-19.21a0.26 0.26 0 0 0-0.51-0.07c-3.1 10.85-7.69 21.91-8.36 33.24zm368.87 81.51q-1.61 15.46-1.36 30.96c0.06 4.09-0.86 8.12-1.27 12.14q-3.54 7.02-0.26 11.05c3.8 11.03 7.55 22.37 20.87 23.42q3.18 0.26 6.32-1.22 17.67-8.27 18.17-29.31 0.24-15.68-3.03-30.88c-2.22-10.3-7.25-20.58-11.85-30.45q-0.21-0.46-0.1-0.95 1.88-8.22-3.4-14.52a2.19 2.19 0 0 0-3.16-0.21q-7.12 6.53-16.6 8.44-0.52 0.1-0.61 0.62l-3.72 20.91zm-340.34 43.73c3.12-13.71-0.73-28.68-4.38-41.89l-2.17-10.59a0.6 0.6 0 0 0-1.01-0.31c-4.26 4.08-11.02 11.13-11.81 17.22-2.04 15.8-3.18 33.01 0.45 52.18 0.69 3.62-0.82 9.89-0.53 13.74q1.11 15.03 15.3 20.48c3.52 1.35 6.52 0.89 7.19-3.31a0.69 0.68-76.6 0 0-0.46-0.76c-8.59-2.92-19.59-10.36-18.6-20.33 0.78-7.85 10.98-20.33 16.02-26.43zm58.36-38.37-10.19 0.9a1.28 1.28 0 0 0-1.08 1.73c1.72 4.5 5.83 9.05 11.03 7.53q15.46-4.49 28.96-13.83l12.64-9.14a0.45 0.45 0 0 0-0.42-0.79q-7.65 2.83-15.8 4.26c-10.31 1.81-16.87 4.12-25.14 9.34zm27.45 29.47c-2.07 3.23-15.62 25.39-11.55 28.81a1.11 1.11 0 0 0 1.65-0.25l8.13-12.68c11.28-15.09 22.33-32 27.88-50.16a0.74 0.73 85.1 0 0-1.03-0.87c-2.15 1.06-4.02 2.79-6.32 3.53-11.29 3.61-23.15 8.58-33.2 15.23-20.01 13.26-0.65 36.13 13.93 16.24q0.16-0.21 0.37-0.06 0.22 0.15 0.14 0.21zm289.48 157.73-8.57 7.35q-0.27 0.23 0.03 0.41 0.12 0.07 0.29 0.07 0.22-0.01 0.46-0.22 3.83-3.39 7.9-6.53 0.6 0.94 0.88 1a1.38 0.78 14.8 0 0 1.3-0.34q7.34-12.89 9.97-27.15c0.21-1.15 0.94-2.2 2-2.54a0.61 0.61 0 0 1 0.78 0.73l-7.21 28.5q-0.27 1.06 0.47 0.25c13.16-14.26 8.61-30.69 3.63-47.11-1.51-5-5.5-9.5-6.86-13.45-3.55-10.36-2.36-19.81-0.49-30.37 1.86-10.47-4.37-16.53-11.28-22.87q-0.45-0.41-0.85 0.05c-1.02 1.19-0.94 2.66 0.01 4 6.14 8.62 9.65 16.12 6.54 27q-2.53 8.86-4.26 17.97-0.1 0.5 0.16 0.94c5.06 8.57 10.85 17.38 14.14 26.79 3.78 10.81-2.77 27.26-9.04 35.52zm-168.94-65.7-17.43-1.31a0.88 0.87 84.4 0 0-0.91 1.11q3.48 12.51 3.33 25.5a1.02 1.01-87.8 0 1-1.07 1l-5.75-0.3a1.73 1.72 88.6 0 1-1.62-1.55l-0.43-4.2a0.68 0.67-34.1 0 0-1.27-0.24l-8.84 16.79a1.17 1.17 0 0 0 0.42 1.53c5.1 3.16 11.54 6.39 10 13.79q-0.36 1.69-0.45 3.48-0.02 0.55 0.28 1 3.33 4.9 1.9 10.85a0.46 0.46 0 0 0 0.72 0.47l6.64-4.92a1.32 1.31 58.1 0 1 1.95 0.46q3.3 6.38 9.31 10.32a2.45 2.45 0 0 0 3.59-1.06l1.31-3a0.71 0.7-72.5 0 1 0.77-0.41c5.71 1.06 11.47-7.69 15.39-13.14 1.9-2.64 6.16 0.9 8.19 1.98a1.15 1.15 0 0 0 1.69-0.95q0.2-3.53 1.14-6.9c1.39-4.94 5.77-9.62 7.83-13.87 2.32-4.76 2.69-10.12 3.22-15.71q1.41-14.63 1.86-29.04a2.13 2.12-3.2 0 0-2.43-2.17l-3.87 0.55-0.29-5.05a0.91 0.9 0.4 0 0-0.85-0.85q-40.56-2.48-80.12-0.66c-11.04 0.51-21.73 4.72-31.77 9.01a0.33 0.33 0 0 0 0.03 0.61q4.91 1.57 9.99 1.4 27.18-0.94 54.36-0.35c4.89 0.1 10.48 1.32 13.18 5.83zm-80.35 560.15q-16.04 12.64-24.99 30.42a1.02 1.02 0 0 0 1.26 1.42c11.94-4.38 22.53-11.33 33.12-18.45l39.39 9.33a1.69 1.69 0 0 0 1.35-3.03c-9.45-6.5-20.06-11.42-30.13-16.89-2.29-1.24-2.73-3.66-5.43-4.42q-7.5-2.09-14.57 1.62zm0.2 24.38-34.6 13.11a0.83 0.83 0 0 0-0.11 1.5q4.75 2.65 6.47 7.81a1.13 1.13 0 0 0 1.66 0.62c11.73-7.06 21.78-14.51 35.37-20.85 22.75 0.63 44.48 7.9 67.48 7.81a1.37 1.36 62 0 0 0.76-2.49c-2.41-1.64-4.69-2.68-7.77-3.1q-28.85-3.89-56.79-12.45a1.1 1.09 36.2 0 0-0.93 0.14l-11.54 7.9zm127.69 22.72q0.01 0.79-0.39 1.17-0.44 0.43-1.41 0.36-3.95-5.03-4.87-11.18a1.17 1.13-28.3 0 1 0.3-0.95l4.78-5.18a0.81 0.81 0 0 0-0.7-1.35l-60.33 7.97c-32.15-1.75-57.43 6.72-92.28 16.31q-2.23 0.61-4.81 4.56l-12.77-0.45-5.09-3.39a2.37 2.36 27.3 0 1-0.9-2.81q0.49-1.29-0.28-1.83 0.91-3.17 4.36-0.15 0.57 4.33 4.27 4.94a0.58 0.57-79.3 0 0 0.66-0.46q0.49-2.54 0.75-4.96c0.23-2.17 1.33-3.17 3.41-1.81l0.65 2.56c-0.2 3.16 1.68 4.49 4.57 3.37 5.49-2.14 0.52-8.42-1.1-11.49a1.82 1.82 0 0 0-2.86-0.47q-1.75 1.63-3.57 0.42a1.11 1.1-73.8 0 1-0.49-0.9c-0.05-2.11-0.27-4.76-2.48-5.66-3.84-1.55-5.35 3.02-6.68 5.44a0.7 0.7 0 0 1-1.17 0.09l-2.48-3.25a0.75 0.73 59 0 0-0.89-0.23l-8.83 4.01a1.09 1.09 0 0 0 0.54 2.08c1.61-0.14 6.62-2.06 6.38 1.3a1.78 1.78 0 0 1-1.61 1.64q-2.31 0.22-4.43-0.4c-7.4-2.16-4.38 11.33 2.71 4.09q1.18-0.09 2.12 0.93c-0.23 8.19 6.02 9.61 12.55 7.4q3.63 1.34 1.33 4.48l-28.99 3.26q-22.37 3.69-44.13 9.52c-10.94 2.94-17.1 5.98-21.4 16.03a1.83 1.82 35.7 0 0 0.32 1.94c7.04 7.75 26.6 8.25 36.47 7.64q0.98-0.06 1.45-0.91l6.15-10.91a0.98 0.97 24.4 0 0-0.53-1.4l-9.65-3.37q-7.67-2.08-15.79-1.93-1.77-3.1 0.29-4.03c3.29-1.49 19.16 2.54 23.27 3.6 16.7 4.31 33.7 2.82 50.5 5.61 22.3 3.7 43.89 5.85 65.93 0.9q1.96 0.33 1.33 2.66l-41.24 15.02q-3.48 0.01-6.11 1.64a1.16 1.15-27.9 0 0-0.45 1.44c3.94 8.94 14.06 11.76 22.79 10.81 24.43-2.63 42.21-2.1 63.69-2.05q12.16 0.03 26.8-3.95 15.88-4.31 47.09-9.54c13.76-2.3 25.62-2.28 38.68-2.59 6.8-0.25 12.92 0.67 16.08-6.79l0.6-1.07q2.11-2.48 2.27-5.53c3.08-7.47-0.38-11.51-5.56-16.34q-2.43-3.02-7.46-3.97-7.95-2.91-16.7-0.98l-96.7 7.25q-2.29-0.11-4.27-1.22-0.41-1.32-2.03-1.44c-8.75-0.69-22.32-0.54-33.36-2.36q-2.46-0.41-13.68-3.26-17.86-4.55-36.45-4.49-0.2-2.21 0.74-2.95 22.59 0.27 45.06 6.14 0.83 0.64 3.02 0.62 20.63 3.33 41.86 2.15c27.66-1.54 46.63-2.07 68.81-11.41q7.75-1.52 13.18-7.29c1.29-1.36 1.23-2.84 1.46-4.58q1.97-11.19-8.44-15.25-10.55-1.07-17.46 7.15a2.05 2.03 62.1 0 0-0.46 1.52q0.54 4.92 4.06 8.51zm-201.07 85.72q-26.48 6.02-53.17 10.27c-4.62 0.74-12.58 2.21-15.76 5.68q-1.47 1.6 0.64 1.09c11.6-2.77 25.74-5.34 37.56-3.45 6.47 1.03 14.33 4.33 21.41 6.48q12.27 3.72 25.04 4.59 38.23 2.58 76.55 0.92l3.87-0.04 5.54-1.78q4.89-0.11 6.76-3.65 1.28-1.06 2.54-0.24 0.43 0.28 0.32 0.78-0.54 2.53-2.37 4.35a0.81 0.81 0 0 0 0.37 1.36q2.93 0.73 6.17 0.04 29.84-6.37 59.31-14.52l47.97-6.56a0.85 0.84-1.3 0 0 0.73-0.76l0.26-2.96a1.51 1.5-6.1 0 0-1.94-1.56c-14.75 4.5-30.68 6.92-46.01 5.4-11.3-1.12-25.31-5.37-37.7-8.34-3.12-0.75-6.42-0.53-9.67-1.22-42.82-9.12-85.83-4.21-128.42 4.12zm109.9 44.95q-2.62 1.02-2.38 2.56 0.09 0.53 0.61 0.66 34.4 8.49 69.79 7.65 3.4-0.08 6.84-1.24 23.82-8 48.29-13.62c12.81-2.95 25.73-3.52 38.82-4.09q0.13-0.01 0.23-0.11 0.14-0.16 0.12-0.24c6.02-0.56 13.95-2.16 16.98-8.07q0.34-0.66-0.38-0.47-9.12 2.43-18.54 2.17c-7.18-0.2-8.81-12.51-14.61-16.17a1.03 1.03 0 0 1-0.39-1.3q2.63-5.85 7.91-9.46 0.57-0.39-0.11-0.52-5.18-0.99-8.53-0.35-31.51 6.03-42.56 7.42c-36.25 4.56-72.86 11.66-102.09 35.18zm177.59-21.69q2.17-0.45 2.68 0.96 0.66 1.82 1.09-0.07 2.75-12.24-4.15-19.57-11.1-1.41-21.66 0.26c-10.82 1.72-6.25 12.2-1.68 17.16 6.27 6.81 16.22 4.9 23.72 1.26zm-322.74-6.63q-18.58 0.44-34.91 6.01-0.4 0.13-0.35 0.55 0.03 0.37 0.23 0.34 0.13 10.43 7.23 16.8 0.36 0.33 0.85 0.28c7.37-0.83 38.18-3.66 31.92-17.38q-2.11-4.61-3.46-5.98-1.12-1.12-1.51-0.62zm281.4 52.41q-0.04 1.63-1.16 3.04c-23.18 7.12-46.66 13.73-69.56 21.77-15.25 5.36-30.07 13.27-44.77 20.45q-3.76 0.81-6.96 3.42a1.49 1.49 0 0 0 0.54 2.59q21.24 5.96 43.52 8.5c6.72 0.76 10.66-2.14 15.46-6.28q0.39-0.34 0.9-0.3c7.39 0.63 12.04 2.86 19.67 0.05q34.21-12.65 68.83-23.66 7.91-0.82 12.79-7.28 0.05-0.09 0.31-0.1 0.29 0 0.42-0.25 1.17-2.12 1.04-4.64l0.97-0.31q0.53-0.16 0.78 0.34l0.33 0.66c-3.08 9.21-10.47 14.41-19.96 15.98a1.44 1.44 0 0 0-1.18 1.66c2.61 15.74 1.93 24.13-12.32 32.75q-23.78 14.37-49.64 28.04-4 0.39-7.94 3.61a0.56 0.56 0 0 0 0.27 0.99q20 2.91 40.03 5.67c12.77 1.76 20.89 0.91 31.03-6.02l27.52-26.23q0.31-0.3 0.37-0.73l8.35-58.24a3.83 3.81-59.7 0 0-0.73-2.83l-28.41-37.82a0.84 0.84 0 0 0-1.03-0.26q-15.15 6.84-31.67 8.49a0.7 0.69-8.3 0 0-0.62 0.82l2.82 16.12zm-285.51 19.11q-4.4 5.1-2.75 11.88 1.87 1.35 3.11 1.21 16.34-1.91 32.41-5.57 0.5-0.12 0.81-0.52 1.15-1.51 0.25-3.4c-3.31-6.92-22.32-1.79-27.87-0.16q-2.88-0.56-3.26-3.07 13.1-5.89 27.6-5.58c12.96 0.28 19.1 12.35 32.55 12.88 30.96 1.24 62.78 4 93.42-1.83 1.39-0.26 2.04-0.9 2.71-2.06a0.82 0.81 32.9 0 1 1.18-0.25l2.46 1.74q0.36 0.25 0.8 0.24l3.37-0.11q9.55 0.72 18.7-2.11l50.84-10.34q1.78-0.36 0.49-1.64-9.33-9.22-21.86-8.51l-43.87-8.28q-20.15-3.27-40.5-0.43c-2.14 0.3-5.6 0.27-8.44 1.33-1.17 0.44-3.72-0.05-5.3 0.26q-33.04 6.38-66.11 12.59c-16.52 3.1-34.79 3.1-50.02 10.66q-0.45 0.23-0.61 0.71l-0.11 0.36zm519.35 186.35-0.17 0.35q-0.09 0.19-0.08 0.39l5.11 86.54q0.02 0.38 0.34 0.57l0.37 0.22a0.37 0.37 0 0 0 0.56-0.33l-3.36-86.98-3.42-87.43a7.93 7.9 28.4 0 0-1.14-3.79l-23.01-38.02a0.43 0.43 0 0 1 0.51-0.63c3.47 1.24 6.27 2.62 9.19 5.28 11.77 10.73 27.88 16.38 43.81 18.86q0.53 0.09 0.91 0.45l50.45 48.37q-2.74 20.82-6.12 41.65-0.23 1.43 0.35 1.92a0.71 0.71 0 0 0 1.16-0.4l8.55-43.22 9.39-14.93 8.34-13.42a1.4 1.39 17.7 0 1 1.27-0.65q33.53 2.05 67.23 4.61 1.26 0.09 1.36-0.78a0.69 0.68-84.4 0 0-0.63-0.77q-33.88-2.41-67.22-4.88c-3.49-0.26-3.95 1.03-5.73 3.3q-3.71 4.73-7.08 9.64l-7.12 9.64a1.06 1.06 0 0 1-1.58 0.14q-22.55-21.46-45.57-42.97c-1.41-1.32-4.02-2.89-5.82-3.5-20.81-7.03-40.53-14.66-60.15-25.27a1.72 1.66 89.5 0 1-0.68-0.69c-5.09-9.72-8.3-11.42-18.49-15.32q-60.24-23.05-119.6-48.27-0.52-0.22-0.95-0.17a0.31 0.31 0 0 0-0.15 0.57q43.14 29.23 91.29 48.47c8.73 3.49 33.92 4.23 38.62 11.97q14.03 23.13 28.45 46.02c2.33 3.7 4.98 7.54 5.25 11.53q2.7 40.06 5.13 80.13 0.04 0.68 0.43 1.8zm-406.85-104.95q2.26 0.84 4.1-1.29 0.36-0.42 0.92-0.47l4.26-0.38 8.1-3.87a1.02 1.02 0 0 1 0.88 0q3.61 1.66 5.33 1.48 10.24-1.08 32.06-5.92 10.97-2.43 20.34-10.84 2.67-0.94 2.93-3.15a0.75 0.74-76.7 0 0-0.48-0.79l-25.98-9.43q-0.5-0.18-0.99 0.02-22.99 9.52-45.58 19.96c-5.47 2.53-14.34 2.21-20.35 2.51-10.63 0.53-18.67 10.74-23.93 19.06q-0.31 0.48 0.25 0.37l38.14-7.26z"/> </clipPath> <g clip-path="url(#c)" fill="none"> <path d="m501.35 227.94-9.44 13.96" stroke="#6c676b" vector-effect="non-scaling-stroke"/> <path d="m903.25 370.45c-9.2 7.12-19.82 14.76-31.51 14.34a0.89 0.89 0 0 0-0.71 1.46q1.63 1.95 3.97 2.68" stroke="#cbc8ca" vector-effect="non-scaling-stroke"/> <path d="m875 388.93 4.19 2.5" stroke="#9f9d9f" vector-effect="non-scaling-stroke"/> <path d="m879.19 391.43q1.04 1.64 0.16 2.67a0.88 0.87 27.9 0 1-0.9 0.27q-4.5-1.25-8.26-4.07c-1.02-0.77-2.95-0.49-4.1-1.37q-3-2.29-2.28-5.99 0.09-0.47-0.09-0.92-1.7-4.11-5.83-4.46" stroke="#cbc8ca" vector-effect="non-scaling-stroke"/> <path d="m858.15 366.51 13 8.78" stroke="#cbc8ca" vector-effect="non-scaling-stroke"/> <path d="m871.15 375.29q7.4 3.61 12.52-0.04 0.55-0.4 0.14-0.94-1.19-1.55-3.45-2.67" stroke="#9f9d9f" vector-effect="non-scaling-stroke"/> <path d="m880.36 371.64c-7.65-4.43-18.94-8.91-19.24-18.96q-0.32-10.8-0.34-29.27" stroke="#cbc8ca" vector-effect="non-scaling-stroke"/> <path d="m879.19 391.43q8.53 1.5 12.09-5.61a1.04 1.04 0 0 0-1.51-1.32q-5.2 3.54-11.32 1.59-0.5-0.16-0.99 0.02-1.78 0.64-2.46 2.82" stroke="#6c676b" vector-effect="non-scaling-stroke"/> <path d="m880.36 371.64-9.21 3.65" stroke="#6c676b" vector-effect="non-scaling-stroke"/> <path d="m516.06 325.25q0.08 0.64-0.96 0.52" stroke="#cbc8ca" vector-effect="non-scaling-stroke"/> <path d="m515.1 325.77q-0.41-0.44-1.28-0.25-0.53 0.12-1.02 0.63-20.61 21.84-3.85 47.97 0.54 0.84 0.8-0.12l4.93-18.31" stroke="#858384" vector-effect="non-scaling-stroke"/> <path d="m514.68 355.69c4.4 0.6 5.26 8.71 5.76 11.45" stroke="#cbc8ca" vector-effect="non-scaling-stroke"/> <path d="m514.68 355.69q3.3-14.76 0.42-29.92" stroke="#524d50" vector-effect="non-scaling-stroke"/> <path d="m607.52 325.1q-7.82 2.42-15.22 2c-4.74-0.27-8.26 2.15-13.5 1.67" stroke="#cbc8ca" vector-effect="non-scaling-stroke"/> <path d="m604.48 374.12q5.11-15.01 13.34-28.27 0.74-1.19-0.81-0.7a0.69 0.69 0 0 0-0.34 0.25q-4.03 5.74-9.01 10.7-0.37 0.37-0.54 0.85-0.27 0.73-0.87 1.29" stroke="#cbc8ca" vector-effect="non-scaling-stroke"/> <path d="m895.84 517.05-0.11-1.08" stroke="#6c676b" vector-effect="non-scaling-stroke"/> <path d="m762.26 440.33q-17.06 7.23-35.47 9.94" stroke="#cbc8ca" vector-effect="non-scaling-stroke"/> <path d="m655.83 1023.8c-7.19-1.22-9.17-7-9.39-13.39" stroke="#cbc8ca" vector-effect="non-scaling-stroke"/> <path d="m655.43 1037q-5.46 0.54-8.79-2.19" stroke="#cbc8ca" vector-effect="non-scaling-stroke"/> <path d="m788.19 1040.3q4.84 7.17 5.86 13.64" stroke="#cbc8ca" vector-effect="non-scaling-stroke"/> <path d="m794.05 1054q-8.81 12.03-19.72 3.54" stroke="#9f9d9f" vector-effect="non-scaling-stroke"/> <path d="m795.58 1055.3q-0.54-0.75-1.53-1.29" stroke="#6c676b" vector-effect="non-scaling-stroke"/> <path d="m772.53 1059c5.27 8.47 16.5 5.19 22.33-0.73q0.3-0.3 0.37-0.73l0.35-2.32" stroke="#9f9d9f" vector-effect="non-scaling-stroke"/> <path d="m795.58 1055.3q0.76-0.2 1.05 0.32" stroke="#cbc8ca" vector-effect="non-scaling-stroke"/> <path d="m781.99 1067.5q-15.54-0.79-28.31 1.2c-12.07 1.87-27.29 5.9-39.7 6.74q-13.35 0.9-26.25-0.39-10.43-1.05-9.59-11.87a1.01 0.98-15.5 0 1 0.43-0.73q15.15-10.46 33.14-14.05" stroke="#cbc8ca" vector-effect="non-scaling-stroke"/> <path d="m671.32 1076.7 0.41-5.73a1.12 1.1-17.4 0 1 0.43-0.81c1.79-1.34 3.3-6.29-0.12-6.39a2.22 2.21 4.9 0 0-2.26 1.9l-1.48 10.41" stroke="#6c676b" vector-effect="non-scaling-stroke"/> <path d="m623.24 1070-8.62-0.73" stroke="#6c676b" vector-effect="non-scaling-stroke"/> <path d="m622.5 1072.9-19.21 0.81" stroke="#9f9d9f" vector-effect="non-scaling-stroke"/> <path d="m708.02 1084.5-40.03 14.28" stroke="#9f9d9f" vector-effect="non-scaling-stroke"/> <path d="m667.99 1098.7q-39.36 0.43-78.14-5.44c-10.07-1.52-15.56-5.42-15.55-16.32" stroke="#cbc8ca" vector-effect="non-scaling-stroke"/> <path d="m601.85 1068.8q-0.33 0.55 0.11 0.46" stroke="#9f9d9f" vector-effect="non-scaling-stroke"/> <path d="m667.99 1098.7q-0.25 0.51-0.81 0.93" stroke="#6c676b" vector-effect="non-scaling-stroke"/> <path d="m527.19 1093.6c-4.49 0.37-10.4 2.77-12.69 6.88-1.51 2.71-0.74 5.78 2.5 6.3q14.79 2.38 29.2-3.39c1.57-0.63 2.31-1.83 2.32-3.44q0-0.54-0.44-0.86l-5.1-3.56" stroke="#cbc8ca" vector-effect="non-scaling-stroke"/> <path d="m595.58 1060.8q-3.12-0.34-6.17 1.09" stroke="#9f9d9f" vector-effect="non-scaling-stroke"/> <path d="m819.76 1113.1c-8.96-0.16-14.99-4.62-24.82-3.18q-38.77 5.65-77.69 10.07-4.04 0.46-8.05 0.1-0.51-0.05-0.84-0.43l-3.09-3.53a1.19 1.19 0 0 0-2.08 0.94l0.3 2.21q0.12 0.89-0.78 0.88l-2.9-0.04q-0.65-0.01-0.93-0.6l-5.58-11.49a0.64 0.64 0 0 0-0.87-0.29q-0.67 0.34-0.41 1.49 1.25 5.37 2.56 10.9a0.83 0.83 0 0 1-0.59 1l-3.64 0.98a0.74 0.74 0 0 1-0.91-0.55c-1.29-5.65-2.06-12.04-7.45-15.37q-0.79-0.49 0.11-0.72l3.17-0.83a1.21 1.21 0 0 0 0.35-2.18q-2.35-1.55-4.5-0.42c-16.81 8.86-33.65 16.5-53.09 16.54q-0.5 0-0.71-0.45-0.18-0.37-0.05-0.79" stroke="#cbc8ca" vector-effect="non-scaling-stroke"/> <path d="m668.51 1102.3c14.66-5.73 28.92-11.79 43.78-16.65" stroke="#9f9d9f" vector-effect="non-scaling-stroke"/> <path d="m609.68 1060.9 4.82-0.33q0.5-0.04 0.5-0.54c0.01-2.96-3.95-2.25-5.97-1.69" stroke="#cbc8ca" vector-effect="non-scaling-stroke"/> <path d="m599.94 1060.6 1.99-4.42a1.12 1.07 48.9 0 0 0.04-0.83c-1.36-3.9-7.73 1.68-9.65 2.86q-0.42 0.26-0.92 0.26-2.8 0.02-4.11 2.44" stroke="#9f9d9f" vector-effect="non-scaling-stroke"/> <path d="m825.69 1079.4-21.29 4.6a1.46 1.46 0 0 0-1.14 1.62c0.79 5.96 4.2 18.8 12.43 17.95q8.19-0.86 16.37-1.72c5.76-0.6 2.46-14.96 1.09-18.48" stroke="#9f9d9f" vector-effect="non-scaling-stroke"/> <path d="m838.71 1099.7q-2.15 1.94-2.62 5.06-0.04 0.21 0.14 0.33l0.21 0.14" stroke="#6c676b" vector-effect="non-scaling-stroke"/> <path d="m835.84 1106.3q-0.28-0.48-1.1-0.42-11.98 0.87-23.54 1.61a1.82 1.81-21.2 0 1-1.53-0.67q-7.51-9.22-9.97-20.88a1.55 1.54 60.5 0 1 0.38-1.38q3.53-3.74 8.09-4.89 0.5-0.13 0.67-0.39 0.24-0.35 0.15-0.87" stroke="#9f9d9f" vector-effect="non-scaling-stroke"/> <path d="m748.04 1155.1q-28.38-1.69-56.59 0.89c-2.6 0.24-4.07 1.67-5.57 3.55a0.66 0.66 0 0 1-1.17-0.45c0.24-4.55 0.41-9.24-3.33-12.78a0.82 0.81 54.1 0 0-0.89-0.15q-1.42 0.65-1.46 2.4a1.06 1.05-65.5 0 0 0.27 0.73l1.71 1.8a1 1 0 0 1 0.28 0.67l0.41 11.57" stroke="#cbc8ca" vector-effect="non-scaling-stroke"/> <path d="m674.94 1167c-8.63 1.1-4.37-16.54-4.04-21a0.84 0.84 0 0 1 1.36-0.59c2.3 1.85 2.12 13.4 1.88 16.27q-0.04 0.59 0.55 0.57l2.17-0.05q0.72-0.02 0.71-0.74-0.09-8.91-3.62-17.05-0.24-0.55-0.79-0.79-3.7-1.59-6.29-4.67-0.44-0.53-0.73 0.1-0.4 0.89 0.34 1.75 1.93 2.25 3.16 4.13a0.94 0.93-57 0 1 0.13 0.63l-2.81 17.9a1.02 1-54.5 0 0 0.09 0.57l2.35 4.75" stroke="#cbc8ca" vector-effect="non-scaling-stroke"/> <path d="m665.53 1168.8c-0.36-2.4-2.29-1.77-4.05-1.79q-28.82-0.32-57.61-1.62c-9.44-0.43-33.53-0.91-32.85-14.69 0.11-2.41 1.35-5.08 2.24-7.48" stroke="#cbc8ca" vector-effect="non-scaling-stroke"/> <path d="m845.48 1179.8-0.67-0.02a1.09 1.06 67.4 0 1-0.77-0.33l-5.49-5.49a1.09 1.09 0 0 0-0.98-0.3c-30.39 5.92-62.66 14.53-95.58 18.04q-0.43 0.04-0.58-0.36l-4.49-11.85a1.02 1.02 0 0 0-1.96 0.52l1.82 11.24a0.31 0.31 0 0 1-0.56 0.24q-3.5-4.51-6.94-9.22c-1.47-2.02-3.26-2.57-5.39-3.65a0.63 0.62 26.8 0 0-0.83 0.27q-1.15 2.17-0.54 4.59 0.18 0.7-0.54 0.7l-1.46 0.02q-0.65 0.01-0.8-0.61-0.39-1.54-1.79-2.22-0.46-0.23-0.94-0.04-1.89 0.75-1.45 3.47 0.4 2.47-0.21 6.72-0.07 0.5-0.58 0.44l-31.59-3.73" stroke="#cbc8ca" vector-effect="non-scaling-stroke"/> <path d="m860.37 1147.8c-0.89 6.62 1.79 11.99 0.38 18.68" stroke="#cbc8ca" vector-effect="non-scaling-stroke"/> <path d="m502.98 1166.8q2.81 6.33 9.31 7.9c5.5 1.32 29.78 5.77 28.97-5.67q-0.26-3.8-3.25-9.13" stroke="#cbc8ca" vector-effect="non-scaling-stroke"/> <path d="m842.81 1313-63.39-4.25" stroke="#cbc8ca" vector-effect="non-scaling-stroke"/> <path d="m862.52 1230.3q1.68-13.44-9.34-19.5c-7.93-4.37-25.11-0.45-33.77 1.5" stroke="#9f9d9f" vector-effect="non-scaling-stroke"/> <path d="m860.44 1229.6q-1.87-0.02-2.88 3.74" stroke="#6c676b" vector-effect="non-scaling-stroke"/> <path d="m857.56 1233.3c-12.68 8.99-22.65 1.45-25.51-11.65a0.92 0.91 62.2 0 1 0.27-0.88q6.03-5.65 13.79-8.5a0.39 0.39 0 0 0-0.19-0.75l-27.67 3.77" stroke="#9f9d9f" vector-effect="non-scaling-stroke"/> <path d="m857.56 1233.3q0.53 0.32 1.11 1.25" stroke="#cbc8ca" vector-effect="non-scaling-stroke"/> <path d="m845.88 1241.9q-1.49 0.53-3.11-0.58-0.42-0.28-0.9-0.13c-23.33 7.57-51.26 16.85-77.81 17.79q-0.5 0.02-0.91-0.29l-9.45-7.13a1.12 1.11-64.9 0 0-1.76 0.64l-0.88 3.79a1.11 1.11 0 0 1-2.14 0.08l-1.32-4.16a0.76 0.76 0 0 0-1.49 0.21l-0.16 4.99a0.7 0.69 26.1 0 1-1.23 0.42c-5.18-6.27-7.98 1.4-12.71 0.72-7.51-1.08-17-1.85-25.49 0.03q-2.04 0.45-2.6-0.7" stroke="#cbc8ca" vector-effect="non-scaling-stroke"/> <path d="m704.99 1205.9c-14.13 0.37-29.56-0.18-42.46 1.16-10.7 1.11-20.31 2.73-31.01 6.21q-23.8 7.73-47.42 15.56a0.55 0.54-29.9 0 0-0.24 0.88c1.92 2.18 4.12 3.62 7.22 3.81q34.12 2.02 73.92 1.65 14.23-0.14 26.34-5.42 0.37-0.16 0.77-0.07l1.58 0.33q0.65 0.14 1.16-0.29 3.07-2.6 4.55-6.34a0.76 0.75 15.1 0 1 0.83-0.47c4.51 0.78 6.08-3.68 7.15-6.88a0.9 0.9 0 0 1 1.74 0.14l0.57 3.5a1.36 1.36 0 0 0 2.7-0.15l0.16-3.09a0.49 0.48 3.4 0 1 0.53-0.46q3.07 0.26 3.68 3.3a0.94 0.94 0 0 0 1.1 0.74l31-5.83" stroke="#cbc8ca" vector-effect="non-scaling-stroke"/> <path d="m719.39 1234.7q2.34-5.03 2.09-10.97a0.88 0.88 0 0 0-1.72-0.2c-3.29 11.87-8.99 10.9-19.07 13.28" stroke="#6c676b" vector-effect="non-scaling-stroke"/> <path d="m536.6 1231.8q-1.5 0.16-2.7-0.37" stroke="#6c676b" vector-effect="non-scaling-stroke"/> <path d="m539.86 1234.8q-4.96 1.98-5.73 6.92-0.08 0.55-0.61 0.72l-2.37 0.8" stroke="#9f9d9f" vector-effect="non-scaling-stroke"/> <path d="m1144.2 1343.7q1.36 0.15 2.46 2.95" stroke="#6c676b" vector-effect="non-scaling-stroke"/> <path d="m1137.3 1361.5q-1.9 0.95-3.94 0.05" stroke="#6c676b" vector-effect="non-scaling-stroke"/> <path d="m1056 1418.5q-1.46 0.07-2.77-0.76" stroke="#6c676b" vector-effect="non-scaling-stroke"/> <path d="m722.39 1291.5c-17.67 5.41-34.31 10.07-53.32 12.84q-6.91 1.01-12.5-1.18-0.47-0.18-0.91 0.08-2.27 1.38-3 4.29" stroke="#cbc8ca" vector-effect="non-scaling-stroke"/> <path d="m652.66 1307.5-7.38 0.3q-1.13 0.04-0.66 1.06l1.78 3.9" stroke="#9f9d9f" vector-effect="non-scaling-stroke"/> <path d="m655.68 1310.6q-0.02-2.3-3.02-3.12" stroke="#6c676b" vector-effect="non-scaling-stroke"/> </g> <path d="m709.59 9.77q0.93 0.17 1.2 0.46-12.01 9.6-21.08 22.16a1.46 1.46 0 0 1-2.5-0.21c-1.4-2.86-3.89-7.03-3.06-10.28 3.12-12.21 15.95-10.65 25.44-12.13z" fill="#0c0809"/> <path d="m674.88 35.84a0.03 0.03 0 0 1-0.04 0.03l-0.04-0.01a11.89 7.18-78 0 1-4.56-13.13l0.23-1.07a11.89 7.18-78 0 1 9.5-10.14l0.05 0.01a0.03 0.03 0 0 1 0.02 0.04l-5.16 24.27z" fill="#0c0809"/> <path d="m637.08 41.14q-6.6 8.03-14.81 13.35-12.5 11.19-24.39 22.11c-8.34 7.66-20.99 15.41-23.4 26.89-5.1 24.38-10.06 46.12-20 71.76q-0.68 1.78 0.93 3.02a1.14 1.12-29.4 0 0 0.84 0.23l8.38-1.1q4.59 0.15 4.5 4.13-27.16 18.78-29.44 51.74a1.59 1.51-27.9 0 1-0.24 0.71l-9.06 14.44a0.63 0.63 0 0 1-1.17-0.37q0.88-17.12 2.08-34.28 0.84-12.07 2.74-19.77c4.95-20.02 14.7-39.48 25.42-57.32a0.7 0.69 79.6 0 0-1.14-0.79l-3.41 4.36a0.73 0.72-18.2 0 1-1.27-0.64l3.33-11.97q0.15-0.55-0.33-0.86-0.95-0.6-2.19 0.07a0.76 0.76 0 0 1-1.12-0.65c-0.69-22.28-3.95-49.17 19.22-61.9q9.94-5.46 17.5-10.08 12.35-7.53 15.97-9.01 14.39-5.88 31.06-4.07z" fill="#fefefe"/> <path d="m622.27 54.49q-2.05 4.73-4.61 8.68-5.93 9.14-6.83 20.06c-1.27 15.57-0.57 28.11-0.29 42.27q0.06 3.15-3.22 10.64c-8.23 18.81-24.43 32.54-42.69 41.26l-8.38 1.1a1.14 1.12-29.4 0 1-0.84-0.23q-1.61-1.24-0.93-3.02c9.94-25.64 14.9-47.38 20-71.76 2.41-11.48 15.06-19.23 23.4-26.89q11.89-10.92 24.39-22.11z" fill="#0c0809"/> <path d="m797.09 171.56c-12.31-1.17-22.74 0.32-36 1.92-6.29 0.76-11.66 2.95-17.44 5.15-15.45-1.61-26.89 0.51-39.84 8.51-10.26 6.33-18.51 11.8-23.86 22.28-1.48 2.91-4.38 3.49-5.47-0.08q-1.88-6.12-3.86-12.01a1.94 1.94 0 0 0-1.84-1.33h-19.02a1.62 1.58 62.3 0 1-0.93-0.3c-7.18-5.19-17.41-11-22.86-17.45-5.31-6.29-8.5-15.65-10.22-23.64a0.73 0.73 0 0 1 0.72-0.89c24.41 0.4 42.13 0.35 46.73-28.51q3.44-21.58 9.13-42.69 3.45-12.8 16.11-16.82c16.54-5.24 36.88-11.83 50.43 0.66 8.34 7.68 15.33 26.31 19.15 38.15 4.59 14.24-2.21 28.22-8.82 42.05-0.68 1.4-0.71 3.58 1.29 3.55 18.84-0.22 32.9 8.72 46.32 20.83q0.2 0.17 0.28 0.62z" fill="#fefefe"/> <path d="m797.09 171.56c18.43 7.69 26.85 24.86 31.66 42.69q0.19 0.71-0.41 0.91a0.49 0.48-30.2 0 1-0.51-0.13l-13.57-14.56q-7.79-17.44-26.94-16.93c-3.5 0.09-4.1 3.06-6.63 4.39q-9.49 5.03-19 10.01-1.74 0.9-0.88 2.83 0.21 0.47 0.66 0.73l1.58 0.94q1.75 1.03-0.26 1.34c-16.05 2.41-30.02 4.58-41.7 17.03q-6.6 7.04-13.09 14.37a1.01 1.01 0 0 1-1.33 0.15l-3.39-2.37q-0.21-9.72 5.4-17.06 7.75-10.15 12.96-18.37c5.53-8.73 12.69-14.46 22.01-18.9 5.78-2.2 11.15-4.39 17.44-5.15 13.26-1.6 23.69-3.09 36-1.92z" fill="#0c0809"/> <path d="m846.38 228.6-2.5 0.24q-5.56-0.83-10.05 3.56-1.59-2.19-1.29-3.96 2.44 0.22 3.86-2.17a1.12 1.11 52.2 0 0 0.11-0.89q-6.93-22.77-10.05-46.38-0.07-0.54 0.48-0.72a0.59 0.59 0 0 1 0.75 0.35l18.69 49.97z" fill="#989296"/> <path d="m814.26 200.47q-1.14 4.56-5.33 7.84-0.37 0.29-0.84 0.34l-1.9 0.23a0.99 0.99 0 0 0-0.25 1.91q14.67 5.84 26.21 16.83 0.32 0.42 0.39 0.82-0.3 1.77 1.29 3.96l0.18 5.09q-0.15 1.06 0.2 1.81 3.51 7.42 2.95 15.6 2.71 10.38 9.19 29.01 3.79 10.9 1.54 23.04l-2.58 6.4q-8.56 8.87-15.01 19.07c-8.97 14.18-31.14 8.53-44.56 6.72a1.07 1.07 0 0 0-0.99 1.71c3.24 4.26 6.91 11.14 5.21 16.39-4.5 13.89-31.45-3.77-38.07-8.58q-10.68-12.52-20.7-27.1-2.42-3.52-8.23-6.06-2.91-3.06-7.49-5.15a1.53 1.51 87.8 0 1-0.69-0.65q-8.24-15.43-25.84-17.07a3.16 3.15 0.4 0 1-2.85-2.89q-1.16-14.45-6.43-27.91a1.42 1.42 0 0 0-2.68 0.1c-1.56 5.12-3.02 10.11-3.92 15.52-1.44 8.57-2.42 17.8-5.31 25.52q-3.55 9.49-8.95 17.57c-3.27 5.09-6.31 11.24-10.05 15.12-6.75 7-18.93 11.96-14.28 24.34a0.65 0.65 0 0 1-1.15 0.58c-9.29-14.51 3.54-20.53 11.89-29.06 6.73-6.89 10.89-16 13.74-25.04 4.92-15.59 4.24-32.68 12.6-46.91 5.67-9.65 25.25-4.52 33.24-1.09q0.47 0.2 0.65 0.69c4.09 11.12 7.7 23.6 15.24 31.89 8.2 9.02 14.97 17.72 25.88 23.78q15.23 8.46 27.45 13.16 2 0.77 4.62-0.45 11.55-5.38 23.07-10.84c2.93-1.39 5.45-3.93 7.39-6.91 9.44-14.61 20.94-27.46 24.33-44.7 4.84-24.64-9.1-42.44-31.32-49.95-28.77-9.72-84.28-11.03-87.59 31.85l0.39 13.79 3.54 17.2a0.46 0.45-66.1 0 1-0.84 0.33q-12.17-20.92-4.44-44.13a0.48 0.48 0 0 0-0.84-0.43q-3.25 4.62-4.44 10.47-0.58 2.84-3.53 2.12-7.17-1.74-14.38-3.22c-10.88-2.23-21.18 0.67-31.31 4.19a0.67 0.67 0 0 1-0.85-0.86q2.61-7.1 10.86-8.76c7.33-0.11 14.2-1.18 21.31 1.12a0.45 0.45 0 0 0 0.46-0.75l-3.91-3.91a1.81 1.8 54.5 0 1 0.48-2.9q8.68-4.26 16.27 1.7l3.39 2.37a1.01 1.01 0 0 0 1.33-0.15q6.49-7.33 13.09-14.37c11.68-12.45 25.65-14.62 41.7-17.03q2.01-0.31 0.26-1.34l-1.58-0.94q-0.45-0.26-0.66-0.73-0.86-1.93 0.88-2.83 9.51-4.98 19-10.01c2.53-1.33 3.13-4.3 6.63-4.39q19.15-0.51 26.94 16.93z" fill="#fefefe"/> <path d="m893.76 207.67q0.55 1.33-0.1 3.35-0.72-2.02 0.1-3.35z" fill="#3f3c3f"/> <path d="m501.35 227.94-9.44 13.96c0.67-11.33 5.26-22.39 8.36-33.24a0.26 0.26 0 0 1 0.51 0.07l0.57 19.21z" fill="#989296"/> <path d="m789.12 216.13q6.81 1.95 9.72 6.13 1.24 3.48 3.98 4.93-3.55 3.46-7.47 4.95-11.77-4.43-23.47-3.6l-8.18-14.83q13.78-0.98 25.42 2.42z" fill="#fefefe"/> <path d="m763.7 213.71 8.18 14.83-10.38 1.64a2 2 0 0 1-2.13-1.17l-5.31-12.12a1.09 1.09 0 0 1 0.8-1.51l8.84-1.67z" fill="#989296"/> <path d="m565.83 307.42q1.52 1.24 3.39 1.87c35.85 12 74.05-3.27 83.46-42.05a1.2 1.18-11.9 0 1 0.45-0.68l9.61-7.06a0.48 0.48 0 0 1 0.65 0.08q0.26 0.31 0.04 0.89c-10.14 25.63-25.75 48.68-54.04 55.07-33.15 7.49-79.09-8.14-77.4-49.33a1 1 0 0 0-1.47-0.92q-8.09 4.3-14.49-2.35c-2.08-2.17-1.59-5.8 0.24-8.16q5.66-7.31 14.97-2.9 0.5 0.24 0.71-0.28c6.56-15.87 13.65-24.62 30.49-30.6 32.68-11.61 69.87-4.51 89.5 25.98 1.22 1.89 1.57 4.11 0.06 5.81a1.62 1.62 0 0 1-2.66-0.37c-16.07-32.78-59.52-39.3-90.54-25.37q-14.55 6.53-20.03 20.89c-4.09 10.71-4.58 33.06 5.01 41.34q0.36 0.31 0.84 0.39 14.58 2.41 29.12 4.85c2.37 0.39 3.71 3.05 1.35 4.78q-4.77 3.5-9.27 7.34-0.45 0.39 0.01 0.78z" fill="#fefefe"/> <path d="m789.12 216.13c11.37 2.1 23.17 5.3 30.82 13.69 7.49 8.21 11.94 18.52 10.91 29.9l-0.14-1.73a1.13 1.13 0 0 0-2.05-0.56c-2.83 4.03-5.33 8.31-8.89 11.54q-3.2 2.9-6.03 4.76-4.69-0.8-11.53 2.12l8-6.27a1.9 1.84 20.4 0 1 0.84-0.37c7.39-1.16 7.9-5.16 13.03-8.91q2.34-1.71 0.21-2.74 0.35-0.51 0.19-1.56-2.38-15.75-14.27-25.93-4.04-8.59-11.37-7.81-2.91-4.18-9.72-6.13z" fill="#989296"/> <path d="m893.98 215.82 4 7.12q-3.17 3-3.16 8.39a0.51 0.51 0 0 1-0.89 0.35c-0.79-0.85-0.22-2.15-0.24-2.99q-0.12-6.26 0.29-12.87z" fill="#3f3c3f"/> <path d="m491.91 241.9 9.44-13.96q4.85-3.48 3.1-10.98-0.14-0.59 0.46-0.67l0.25-0.04q0.46-0.06 0.57 0.39c2.42 9.54-1.14 14.69-6.16 21.95-5.66 8.2-8.23 13.87-9.36 23.84a0.39 0.38 7.1 0 1-0.44 0.34q-0.14-0.02-0.27-0.02-0.38 0-0.33-0.37l2.74-20.48z" fill="#3f3c3f"/> <path d="m810.21 230.07q-1.34-0.52-1.68 1.73l-5.71-4.61q-2.74-1.45-3.98-4.93 7.33-0.78 11.37 7.81z" fill="#3f3c3f"/> <path d="m802.82 227.19 5.71 4.61q2.78 3.89 1.25 8.52a1 1 0 0 1-1.51 0.52l-12.92-8.7q3.92-1.49 7.47-4.95z" fill="#989296"/> <path d="m578.97 232.29q0.12-0.42 0.33-0.55c15.88-9.77 34.53 0.63 45.88 12.2a0.21 0.2 83.1 0 1-0.25 0.32c-10.41-6.06-25.46-5.89-36.94-4.04-3.43 0.55-6.8-3.65-9.14-7.05q-0.14-0.2-0.12-0.37 0.02-0.15 0.13-0.28 0.08-0.1 0.11-0.23z" fill="#fefefe"/> <path d="m843.88 228.84c-2.64 1.24-9.19 5.49-9.16 8.54q-0.04 0.22-0.71 0.11l-0.18-5.09q4.49-4.39 10.05-3.56z" fill="#3f3c3f"/> <path d="m846.38 228.6q10.15 2.83 8.58 13.6-0.08 0.54 0.34 0.88l6.68 5.48a0.41 0.4-19.6 0 1-0.34 0.71q-5.2-1.06-9.6-4.03a1.23 1.21 54.3 0 0-0.99-0.17c-2.31 0.57-5.02 1.72-7.26 1.39q-7.1-1.05-9.07-9.08c-0.03-3.05 6.52-7.3 9.16-8.54l2.5-0.24z" fill="#fefefe"/> <path d="m793.28 236.75c0.95 2.39 1.47 3.94-1.48 4.92q-3.14 1.05-6.25 1.64c-4.13-0.2-19.87-0.65-20.71-5.84q-0.35-2.14 1.88-2.77 13.95-3.98 26.56 2.05z" fill="#fefefe"/> <ellipse transform="translate(846.35,237.99) rotate(2.6)" rx="4.54" ry="3.71" fill="#0c0809"/> <path d="m793.28 236.75 21.56 17-4.84 0.76c-6-6.01-16.76-9.03-24.45-11.2q3.11-0.59 6.25-1.64c2.95-0.98 2.43-2.53 1.48-4.92z" fill="#989296"/> <path d="m636.93 264.96c-14.28-9.32-30.89-15.16-47.96-15.43a2.55 2.54 71.7 0 1-1.98-1c-1.79-2.35-0.44-4.13 2.06-4.72 10.58-2.52 24.98-2.66 34.12 3.77 5.2 3.65 10.25 11.11 14.58 16.47a0.62 0.62 0 0 1-0.82 0.91z" fill="#fefefe"/> <path d="m682.55 247.82a0.1 0.1 0 0 1-0.07-0.12l0.01-0.02a4.55 1.7 16.3 0 1 4.84-0.35l0.21 0.06a4.55 1.7 16.3 0 1 3.89 2.91v0.02a0.1 0.1 0 0 1-0.13 0.06l-8.75-2.56z" fill="#989296"/> <path d="m714.51 247 0.84 0.03c0.18 3.77 1.76 9.76 0.88 13.17q-0.67-0.11-1.33 0.59l-0.39-13.79z" fill="#989296"/> <path d="m715.35 247.03q2.87-0.05 3.97 2 0.24 0.46 0.67 0.75 7.05 4.9 11.33 12.37a0.94 0.94 0 0 0 0.72 0.47c5.45 0.67 10.46-0.72 16.81-2.01 5.86-1.19 10.29-0.81 15.96-0.14 15.42 1.81 30.57-0.29 45.19-5.96l4.84-0.76 9.45 3.81q2.13 1.03-0.21 2.74c-5.13 3.75-5.64 7.75-13.03 8.91a1.9 1.84 20.4 0 0-0.84 0.37l-8 6.27c-3.8 1.06-8.51 2.98-12.74 2.27q-0.74-0.12-0.05-0.4 12.21-5.02 20.89-14.97 0.3-0.35 0.11-0.77c-0.82-1.83-2.64-1.71-4.38-1.04q-18.32 7.03-38.05 5.83c-4.28-0.25-10.3-2.25-15.05-2.07q-8.35 0.33-15.24 5.26a0.6 0.59-35.8 0 0-0.14 0.83c9.01 12.4 21.46 28.2 37.53 30.99 11.05 1.91 35.58-4.53 39.95-16.72a1.28 1.28 0 0 0-1.2-1.71q-3.35 0-5.55-2.52a1.73 1.73 0 0 1 0.16-2.44l5.29-4.66q2.83-1.86 6.03-4.76c3.56-3.23 6.06-7.51 8.89-11.54a1.13 1.13 0 0 1 2.05 0.56l0.14 1.73c-2.51 26.24-22.1 44.46-48.04 46.09-30.56 1.92-60.34-10.95-65.72-44.41q-0.06-0.39-0.3-0.66-0.28-0.33-0.56-0.54c0.88-3.41-0.7-9.4-0.88-13.17z" fill="#fefefe"/> <path d="m847.89 306.95q2.25-12.14-1.54-23.04-6.48-18.63-9.19-29.01c12.48-4.67 16.5 2.64 18.75 13.48 3.81 18.28 5.45 38.84-4.53 55.63q-5.75 9.66-10.97 19.6-0.39 0.76-0.99 1.02a0.57 0.56 85.3 0 1-0.77-0.66c3.34-13.08 8.1-25.66 12.86-38.28a0.9 0.9 0 0 0-0.79-1.21q-2.08-0.12-2.83 2.47z" fill="#989296"/> <path d="m521.69 261.31c-6.79-2.29 4.26-11.61 8.24-2.54q0.23 0.5-0.17 0.89-3.33 3.26-8.07 1.65z" fill="#0c0809"/> <path d="m574.1 257.81a1.63 1.62 24.5 0 1 1.13 3.02q-5.27 2.74-10.8 5.6-0.43 0.22-0.81-0.17a0.77 0.77 0 0 1-0.09-0.95q3.72-5.87 10.57-7.5z" fill="#fefefe"/> <path d="m802.21 275.85q6.84-2.92 11.53-2.12l-5.29 4.66a1.73 1.73 0 0 0-0.16 2.44q2.2 2.52 5.55 2.52a1.28 1.28 0 0 1 1.2 1.71c-4.37 12.19-28.9 18.63-39.95 16.72-16.07-2.79-28.52-18.59-37.53-30.99a0.6 0.59-35.8 0 1 0.14-0.83q6.89-4.93 15.24-5.26c4.75-0.18 10.77 1.82 15.05 2.07q19.73 1.2 38.05-5.83c1.74-0.67 3.56-0.79 4.38 1.04q0.19 0.42-0.11 0.77-8.68 9.95-20.89 14.97-0.69 0.28 0.05 0.4c4.23 0.71 8.94-1.21 12.74-2.27z" fill="#0c0809"/> <clipPath id="b"> <path d="m786.42 297.34q9.33-1.11 14.71-7.48 0.29-0.34 0.33-0.79 0.4-4.02-2.96-3.64-17.29 1.93-33.61-1.81-5.13-3.68-10.11-3a0.64 0.64 0 0 0-0.55 0.73c0.71 4.53 6.01 8.78 9.75 10.42 8.09 3.54 12.98 7.12 22.44 5.57z"/> </clipPath> <g clip-path="url(#b)" fill="none"> <path d="m764.89 283.62q5.44 4.61 13.87 4.57 3.44-0.01 15.86 0.95 0.49 0.03 0.37 0.51-0.08 0.37-0.3 0.61c-0.36 0.39-8.06 2.15-9.76 3.02a0.85 0.85 0 0 0-0.46 0.8q0.12 1.98 1.95 3.26" stroke="#cbc8ca" vector-effect="non-scaling-stroke"/> </g> <path d="m722.96 315.5q9.37 10.15 14.05 22.19 0.39 1.2 0.05 1.34c-3.5-8.45-16.85-6.75-23.94-6.17a1.55 1.55 0 0 0-1.43 1.66l0.79 11.17q-10.27-1.09-17.79 8.33-1.06-1.56-2.04-2.07-0.44-0.24-0.89-0.02-1.06 0.49-1.18 1.58c-1.42-1.7 0.22-4.09-2.47-5.2-2.14-0.89-6.38 1.73-8.44 2.66a2.46 2.46 0 0 1-3.12-0.97l-17.75-29.46q5.4-8.08 8.95-17.57c2.89-7.72 3.87-16.95 5.31-25.52 0.9-5.41 2.36-10.4 3.92-15.52a1.42 1.42 0 0 1 2.68-0.1q5.27 13.46 6.43 27.91a3.16 3.15 0.4 0 0 2.85 2.89q17.6 1.64 25.84 17.07a1.53 1.51 87.8 0 0 0.69 0.65q4.58 2.09 7.49 5.15z" fill="#989296"/> <path d="m629.01 279.62q1.21-1.51-0.62-0.89-8.68 2.96-17.84 2.76a0.29 0.28-52.2 0 1-0.07-0.56l19.25-5.53a0.62 0.62 0 0 0 0.44-0.75q-0.15-0.62-0.88-0.46c-17.71 3.86-33.03 6.34-51.09 0.89a0.66 0.66 0 0 1 0.11-1.28c11.41-1.35 26.3 5.03 33.67-7.97 2.27-4.01 4.48-5.03 8.35-2.27q7.45 5.3 14.64 10.56a1.42 1.42 0 0 1 0.41 1.82c-3.2 5.92-8.58 8.89-14.62 11.31q-0.77 0.31-1.83-0.13-0.43-0.18 0-0.34 6.04-2.14 10.08-7.16z" fill="#fefefe"/> <path d="m592.86 510.49a0.93 0.93 0 0 0 1.3-0.76c2.43-26.77-3.27-52.78-9.34-77.43q-1.34-5.45-0.95-8.74c1.38-11.83 13.05-25.44 21.68-33.08a0.72 0.72 0 0 1 1.19 0.42c0.05 0.32 0.02 1.03-0.16 1.38-8.56 16.63-16.43 34.01-14.49 53.86 1.35 13.86 7.73 31.08 9.06 46.71q1.24 14.56-2.26 28.92-0.13 0.52-0.54 0.18c-27.34-22.67-48.09-50.21-56.97-84.68-3.28-12.77-4.72-28.54-6.65-42.71q-4.27-31.32-13.37-61.54c-3.2-10.61-4.26-18.2-2.61-28.19q0.44-2.61 3.74-13.35 3.43-11.1 4.91-22.58a0.37 0.37 0 0 1 0.72-0.04q0.08 0.34 0.31 0.37 0.43 0.07 0.46 0.51 1.72 24.94 22.37 38.52a1.56 1.56 0 0 1 0.11 2.53c-9.39 7.37-21.45 16-19.85 29.44q0.78 6.58 4.32 18.2 4.87 15.98 10.19 31.81 0.86 2.56 0.84 8.02c-0.03 12.66-5.84 25.19-2.12 38.74q1.86 6.78 8.72 21.91 13.52 29.82 38.35 51.1 0.21 0.19 0.49 0.28 0.43 0.14 0.55 0.2z" fill="#fefefe"/> <path d="m764.89 283.62q5.44 4.61 13.87 4.57 3.44-0.01 15.86 0.95 0.49 0.03 0.37 0.51-0.08 0.37-0.3 0.61c-0.36 0.39-8.06 2.15-9.76 3.02a0.85 0.85 0 0 0-0.46 0.8q0.12 1.98 1.95 3.26c-9.46 1.55-14.35-2.03-22.44-5.57-3.74-1.64-9.04-5.89-9.75-10.42a0.64 0.64 0 0 1 0.55-0.73q4.98-0.68 10.11 3z" fill="#989296"/> <path d="m764.89 283.62q16.32 3.74 33.61 1.81 3.36-0.38 2.96 3.64-0.04 0.45-0.33 0.79-5.38 6.37-14.71 7.48-1.83-1.28-1.95-3.26a0.85 0.85 0 0 1 0.46-0.8c1.7-0.87 9.4-2.63 9.76-3.02q0.22-0.24 0.3-0.61 0.12-0.48-0.37-0.51-12.42-0.96-15.86-0.95-8.43 0.04-13.87-4.57z" fill="#fefefe"/> <path d="m903.25 370.45c-9.2 7.12-19.82 14.76-31.51 14.34a0.89 0.89 0 0 0-0.71 1.46q1.63 1.95 3.97 2.68l4.19 2.5q1.04 1.64 0.16 2.67a0.88 0.87 27.9 0 1-0.9 0.27q-4.5-1.25-8.26-4.07c-1.02-0.77-2.95-0.49-4.1-1.37q-3-2.29-2.28-5.99 0.09-0.47-0.09-0.92-1.7-4.11-5.83-4.46-3.28-4.03 0.26-11.05l13 8.78q7.4 3.61 12.52-0.04 0.55-0.4 0.14-0.94-1.19-1.55-3.45-2.67c-7.65-4.43-18.94-8.91-19.24-18.96q-0.32-10.8-0.34-29.27l3.72-20.91q0.09-0.52 0.61-0.62 9.48-1.91 16.6-8.44a2.19 2.19 0 0 1 3.16 0.21q5.28 6.3 3.4 14.52-0.11 0.49 0.1 0.95c4.6 9.87 9.63 20.15 11.85 30.45q3.27 15.2 3.03 30.88z" fill="#fefefe"/> <clipPath id="a"> <path d="m875.1 324.69q4.59 12.48 4.14 25.25l-4.83 13.19a1.17 1.17 0 0 0 1.88 1.27l9.74-8.9 0.26-0.17q0.39-0.24 0.56 0.18l4.28 10.57q-4.22 1.07-3.46 3.96a1.13 1.12 73.9 0 0 1.43 0.79q9.3-2.95 8.51-9.16-0.27-13.63-3.49-25.43l-5.83-11.91-8.14-15.07a1.1 1.08-16.6 0 0-1.07-0.57l-7.79 0.69a0.62 0.62 0 0 0-0.54 0.8l4.35 14.51z"/> </clipPath> <g clip-path="url(#a)" fill="none"> <path d="m888.29 324.33 2.46 14.01" stroke="#262224" vector-effect="non-scaling-stroke"/> <path d="m890.75 338.34q0 3.28-2.2 2.49c-3.04-1.08-10.96-12.93-13.45-16.14" stroke="#524d50" vector-effect="non-scaling-stroke"/> <path d="m897.61 361.67q-2.13-2.15-2.8 0.14-1.11 3.81-3.68 4.27" stroke="#6c676b" vector-effect="non-scaling-stroke"/> <path d="m886.03 355.5q-0.03-0.13-0.15-0.25-0.13-0.13-0.31-0.11-4.71 0.47-4.5-4.63 0.02-0.54-0.5-0.73-0.55-0.2-1.33 0.16" stroke="#6c676b" vector-effect="non-scaling-stroke"/> <path d="m894.12 336.24-3.37 2.1" stroke="#6c676b" vector-effect="non-scaling-stroke"/> </g> <path d="m768.17 319.08c-14.55-2.88-32.1-11.59-40.84-24.16a0.74 0.74 0 0 1 0.31-1.1q0.36-0.16 0.87-0.1 0.37 0.04 0.78 0.33 29.05 20.49 64.86 15.44a0.99 0.99 0 0 1 0.77 1.74c-7.35 6.04-17.17 9.75-26.75 7.85z" fill="#fefefe"/> <path d="m888.29 324.33 2.46 14.01q0 3.28-2.2 2.49c-3.04-1.08-10.96-12.93-13.45-16.14l-4.35-14.51a0.62 0.62 0 0 1 0.54-0.8l7.79-0.69a1.1 1.08-16.6 0 1 1.07 0.57l8.14 15.07z" fill="#0c0809"/> <path d="m845.31 313.35-38.84 72.34a0.9 0.89-50.9 0 0 0.1 0.99q0.62 0.75 1.09 0.21 0.45-0.51 0.46-0.51 18.98-16.58 33.28-40.21 3.57-5.9 10.52-12.65 0.48-0.46 0.52 0.2 0.6 9.38-2.83 18.26-1.2 1.83-1.97 3.95-6.6 18.26-7.74 37.65-0.03 0.64 0.61 0.64h0.33a0.37 0.36-82.8 0 0 0.35-0.28c1.58-6.07 2.34-12.44 4.62-18.33q1.99-5.17 1.9-10.83-0.02-1.42 1.92-2.54-2.13 16.07-3.71 32.21c-1.11 11.31-0.95 25.07-2.17 36.55q-1.74 16.34-9.73 32.55-0.44 0.89 0 2.64 2.13 8.51-3.48 15.09-21.01 24.68-46.9 43.7a0.93 0.93 0 0 1-1.47-0.62q-1.2-8.64-0.58-17.39c0.55-7.9 3.69-12.04 1.86-20.62q-3.22-15.11-3.73-30.56-0.02-0.51 0.35-0.86 5.41-5.27 5.72-13.25 2.09-3.66-0.92-8.18c2.38-16.02-5.59-30.45-20.65-36.32q-1.08-0.42-0.3 0.44l5.8 6.42a1.32 1.32 0 0 1-1.38 2.15c-5.03-1.58-9.17-6.27-13.56-9.05a2.06 2.05-25.8 0 0-0.87-0.3q-2.65-0.28-1.74 2.1 0.62 1.66 0.57 3.15a1.29 1.28 18.9 0 1-2.03 0.99l-14.15-10.11q-1.8-1.28-2.51 0.81l-2.15 6.33a0.91 0.91 0 0 1-1.65 0.16l-6.65-11.62c9.38 2.04 19.74 5.71 29.25 5.19q8.46-0.47 17.28 1.26a0.88 0.88 0 0 0 0.94-1.29l-14.54-26.66-4.64-18.49c6.62 4.81 33.57 22.47 38.07 8.58 1.7-5.25-1.97-12.13-5.21-16.39a1.07 1.07 0 0 1 0.99-1.71c13.42 1.81 35.59 7.46 44.56-6.72q6.45-10.2 15.01-19.07z" fill="#989296"/> <path d="m673.93 334.57c-15.82-12.64 21.42-31.35 34.31-13.09a2.59 2.59 0 0 1-0.21 3.25c-8.2 8.86-22.04 19.48-34.1 9.84z" fill="#fefefe"/> <path d="m516.06 325.25q0.08 0.64-0.96 0.52-0.41-0.44-1.28-0.25-0.53 0.12-1.02 0.63-20.61 21.84-3.85 47.97 0.54 0.84 0.8-0.12l4.93-18.31c4.4 0.6 5.26 8.71 5.76 11.45-5.04 6.1-15.24 18.58-16.02 26.43-0.99 9.97 10.01 17.41 18.6 20.33a0.69 0.68-76.6 0 1 0.46 0.76c-0.67 4.2-3.67 4.66-7.19 3.31q-14.19-5.45-15.3-20.48c-0.29-3.85 1.22-10.12 0.53-13.74-3.63-19.17-2.49-36.38-0.45-52.18 0.79-6.09 7.55-13.14 11.81-17.22a0.6 0.6 0 0 1 1.01 0.31l2.17 10.59z" fill="#fefefe"/> <path d="m607.52 325.1q-7.82 2.42-15.22 2c-4.74-0.27-8.26 2.15-13.5 1.67 8.27-5.22 14.83-7.53 25.14-9.34q8.15-1.43 15.8-4.26a0.45 0.45 0 0 1 0.42 0.79l-12.64 9.14z" fill="#fefefe"/> <path d="m722.96 315.5q5.81 2.54 8.23 6.06 10.02 14.58 20.7 27.1l4.64 18.49-13.47-18.32-2.7-7.34a1.47 1.42-85.5 0 0-0.62-0.75q-1.73-1.01-2.73-3.05-4.68-12.04-14.05-22.19z" fill="#0c0809"/> <path d="m604.48 374.12q5.11-15.01 13.34-28.27 0.74-1.19-0.81-0.7a0.69 0.69 0 0 0-0.34 0.25q-4.03 5.74-9.01 10.7-0.37 0.37-0.54 0.85-0.27 0.73-0.87 1.29 0.08-0.06-0.14-0.21-0.21-0.15-0.37 0.06c-14.58 19.89-33.94-2.98-13.93-16.24 10.05-6.65 21.91-11.62 33.2-15.23 2.3-0.74 4.17-2.47 6.32-3.53a0.74 0.73 85.1 0 1 1.03 0.87c-5.55 18.16-16.6 35.07-27.88 50.16z" fill="#989296"/> <path d="m860.78 323.41q0.02 18.47 0.34 29.27c0.3 10.05 11.59 14.53 19.24 18.96l-9.21 3.65-13-8.78c0.41-4.02 1.33-8.05 1.27-12.14q-0.25-15.5 1.36-30.96z" fill="#989296"/> <path d="m888.29 324.33 5.83 11.91-3.37 2.1-2.46-14.01z" fill="#3f3c3f"/> <path d="m875.1 324.69c2.49 3.21 10.41 15.06 13.45 16.14q2.2 0.79 2.2-2.49l3.37-2.1q3.22 11.8 3.49 25.43-2.13-2.15-2.8 0.14-1.11 3.81-3.68 4.27l-4.28-10.57q-0.17-0.42-0.56-0.18l-0.26 0.17q-0.03-0.13-0.15-0.25-0.13-0.13-0.31-0.11-4.71 0.47-4.5-4.63 0.02-0.54-0.5-0.73-0.55-0.2-1.33 0.16 0.45-12.77-4.14-25.25z" fill="#989296"/> <path d="m607.52 325.1q-13.5 9.34-28.96 13.83c-5.2 1.52-9.31-3.03-11.03-7.53a1.28 1.28 0 0 1 1.08-1.73l10.19-0.9c5.24 0.48 8.76-1.94 13.5-1.67q7.4 0.42 15.22-2z" fill="#989296"/> <path d="m516.06 325.25c3.65 13.21 7.5 28.18 4.38 41.89-0.5-2.74-1.36-10.85-5.76-11.45q3.3-14.76 0.42-29.92 1.04 0.12 0.96-0.52z" fill="#989296"/> <path d="m515.1 325.77q2.88 15.16-0.42 29.92l-4.93 18.31q-0.26 0.96-0.8 0.12-16.76-26.13 3.85-47.97 0.49-0.51 1.02-0.63 0.87-0.19 1.28 0.25z" fill="#0c0809"/> <path d="m737.06 339.03q2.16 8.1 0.64 17.19-11.65-7.73-25.22-10.53l-0.79-11.17a1.55 1.55 0 0 1 1.43-1.66c7.09-0.58 20.44-2.28 23.94 6.17z" fill="#fefefe"/> <path d="m737.01 337.69q1 2.04 2.73 3.05a1.47 1.42-85.5 0 1 0.62 0.75l2.7 7.34-1.27 8.95q-0.72-3.1-4.09-1.56 1.52-9.09-0.64-17.19 0.34-0.14-0.05-1.34z" fill="#3f3c3f"/> <path d="m604.48 374.12-8.13 12.68a1.11 1.11 0 0 1-1.65 0.25c-4.07-3.42 9.48-25.58 11.55-28.81q0.6-0.56 0.87-1.29 0.17-0.48 0.54-0.85 4.98-4.96 9.01-10.7a0.69 0.69 0 0 1 0.34-0.25q1.55-0.49 0.81 0.7-8.23 13.26-13.34 28.27z" fill="#fefefe"/> <path d="m712.48 345.69q13.57 2.8 25.22 10.53 3.37-1.54 4.09 1.56-3.27 8.57-10.77 13.52-4.68-0.57-6.84 1.97-2.9 0.2-5.95 0.92-1.13 0.26-2.03-0.35a0.67 0.67 0 0 1 0.02-1.11l6.85-4.36a0.43 0.42 44.6 0 0-0.01-0.72q-4.83-3-10.04-5.16c-4-1.65-18.16 1.4-19.22-5.12q-0.33-2.02 0.89-3.35 7.52-9.42 17.79-8.33z" fill="#0c0809"/> <path d="m743.06 348.83 13.47 18.32 14.54 26.66a0.88 0.88 0 0 1-0.94 1.29q-8.82-1.73-17.28-1.26c-9.51 0.52-19.87-3.15-29.25-5.19l-1.75-1.81q-5.59-4.22-11.23-8.4c-2.75-2.04-5.88-3.02-8.9-4.93a0.84 0.82-46.4 0 0-0.93 0.03l-11.5 8.3q-8.18 13.78-8.98 29.2a1.25 1.24 14.3 0 0 0.72 1.2l6.45 2.99a1.15 1.14 49.1 0 0 0.8 0.06c8.71-2.42 16.21-5.04 25.45-3.55q19.66 3.17 38.03 10.35a0.49 0.49 0 0 1-0.25 0.94c-18.79-2.89-38.94-5.76-58.1-3.52-12.14 1.42-21.18-0.53-32.79-3.35a0.65 0.64 38.5 0 1-0.14-1.2l8.75-4.33a0.58 0.57-48.2 0 1 0.47-0.03l2.44 0.92q0.48 0.18 0.76-0.25 7.45-11.68 8.35-25.55a0.89 0.89 0 0 0-1.35-0.82q-7.29 4.37-12.21 11.26a1.19 1.19 0 0 1-2.05-1.21q4.61-9.6 12.9-16.19 0.43-0.35 0.99-0.4l10.97-0.89q1.4-0.12 1.3-1.52-0.75-10.33-1.59-19.94-0.12-1.39 0.37-2.5 0.12-1.09 1.18-1.58 0.45-0.22 0.89 0.02 0.98 0.51 2.04 2.07-1.22 1.33-0.89 3.35c1.06 6.52 15.22 3.47 19.22 5.12q5.21 2.16 10.04 5.16a0.43 0.42 44.6 0 1 0.01 0.72l-6.85 4.36a0.67 0.67 0 0 0-0.02 1.11q0.9 0.61 2.03 0.35 3.05-0.72 5.95-0.92 3.3 1.54 6.84-1.97 7.5-4.95 10.77-13.52l1.27-8.95z" fill="#fefefe"/> <path d="m886.03 355.5-9.74 8.9a1.17 1.17 0 0 1-1.88-1.27l4.83-13.19q0.78-0.36 1.33-0.16 0.52 0.19 0.5 0.73-0.21 5.1 4.5 4.63 0.18-0.02 0.31 0.11 0.12 0.12 0.15 0.25z" fill="#3f3c3f"/> <path d="m849.61 351.98q1.37 4.99 0.02 10.26-1.94 1.12-1.92 2.54 0.09 5.66-1.9 10.83c-2.28 5.89-3.04 12.26-4.62 18.33a0.37 0.36-82.8 0 1-0.35 0.28h-0.33q-0.64 0-0.61-0.64 1.14-19.39 7.74-37.65 0.77-2.12 1.97-3.95z" fill="#fefefe"/> <path d="m897.61 361.67q0.79 6.21-8.51 9.16a1.13 1.12 73.9 0 1-1.43-0.79q-0.76-2.89 3.46-3.96 2.57-0.46 3.68-4.27 0.67-2.29 2.8-0.14z" fill="#3f3c3f"/> <path d="m903.25 370.45q-0.5 21.04-18.17 29.31-3.14 1.48-6.32 1.22c-13.32-1.05-17.07-12.39-20.87-23.42q4.13 0.35 5.83 4.46 0.18 0.45 0.09 0.92-0.72 3.7 2.28 5.99c1.15 0.88 3.08 0.6 4.1 1.37q3.76 2.82 8.26 4.07a0.88 0.87 27.9 0 0 0.9-0.27q0.88-1.03-0.16-2.67 8.53 1.5 12.09-5.61a1.04 1.04 0 0 0-1.51-1.32q-5.2 3.54-11.32 1.59-0.5-0.16-0.99 0.02-1.78 0.64-2.46 2.82-2.34-0.73-3.97-2.68a0.89 0.89 0 0 1 0.71-1.46c11.69 0.42 22.31-7.22 31.51-14.34z" fill="#989296"/> <path d="m731.02 371.3q-3.54 3.51-6.84 1.97 2.16-2.54 6.84-1.97z" fill="#3f3c3f"/> <path d="m880.36 371.64q2.26 1.12 3.45 2.67 0.41 0.54-0.14 0.94-5.12 3.65-12.52 0.04l9.21-3.65z" fill="#3f3c3f"/> <path d="m721.85 386.84q-1.12 0.63-1.71 1.51-0.3 0.45-0.09 0.95 0.49 1.19 1.23 2.24 0.22 0.31 0.24 0.55 0.05 0.47-0.3 0.59a1.15 1.14 60.6 0 1-1.26-0.36c-3.04-3.69-10.76-15.83-16.44-14.41q-6.13 1.52-9.86 6.62-0.33 0.45-0.77 0.11l-3.6-2.8 11.5-8.3a0.84 0.82-46.4 0 1 0.93-0.03c3.02 1.91 6.15 2.89 8.9 4.93q5.64 4.18 11.23 8.4z" fill="#989296"/> <path d="m879.19 391.43-4.19-2.5q0.68-2.18 2.46-2.82 0.49-0.18 0.99-0.02 6.12 1.95 11.32-1.59a1.04 1.04 0 0 1 1.51 1.32q-3.56 7.11-12.09 5.61z" fill="#3f3c3f"/> <path d="m629.32 392.75a0.79 0.78 20.2 0 1 0.43 0.92q-0.16 0.56-0.76 0.8-10.96 4.26-22.01 8.36a0.53 0.53 0 0 1-0.67-0.72l4.76-10.4q0.26-0.57 0.87-0.71 9.01-2.05 17.38 1.75z" fill="#fefefe"/> <path d="m894.81 406.05-0.84-2.65 8.36-0.59a0.4 0.4 0 0 1 0.29 0.69q-0.11 0.11-0.21 0.22-0.23 0.25-0.55 0.34l-7.05 1.99z" fill="#989296"/> <path d="m895.84 517.05-0.11-1.08c6.27-8.26 12.82-24.71 9.04-35.52-3.29-9.41-9.08-18.22-14.14-26.79q-0.26-0.44-0.16-0.94 1.73-9.11 4.26-17.97c3.11-10.88-0.4-18.38-6.54-27-0.95-1.34-1.03-2.81-0.01-4q0.4-0.46 0.85-0.05c6.91 6.34 13.14 12.4 11.28 22.87-1.87 10.56-3.06 20.01 0.49 30.37 1.36 3.95 5.35 8.45 6.86 13.45 4.98 16.42 9.53 32.85-3.63 47.11q-0.74 0.81-0.47-0.25l7.21-28.5a0.61 0.61 0 0 0-0.78-0.73c-1.06 0.34-1.79 1.39-2 2.54q-2.63 14.26-9.97 27.15a1.38 0.78 14.8 0 1-1.3 0.34q-0.28-0.06-0.88-1z" fill="#989296"/> <path d="m785.87 459.4a0.49 0.48 32.6 0 1-0.14-0.61q10.14-19.4 20.26-39.01 1.36-2.63 2.17-0.53a0.92 0.9 44.5 0 1 0.01 0.6q-6.28 17.42-15.68 32.58-2.47 3.97-5.86 7.21-0.19 0.19-0.76-0.24z" fill="#3f3c3f"/> <path d="m513.06 513.03c-4.76-9.62-6.52-17.89-7.27-29.68q-0.62-9.57-1.54-19.13c-1.4-14.39-1.21-24.52 2.4-37.07a0.67 0.67 0 0 1 1.31 0.08q2.85 18.8 5.69 37.34c0.19 1.22 0.25 2.23-0.36 3.4-6.94 13.13-3.83 26.98-0.28 39.47q0.91 3.18 0.93 5.38a0.46 0.46 0 0 1-0.88 0.21z" fill="#989296"/> <path d="m762.26 440.33q-17.06 7.23-35.47 9.94c-2.7-4.51-8.29-5.73-13.18-5.83q-27.18-0.59-54.36 0.35-5.08 0.17-9.99-1.4a0.33 0.33 0 0 1-0.03-0.61c10.04-4.29 20.73-8.5 31.77-9.01q39.56-1.82 80.12 0.66a0.91 0.9 0.4 0 1 0.85 0.85l0.29 5.05z" fill="#fefefe"/> <path d="m784.87 433.5q3.01 4.52 0.92 8.18-0.57-2.01-2.21-3.8-0.35-0.39-0.32-0.91 0.09-2.1 1.61-3.47z" fill="#3f3c3f"/> <path d="m726.79 450.27q18.41-2.71 35.47-9.94l3.87-0.55a2.13 2.12-3.2 0 1 2.43 2.17q-0.45 14.41-1.86 29.04c-0.53 5.59-0.9 10.95-3.22 15.71-2.06 4.25-6.44 8.93-7.83 13.87q-0.94 3.37-1.14 6.9a1.15 1.15 0 0 1-1.69 0.95c-2.03-1.08-6.29-4.62-8.19-1.98-3.92 5.45-9.68 14.2-15.39 13.14a0.71 0.7-72.5 0 0-0.77 0.41l-1.31 3a2.45 2.45 0 0 1-3.59 1.06q-6.01-3.94-9.31-10.32a1.32 1.31 58.1 0 0-1.95-0.46l-6.64 4.92a0.46 0.46 0 0 1-0.72-0.47q1.43-5.95-1.9-10.85-0.3-0.45-0.28-1 0.09-1.79 0.45-3.48c1.54-7.4-4.9-10.63-10-13.79a1.17 1.17 0 0 1-0.42-1.53l8.84-16.79a0.68 0.67-34.1 0 1 1.27 0.24l0.43 4.2a1.73 1.72 88.6 0 0 1.62 1.55l5.75 0.3a1.02 1.01-87.8 0 0 1.07-1q0.15-12.99-3.33-25.5a0.88 0.87 84.4 0 1 0.91-1.11l17.43 1.31z" fill="#989296"/> <path d="m680.6 467.38-1.66 1.06a1.03 1.03 0 0 1-1.51-1.22l5.15-14.02a2.18 2.17 7.8 0 1 1.87-1.41l7.82-0.61a0.64 0.64 0 0 1 0.65 0.87q-3.31 8.68-9.78 15.32-0.34 0.35-0.8 0.18l-0.69-0.27q-0.55-0.21-1.05 0.1z" fill="#989296"/> <ellipse transform="translate(671.98,463.34) rotate(108.8)" rx="8.97" ry="1.57" fill="#989296"/> <path d="m841.49 498.72q-2.1 0.13-2.02 2.53 2.39 69.98 2.29 129.49-0.02 9.99-1.44 15.38c-2.57 9.75-8.47 18.33-14.5 26.31a1.61 1.6-24.6 0 0-0.33 0.88q-0.06 1.27 0.41 1.22l-3.69 5.02q-18.42 19.34-40.28 34.84c-4.1 2.9-7.09 6.4-10.1 10.13q-0.83 1.02-2.14 0.99l-60.04-1.48q11.37-22.13 22.05-42.9c8.23-15.99-1.58-26.07-10.6-37.75-11.87-15.38-6.5-33.86 6.73-46.3q20.43-19.19 41.1-38.14 34.03-31.21 62.25-67.75 6.84-8.86 8.8-19.69a0.37 0.37 0 0 1 0.74 0.06l0.77 27.16z" fill="#989296"/> <path d="m825.06 476.11c0.43-0.48 0.82-1.36 1.5-1.75a0.37 0.37 0 0 1 0.53 0.47c-6.91 15.95-27.42 29.81-41.66 38.85q-0.26 0.16-0.44 0.08-0.32-0.14-0.05-0.37c14.01-11.85 27.91-23.5 40.12-37.28z" fill="#0c0809"/> <path d="m712.19 500.31q-9.52-8.42-9.38-21.84 0.01-0.45 0.43-0.61 4.58-1.63 7.28-0.82 17.27 5.17 34.09-0.51c5.65-1.91 10.29-1.29 13.04 4.33q0.23 0.47 0.09 0.98-1.89 6.76-7.85 11.3c-11.41 8.67-24.1 19.22-37.7 7.17z" fill="#fefefe"/> <path d="m659.58 509.08c-4.85-2.96-12.61-9.41-10.83-16.02 1.95-7.27 21.67-9.49 28.47-10.14q0.51-0.05 0.88 0.3 1.11 1.04-0.03 2.6-8.48 11.59-16.94 22.96a1.18 1.18 0 0 1-1.55 0.3z" fill="#989296"/> <path d="m561.33 488.84a0.4 0.4 0 0 1 0.78-0.15q1.23 4.05 1.79 8.54 6.96 55.08 13.02 111.85a0.49 0.49 0 0 1-0.95 0.23c-3.86-10.3-3.19-21.99-4.58-33.1q-5.44-43.48-10.06-87.37z" fill="#fefefe"/> <path d="m678.51 496.72a0.96 0.96 0 0 1 0.97 0.95v0.42a4.6 4.23 89.4 0 1-4.18 4.65h-0.3a4.6 4.23 89.4 0 1-4.28-4.55v-0.42a0.96 0.96 0 0 1 0.95-0.97l6.84-0.08z" fill="#3f3c3f"/> <path d="m841.49 498.72 4.76 81.72 0.39 6.33q0.91 18.12 1.75 36.3c0.36 7.69-0.02 13.64-3.06 20.85q-7.07 16.78-19.43 30.61-0.47 0.05-0.41-1.22a1.61 1.6-24.6 0 1 0.33-0.88c6.03-7.98 11.93-16.56 14.5-26.31q1.42-5.39 1.44-15.38 0.1-59.51-2.29-129.49-0.08-2.4 2.02-2.53z" fill="#fefefe"/> <path d="m895.73 515.97 0.11 1.08q-4.07 3.14-7.9 6.53-0.24 0.21-0.46 0.22-0.17 0-0.29-0.07-0.3-0.18-0.03-0.41l8.57-7.35z" fill="#3f3c3f"/> <path d="m854.69 578.82q2.47 2.22 3 3.24 10.35 19.86 19.49 40.64c10.48 39.76-6.41 71.48-24.42 104.84q-1.1 2.04-2.61 9.39-2.68 13.07-5.58 26.08c-19.35 86.78-54.66 169.97-108.53 240.76q-11.33 14.88-26.14 28.14c-2.02 1.81-3.36 2.17-5.88 1.42a0.85 0.85 0 0 1-0.28-1.48c5.52-4.39 10.31-9 15.19-14.63 82.51-95.27 121.48-219.99 138.15-342.72a2.18 2.17 82 0 1 1.25-1.67c3.77-1.72 5.56-7.92 0.86-10.01-4.6-2.04-8.38 2.25-6.47 7.01 2.58 6.45 1 16.37-0.09 23.1q-2.32 14.43-7.49 36.75-1.4 6.02-4.56 9.9c-29.12 35.69-67.42 58.16-114.58 57.56-28.97-0.37-58.13-7.48-84.83-17.3-67.4-24.78-100.22-93.48-80.58-161.5 2.79-9.68 5.4-19.08 8.45-28.6a1.33 1.32 89.1 0 1 0.82-0.85q1.04-0.39 1.33 0.37 0.13 0.35-0.01 0.97c-9.18 42.89 21.96 83.77 51.28 111.07 5.37 5 11.63 10.17 15.53 15.77 10.73 15.38 9.66 34.81 14.51 52.37q0.13 0.47 0.39 0.71 0.71 0.63 1.3-0.33a1.13 1.1-34.6 0 0 0.15-0.77l-7.24-42.46q-0.21-1.19 1-1.17l59.93 1.18 59.9 1.96a0.72 0.72 0 0 1 0.7 0.75l-1.71 44.16a0.49 0.49 0 0 0 0.81 0.38q1.89-1.68 1.92-4.67c0.1-13.58-2.14-43.22 12.5-51.15a0.45 0.45 0 0 1 0.63 0.58c-7.69 17.5-8.29 38.14-8.26 56.95 0 1.84-0.54 3.51 1.94 3.83q0.56 0.07 0.84-0.42 0.59-1.07 0.47-2.72-1.12-15.85 1.16-34.01c1.02-8.18 3.19-20.13 8.81-27.47q1.86-2.43 8.73-7.76 15.25-11.8 27.79-26.43c19.39-23.09 51.69-75.31 23.64-103.3a1.45 1.44-45.1 0 1 0-2.05l0.35-0.35q0.38-0.39 0.83-0.07l5.61 4.01z" fill="#fefefe"/> <path d="m855.84 577.66c6.5 6.56 10.55 15.75 14.63 23.96 4.05 8.13 19.15 16.81 28.07 21.95 90.96 52.39 183.47 101.67 276.41 150.42a1.36 1.36 0 0 0 1.99-1.09c0.46-5.26 6.22-2.88 8.99-1.04q15.45 10.27 30.4 21.24 9.59 7.03 13.7 12.09c8.65 10.66 13.61 26.21 17.19 37.32q16.15 50.25 26.27 95.99c7.32 33.05 9.78 68.06 10.21 104.25 0.25 21.41 1.72 41.63-2.95 62.81q-4.58 20.77-9.76 41.43a1.62 1.61-70.1 0 0 0.87 1.86c17.77 8.47 32.2 19.24 40.58 37.68 6.65 14.63 13.24 30.47 20.3 43.9 13.74 26.16 31.59 50.44 51.95 72.38 5.2 5.61-0.49 24.92-2.3 31.73q-13.78 51.89-21.67 104.98c-3.39 22.86-4.66 46.12-7.21 69.1q-0.06 0.56-0.62 0.58l-2.4 0.05q-0.1-1.59 0.83-2.88 0.3-0.42 0.33-0.93 3.4-60.36 14.54-113.2 4.09-19.41 18.24-79.56c0.83-3.49-0.38-7.38-3.02-10.23q-21.96-23.68-39.62-50.74c-12.39-18.98-19.26-37.28-27.92-56.62-9.2-20.56-22.44-36.51-43.91-44.36a2.38 2.37 17.7 0 1-1.48-2.86q6.27-22.61 10.23-46c2.49-14.78 3.05-27.86 2.63-42.68q-1.22-43.07-4.4-78.11-1.65-18.13-4.71-33.07-12.2-59.56-32.25-119.39c-2.11-6.31-4.02-12.31-7.81-17.29-12.28-16.12-33.2-29.24-50.92-40.01a1.07 1.06 28.7 0 0-1.5 0.43l-2 4q-0.76 1.52-2.27 0.75c-101.75-51.85-202.14-106.24-299.95-165.28a0.37 0.37 0 0 0-0.51 0.49l4.47 8.33q-1.63-0.51-2.31 2.66-9.14-20.78-19.49-40.64-0.53-1.02-3-3.24 0.38-1.08 1.15-1.16z" fill="#3f3c3f"/> <path d="m846.25 580.44q0.99 2.66 0.39 6.33l-0.39-6.33z" fill="#3f3c3f"/> <path d="m478.39 1224.8q-0.52-1.3-1.95-1.87 0.57-0.34 0.57-0.47a1.33 1.32-7.3 0 0-1.7-1.31c-17.64 5.19-31.16 16.06-44.44 28.19a0.28 0.28 0 0 1-0.42-0.36l7.43-11.11a0.96 0.96 0 0 0-1.15-1.42q-37.59 15.03-70.98 36.39-1.47-0.1-2.03-1.59l24.51-18.55a0.38 0.38 0 0 0-0.37-0.66l-86.29 35.92q-8.71-0.23-16.27 3.49l-16.89 5.12a1.7 1.7 0 0 0-1.12 1.13c-7.54 24.21-8.97 47.89-9.82 73.04q-2.14 1.63-3.44 0.8l0.8-37.03a0.58 0.58 0 0 0-0.98-0.43q-24.79 23.83-52.12 44.71-2.63 2.02-0.26-0.29l31.08-30.16a0.35 0.34-38.7 0 0 0.05-0.44q-0.22-0.32-0.58-0.09c-2.43 1.53-4.94 4.13-7.66 5.27-9.15 3.81-14.73 0.81-24.71-3.58q-14.4-6.33-28.53-12.58a2.36 2.36 0 0 0-2.91 0.83c-32.92 48.41-59.52 96.3-88.93 152.05-7.92 15.01-21.77 19.58-30.48 1.75-14.93-30.55-22.53-64.71-29.37-97.81q-0.34-1.62-1.71-1.08a1.22 1.22 0 0 0-0.73 1.41q13.7 56.91 21.87 115.21l-6.17-0.08q-15.76-93.07-27.47-186.67c-1.04-8.39-3.27-27.95 1.31-35.13 12.6-19.75 26.31-40.79 34.64-62.96 11.9-31.71 15.85-66.39 21.86-99.56 1.7-9.43 3.77-19.21 6.43-28.34q26.26-90.41 55.91-179.77c9.91-29.87 20.75-53.15 35.59-85.51q15.38-33.54 23.92-63.59c0.89-3.12 2.43-4.3 5.19-5.56q19.38-8.84 24.98-11.05 71.35-28.16 139.39-49.33c13.97-4.34 25.64-7.59 38.02-13.8q49.4-24.81 100.3-46.4c3.54-1.51 7.77-3.92 10.32-5.92q24.64-19.37 51.03-36.19l10.01-4.48q2.21-0.99 1.41 1.29c-0.73 2.11-3.07 4.12-5.19 5.53q-27.15 18.08-53.14 37.8c-4.52 3.43-10.69 7.8-15.96 10.07q-49.55 21.33-89.72 41.2c-8.6 4.25-15.17 7.73-24.01 10.47q-91.5 28.34-180.19 64.57-1.73 0.71-4.66 2.72-0.41 0.28-0.54 0.75-9.83 33.93-25.67 68.67c-12.71 27.89-22.21 46.27-31.44 74.02-18.21 54.8-35 109.91-51.56 165.21q-9.29 31-14.45 61.54c-5.96 35.3-11.64 70.7-26.77 101.2q-9.85 19.88-29.48 51.32c-1.77 2.83-2.44 7.09-2.03 10.75q5.34 48.67 16.28 104.48 8.69 44.34 25.03 82.7c5.33 12.51 16.54 11.84 22.79 0.76q30.37-53.87 60.79-107.71c9.59-16.96 19.98-33.18 31.06-49.07 1.21-1.75 2.74-2.11 4.73-1.13 13.87 6.89 28.56 14.23 43.81 17.36 3.04 0.62 5.53 0.97 8.16-1.13q14.32-11.42 28.44-22.57a4.48 4.47-12.5 0 0 1.6-2.5l7.48-31.45a1.78 1.76 87.6 0 1 1.16-1.27c10.04-3.25 20.11-6.28 30-10.19 37.67-14.91 75.74-29.2 114.19-41.97q26.52-8.8 52.91-17.99c9.97-3.47 21.1-6.36 31.73-4.2a1.74 1.74 0 0 1 1.29 2.32q-4.28 11.54-13.61 19.56a0.33 0.33 0 0 1-0.48-0.45c1.83-2.42 5.16-6.14 4.61-9.3q-0.63-3.58-4.3-3.5z" fill="#989296"/> <path d="m553.43 597.86q0.65 0.34 0.68 1.53-26.39 16.82-51.03 36.19c-2.55 2-6.78 4.41-10.32 5.92q-50.9 21.59-100.3 46.4c-12.38 6.21-24.05 9.46-38.02 13.8q-68.04 21.17-139.39 49.33-5.6 2.21-24.98 11.05c-2.76 1.26-4.3 2.44-5.19 5.56q-8.54 30.05-23.92 63.59c-14.84 32.36-25.68 55.64-35.59 85.51q-29.65 89.36-55.91 179.77c-2.66 9.13-4.73 18.91-6.43 28.34-6.01 33.17-9.96 67.85-21.86 99.56-8.33 22.17-22.04 43.21-34.64 62.96-4.58 7.18-2.35 26.74-1.31 35.13q11.71 93.6 27.47 186.67l-2.22 0.04q-0.55 0.01-0.64-0.54-17.17-98.62-28.25-198.1c-1.03-9.24-0.93-18.51 4.18-26.82 8.95-14.56 19.09-29.74 26.18-44.74 22.69-47.99 23.19-100.42 37.52-150.14q23.22-80.63 53.32-171.57c5.1-15.41 8.75-27.6 15.24-41.3 17.07-36.06 33.94-71.04 44.82-109.62 1.12-3.97 3.35-6.15 6.92-7.62q87.32-35.95 166.81-60.17 12.67-3.86 21.61-7.14 7-2.56 18.26-8.11c33.87-16.67 59.39-27.82 89.32-41.37 24.71-11.18 43.94-31.16 67.67-44.11z" fill="#3f3c3f"/> <path d="m1350.5 1509.2-6.39 0.24q2.88-37.57 5.74-61.92c5.31-45.34 17.14-91.7 28.63-136.84a2.2 2.19-59.3 0 0-0.51-2.02q-12.64-13.67-24.36-28.58c-21.05-26.76-37.2-58-49.41-90.48-6.8-18.1-18.62-26.1-35.04-33.81-5.59-2.63-7.75-6.73-6.37-12.83 5.57-24.71 12.02-48.21 11.95-73.82-0.11-39.43-1.64-78.02-9.12-116.41q-12.25-62.86-33.36-123.28c-3.13-8.96-7.23-16.44-13.56-22.46q-11.33-10.78-28.15-21.83-0.41-0.27-0.9-0.27-12.46-0.02-24.3-6.05c-94.35-48.08-186.93-96.94-278.43-152.78q-4.73-2.89-7.42-6.07l-4.47-8.33a0.37 0.37 0 0 1 0.51-0.49c97.81 59.04 198.2 113.43 299.95 165.28q1.51 0.77 2.27-0.75l2-4a1.07 1.06 28.7 0 1 1.5-0.43c17.72 10.77 38.64 23.89 50.92 40.01 3.79 4.98 5.7 10.98 7.81 17.29q20.05 59.83 32.25 119.39 3.06 14.94 4.71 33.07 3.18 35.04 4.4 78.11c0.42 14.82-0.14 27.9-2.63 42.68q-3.96 23.39-10.23 46a2.38 2.37 17.7 0 0 1.48 2.86c21.47 7.85 34.71 23.8 43.91 44.36 8.66 19.34 15.53 37.64 27.92 56.62q17.66 27.06 39.62 50.74c2.64 2.85 3.85 6.74 3.02 10.23q-14.15 60.15-18.24 79.56-11.14 52.84-14.54 113.2-0.03 0.51-0.33 0.93-0.93 1.29-0.83 2.88z" fill="#989296"/> <path d="m635.21 1016.6q-4.86-4.04-7.83-9.02c-9.81-16.49-16.83-35.02-23.12-53.1q-31.84-91.54-50.34-185.67c-2.54-12.92-5.3-29.38-6.82-40.13q-7.09-50.4 6.77-100.32a0.39 0.39 0 0 1 0.4-0.29q0.98 0.07 0.75 1.17c-2.91 14.25-5.94 29.24-6.74 43.29-1.52 26.73 1.95 54.1 6.91 80.22 15 79.02 35.86 162.67 67.58 236.69q4.8 11.2 15.47 24.74a0.79 0.77-46.1 0 1 0.01 0.94l-0.93 1.23a1.47 1.47 0 0 1-2.11 0.25z" fill="#fefefe"/> <ellipse transform="translate(856.39,666.85) rotate(-19.4)" rx="2.48" ry="1.94" fill="#fefefe"/> <path d="m822.21 679.55q0.89 0.74 2.05 1.03-12.54 14.63-27.79 26.43-6.87 5.33-8.73 7.76c-5.62 7.34-7.79 19.29-8.81 27.47q-2.28 18.16-1.16 34.01 0.12 1.65-0.47 2.72-0.28 0.49-0.84 0.42c-2.48-0.32-1.94-1.99-1.94-3.83-0.03-18.81 0.57-39.45 8.26-56.95a0.45 0.45 0 0 0-0.63-0.58c-14.64 7.93-12.4 37.57-12.5 51.15q-0.03 2.99-1.92 4.67a0.49 0.49 0 0 1-0.81-0.38l1.71-44.16a0.72 0.72 0 0 0-0.7-0.75l-59.9-1.96q1.35-0.32 1.62-2.57l60.04 1.48q1.31 0.03 2.14-0.99c3.01-3.73 6-7.23 10.1-10.13q21.86-15.5 40.28-34.84z" fill="#3f3c3f"/> <path d="m615.82 712.18q-0.43-0.43-0.62-0.97a0.28 0.27-79.1 0 1 0.44-0.3q9.29 8.31 17.59 17.86c6.61 7.59 7.71 12.88 9.92 23.8q2.35 11.66 3.43 23.52 0.04 0.44-0.38 0.57-1.35 0.42-1.46-0.66-1.53-14.69-3.88-27.23c-2.95-15.76-14.22-25.87-25.04-36.59z" fill="#0c0809"/> <path d="m494.52 768.5a0.64 0.63-76.2 0 1 0.84-0.51q1.17 0.41 0.85 2.3-7.05 41.77-14.09 83.56c-1.33 7.89-3.17 16.14-5.64 23.74q-23.83 73.53-48.54 146.77-0.25 0.74-0.84 0.58a0.64 0.64 0 0 1-0.44-0.81q20.87-65.55 41.81-130.89c12.76-39.81 20.54-86.39 26.05-124.74z" fill="#3f3c3f"/> <path d="m896.84 1156.7c-0.03 1.68 0.18 4.52-0.19 6.85a0.64 0.64 0 0 1-1.28-0.09c-0.32-11.98 0.06-26.6 0.03-36.02q-0.32-99.96-0.64-199.93c-0.06-16.84-1.95-39.24-3.85-58.88q-2.96-30.75-4.35-61.62-0.1-2.24 0.14-4.22a0.44 0.44 0 0 1 0.87 0.02c3.09 40.65 8.88 83.46 11.18 125.46q0.51 9.3 0.48 19.99-0.29 104.23-2.39 208.44z" fill="#3f3c3f"/> <path d="m186.25 821.42q0.07 1.73-0.38 4.41-11.31 66.76-16.36 98.92-0.72 4.58 0.56 10.19 17.58 76.6 34.51 153.35 0.2 0.93 0.18 1.54a0.49 0.49 0 0 1-0.97 0.09q-18.16-78.96-36.65-157.44c-0.6-2.56-0.65-6.68-0.19-9.3 4.55-25.47 9.8-50.9 13.45-76.51q1.82-12.82 5.32-25.31 0.46-1.62 0.53 0.06z" fill="#3f3c3f"/> <path d="m667.64 946.56q-0.09-0.04-0.43-0.18-0.22-0.09-0.46-0.1-24.67-0.62-47.99 4.83-1.39 0.33-1.41-1.09l-0.4-26.27a1.11 1.11 0 0 1 1.33-1.1q24.48 4.95 49.47 4.16a0.74 0.73 89.6 0 0 0.71-0.73q0.09-20.66-3.97-40.57-0.8-3.92-1.1-5.76-0.13-0.75 0.63-0.75h29.01a1.13 1.13 0 0 1 1.11 1.37q-4.91 22.8-4.37 46.14a0.76 0.76 0 0 0 0.74 0.74q24.37 0.43 48.18-4.72 0.56-0.12 0.56 0.45v27.51q0 0.74-0.72 0.57-23.68-5.75-48.05-4.71a1.06 1.05-2.2 0 0-1.01 1.08l1.95 75.15a0.46 0.45-77.2 0 1-0.66 0.42l-22.94-11.78a0.77 0.77 0 0 1-0.42-0.7l1.16-62.53a1.55 1.54-77.9 0 0-0.92-1.43z" fill="#fefefe"/> <path d="m1104.9 1239.4q-1.13-0.42-0.78-1.42c6.59-18.97 13.63-37.79 20.07-56.81q43.37-128.06 85.06-256.68 0.35-1.06 1.21-1.9 0.71-0.69 0.49 0.28-0.47 2.08-1.06 3.99c-32.68 104.61-64.78 209.7-104 312.1a0.77 0.77 0 0 1-0.99 0.44z" fill="#3f3c3f"/> <path d="m1095.7 928.48a0.37 0.37 0 0 1 0.64-0.04q0.36 0.52 0.01 1.34c-8.29 19.36-18.39 37.27-22.1 56.83q-16.13 85.09-33.56 170.07a0.51 0.51 0 0 1-1-0.02q-0.37-2.47 0.15-5.18 15.93-83.77 32.32-167.44c0.53-2.69 1.01-5.31 2.09-7.88q9.97-23.8 21.45-47.68z" fill="#3f3c3f"/> <path d="m1156.5 928.88a0.26 0.25-61.9 0 1 0.38-0.12q0.3 0.21 0.11 0.73-17.85 49.56-34.92 91.78c-15.77 39.03-39.56 84.25-54.47 117.05q-3.97 8.71-4.27 20.75-0.34 13.48-1.4 26.91-0.13 1.63-1.31 1.5a0.72 0.71-87.8 0 1-0.64-0.7c-0.25-17.46-1.47-37.1 6.29-53.24q16.78-34.94 33.58-69.85c21.22-44.07 37.98-89.7 56.65-134.81z" fill="#3f3c3f"/> <path d="m231.38 954.06c34.25 73.67 69.77 152.03 93.36 206.48 5.05 11.64 9.04 27.02 12.98 40.76q7.23 25.22 14.35 50.47 0.27 0.97 0.13 1.57a0.54 0.54 0 0 1-1.04 0.03c-10.85-36.18-20.97-72.32-36.16-106.98q-42.03-95.92-84.48-191.86a0.61 0.6 58.8 0 1 0.17-0.72q0.42-0.33 0.69 0.25z" fill="#3f3c3f"/> <path d="m1234.1 1058.5a0.69 0.69 0 0 0-1.32-0.08q-19.24 52.5-38.59 104.95c-1.33 3.6-3.53 7.34-6.04 10.16q-56.37 63.47-111.9 127.48a1.1 1.1 0 0 1-1.93-0.63q-0.09-1.12 0.93-2.36 54.94-66.2 111.5-131.02 2.49-2.85 5.17-10.04 29.33-78.52 58.68-157.03 0.27-0.73 0.82-1.07a0.28 0.28 0 0 1 0.41 0.33q-7.08 21.36-13.04 42.77c-2.07 7.45-3.65 11.94-1.94 20.07q8.53 40.74 16.6 81.57 0.1 0.5 0.46 0.85c19.45 19.08 34.63 41.4 51.19 62.87a0.33 0.33 0 0 1-0.5 0.42l-57.29-61.68a3.25 3.23-70.6 0 1-0.84-1.77q-5.83-42.47-12.3-85.48-0.03-0.18-0.07-0.31z" fill="#989296"/> <path d="m655.83 1023.8c-7.19-1.22-9.17-7-9.39-13.39q7.07-3.71 14.57-1.62c2.7 0.76 3.14 3.18 5.43 4.42 10.07 5.47 20.68 10.39 30.13 16.89a1.69 1.69 0 0 1-1.35 3.03l-39.39-9.33z" fill="#fefefe"/> <path d="m646.44 1010.4c0.22 6.39 2.2 12.17 9.39 13.39-10.59 7.12-21.18 14.07-33.12 18.45a1.02 1.02 0 0 1-1.26-1.42q8.95-17.78 24.99-30.42z" fill="#989296"/> <path d="m655.43 1037q-5.46 0.54-8.79-2.19l11.54-7.9a1.1 1.09 36.2 0 1 0.93-0.14q27.94 8.56 56.79 12.45c3.08 0.42 5.36 1.46 7.77 3.1a1.37 1.36 62 0 1-0.76 2.49c-23 0.09-44.73-7.18-67.48-7.81z" fill="#fefefe"/> <path d="m646.64 1034.8q3.33 2.73 8.79 2.19c-13.59 6.34-23.64 13.79-35.37 20.85a1.13 1.13 0 0 1-1.66-0.62q-1.72-5.16-6.47-7.81a0.83 0.83 0 0 1 0.11-1.5l34.6-13.11z" fill="#989296"/> <path d="m788.19 1040.3q4.84 7.17 5.86 13.64-8.81 12.03-19.72 3.54-3.52-3.59-4.06-8.51a2.05 2.03 62.1 0 1 0.46-1.52q6.91-8.22 17.46-7.15z" fill="#fefefe"/> <path d="m772.53 1059c5.27 8.47 16.5 5.19 22.33-0.73q0.3-0.3 0.37-0.73l0.35-2.32q0.76-0.2 1.05 0.32c-0.23 1.74-0.17 3.22-1.46 4.58q-5.43 5.77-13.18 7.29-15.54-0.79-28.31 1.2c-12.07 1.87-27.29 5.9-39.7 6.74q-13.35 0.9-26.25-0.39-10.43-1.05-9.59-11.87a1.01 0.98-15.5 0 1 0.43-0.73q15.15-10.46 33.14-14.05l60.33-7.97a0.81 0.81 0 0 1 0.7 1.35l-4.78 5.18a1.17 1.13-28.3 0 0-0.3 0.95q0.92 6.15 4.87 11.18z" fill="#fefefe"/> <path d="m788.19 1040.3q10.41 4.06 8.44 15.25-0.29-0.52-1.05-0.32-0.54-0.75-1.53-1.29-1.02-6.47-5.86-13.64z" fill="#989296"/> <path d="m609.68 1060.9 4.82-0.33q0.5-0.04 0.5-0.54c0.01-2.96-3.95-2.25-5.97-1.69-2.08-1.36-3.18-0.36-3.41 1.81q-0.26 2.42-0.75 4.96a0.58 0.57-79.3 0 1-0.66 0.46q-3.7-0.61-4.27-4.94l1.99-4.42a1.12 1.07 48.9 0 0 0.04-0.83c-1.36-3.9-7.73 1.68-9.65 2.86q-0.42 0.26-0.92 0.26-2.8 0.02-4.11 2.44c-7.09 7.24-10.11-6.25-2.71-4.09q2.12 0.62 4.43 0.4a1.78 1.78 0 0 0 1.61-1.64c0.24-3.36-4.77-1.44-6.38-1.3a1.09 1.09 0 0 1-0.54-2.08l8.83-4.01a0.75 0.73 59 0 1 0.89 0.23l2.48 3.25a0.7 0.7 0 0 0 1.17-0.09c1.33-2.42 2.84-6.99 6.68-5.44 2.21 0.9 2.43 3.55 2.48 5.66a1.11 1.1-73.8 0 0 0.49 0.9q1.82 1.21 3.57-0.42a1.82 1.82 0 0 1 2.86 0.47c1.62 3.07 6.59 9.35 1.1 11.49-2.89 1.12-4.77-0.21-4.57-3.37z" fill="#fefefe"/> <path d="m711.71 1048.4q-17.99 3.59-33.14 14.05a1.01 0.98-15.5 0 0-0.43 0.73q-0.84 10.82 9.59 11.87 12.9 1.29 26.25 0.39c12.41-0.84 27.63-4.87 39.7-6.74q12.77-1.99 28.31-1.2c-22.18 9.34-41.15 9.87-68.81 11.41q-21.23 1.18-41.86-2.15l0.41-5.73a1.12 1.1-17.4 0 1 0.43-0.81c1.79-1.34 3.3-6.29-0.12-6.39a2.22 2.21 4.9 0 0-2.26 1.9l-1.48 10.41q-22.47-5.87-45.06-6.14l-8.62-0.73q2.58-3.95 4.81-4.56c34.85-9.59 60.13-18.06 92.28-16.31z" fill="#989296"/> <path d="m599.94 1060.6q-3.45-3.02-4.36 0.15-3.12-0.34-6.17 1.09-0.94-1.02-2.12-0.93 1.31-2.42 4.11-2.44 0.5 0 0.92-0.26c1.92-1.18 8.29-6.76 9.65-2.86a1.12 1.07 48.9 0 1-0.04 0.83l-1.99 4.42z" fill="#3f3c3f"/> <path d="m794.05 1054q0.99 0.54 1.53 1.29l-0.35 2.32q-0.07 0.43-0.37 0.73c-5.83 5.92-17.06 9.2-22.33 0.73q0.97 0.07 1.41-0.36 0.4-0.38 0.39-1.17 10.91 8.49 19.72-3.54z" fill="#3f3c3f"/> <path d="m532.51 1074.4a0.36 0.36 0 0 0 0.2 0.64q5.64 0.24 10.03 3.72 1.17 0.93-0.29 1.26l-25.94 5.85q-0.75 0.17-0.5-0.56 3.24-9.33 13.49-13.01 24.18-8.66 48.19-17.54a0.59 0.59 0 0 1 0.76 0.74q-2.7 8.02-2.45 16.49a1.18 1.18 0 0 1-0.93 1.19l-27.41 6.28q-0.5 0.12-0.88-0.22c-3.9-3.42-8.59-9.31-14.27-4.84z" fill="#989296"/> <path d="m609.68 1060.9-0.65-2.56c2.02-0.56 5.98-1.27 5.97 1.69q0 0.5-0.5 0.54l-4.82 0.33z" fill="#989296"/> <path d="m595.58 1060.8q0.77 0.54 0.28 1.83a2.37 2.36 27.3 0 0 0.9 2.81l5.09 3.39q-0.33 0.55 0.11 0.46c-6.53 2.21-12.78 0.79-12.55-7.4q3.05-1.43 6.17-1.09z" fill="#fefefe"/> <path d="m671.32 1076.7q-2.19 0.02-3.02-0.62l1.48-10.41a2.22 2.21 4.9 0 1 2.26-1.9c3.42 0.1 1.91 5.05 0.12 6.39a1.12 1.1-17.4 0 0-0.43 0.81l-0.41 5.73z" fill="#3f3c3f"/> <path d="m579.06 1066.7a1.06 1.06 0 0 1 1.06-1.06h1.24a6.4 2.72 0 0 1 6.4 2.72v0.54a6.4 2.72 0 0 1-6.4 2.72h-1.24a1.06 1.06 0 0 1-1.06-1.06v-3.86z" fill="#fefefe"/> <path d="m601.85 1068.8 12.77 0.45 8.62 0.73q-0.94 0.74-0.74 2.95l-19.21 0.81q2.3-3.14-1.33-4.48-0.44 0.09-0.11-0.46z" fill="#3f3c3f"/> <path d="m622.5 1072.9q18.59-0.06 36.45 4.49 11.22 2.85 13.68 3.26c11.04 1.82 24.61 1.67 33.36 2.36q1.62 0.12 2.03 1.44l-40.03 14.28q-39.36 0.43-78.14-5.44c-10.07-1.52-15.56-5.42-15.55-16.32l28.99-3.26 19.21-0.81z" fill="#fefefe"/> <path d="m780.45 1075.6a0.4 0.4 0 0 1-0.41-0.38l-0.01-0.17a1.45 1.43-2.4 0 1 1.39-1.49l0.34-0.02a1.45 1.43-2.4 0 1 1.51 1.37v0.17a0.4 0.4 0 0 1-0.38 0.42l-2.44 0.1z" fill="#3f3c3f"/> <path d="m574.3 1077c-0.01 10.9 5.48 14.8 15.55 16.32q38.78 5.87 78.14 5.44-0.25 0.51-0.81 0.93c-22.04 4.95-43.63 2.8-65.93-0.9-16.8-2.79-33.8-1.3-50.5-5.61-4.11-1.06-19.98-5.09-23.27-3.6q-2.06 0.93-0.29 4.03c-4.49 0.37-10.4 2.77-12.69 6.88-1.51 2.71-0.74 5.78 2.5 6.3q14.79 2.38 29.2-3.39c1.57-0.63 2.31-1.83 2.32-3.44q0-0.54-0.44-0.86l-5.1-3.56 9.65 3.37a0.98 0.97 24.4 0 1 0.53 1.4l-6.15 10.91q-0.47 0.85-1.45 0.91c-9.87 0.61-29.43 0.11-36.47-7.64a1.83 1.82 35.7 0 1-0.32-1.94c4.3-10.05 10.46-13.09 21.4-16.03q21.76-5.83 44.13-9.52z" fill="#989296"/> <path d="m825.69 1079.4-21.29 4.6a1.46 1.46 0 0 0-1.14 1.62c0.79 5.96 4.2 18.8 12.43 17.95q8.19-0.86 16.37-1.72c5.76-0.6 2.46-14.96 1.09-18.48 5.18 4.83 8.64 8.87 5.56 16.34q-2.15 1.94-2.62 5.06-0.04 0.21 0.14 0.33l0.21 0.14-0.6 1.07q-0.28-0.48-1.1-0.42-11.98 0.87-23.54 1.61a1.82 1.81-21.2 0 1-1.53-0.67q-7.51-9.22-9.97-20.88a1.55 1.54 60.5 0 1 0.38-1.38q3.53-3.74 8.09-4.89 0.5-0.13 0.67-0.39 0.24-0.35 0.15-0.87 8.75-1.93 16.7 0.98z" fill="#3f3c3f"/> <path d="m808.99 1078.4q0.09 0.52-0.15 0.87-0.17 0.26-0.67 0.39-4.56 1.15-8.09 4.89a1.55 1.54 60.5 0 0-0.38 1.38q2.46 11.66 9.97 20.88a1.82 1.81-21.2 0 0 1.53 0.67q11.56-0.74 23.54-1.61 0.82-0.06 1.1 0.42c-3.16 7.46-9.28 6.54-16.08 6.79-8.96-0.16-14.99-4.62-24.82-3.18q-38.77 5.65-77.69 10.07-4.04 0.46-8.05 0.1-0.51-0.05-0.84-0.43l-3.09-3.53a1.19 1.19 0 0 0-2.08 0.94l0.3 2.21q0.12 0.89-0.78 0.88l-2.9-0.04q-0.65-0.01-0.93-0.6l-5.58-11.49a0.64 0.64 0 0 0-0.87-0.29q-0.67 0.34-0.41 1.49 1.25 5.37 2.56 10.9a0.83 0.83 0 0 1-0.59 1l-3.64 0.98a0.74 0.74 0 0 1-0.91-0.55c-1.29-5.65-2.06-12.04-7.45-15.37q-0.79-0.49 0.11-0.72l3.17-0.83a1.21 1.21 0 0 0 0.35-2.18q-2.35-1.55-4.5-0.42c-16.81 8.86-33.65 16.5-53.09 16.54q-0.5 0-0.71-0.45-0.18-0.37-0.05-0.79l41.24-15.02c14.66-5.73 28.92-11.79 43.78-16.65l96.7-7.25z" fill="#fefefe"/> <path d="m825.69 1079.4q5.03 0.95 7.46 3.97c1.37 3.52 4.67 17.88-1.09 18.48q-8.18 0.86-16.37 1.72c-8.23 0.85-11.64-11.99-12.43-17.95a1.46 1.46 0 0 1 1.14-1.62l21.29-4.6z" fill="#fefefe"/> <path d="m708.02 1084.5q1.98 1.11 4.27 1.22c-14.86 4.86-29.12 10.92-43.78 16.65q0.63-2.33-1.33-2.66 0.56-0.42 0.81-0.93l40.03-14.28z" fill="#3f3c3f"/> <path d="m527.19 1093.6q8.12-0.15 15.79 1.93l5.1 3.56q0.44 0.32 0.44 0.86c-0.01 1.61-0.75 2.81-2.32 3.44q-14.41 5.77-29.2 3.39c-3.24-0.52-4.01-3.59-2.5-6.3 2.29-4.11 8.2-6.51 12.69-6.88z" fill="#fefefe"/> <path d="m291.47 1271.6q2.61-2.01 0.92-4.94c-32.62-56.38-62.73-114.12-93.45-171.61a0.53 0.53 0 0 1 0.49-0.78q0.54 0.02 0.91 0.67 46.73 84.01 92.7 168.44c2.97 5.46 2.7 11.56-4.92 11.61-4.18 0.04-8.67-0.45-12.49-0.11-16.5 1.47-33.09 8.64-48.42 15.52a0.93 0.93 0 0 0 0.28 1.77l25.66 2.86a0.62 0.61 2.7 0 1 0.55 0.6q0.01 1.17-1.44 1.02c-13.24-1.42-26.84-1.65-39.83 1.73q-55.09 14.34-108.02 35.22-0.87 0.35-1.49 0.23a0.56 0.56 0 0 1-0.14-1.06l20.81-9.62a0.58 0.58 0 0 0-0.17-1.11q-37.33-4.54-74.34-8.43c-4.78-0.5-11.56-1.54-13.15 4.71-1.03 4.03 1.78 6.33 5.22 8.22q22.93 12.63 45.43 25.2 1.34 0.75 2.87 0.68c19.05-0.83 38.31-1.11 57.71-0.52q0.4 0.01 0.49 0.4 0.23 0.93-0.65 0.95-36.95 0.51-54.75 1.27c-7.45 0.31-15.14-4.91-21.99-8.88q-14.73-8.54-29.6-16.83c-5.91-3.29-10.19-7.41-6.75-14.23 1.79-3.55 5.43-4.6 9.1-4.16q47.39 5.73 81.56 8.76 7.25 0.64 15.24-1.72 35.08-10.39 69.69-22.21 7.35-2.51 16.65-6.7 16.27-7.33 33.08-13.33c5.94-2.12 10.95-4.43 17.26-3.72q6.78 0.76 13.06 0.75a3.16 3.16 0 0 0 1.92-0.65z" fill="#3f3c3f"/> <path d="m838.71 1099.7q-0.16 3.05-2.27 5.53l-0.21-0.14q-0.18-0.12-0.14-0.33 0.47-3.12 2.62-5.06z" fill="#989296"/> <path d="m819.76 1113.1c-13.06 0.31-24.92 0.29-38.68 2.59q-31.21 5.23-47.09 9.54-14.64 3.98-26.8 3.95c-21.48-0.05-39.26-0.58-63.69 2.05-8.73 0.95-18.85-1.87-22.79-10.81a1.16 1.15-27.9 0 1 0.45-1.44q2.63-1.63 6.11-1.64-0.13 0.42 0.05 0.79 0.21 0.45 0.71 0.45c19.44-0.04 36.28-7.68 53.09-16.54q2.15-1.13 4.5 0.42a1.21 1.21 0 0 1-0.35 2.18l-3.17 0.83q-0.9 0.23-0.11 0.72c5.39 3.33 6.16 9.72 7.45 15.37a0.74 0.74 0 0 0 0.91 0.55l3.64-0.98a0.83 0.83 0 0 0 0.59-1q-1.31-5.53-2.56-10.9-0.26-1.15 0.41-1.49a0.64 0.64 0 0 1 0.87 0.29l5.58 11.49q0.28 0.59 0.93 0.6l2.9 0.04q0.9 0.01 0.78-0.88l-0.3-2.21a1.19 1.19 0 0 1 2.08-0.94l3.09 3.53q0.33 0.38 0.84 0.43 4.01 0.36 8.05-0.1 38.92-4.42 77.69-10.07c9.83-1.44 15.86 3.02 24.82 3.18z" fill="#989296"/> <path d="m812.71 1137.2q0.83-7.7 3.28-15.09 0.17-0.51 0.61-0.82c2.81-1.95 4.48-0.35 5.82 2.22 2.19 4.19 6.31 14.4 10 16.79a1.05 1.05 0 0 1-0.39 1.92l-30.76 5.3a0.87 0.87 0 0 1-1.01-0.79q-0.8-12.36-5.14-23.93-0.35-0.95 0.66-0.93l16.15 0.3a0.59 0.58-83.5 0 1 0.56 0.71l-2.82 13.33a1.26 1.24 33.3 0 0 0.22 1.01q0.82 1.12 2.29 0.64 0.47-0.16 0.53-0.66z" fill="#fefefe"/> <path d="m748.04 1155.1q-28.38-1.69-56.59 0.89c-2.6 0.24-4.07 1.67-5.57 3.55a0.66 0.66 0 0 1-1.17-0.45c0.24-4.55 0.41-9.24-3.33-12.78a0.82 0.81 54.1 0 0-0.89-0.15q-1.42 0.65-1.46 2.4a1.06 1.05-65.5 0 0 0.27 0.73l1.71 1.8a1 1 0 0 1 0.28 0.67l0.41 11.57q-1.87 3.54-6.76 3.65c-8.63 1.1-4.37-16.54-4.04-21a0.84 0.84 0 0 1 1.36-0.59c2.3 1.85 2.12 13.4 1.88 16.27q-0.04 0.59 0.55 0.57l2.17-0.05q0.72-0.02 0.71-0.74-0.09-8.91-3.62-17.05-0.24-0.55-0.79-0.79-3.7-1.59-6.29-4.67-0.44-0.53-0.73 0.1-0.4 0.89 0.34 1.75 1.93 2.25 3.16 4.13a0.94 0.93-57 0 1 0.13 0.63l-2.81 17.9a1.02 1-54.5 0 0 0.09 0.57l2.35 4.75-3.87 0.04c-0.36-2.4-2.29-1.77-4.05-1.79q-28.82-0.32-57.61-1.62c-9.44-0.43-33.53-0.91-32.85-14.69 0.11-2.41 1.35-5.08 2.24-7.48 42.59-8.33 85.6-13.24 128.42-4.12 3.25 0.69 6.55 0.47 9.67 1.22 12.39 2.97 26.4 7.22 37.7 8.34 15.33 1.52 31.26-0.9 46.01-5.4a1.51 1.5-6.1 0 1 1.94 1.56l-0.26 2.96a0.85 0.84-1.3 0 1-0.73 0.76l-47.97 6.56z" fill="#fefefe"/> <path d="m674.94 1167-5.54 1.78-2.35-4.75a1.02 1-54.5 0 1-0.09-0.57l2.81-17.9a0.94 0.93-57 0 0-0.13-0.63q-1.23-1.88-3.16-4.13-0.74-0.86-0.34-1.75 0.29-0.63 0.73-0.1 2.59 3.08 6.29 4.67 0.55 0.24 0.79 0.79 3.53 8.14 3.62 17.05 0.01 0.72-0.71 0.74l-2.17 0.05q-0.59 0.02-0.55-0.57c0.24-2.87 0.42-14.42-1.88-16.27a0.84 0.84 0 0 0-1.36 0.59c-0.33 4.46-4.59 22.1 4.04 21z" fill="#989296"/> <path d="m573.26 1143.2c-0.89 2.4-2.13 5.07-2.24 7.48-0.68 13.78 23.41 14.26 32.85 14.69q28.79 1.3 57.61 1.62c1.76 0.02 3.69-0.61 4.05 1.79q-38.32 1.66-76.55-0.92-12.77-0.87-25.04-4.59c-7.08-2.15-14.94-5.45-21.41-6.48-11.82-1.89-25.96 0.68-37.56 3.45q-2.11 0.51-0.64-1.09c3.18-3.47 11.14-4.94 15.76-5.68q26.69-4.25 53.17-10.27z" fill="#989296"/> <path d="m845.48 1179.8-0.67-0.02a1.09 1.06 67.4 0 1-0.77-0.33l-5.49-5.49a1.09 1.09 0 0 0-0.98-0.3c-30.39 5.92-62.66 14.53-95.58 18.04q-0.43 0.04-0.58-0.36l-4.49-11.85a1.02 1.02 0 0 0-1.96 0.52l1.82 11.24a0.31 0.31 0 0 1-0.56 0.24q-3.5-4.51-6.94-9.22c-1.47-2.02-3.26-2.57-5.39-3.65a0.63 0.62 26.8 0 0-0.83 0.27q-1.15 2.17-0.54 4.59 0.18 0.7-0.54 0.7l-1.46 0.02q-0.65 0.01-0.8-0.61-0.39-1.54-1.79-2.22-0.46-0.23-0.94-0.04-1.89 0.75-1.45 3.47 0.4 2.47-0.21 6.72-0.07 0.5-0.58 0.44l-31.59-3.73c29.23-23.52 65.84-30.62 102.09-35.18q11.05-1.39 42.56-7.42 3.35-0.64 8.53 0.35 0.68 0.13 0.11 0.52-5.28 3.61-7.91 9.46a1.03 1.03 0 0 0 0.39 1.3c5.8 3.66 7.43 15.97 14.61 16.17q9.42 0.26 18.54-2.17 0.72-0.19 0.38 0.47c-3.03 5.91-10.96 7.51-16.98 8.07z" fill="#fefefe"/> <path d="m748.04 1155.1q-29.47 8.15-59.31 14.52-3.24 0.69-6.17-0.04a0.81 0.81 0 0 1-0.37-1.36q1.83-1.82 2.37-4.35 0.11-0.5-0.32-0.78-1.26-0.82-2.54 0.24l-0.41-11.57a1 1 0 0 0-0.28-0.67l-1.71-1.8a1.06 1.05-65.5 0 1-0.27-0.73q0.04-1.75 1.46-2.4a0.82 0.81 54.1 0 1 0.89 0.15c3.74 3.54 3.57 8.23 3.33 12.78a0.66 0.66 0 0 0 1.17 0.45c1.5-1.88 2.97-3.31 5.57-3.55q28.21-2.58 56.59-0.89z" fill="#989296"/> <path d="m860.37 1147.8c-0.89 6.62 1.79 11.99 0.38 18.68-7.5 3.64-17.45 5.55-23.72-1.26-4.57-4.96-9.14-15.44 1.68-17.16q10.56-1.67 21.66-0.26z" fill="#fefefe"/> <path d="m860.37 1147.8q6.9 7.33 4.15 19.57-0.43 1.89-1.09 0.07-0.51-1.41-2.68-0.96c1.41-6.69-1.27-12.06-0.38-18.68z" fill="#989296"/> <path d="m502.98 1166.8q2.81 6.33 9.31 7.9c5.5 1.32 29.78 5.77 28.97-5.67q-0.26-3.8-3.25-9.13 0.39-0.5 1.51 0.62 1.35 1.37 3.46 5.98c6.26 13.72-24.55 16.55-31.92 17.38q-0.49 0.05-0.85-0.28-7.1-6.37-7.23-16.8z" fill="#989296"/> <path d="m538.01 1159.9q2.99 5.33 3.25 9.13c0.81 11.44-23.47 6.99-28.97 5.67q-6.5-1.57-9.31-7.9-0.2 0.03-0.23-0.34-0.05-0.42 0.35-0.55 16.33-5.57 34.91-6.01z" fill="#fefefe"/> <path d="m845.48 1179.8q0.02 0.08-0.12 0.24-0.1 0.1-0.23 0.11c-13.09 0.57-26.01 1.14-38.82 4.09q-24.47 5.62-48.29 13.62-3.44 1.16-6.84 1.24-35.39 0.84-69.79-7.65-0.52-0.13-0.61-0.66-0.24-1.54 2.38-2.56l31.59 3.73q0.51 0.06 0.58-0.44 0.61-4.25 0.21-6.72-0.44-2.72 1.45-3.47 0.48-0.19 0.94 0.04 1.4 0.68 1.79 2.22 0.15 0.62 0.8 0.61l1.46-0.02q0.72 0 0.54-0.7-0.61-2.42 0.54-4.59a0.63 0.62 26.8 0 1 0.83-0.27c2.13 1.08 3.92 1.63 5.39 3.65q3.44 4.71 6.94 9.22a0.31 0.31 0 0 0 0.56-0.24l-1.82-11.24a1.02 1.02 0 0 1 1.96-0.52l4.49 11.85q0.15 0.4 0.58 0.36c32.92-3.51 65.19-12.12 95.58-18.04a1.09 1.09 0 0 1 0.98 0.3l5.49 5.49a1.09 1.06 67.4 0 0 0.77 0.33l0.67 0.02z" fill="#989296"/> <path d="m842.81 1313-63.39-4.25q25.86-13.67 49.64-28.04c14.25-8.62 14.93-17.01 12.32-32.75a1.44 1.44 0 0 1 1.18-1.66c9.49-1.57 16.88-6.77 19.96-15.98q1.68-13.44-9.34-19.5c-7.93-4.37-25.11-0.45-33.77 1.5l-2.82-16.12a0.7 0.69-8.3 0 1 0.62-0.82q16.52-1.65 31.67-8.49a0.84 0.84 0 0 1 1.03 0.26l28.41 37.82a3.83 3.81-59.7 0 1 0.73 2.83l-8.35 58.24q-0.06 0.43-0.37 0.73l-27.52 26.23z" fill="#fefefe"/> <path d="m1114.2 1194q0.07-0.3 0.26-0.37a0.48 0.48 0 0 1 0.59 0.67c-15.63 30.55-32.05 60.35-40.48 93.92q-0.1 0.4-0.52 0.35-0.16-0.01-0.25-0.13-0.08-0.1-0.04-0.31 2.2-11.38 4.88-22.66c2.91-12.26 6.99-19.24 14.58-33.57q10.03-18.95 20.82-37.48 0.08-0.13 0.16-0.42z" fill="#3f3c3f"/> <path d="m704.99 1205.9c-14.13 0.37-29.56-0.18-42.46 1.16-10.7 1.11-20.31 2.73-31.01 6.21q-23.8 7.73-47.42 15.56a0.55 0.54-29.9 0 0-0.24 0.88c1.92 2.18 4.12 3.62 7.22 3.81q34.12 2.02 73.92 1.65 14.23-0.14 26.34-5.42 0.37-0.16 0.77-0.07l1.58 0.33q0.65 0.14 1.16-0.29 3.07-2.6 4.55-6.34a0.76 0.75 15.1 0 1 0.83-0.47c4.51 0.78 6.08-3.68 7.15-6.88a0.9 0.9 0 0 1 1.74 0.14l0.57 3.5a1.36 1.36 0 0 0 2.7-0.15l0.16-3.09a0.49 0.48 3.4 0 1 0.53-0.46q3.07 0.26 3.68 3.3a0.94 0.94 0 0 0 1.1 0.74l31-5.83q12.53-0.71 21.86 8.51 1.29 1.28-0.49 1.64l-50.84 10.34q2.34-5.03 2.09-10.97a0.88 0.88 0 0 0-1.72-0.2c-3.29 11.87-8.99 10.9-19.07 13.28l-3.37 0.11q-0.44 0.01-0.8-0.24l-2.46-1.74a0.82 0.81 32.9 0 0-1.18 0.25c-0.67 1.16-1.32 1.8-2.71 2.06-30.64 5.83-62.46 3.07-93.42 1.83-13.45-0.53-19.59-12.6-32.55-12.88q-14.5-0.31-27.6 5.58-1.5 0.16-2.7-0.37l0.11-0.36q0.16-0.48 0.61-0.71c15.23-7.56 33.5-7.56 50.02-10.66q33.07-6.21 66.11-12.59c1.58-0.31 4.13 0.18 5.3-0.26 2.84-1.06 6.3-1.03 8.44-1.33q20.35-2.84 40.5 0.43z" fill="#989296"/> <path d="m704.99 1205.9 43.87 8.28-31 5.83a0.94 0.94 0 0 1-1.1-0.74q-0.61-3.04-3.68-3.3a0.49 0.48 3.4 0 0-0.53 0.46l-0.16 3.09a1.36 1.36 0 0 1-2.7 0.15l-0.57-3.5a0.9 0.9 0 0 0-1.74-0.14c-1.07 3.2-2.64 7.66-7.15 6.88a0.76 0.75 15.1 0 0-0.83 0.47q-1.48 3.74-4.55 6.34-0.51 0.43-1.16 0.29l-1.58-0.33q-0.4-0.09-0.77 0.07-12.11 5.28-26.34 5.42-39.8 0.37-73.92-1.65c-3.1-0.19-5.3-1.63-7.22-3.81a0.55 0.54-29.9 0 1 0.24-0.88q23.62-7.83 47.42-15.56c10.7-3.48 20.31-5.1 31.01-6.21 12.9-1.34 28.33-0.79 42.46-1.16z" fill="#fefefe"/> <path d="m862.52 1230.3-0.33-0.66q-0.25-0.5-0.78-0.34l-0.97 0.31q-1.87-0.02-2.88 3.74c-12.68 8.99-22.65 1.45-25.51-11.65a0.92 0.91 62.2 0 1 0.27-0.88q6.03-5.65 13.79-8.5a0.39 0.39 0 0 0-0.19-0.75l-27.67 3.77q1.12-1.41 1.16-3.04c8.66-1.95 25.84-5.87 33.77-1.5q11.02 6.06 9.34 19.5z" fill="#3f3c3f"/> <path d="m857.56 1233.3q0.53 0.32 1.11 1.25-4.88 6.46-12.79 7.28-1.49 0.53-3.11-0.58-0.42-0.28-0.9-0.13c-23.33 7.57-51.26 16.85-77.81 17.79q-0.5 0.02-0.91-0.29l-9.45-7.13a1.12 1.11-64.9 0 0-1.76 0.64l-0.88 3.79a1.11 1.11 0 0 1-2.14 0.08l-1.32-4.16a0.76 0.76 0 0 0-1.49 0.21l-0.16 4.99a0.7 0.69 26.1 0 1-1.23 0.42c-5.18-6.27-7.98 1.4-12.71 0.72-7.51-1.08-17-1.85-25.49 0.03q-2.04 0.45-2.6-0.7c14.7-7.18 29.52-15.09 44.77-20.45 22.9-8.04 46.38-14.65 69.56-21.77l27.67-3.77a0.39 0.39 0 0 1 0.19 0.75q-7.76 2.85-13.79 8.5a0.92 0.91 62.2 0 0-0.27 0.88c2.86 13.1 12.83 20.64 25.51 11.65z" fill="#fefefe"/> <path d="m859.22 1223.7c-6.51 9.53-18.54 15.77-24.24 0.56-2.52-6.72 21.07-17.54 24.43-1.54a1.29 1.29 0 0 1-0.19 0.98z" fill="#fefefe"/> <path d="m1144.2 1343.7q1.36 0.15 2.46 2.95l-9.39 14.93q-1.9 0.95-3.94 0.05l-50.45-48.37q-0.38-0.36-0.91-0.45c-15.93-2.48-32.04-8.13-43.81-18.86-2.92-2.66-5.72-4.04-9.19-5.28a0.43 0.43 0 0 0-0.51 0.63l23.01 38.02a7.93 7.9 28.4 0 1 1.14 3.79l3.42 87.43q-1.46 0.07-2.77-0.76-0.39-1.12-0.43-1.8-2.43-40.07-5.13-80.13c-0.27-3.99-2.92-7.83-5.25-11.53q-14.42-22.89-28.45-46.02c-4.7-7.74-29.89-8.48-38.62-11.97q-48.15-19.24-91.29-48.47a0.31 0.31 0 0 1 0.15-0.57q0.43-0.05 0.95 0.17 59.36 25.22 119.6 48.27c10.19 3.9 13.4 5.6 18.49 15.32a1.72 1.66 89.5 0 0 0.68 0.69c19.62 10.61 39.34 18.24 60.15 25.27 1.8 0.61 4.41 2.18 5.82 3.5q23.02 21.51 45.57 42.97a1.06 1.06 0 0 0 1.58-0.14l7.12-9.64z" fill="#989296"/> <path d="m476.44 1222.9c-17.49 10.63-17.89 29.05-18.32 47.09-1.9 79.82-4.12 159.53 2.21 239.26h-421.47q-8.17-58.3-21.87-115.21a1.22 1.22 0 0 1 0.73-1.41q1.37-0.54 1.71 1.08c6.84 33.1 14.44 67.26 29.37 97.81 8.71 17.83 22.56 13.26 30.48-1.75 29.41-55.75 56.01-103.64 88.93-152.05a2.36 2.36 0 0 1 2.91-0.83q14.13 6.25 28.53 12.58c9.98 4.39 15.56 7.39 24.71 3.58 2.72-1.14 5.23-3.74 7.66-5.27q0.36-0.23 0.58 0.09a0.35 0.34-38.7 0 1-0.05 0.44l-31.08 30.16q-2.37 2.31 0.26 0.29 27.33-20.88 52.12-44.71a0.58 0.58 0 0 1 0.98 0.43l-0.8 37.03-2.31 95.95a0.53 0.45 52.2 0 0 0.96 0.21l4.79-96.96c0.85-25.15 2.28-48.83 9.82-73.04a1.7 1.7 0 0 1 1.12-1.13l16.89-5.12q1.03 0.5 1.33 2.32 0.08 0.53 0.58 0.32l14.36-6.13 86.29-35.92a0.38 0.38 0 0 1 0.37 0.66l-24.51 18.55-11.45 9a0.08 0.08 0 0 0 0.09 0.13l13.39-7.54q33.39-21.36 70.98-36.39a0.96 0.96 0 0 1 1.15 1.42l-7.43 11.11a0.28 0.28 0 0 0 0.42 0.36c13.28-12.13 26.8-23 44.44-28.19a1.33 1.32-7.3 0 1 1.7 1.31q0 0.13-0.57 0.47z" fill="#0c0809"/> <path d="m885.74 1509.3h-60.47q-0.81 0.07-0.68-0.21c1.48-3.13 2.81-6.17 3.82-9.59q18.42-61.97 27.86-113.71 14.85-81.38 26.29-163.54a0.6 0.6 0 0 1 0.93-0.41l18.67 12.48q0.65 0.43 0.74 1.21c3.73 32.05 4.68 65.03 1.34 97.2-6.09 58.69-12.25 117.35-17.59 176.11q-0.04 0.47-0.51 0.46h-0.4z" fill="#fefefe"/> <path d="m712.74 1222.4a0.23 0.23 0 0 1 0.3-0.12l0.32 0.12a2.89 1.67-68.1 0 1 0.47 3.31l-0.3 0.74a2.89 1.67-68.1 0 1-2.63 2.06l-0.31-0.13a0.23 0.23 0 0 1-0.13-0.3l2.28-5.68z" fill="#3f3c3f"/> <path d="m476.44 1222.9q1.43 0.57 1.95 1.87-0.78 4.72-3.6 15.54c-1.35 5.19-1.26 10.95-0.6 16.92 9.3 83.49 29.2 164.57 52.34 245.63 0.64 2.23 1.51 4.21 2.33 6.39h-68.53c-6.33-79.73-4.11-159.44-2.21-239.26 0.43-18.04 0.83-36.46 18.32-47.09z" fill="#fefefe"/> <path d="m719.39 1234.7q-9.15 2.83-18.7 2.11c10.08-2.38 15.78-1.41 19.07-13.28a0.88 0.88 0 0 1 1.72 0.2q0.25 5.94-2.09 10.97z" fill="#3f3c3f"/> <path d="m860.44 1229.6q0.13 2.52-1.04 4.64-0.13 0.25-0.42 0.25-0.26 0.01-0.31 0.1-0.58-0.93-1.11-1.25 1.01-3.76 2.88-3.74z" fill="#989296"/> <path d="m533.9 1231.4q1.2 0.53 2.7 0.37 0.38 2.51 3.26 3.07-4.96 1.98-5.73 6.92-0.08 0.55-0.61 0.72l-2.37 0.8q-1.65-6.78 2.75-11.88z" fill="#3f3c3f"/> <path d="m531.15 1243.3 2.37-0.8q0.53-0.17 0.61-0.72 0.77-4.94 5.73-6.92c5.55-1.63 24.56-6.76 27.87 0.16q0.9 1.89-0.25 3.4-0.31 0.4-0.81 0.52-16.07 3.66-32.41 5.57-1.24 0.14-3.11-1.21z" fill="#fefefe"/> <path d="m845.88 1241.9q-34.62 11.01-68.83 23.66c-7.63 2.81-12.28 0.58-19.67-0.05q-0.51-0.04-0.9 0.3c-4.8 4.14-8.74 7.04-15.46 6.28q-22.28-2.54-43.52-8.5a1.49 1.49 0 0 1-0.54-2.59q3.2-2.61 6.96-3.42 0.56 1.15 2.6 0.7c8.49-1.88 17.98-1.11 25.49-0.03 4.73 0.68 7.53-6.99 12.71-0.72a0.7 0.69 26.1 0 0 1.23-0.42l0.16-4.99a0.76 0.76 0 0 1 1.49-0.21l1.32 4.16a1.11 1.11 0 0 0 2.14-0.08l0.88-3.79a1.12 1.11-64.9 0 1 1.76-0.64l9.45 7.13q0.41 0.31 0.91 0.29c26.55-0.94 54.48-10.22 77.81-17.79q0.48-0.15 0.9 0.13 1.62 1.11 3.11 0.58z" fill="#989296"/> <path d="m545.81 1252.1a0.73 0.73 0 0 1 0.07-1.44c8.65-0.96 15.58-1.45 23.81-4.68a0.6 0.59 78 0 1 0.81 0.53q0.06 1.13-1.1 1.87-10.37 6.65-23.59 3.72z" fill="#989296"/> <path d="m1118.5 1280.1a0.47 0.47 0 0 1 0.09-0.86c13.28-4.28 25.65-7.73 40.38-9.36 7.55-0.83 11.57 0.32 18.51 4.18q17.1 9.5 34.26 19.8a0.53 0.53 0 0 1-0.2 0.98q-0.35 0.05-0.9-0.24-20.41-10.93-40.79-21.93c-1.07-0.58-2.44-1.23-3.82-1.12q-16.75 1.4-32.9 6.02c-5.58 1.6-8.66 5.89-14.63 2.53z" fill="#3f3c3f"/> <path d="m363.72 1271.2q0.56 1.49 2.03 1.59l-13.39 7.54a0.08 0.08 0 0 1-0.09-0.13l11.45-9z" fill="#3f3c3f"/> <path d="m722.39 1291.5c-17.67 5.41-34.31 10.07-53.32 12.84q-6.91 1.01-12.5-1.18-0.47-0.18-0.91 0.08-2.27 1.38-3 4.29l-7.38 0.3q-1.13 0.04-0.66 1.06l1.78 3.9-38.14 7.26q-0.56 0.11-0.25-0.37c5.26-8.32 13.3-18.53 23.93-19.06 6.01-0.3 14.88 0.02 20.35-2.51q22.59-10.44 45.58-19.96 0.49-0.2 0.99-0.02l25.98 9.43a0.75 0.74-76.7 0 1 0.48 0.79q-0.26 2.21-2.93 3.15z" fill="#fefefe"/> <path d="m1310.3 1323.6q26.9-1.51 34.92-2.62c12.29-1.71 20.27-6.2 29.36-12.78a0.94 0.94 0 0 1 1.34 0.25q0.66 1.02-0.23 1.77-16.27 13.52-37.65 14.08-30.67 0.82-102.9 6.55c-10.87 0.86-20.49-0.7-29.01-7.83q-19.24-16.11-38.46-32.23-2.82-2.36-7.52-3.14-15.05-2.49-29.84-4.89a1 1 0 0 1-0.84-1.1q0.05-0.46 0.4-0.73 0.27-0.2 0.75-0.15c14.77 1.34 32.13 2.17 43.65 12.11q18.25 15.75 36.64 31.35c4.6 3.91 13.09 4.38 18.82 4.04q40.29-2.41 80.57-4.68z" fill="#3f3c3f"/> <path d="m301.57 1287.9-14.36 6.13q-0.5 0.21-0.58-0.32-0.3-1.82-1.33-2.32 7.56-3.72 16.27-3.49z" fill="#3f3c3f"/> <path d="m722.39 1291.5q-9.37 8.41-20.34 10.84-21.82 4.84-32.06 5.92-1.72 0.18-5.33-1.48a1.02 1.02 0 0 0-0.88 0l-8.1 3.87q-0.02-2.3-3.02-3.12 0.73-2.91 3-4.29 0.44-0.26 0.91-0.08 5.59 2.19 12.5 1.18c19.01-2.77 35.65-7.43 53.32-12.84z" fill="#989296"/> <path d="m652.66 1307.5q3 0.82 3.02 3.12l-4.26 0.38q-0.56 0.05-0.92 0.47-1.84 2.13-4.1 1.29l-1.78-3.9q-0.47-1.02 0.66-1.06l7.38-0.3z" fill="#3f3c3f"/> <path d="m779.42 1308.7 63.39 4.25c-10.14 6.93-18.26 7.78-31.03 6.02q-20.03-2.76-40.03-5.67a0.56 0.56 0 0 1-0.27-0.99q3.94-3.22 7.94-3.61z" fill="#989296"/> <path d="m1089.1 1324.3q0.88 0.35 1.17 0.96 21.46 44.09 32.21 68.05c4.57 10.2 4.23 19.53 2.16 31.57q-9.44 54.73-13.19 79.06-0.23 1.46-0.97 2.02a0.22 0.22 0 0 1-0.35-0.21c4.19-28.04 8.63-55.97 10.99-84.24 0.69-8.24 3.85-16.64-0.03-25.24q-16.04-35.58-32.2-71.1-0.25-0.54-0.07-0.78a0.24 0.23-61.2 0 1 0.28-0.09z" fill="#3f3c3f"/> <path d="m1270.7 1341.7q-0.45-0.07-0.9-0.21-0.32-0.09 0.01-0.15 1.96-0.35 3.91-0.24 12.35 0.7 24.62 2.28c9.98 1.29 16.81-0.24 26.58-4.64q16.83-7.6 34.07-14.44a0.23 0.23 0 0 1 0.31 0.28l-0.15 0.48q-0.13 0.41-0.51 0.59-24.23 11.45-40.53 18.73-3.76 1.68-8.32 1.48-19.69-0.84-39.09-4.16z" fill="#3f3c3f"/> <path d="m1146.6 1346.6q-1.1-2.8-2.46-2.95 3.37-4.91 7.08-9.64c1.78-2.27 2.24-3.56 5.73-3.3q33.34 2.47 67.22 4.88a0.69 0.68-84.4 0 1 0.63 0.77q-0.1 0.87-1.36 0.78-33.7-2.56-67.23-4.61a1.4 1.39 17.7 0 0-1.27 0.65l-8.34 13.42z" fill="#3f3c3f"/> <path d="m822.65 1509.2h-50.31l26.58-169.93a0.6 0.59-54 0 1 1.12-0.18c12.27 24.42 23.13 50.84 24.77 78.94q1.92 33.04 2.21 66.13c0.08 8.97-1.86 16.74-4.37 25.04z" fill="#fefefe"/> <path d="m574.64 1509.5-6.84-0.2-10.64-47.9q-0.17-0.78-0.36-0.01-0.16 0.64 0.03 1.57 4.13 20.43 7.65 46.33l-33.21 0.07-0.26-0.07q-0.06-0.01-0.08-0.07-11.02-38.08-20.14-76.65c-3.34-14.16-4.12-26.26-3.25-40.04q0.03-0.49 0.39-0.82c0.62-0.59 1.19-1.31 1.91-1.7q32.94-17.66 65.8-35.21a0.56 0.55-14 0 1 0.82 0.49l-1.82 154.21z" fill="#fefefe"/> <path d="m1133.3 1361.6q2.04 0.9 3.94-0.05l-8.55 43.22a0.71 0.71 0 0 1-1.16 0.4q-0.58-0.49-0.35-1.92 3.38-20.83 6.12-41.65z" fill="#3f3c3f"/> <path d="m257.47 1370.7-4.79 96.96a0.53 0.45 52.2 0 1-0.96-0.21l2.31-95.95q1.3 0.83 3.44-0.8z" fill="#3f3c3f"/> <path d="m1176 1392.9q0.07-0.36 0.37-0.62a0.41 0.41 0 0 1 0.67 0.4q-8.29 36.44-16.26 73.11c-3.71 17.03-8.05 29-18.87 41.29a0.46 0.45-11.1 0 1-0.75-0.5c5.39-10.51 11.49-20.67 14.51-32.13q8.7-33.06 16.72-66.29c0.85-3.52 1.71-9.91 3.49-14.74q0.03-0.07 0.12-0.52z" fill="#3f3c3f"/> <path d="m1053.2 1417.7q1.31 0.83 2.77 0.76l3.36 86.98a0.37 0.37 0 0 1-0.56 0.33l-0.37-0.22q-0.32-0.19-0.34-0.57l-5.11-86.54q-0.01-0.2 0.08-0.39l0.17-0.35z" fill="#3f3c3f"/> <path d="m567.8 1509.3-3.32-0.01q-3.52-25.9-7.65-46.33-0.19-0.93-0.03-1.57 0.19-0.77 0.36 0.01l10.64 47.9z" fill="#989296"/> </svg>