<?xml version="1.0" encoding="UTF-8"?>
<svg viewBox="0 0 2948.1001 974.73999" xmlns="http://www.w3.org/2000/svg" xmlns:xlink="http://www.w3.org/1999/xlink">
 <defs>
  <filter id="as">
   <feGaussianBlur stdDeviation="1.2107"/>
  </filter>
  <filter id="g">
   <feGaussianBlur stdDeviation="1.3018"/>
  </filter>
  <filter id="ar">
   <feGaussianBlur stdDeviation="1.5268"/>
  </filter>
  <filter id="aq">
   <feGaussianBlur stdDeviation="2.0321"/>
  </filter>
  <filter id="ap">
   <feGaussianBlur stdDeviation="1.9464"/>
  </filter>
  <filter id="ao">
   <feGaussianBlur stdDeviation="3.3482"/>
  </filter>
  <filter id="an">
   <feGaussianBlur stdDeviation=".9692"/>
  </filter>
  <filter id="al">
   <feGaussianBlur stdDeviation="2.4384"/>
  </filter>
  <filter id="ak">
   <feGaussianBlur stdDeviation="1.4558"/>
  </filter>
  <filter id="aj">
   <feGaussianBlur stdDeviation="2.6429"/>
  </filter>
  <filter id="ai">
   <feGaussianBlur stdDeviation="1.6643"/>
  </filter>
  <filter id="ah">
   <feGaussianBlur stdDeviation="2.7696"/>
  </filter>
  <filter id="ac">
   <feGaussianBlur stdDeviation="1.0676"/>
  </filter>
  <filter id="y">
   <feGaussianBlur stdDeviation="1.0357"/>
  </filter>
  <filter id="w">
   <feGaussianBlur stdDeviation=".6875"/>
  </filter>
  <filter id="v">
   <feGaussianBlur stdDeviation=".8089"/>
  </filter>
  <filter id="c" x="-.3834" y="-.03973" width="1.7668" height="1.0795">
   <feGaussianBlur stdDeviation="9.1286"/>
  </filter>
  <filter id="am" x="-.1242" y="-.02975" width="1.2484" height="1.0595">
   <feGaussianBlur stdDeviation="4.4357"/>
  </filter>
  <filter id="ag" x="-.07648" y="-.25437" width="1.153" height="1.5088">
   <feGaussianBlur stdDeviation="3.4825"/>
  </filter>
  <filter id="af" x="-.0989" y="-.19838" width="1.1978" height="1.3968">
   <feGaussianBlur stdDeviation="10.1554"/>
  </filter>
  <filter id="ae" x="-.08376" y="-.11244" width="1.1675" height="1.2249">
   <feGaussianBlur stdDeviation="2.8444"/>
  </filter>
  <filter id="ad" x="-.04712" y="-.15256" width="1.0942" height="1.3051">
   <feGaussianBlur stdDeviation="20.25"/>
  </filter>
  <filter id="f" x="-.04044" y="-.1162" width="1.0809" height="1.2324">
   <feGaussianBlur stdDeviation="5.4643"/>
  </filter>
  <filter id="e" x="-.03538" y="-.19734" width="1.0708" height="1.3947">
   <feGaussianBlur stdDeviation="2.8192"/>
  </filter>
  <filter id="a" x="-.24821" y="-.1019" width="1.4964" height="1.2038">
   <feGaussianBlur stdDeviation="11.524"/>
  </filter>
  <filter id="ab" x="-.12218" y="-.02987" width="1.2444" height="1.0597">
   <feGaussianBlur stdDeviation="2.4"/>
  </filter>
  <filter id="aa" x="-.1625" y="-.03679" width="1.325" height="1.0736">
   <feGaussianBlur stdDeviation="2.3214"/>
  </filter>
  <filter id="z" x="-.73655" y="-.13994" width="2.4731" height="1.2799">
   <feGaussianBlur stdDeviation="8.33"/>
  </filter>
  <filter id="x" x="-.1155" y="-.01339" width="1.231" height="1.0268">
   <feGaussianBlur stdDeviation="1.1"/>
  </filter>
  <linearGradient id="b">
   <stop stop-color="#999" offset="0"/>
   <stop stop-color="#999" stop-opacity="0" offset="1"/>
  </linearGradient>
  <linearGradient id="d">
   <stop offset="0"/>
   <stop stop-color="#241f1c" stop-opacity="0" offset="1"/>
  </linearGradient>
  <linearGradient id="s" x1="294.29" x2="504.28" y1="172.98" y2="191.91" gradientUnits="userSpaceOnUse">
   <stop stop-color="#241f1c" offset="0"/>
   <stop stop-color="#483e37" offset="1"/>
  </linearGradient>
  <linearGradient id="r" x1="103.21" x2="100.78" y1="243.34" y2="365.48" gradientUnits="userSpaceOnUse">
   <stop offset="0"/>
   <stop stop-color="#483e37" offset="1"/>
  </linearGradient>
  <linearGradient id="q" x1="-405" x2="-156.79" y1="275.84" y2="282.98" gradientUnits="userSpaceOnUse">
   <stop stop-color="#1a1a1a" offset="0"/>
   <stop stop-color="#a69881" stop-opacity=".9804" offset="1"/>
  </linearGradient>
  <linearGradient id="p" x1="-666.43" x2="-610.71" gradientUnits="userSpaceOnUse">
   <stop stop-color="#a4957b" offset="0"/>
   <stop stop-color="#333" offset="1"/>
  </linearGradient>
  <linearGradient id="o" x1="-617.28" x2="270.14" gradientUnits="userSpaceOnUse">
   <stop stop-color="#504c45" offset="0"/>
   <stop stop-color="#241f1c" offset="1"/>
  </linearGradient>
  <linearGradient id="n" x1="-166.43" x2="-171.43" y1="92.27" y2="163.7" gradientUnits="userSpaceOnUse">
   <stop stop-color="#928670" offset="0"/>
   <stop stop-color="#928670" stop-opacity="0" offset="1"/>
  </linearGradient>
  <linearGradient id="j" x1="710.21" x2="-258.36" y1="532.77" y2="535.13" gradientUnits="userSpaceOnUse">
   <stop offset="0"/>
   <stop stop-color="#e6e6e6" offset="1"/>
  </linearGradient>
  <linearGradient id="i" x1="-164.79" x2="-163.48" y1="328.88" y2="343.25" gradientUnits="userSpaceOnUse">
   <stop offset="0"/>
   <stop stop-color="#615744" stop-opacity="0" offset="1"/>
  </linearGradient>
  <linearGradient id="h" x1="-558" x2="-380.21" y1="546.2" y2="545.13" gradientUnits="userSpaceOnUse">
   <stop stop-color="#999" offset="0"/>
   <stop stop-color="#999" offset="1"/>
  </linearGradient>
  <linearGradient id="u" x1="749.29" x2="702.86" y1="491.56" y2="490.84" gradientUnits="userSpaceOnUse" xlink:href="#d"/>
  <linearGradient id="t" x1="1503.6" x2="1457.1" y1="551.56" y2="550.84" gradientUnits="userSpaceOnUse" xlink:href="#d"/>
  <linearGradient id="m" x1="-660.71" x2="-336.43" gradientUnits="userSpaceOnUse" xlink:href="#b"/>
  <linearGradient id="l" x1="-484.07" x2="-298.79" gradientUnits="userSpaceOnUse" xlink:href="#b"/>
  <linearGradient id="k" x1="-673.83" x2="-291.89" y1="584.41" y2="693.7" gradientUnits="userSpaceOnUse" xlink:href="#b"/>
 </defs>
 <g transform="translate(1175 -94.7)">
  <path d="m-157.14 353.34 11.429-2.1428 3.9286 137.14 55.357 2.8572v7.8571l-88.571-0.35714 17.857-145.36" fill="#333" stroke="#000"/>
  <path d="m-167.86 491.56 17.143-0.71429-2.8571-130.71 4.2857-0.71429 2.8571 131.43 54.286 3.2143-17.143-164.29c-29.185-4.3867-73.995-2.7906-107.14 1.7857l1.0714 20c11.536-4.2608 32.681-4.5794 46.964 1.25l0.5357 138.75" fill="#948570" filter="url(#ak)"/>
  <path d="m-120.71 489.41 5.7142-151.43 368.57-245.71 1525.7 2.8571 5.7142 671.43-1904.6-272.32" fill="#292212"/>
  <path transform="matrix(1.2228 0 0 1.0656 -152.67 15.363)" d="m495 250.84 110 4.2857 1.4286 267.14-110-17.143-1.4286-254.29" fill="#615744" filter="url(#a)" stroke="#9a9191" stroke-width=".87607"/>
  <path d="m323.57 286.56 110 4.2857 1.4286 267.14-110-17.143-1.4286-254.29" fill="#a4967f" filter="url(#a)" stroke="#000"/>
  <path transform="matrix(.49452 0 0 .74204 -213.77 111.86)" d="m500.78 262.39 115.78-20.742-11.571 294.1-112.89-10.405 8.6822-262.95" fill="#615744" filter="url(#a)" stroke="#9a9191" stroke-width="1.6508"/>
  <path d="m-409.29 497.98 148.57-2.8571 14.286 82.857 791.43 500-537.14 1e-4 -417.14-580" stroke="#000"/>
  <path d="m-1174.6 93.341 223.21-1.0714v686.43l-223.57 53.571"/>
  <path d="m-955 92.984h164.29l-1.4286 685h-160l-2.8571-685" fill="#291b1b"/>
  <path d="m-1175 832.27 225.71-54.286 140-0.71429-315.71 297.86-50 2.1429v-245" fill="#4d4d4d" filter="url(#ai)" stroke="#000"/>
  <path d="m-249.29 497.98 211.43-5.7143 1820 257.14 1e-4 334.29-2031.4-585.71" fill="#0e0603"/>
  <path d="m-666.43 92.984 55.714-0.71428-1.4286 499.64-52.143 49.643-2.1428-548.57" fill="url(#p)"/>
  <path d="m-575 555.13-37.143 34.286 0.71429-406.43c5.492-7.5158 13.494-13.097 22.351-15.96s18.345-2.901 27.649-2.611l825 25.714c3.5978 3.85 5.4734 9.2528 5.0352 14.504s-3.1834 10.268-7.3696 13.469c-3.5825 2.7389-8.1008 4.1271-12.608 4.2735s-9.0033-0.90293-13.158-2.6567c-7.6212-3.2172-14.031-8.6871-20.378-13.992s-12.928-10.622-20.707-13.437c-8.7262-3.1578-18.65-2.8642-27.174 0.80406s-15.56 10.673-19.266 19.181l0.07 21.795-29.445 21.06-30.732-15.97-619.98-24.03-38.571 23.571-4.2858 316.43" stroke="#000"/>
  <path d="m-407.14 500.48-113.57 3.2143-602.86 570 1134.3 1.4286-417.86-574.64" fill="#353535"/>
  <path d="m910.71 92.27-9.6428 618.93 58.214 12.5 4.2857-631.43h-52.857" fill="#483e37"/>
  <path d="m960.71 92.984-0.7142 628.57 92.143-29.286v-600l-91.429 0.71429z" fill="#241f1c"/>
  <path d="m302.86 218.7 0.7143-52.857c15.54-25.955 66.301-43.414 112.14-48.571 25.83 4.1974 40.018 14.162 50.714 26.429l-2.8572 56.429c-7.3965-88.801-83.974-52.096-115.71-21.429l-1.4286 42.857-43.572-2.8571" fill="#0b0301" filter="url(#ao)" stroke="#000"/>
  <path d="m317.14 255.84 272.14 2.8572c18.611 0.49245 27.816 8.5092 37.143 16.429l0.7142-77.143-311.43-0.71428 0.7143 57.857" fill="#1a1a1a" filter="url(#ap)"/>
  <path d="m154.29 275.84 272.14 2.8571c18.611 0.49245 27.816 8.5092 37.143 16.429l0.7142-77.143-311.43-0.71429 0.7143 57.857" fill="#1a1a1a"/>
  <path d="m265.01 93.705-2.1651 125 39.312-5.7188c1.4721-19.287-4.7175-39.703 4.7188-49.312 37.489-38.176 134.74-67.106 152.31-18.545l0.4554 0.34375-0.3617 475.36 45 7.1562-1.4374-485.72-2.125 0.1875v-48.75h-235.71z" fill="url(#s)"/>
  <path d="m502.5 143.34 1.4286 484.64 63.214-5.7143v-479.29l-64.643 0.35714z" fill="#241f1c"/>
  <path d="m567.14 217.27 260 1.247c18.997 0.64865 30.047 7.7864 37.853 15.896v-95.714l-264.29-12.857c-15.984 2.3602-28.269 7.1856-32.857 17.143l-0.7142 75" fill="#1a1a1a" filter="url(#aq)"/>
  <path d="m1052.9 151.56c79.833 3.4378 177.2-13.107 249.29 25 6.7926-52.424-5.9642-40.551 0-85l-251.43 2.1429 2.1428 57.857" fill="#1a1a1a"/>
  <path d="m370.71 92.627c55.036-2.1143 99.57 20.143 131.79 50.357l63.214 0.35714c5.9682-17.173 30.484-21.541 57.143-21.786l282.86 14.286-1.4286-42.143-533.21-0.71429" fill="#241f1c"/>
  <path d="m702.86 413.7 46.429-2.1429 0.7143 192.86-47.143-5.7143v-185" fill="url(#u)" filter="url(#ab)" stroke="#000" stroke-width="3"/>
  <path d="m235.44 220.13-0.7993 352.86 27.857 6.0714 0.18707-359.64-27.245 0.71428z" fill="#483e37" filter="url(#an)"/>
  <path d="m263.57 217.98-1.7857 360.36 55.357-4.6429-1.4286-362.5-52.143 6.7857z" fill="#241f1c"/>
  <path d="m-792.86 762.98 129.29-120-2.1429-550h-125.36l-1.7857 670"/>
  <path d="m-610 180.13c18.26-14.011 38.462-16.373 58.571-19.286l815.71 30.357v-98.214l-875.36 0.35714-0.35714 87.143" fill="url(#o)" filter="url(#al)"/>
  <path transform="matrix(1 0 0 .84632 -1175 102.7)" d="m1070-0.18502c-23.81 18.095-44.524 52.877-43.571 70.972 20.277-28.632 62.616-60.144 94.286-71.686l-50.714 0.71429" filter="url(#ae)" stroke="#000" stroke-width="1.087"/>
  <path d="m89.643 240.84c21.44 2.2452 33.482-1.3037 30.357 16.429l-0.7143 295.71-27.143-7.1429 1.4285-287.14-3.2143-17.143" fill="url(#r)"/>
  <path d="m119.64 550.13 32.857-4.6429-0.3571-313.93-32.143 23.571-0.3571 295" fill="#26211b"/>
  <path d="m154.29 550.13 7.8572-2.1429 2.1428-322.86c0.3491-13.24 13.728-20.557 35-24.286 13.911-0.0672 24.87 8.7244 35 20-0.7755-9.0797-0.032-23.971-38.571-30.714-19.25-3.3249-36.073 4-47.143 24.286l2.1141 18.935 3.6002 316.78" filter="url(#am)" stroke="#000"/>
  <path d="m-575 554.41 20-17.857 2.8571-250.71c3.7237-20.848 17.005-20.191 27.857-25 171.52 7.2435 342.99 7.929 513.57 13.571 12.364 6.5783 19.299 15.328 22.143 25.714l-3.9286 227.86 15.714 3.5714c-0.1254-82.621-1.435-162.39-0.3573-245 0.2143-16.429 0.4524-32.858 0.7143-49.286-186.69-6.6818-367.99-24.411-558.93-24.286-14.008 2.2495-27.699 11.295-36.071 28.571l-3.5714 312.86" fill="#b8ad9b"/>
  <path d="m22.857 237.27h30.714l-1.0714 290.36-28.571 2.5-1.0715-292.86" fill="#25201a" filter="url(#v)"/>
  <path d="m-555.71 537.27 4.2857-254.29c6.7951-18.296 18.179-18.236 28.571-22.143l117.86 3.5714c0.67577 6.5685 0.32691 6.3338 3e-5 22.857-34.05 0.36266-72.386-0.6372-106.43-1.4286-12.667 2.0713-20.647 9.3865-25.714 22.857l1.4286 208.57-18.929 21.071" fill="#1a1a1a" stroke="#000"/>
  <path d="m-245 290.84-2.1429 206.43 31.429 1.4286 0.71428-166.43c35-3.8212 70-6.9644 105-1.4286l2.8571 5 119.29-32.143c-6.0847-41.442-51.97-33.401-91.751-32.95l-164.68 21.522" fill="#b4a592"/>
  <path d="m-405 287.27 327.86 8.5714c16.134 2.9676 19.653 10.666 20.714 19.286v200.36l12.5 2.1429 0.3571-244.64-362.5-9.2857 0.71428 23.571" fill="url(#q)"/>
  <path d="m-534.29 517.27-2.1429-209.64c2.5922-12.17 11.534-16.561 21.429-21.429l277.86 4.6428-0.35715 35.357c-81.464-5.2441-154.12-17.807-243.38-14.267-14.149 0.56112-25.934 0.78276-41.265 8.1955l-1.4286 185.71-10.714 11.429" fill="#d4cbbc" filter="url(#aj)"/>
  <path d="m-43.572 517.27 28.572-2.8572 0.7143-241.43-30-0.71428 0.7142 244.64" fill="#25201a" filter="url(#w)"/>
  <path d="m-522.86 504.41 280.18-6.7857-3.0357-173.21c-96.011-7.2822-261.66-26.17-277.14 0v180" fill="#0b0609" stroke="#000"/>
  <path d="m-443.57 378.7-15 107.86-62.143 2.1429-1.4286 15 77.143-3.5714 1.4286-121.43" fill="#686352" filter="url(#ar)"/>
  <path d="m-357.86 495.13 1.4286-42.857-12.857 0.71428-0.71429-9.2857 120.71 0.71428 1.4286 10.714-14.286 0.71428-0.71429 32.857-7.1429-1.4286v-30.714l-77.143 0.71429-1.4286 37.857h-9.2857" fill="#686352" filter="url(#g)"/>
  <path d="m-213.57 351.56c13.99-4.3353 28.75-3.7525 44.643 1.4286 2.9183 48.333 1.4215 96.667 0.7143 145l-47.143 1.4286 0.35715-148.57" fill="#1a1a1a" stroke="#000"/>
  <path d="m1325 92.27 5.7143 605.71 448.57 68.571 5.7143-671.43-460-2.8571" fill="#211f12" stroke="#000"/>
  <path transform="matrix(1.6475 0 0 1.302 -990.13 -150.11)" d="m1457.1 473.7 46.429-2.1429 0.7143 192.86-47.143-5.7143v-185" fill="url(#t)" filter="url(#as)" stroke="#000" stroke-width="2.0484"/>
  <path d="m1407.9 155.13-2.8571 551.43-54.286-8.5714 57.143-542.86" filter="url(#c)" stroke="#000"/>
  <path d="m1659.3 183.7 34.286 568.57-114.29-20c14.155-134.48-4.9173-441.71 17.518-530.64 7.7541-30.737 40.808-63.755 62.482-17.932" filter="url(#c)" stroke="#000"/>
  <path transform="matrix(2.7213 0 0 1 -2153.4 51.429)" d="m1240.7 136.56-9.9999 601.43-50.499-17.143 6.0898-582.07 54.409-2.2181z" filter="url(#c)" stroke="#000" stroke-width=".60619"/>
  <path d="m1267 190.84-5.845 601.43-23.38-14.286c8.2738-134.48-9.5543-493.13 3.5595-582.07 4.5323-30.737 12.997-50.898 25.666-5.0753z" stroke="#000"/>
  <path d="m-662.86 640.84 157.14 91.429-286.43 31.429 129.29-122.86" filter="url(#af)" stroke="#000"/>
  <path d="m-575.71 558.7 102.14 37.857-137.86-5.7143 36.429-32.857" filter="url(#ag)" stroke="#000"/>
  <path d="m-534.29 517.27 65.714 15-85.714 5.7143 20.714-20" filter="url(#ah)" stroke="#000"/>
  <path d="m-123.57 497.27 17.143 2.8571 6.4286-167.14-21.429 5-2.1429 158.93" fill="#b8ad9b"/>
  <path d="m-197.86 92.27 112.14 1.4286c-37.317 12.582-60.515 34.577-63.571 70h-57.857l9.2857-71.429" fill="url(#n)"/>
  <path d="m-220.71 227.27 50 2.1429c-37.317 12.582-21.229 19.577-26.429 37.143l-37.143-1.4286c1.0362-13.259 3.9992-26.26 12.143-38.571" fill="#5c554a" fill-opacity=".9922"/>
  <path transform="matrix(1 0 0 .84632 -1235.7 211.27)" d="m1064.6 22.075c-29.296 10.312-25.742 19.624-25.536 43.226 4.7623-17.207 11.779-32.731 25.536-43.226z" filter="url(#ac)" stroke="#000" stroke-width="1.087"/>
  <path d="m-1050.7 805.13 767.14-21.429 44.286 84.286-905.71-40-30 18.571 951.43 62.857 37.143 75.714-985.71-118.57 584.29 95.714c15.694 46.667 31.765 63.333 5.7143 110l-236.51-0.206-354.92-122.65c-2.8371-110.61 88.495-132.68 122.86-142.86" fill="#999" filter="url(#ad)"/>
  <path d="m-613.93 592.27 263.21 7.1428 14.286 44.286-314.29-40 281.43 57.143 11.429 35.714-305-57.5 48.929-46.786" fill="url(#m)" filter="url(#f)"/>
  <path d="m-611.79 592.63 226.79-24.643 21.429 51.429-266.07-13.929 287.5 41.071 37.143 70-357.5-75.714 51.786-48.929" fill="url(#k)" filter="url(#f)"/>
  <path d="m-555.36 537.98 154.64-10 20 34.286-193.39-7.375 6.1707-5.5664c349.61-20.425 75.436-8.2929 7.6877-6.9348l4.8883-4.4096" fill="url(#h)" filter="url(#e)"/>
  <path transform="matrix(.77676 0 0 1 -159.59 51.429)" d="m-468.86 455.13 149.57-10 20 34.286-182.51-13.804 12.938-10.482" fill="url(#l)" filter="url(#e)"/>
  <path d="m-214.11 333.16c37.869-7.2851 71.034-5.1629 103.75-2.1429l2.6785 3.9286-107.68 15.893 1.25-17.679" fill="url(#i)"/>
  <path d="m-257.86 495.13 2028.6 582.86h-1225.7l-791.43-500-11.429-82.857" fill="url(#j)" stroke="#000"/>
  <path d="m-405.89 501.91 123.04 76.071 37.321 1.9643-11.607-83.75-148.75 5.7143" fill="#4d4d4d"/>
  <path d="m-355.54 492.09 2.1428-41.786h-14.107l-0.17857-4.4643 114.46 3.2143-0.89286 4.4643-8.9286-0.53572-1.4286 30.536-2.1429-0.89286 0.71429-29.821-84.107-2.3214-1.9643 41.964-3.5714-0.35714" fill="#b4a592" filter="url(#g)"/>
  <path d="m356.07 407.27-0.7142 141.07 37.5 5-2.1428-145-34.643-1.0714" filter="url(#aa)"/>
  <path d="m371.79 416.56 3.5717 127.14 9.6426 2.5-5.7141-131.07-7.5002 1.4286" fill="#fff" filter="url(#z)"/>
  <path d="m-92.143 340.84 17.143-11.429 2.8572 178.57-28.572-5.7143 8.5715-161.43" filter="url(#y)" stroke="#000"/>
  <path d="m-242.14 292.27 2.8572 202.86h18.571l2.8571-200-24.286-2.8572" fill="#fff" filter="url(#x)"/>
  <path transform="matrix(.49452 0 0 .74204 -213.77 111.86)" d="m566.5 219.08 42.113-6.7841-3.6268 323.45-47.168-3.6666 8.6822-313" fill="#26211b" filter="url(#a)" stroke="#9a9191" stroke-width="1.6508"/>
  <path transform="matrix(.5652 0 0 .7081 -143.74 139.2)" d="m566.5 219.08 42.113-6.7841-3.6268 323.45-47.168-3.6666 8.6822-313" fill="#26211b" filter="url(#a)" stroke="#9a9191" stroke-width="1.5807"/>
 </g>
</svg>
