<?xml version="1.0" encoding="UTF-8"?>
<svg viewBox="0 0 190.52863 186.59929" xmlns="http://www.w3.org/2000/svg">
 <g transform="translate(-103.52 -88.844)" fill-rule="evenodd">
  <path d="m197.81 88.844-2.7188 3.25-4.5625 12.656-1.5312 14.156-2.5312-7.0625-4.0312 7.0625 4.5625 7.0938-2.5312 5.0625-4.5625-8.5938-1.0312 9.125 5.0625 5.5625-2 6.0625-6.5938-7.0938 0.5 7.5938 5.5625 6.5938v7.0938l-4.0312-2.5312-6.5938-5.0625 2.0312 9.0938 6.5938 5.5938 0.5 7.0938-6.0938-1.0312-8.0938-5.0625 4.0625 12.656 7.5938 2.5312 0.5 5.5625-6.5938 0.53125-0.5 15.188 4.5625 0.5-1 42.531h-7.5938v8.5938l3.5312 0.53125v4.5312h4.5625v6.5938h-6.5938v8.0938l59.25 0.5v-8.0938h-6.5938v-6.5625h4.5625v-4.5625l3.5312-0.5v-8.625h-7.5938l-1-42.531 4.5625-0.5-0.5-15.188-6.5938-0.5 0.5-5.5938 7.5938-2.5312 4.0625-12.656-8.0938 5.0625-6.0938 1.0312 0.5-7.0938 6.5938-5.5625 2.0312-9.125-6.5938 5.0625-4.0312 2.5312v-7.0938l5.5625-6.5625 0.5-7.5938-6.5938 7.0625-2-6.0625 5.0625-5.5625-1.0312-9.125-4.5625 8.625-2.5312-5.0625 4.5625-7.0938-4.0312-7.0938-2.5312 7.0938-1.5312-14.188-5.6562-14.406-1.75-2zm-7.7188 41.344h13.438v1.75h-13.438v-1.75zm15.844 10.781v1.75l-17.844 0.4375v-1.75l17.844-0.4375zm2.2188 13 0.65625 2.1875-21.594 0.21875-0.21875-1.9688 21.156-0.4375zm-22.688 13 24.875 0.21875 0.21875 1.9688-25.312-0.21875 0.21875-1.9688zm27.094 14.094 0.4375 2.4062-31.062 0.4375-0.21875-1.75 30.844-1.0938zm-20.5 29.5 9.6875 0.4375 5.3125 6.8438 0.4375 39.875-20.5-0.21875-1.5312-38.781 6.5938-8.1562z"/>
  <path d="m118.99 275.44-0.50633-7.5949 8.1013-5.0633 1.519-14.684s-13.215-9.4482-15.19-15.696c-1.7615-5.5718 3.038-19.24 3.038-19.24s1.2869 9.7843 4.0506 12.658c2.4648 2.563 11.139 4.0506 11.139 4.0506s-6.7273-8.3155-7.5949-12.658c-1.0228-5.1189 2.5316-17.215 2.5316-17.215s3.2775 10.236 6.5823 13.165c1.6901 1.4976 7.0886 2.5316 7.0886 2.5316l0.50632-6.5823s-5.9457-4.6954-7.0886-7.5949c-1.6154-4.0982 0-14.684 0-14.684s2.9428 8.1698 5.5696 10.633c1.0913 1.0233 4.557 2.0253 4.557 2.0253l2.5316-8.6076s-4.2412-3.0786-5.0633-5.0633c-1.337-3.2277 0-11.646 0-11.646s2.2349 7.6199 5.0633 8.6076c1.9974 0.69747 6.5823-2.5316 6.5823-2.5316s-5.0661-4.4314-5.5696-7.0886c-0.59046-3.1163 3.038-10.127 3.038-10.127l6.076 10.633v-7.0886l-3.038-6.5823 10.127-9.1139 0.50633 124.56h-44.557z"/>
  <path d="m278.23 274.34 0.50633-7.5949-8.1013-5.0633-1.519-14.684s13.215-9.4482 15.19-15.696c1.7615-5.5718-3.038-19.24-3.038-19.24s-1.2869 9.7843-4.0506 12.658c-2.4648 2.563-11.139 4.0506-11.139 4.0506s6.7273-8.3155 7.5949-12.658c1.0228-5.1189-2.5316-17.215-2.5316-17.215s-3.2775 10.236-6.5823 13.165c-1.6901 1.4976-7.0886 2.5316-7.0886 2.5316l-0.50632-6.5823s5.9457-4.6954 7.0886-7.5949c1.6154-4.0982 0-14.684 0-14.684s-2.9428 8.1698-5.5696 10.633c-1.0913 1.0233-4.557 2.0253-4.557 2.0253l-2.5316-8.6076s4.2412-3.0786 5.0633-5.0633c1.337-3.2277 0-11.646 0-11.646s-2.2349 7.6199-5.0633 8.6076c-1.9974 0.69747-6.5823-2.5316-6.5823-2.5316s5.0661-4.4314 5.5696-7.0886c0.59046-3.1163-3.038-10.127-3.038-10.127l-6.076 10.633v-7.0886l3.038-6.5823-10.127-9.1139-0.50633 124.56h44.557z"/>
  <path d="m107.05 274.67 9.2511-0.22026-0.88106-6.1674 7.2687-7.2687 0.22027-9.0308-19.383-0.44053v23.568l3.5242-0.44053z"/>
  <path d="m290.53 274.01-9.2511-0.22026 0.88106-6.1674-7.2687-7.2687-0.22027-9.0308 19.383-0.44053v23.568l-3.5242-0.44053z"/>
 </g>
</svg>
