<?xml version='1.0' encoding='utf-8'?>
<svg xmlns="http://www.w3.org/2000/svg" version="1.1" id="Layer_1" x="0px" y="0px" viewBox="0 0 4171.6 5000" style="enable-background:new 0 0 4171.6 5000;"> <g transform="translate(1607.8732,-59.539161)"> <path d="M1232.5,2511.5c0-2.4,5.1-9.9,11.3-16.7c13.1-14.3,13.8-16.2,4.7-13.7c-9.1,2.6-28.7,25-26.5,30.4h0 C1224.2,2517.2,1232.5,2517.1,1232.5,2511.5z"/> <path d="M1240.2,2517.5L1240.2,2517.5c2.6,6.6,7,4.8,10.4-4.5c1.7-4.7,5.5-9.3,8.3-10.2c5.8-1.8,6.9-9.8,1.4-9.8 C1252.4,2493.2,1237.7,2511.1,1240.2,2517.5z"/> <path d="M1248.8,2570.4c2.4-3.9-15-11.9-16.5-20.8c-1.7-10.9-8.2-9.5-8.1,1.8c0.1,8.5,1.7,11.2,9.5,16v0 C1244.4,2573.7,1246.5,2574.2,1248.8,2570.4z"/> <path d="M1265.2,2727.8c-23,1.4-29,5.9-18.5,13.8v0c8.8,6.7,19.8,7.3,22.1,1.1c0.9-2.5,4.7-5.7,8.5-7.1 C1290.7,2730.6,1284.6,2726.6,1265.2,2727.8z"/> <path d="M1375.8,2979.9c0,3.8-2.3,12.6-5.3,19.6c-4.7,11.2-4.9,13.5-1.3,18.5c7.1,9.8,0.9,73.4,5.5,85.4v0c3.4,8.9,8.2,8,7.6-1.4 c-1-16.1,4-85-0.4-87.7c-3.4-2.1-4.2-21.4-0.8-21.4c1.3,0,3.8-5.8,5.6-12.8c2.6-10,5.7-14.3,14.4-19.8 c10.7-6.8,17.8-19.2,15.2-26.6c-2.2-6.1-8.7-3.9-10.5,3.6C1402.9,2949.3,1375.7,2968.8,1375.8,2979.9z"/> <path d="M1419.8,3038.6c-0.3,0,9.9,17.1,13.6,17.1c6,0,0.7-6.3,0.6-12.5C1433.9,3035.2,1399.4,3001.4,1419.8,3038.6z"/> <path d="M1365.7,3109.9c-6.3,0-9.5,8.1-5.2,13.2c1.8,2.1,2.5,7.1,1.5,11.2c-1.4,5.7-0.5,9.8,0,10c2.8,4.5,10.1,3.1,11.7-2.3 c2.3-7.6,6.7-13.5,6.7-18.3C1380.3,3118.4,1371.2,3109.9,1365.7,3109.9z"/> <path d="M1306.6,2908.5c1.7-3.8,4.2-7,5.5-7c1.3,0,2.4-4.2,2.4-9.3c0-17.1,14.3-27.8,4.5-27.8c-5,0-13.4,14.9-13.3,23.8 c0,4-1.2,8-2.8,9c-2.5,1.5-11.2,19.7-11.2,23.2h0C1291.8,2924.2,1304,2914.3,1306.6,2908.5z"/> <path d="M1428.8,2754.5c-4.9-46.2-25.4-17.8-0.7,29.8c0,0.7,9.5,17.4,11.9,17.4c4.3,0,3.4-4.7-3.2-17.4 C1433.5,2778.1,1429.9,2764.7,1428.8,2754.5z"/> <path d="M1233.8,2693.6c-7.1-1.4-6.3,8.7-0.5,7.5C1239.6,2699.8,1239.9,2694.7,1233.8,2693.6z"/> <path d="M-495,3205.3c-0.7-13.8-7.7-21.6-14-15.4c-2.6,2.6-2.5,4.4,0.3,7.7c2.7,3.2,3,6.5,0.9,12.7c-2.4,7.1-1.8,9.8,4.3,17.7 c10.8,14.2,5.5,25.4,9.3,29.2c-0.3,0.1,2.2,1.7,5.7-1.3c5.2-4.3,4.6-19.1-1.2-29.6C-492.3,3221.7-494.7,3212.2-495,3205.3z"/> <path d="M-587.3,3033.1c-6-10.6-5.5-16.7,1.3-16.7c6.6,0,7.1-2.5,2.2-12.8c-2.8-6-2.6-9.2,1.2-17.4c2.6-5.5,4.6-12.1,4.6-14.7 c-0.1-6.4-8.7-15.1-14.9-15.1c-8.1,0-9.4,5.6-2.7,11.8c7.1,6.5,7.2,6.8,3.2,14.2c-3.4,6.5-8.4,4.7-8.5-3.1 c-0.1-7.4-5.6-10.1-10.4-5.2c-3.4,3.4-3.3,6.4,1,21c7.7,26,1.8,29.6,10.3,45.7c3.2,6.1,5.9,13.6,6,16.5c0.1,5.5,7.8,23.4,12.8,29.9 c0.3,0,2.2,4.2,6.4,0.7C-569,3083-583.7,3039.4-587.3,3033.1z"/> <path d="M1363.5,3158.4c-11.8,0-4,22.4-18.4,47.2c-8.1,13.9-8.5,23.3-1.5,35.2c4.9,8.4,9.4,10.8,13.1,7.1c0.9-0.9-1.1-7.3-4.5-14.1 l-6.2-12.4l8.8-14.3c6.7-10.9,14.6-36.9,14.5-47.8C1369.2,3158.8,1366.7,3158.4,1363.5,3158.4z"/> <path d="M-459.8,3249.9c-2.3,1.4,2.4,5.6,2.8,5.6c6.3,4.5,21.8,3.9,23.3-0.9C-432.6,3251.2-455.3,3247.1-459.8,3249.9z"/> <path d="M-608.2,2926.9c-3.1,17.4,10.6,20.8,9.9,14.4c-0.1-1.1-0.3-7.1-0.4-13.2c-0.2-13.3-8.1-24.4-15.5-21.6 c-6.9,2.6-6.2,8.9,1.3,10.8C-608,2918.6-607.1,2920.5-608.2,2926.9z"/> <path d="M-467.2,3173.4c2.4,3.7,35.2,4.1,37.4,0.4c2.7-4.4-4.1-6.7-20.4-6.9C-466.1,3166.7-470.5,3168.3-467.2,3173.4z"/> <path d="M-435.7,3136.2c2.6-4.3-4.8-8.5-11.3-6.5c-2.9,0.9-9,0.1-13.7-1.9c-9.2-3.8-17.1-0.3-17,7.6 C-477.6,3140.4-438.7,3141.1-435.7,3136.2z"/> <path d="M-463.1,3203.8c-9.3,2.9-5.1,6.6,8.7,7.7c7.5,0.6,16.4,1.3,19.6,1.6c4.9,0.4,20.2-7.5,15.6-8 C-432.5,3203.4-459.2,3202.6-463.1,3203.8z"/> <path d="M1289.1,2616.5c-13.5,0.7-16.7,1.8-17.5,6.2c-1.9,10.6,13.9-2.9,14,6c0,2.4-1.8,4.3-4.1,4.3c-7.3,0-7.9,5.7-1,8.4 c0-1.7,7.8,6.9,27.4,0c7.4-2.6,8.6-4.3,7.9-11.8C1314.8,2618.3,1309.2,2615.5,1289.1,2616.5z"/> <path d="M-488.7,2453.8c-10.8,2.1-7.7,14.9,1.6,3.6C-483.8,2453.4-484,2452.9-488.7,2453.8z"/> <path d="M1320.3,2832.3c0.9,0,1,17.8,8.5,17.9c6.7,0,6.8-8.6,0.1-31.4c-3.9-13.4-6.2-17.1-10.6-17.1 C1310.6,2801.6,1315,2803.1,1320.3,2832.3z"/> <path d="M1335.5,2584.1c9.4,11,12.3,11.3,15.9,1.7c4.1-11.2,3.8-11.6-14-21.2c-20.8-11.2-30.4-13.9-28-8c3.7,9.2-22.5,4.4,3.4,13.3 C1324,2573.8,1335.4,2582.6,1335.5,2584.1z"/> <path d="M1296.4,3069.6c0,1.5,5.5,3.3,12.3,3.9c16.8,1.6,25.6-0.2,32.1-6.5c5.4-5.3,5.1-5.4-15.9-3.9 C1300.3,3064.9,1296.3,3065.8,1296.4,3069.6z"/> <path d="M1293.7,2867.3c-3.2,12.4-3.4,17.4-0.7,25h0c3.5,9.9,9.9-0.8,9.8-16.4c0-3.9,2.5-11,5.6-15.7c7.3-11.2,7.2-18.5-0.3-18.6 C1301.9,2841.6,1299,2846.7,1293.7,2867.3z"/> <path d="M1225.8,3179.6c-0.1-8.5-7.4-9.7-9.4-1.6c-0.8,3-0.7,6.3,0.2,7.1C1220.7,3189.2,1225.9,3186.1,1225.8,3179.6z"/> <path d="M1250.2,3146.4c2.9-0.5,5.7-3.3,6.2-6.2c0.7-3.8-0.5-4.9-4.3-4.2c-2.9,0.5-5.7,3.3-6.2,6.2 C1245.3,3145.9,1246.5,3147.1,1250.2,3146.4z"/> <path d="M1262,2574.9c0,2.9,3.7,5.2,3.7,4.9c3.6,1.4,21.8-0.6,25.9-2.9c5.8-3.3,0.6-5.4-13.7-5.4 C1267.3,2571.4,1261.9,2572.6,1262,2574.9z"/> <path d="M1251.9,2697.3c0.1,7,13,3.2,12.9,0C1264.8,2694.1,1251.8,2690.3,1251.9,2697.3z"/> <path d="M1273.8,2602.3c0.1,5.3,50.2-1.6,33.5-8C1301,2592,1273.7,2598.5,1273.8,2602.3z"/> <path d="M1266.2,2587.4c-6,0-9.4,1.1-8.3,2.8c5.4,8.5,53.4-3.7,47.9-9.1C1301.1,2576.5,1283.6,2587.4,1266.2,2587.4z"/> <path d="M1414.8,2711.7c5,12.7-43.3,2.3-35.6,1.8c5.5-0.3,6.9-7.8,1.8-9.5c-4.3-1.4-8.7-24.5-6.9-35.9c0.9-5.3,0.3-9.3-1.3-9.3 c-9.7,0-3.1,44.9-8.8,41.4c-3.8-2.3-4-27.4-0.4-37.3c2.6-6.9,2.3-7.5-2.9-6.2c-3.8,1-5.8,0.1-5.8-2.5c0-2.2-1.9-4-4.1-4 c-9.1,0-13.5,37-6.1,51.3c3,5.8,14.6,14.9,15.2,14.9c10.2,7,14.2,7.9,34.6,8c26.1,0.1,24.6-0.9,48.7-16.9 C1421.3,2707.5,1412.9,2706.7,1414.8,2711.7z M1352.2,2666c2.1-5.1,2.4-4.9,2.7,2C1355.3,2680.8,1345.2,2682.5,1352.2,2666z"/> <path d="M1420.2,2677.8L1420.2,2677.8c2.2,8.4,7,9.2,6.9,1.1c-0.2-15.1-14.8-35.3-21-29.1C1400.8,2655.1,1416.8,2665,1420.2,2677.8 z"/> <path d="M1258.7,3248.7c9.5,11.3,14.1-9.3,5.5-24.7C1243.3,3186.6,1256.6,3253,1258.7,3248.7z"/> <path d="M1300.4,2537.4c0-3.5-36-8.1-25.2,2.5C1278.2,2542.9,1300.4,2540.7,1300.4,2537.4z"/> <path d="M1316.5,2487.2c-3.6-3.6-20.8-4.6-21-1.2C1295.1,2490.4,1324,2494.6,1316.5,2487.2z"/> <path d="M1378.7,2672.3c-1.1,8.1,11,30.3,14.8,30.3c4.7,1.6,10.9-0.6,10.8-3.9c0-1.4-1.8-2.6-4-2.6c-3.9,0-11.9-13.5-14-23.7 C1384.8,2665,1379.6,2664.9,1378.7,2672.3z"/> <path d="M1373.8,2625.5L1373.8,2625.5c1.8,11.9,7.6,13.1,9.1,1.9c1.4-10.4-5.2-28.5-10.4-28.5 C1366.1,2598.9,1370.6,2604.3,1373.8,2625.5z"/> <path d="M1408,2692.7c8.1,3.9,10,4,11.9,0.9c0.9-1.4-1.7-4.6-5.6-7.2c-10.3-6.7-14.3-24.6-18.8-24.6 C1387.3,2661.8,1397.9,2687.8,1408,2692.7z"/> <path d="M1356.6,2641L1356.6,2641c-2.7,8.3,5.3,9,9.6,0.9c6.3-11.8,1-37.3-7.7-37.3C1349,2604.6,1363.4,2620.6,1356.6,2641z"/> <path d="M1305.7,2507.2c2.4,3.7,18.9,4.1,18.8,0.4C1324.4,2504.5,1299.1,2496.8,1305.7,2507.2z"/> <path d="M1296.3,3191.5c-7.1,2.7-4.8,9.1,3.7,10.4c4.4,0.7,9.5,1.4,11.5,1.6c2,0.2,3.6-1.5,3.5-3.9 C1315,3194.5,1302.6,3189.1,1296.3,3191.5z"/> <path d="M1336.2,2555.6c7.1,3.9,16.6,11.7,15.7,12.2c8.4,13.2,9.9-1.5,4.8-4.6c-1.6-1-2.9-5.3-3-9.7c-0.1-8.3-12.9-23-16.7-19.2 c-1.2,1.2,0.8,4.5,4.4,7.4c6.5,5.2,8.8,11.5,4.1,11.4c-3.4,0-16-11.5-20.6-11.5C1318.2,2541.7,1324.1,2549,1336.2,2555.6z"/> <path d="M1254.7,2519.8c3.3,3.3,9.5,1.9,9.5-2.1c0-2.2,1.9-5.5,4.2-7.5c5.4-4.5,5.5-8.6,0.1-8.6 C1262.9,2501.6,1251,2519.8,1254.7,2519.8z"/> <path d="M1607.8,3433.7c11.3,48.1,30.5,92.8,31.5,90.7c6.6,9.9,8.1,10.7,16.4,9c11.2-2.3,14.6-5.6,18.6-18.1 c4.7-14.5,3.9-20.2-2.7-20.2c-4.4,0-5.7,1.9-5.7,8c0.2,18.7-18.6,23.9-25.1,7c-6.8-17.8-16.2-51.7-18.9-67.7 c-4.3-26.2-14.1-54.5-21.8-63.3c-10.4-11.9-12.5-5.5-4.7,14.3C1599.4,3402.9,1604.9,3421.1,1607.8,3433.7z"/> <path d="M1299.6,3166.2c-10,1.2-12.8,3.3-9.2,6.9v0c1.3,1.3,27.3,3.8,27.3-1.8C1317.6,3166.1,1312.3,3164.6,1299.6,3166.2z"/> <path d="M1671.9,3881.4L1671.9,3881.4c24.6,25.9,31.6,22.5,16.8-8.2c-9.9-20.7-4.6-28.8-16-58.7c-17.7-46.2-17.2-43.4-20.8-140.1 c-2.6-71.6-5.1-95-10.5-100.3c-7.2-7.1-9.3,1.7-5.8,23.6c1.9,11.6,4.1,53.8,5,93.8c1.4,64,2.4,75.6,8.3,98.2 c11.2,42.7,18.4,30.7,21.8,60.5c1.1,9.8,1.6,17.8,1.1,17.8c-1.9,0-15.2-21.9-28.9-35.2c-16.5-15.9-20.1-39-21-135.3 c-0.4-44.5-2-86.1-3.5-92.5c-4.8-20.9-8-49.3-15.8-68.4c-3.1-7.7-5.3-17.3-4.9-21.4c0.7-6.4,2-5.1,9.6,9.6 c6.5,12.5,12.5,19.5,22.9,26.4c16.6,11.1,22.4,11.5,39.2,3c20.8-10.5,17.2-18-4.8-10.1c-8.2,2.9-11.1,2.6-22.5-3.1 c-10.3-5.1-15.5-10.5-24.8-25.7c-6.4-10.6-11.7-21.5-11.8-24.3c-0.1-12.6-19.1-91.9-24.4-102c-6.3-12-13.4-13.3-11.7-2 c1.4,9.7,12.2,45.9,15.3,51.3c4.4,7.8,7.3,31.1,3.8,31c-7.5,0-8.7,10.9-4.2,38.6c13.6,83.9,25.1,49.6,25.8,193.5 C1610.8,3833.6,1614.2,3820.8,1671.9,3881.4z M1596.1,3493.1c-1.2,3.7-5-5.6-4.9-12C1591.5,3474,1597.3,3489.5,1596.1,3493.1z"/> <path d="M1293.2,3355.8c-21.1-3.1-51.3-1.1-51.1,3.5c0.2,5,56,1.9,54,8c-2.3,6.9-52.2-2.6-59.2,6c-4.4,5.4-6.1,5.1,30,4.5 c15.8-0.3,32.6-0.4,37.3-0.4c12.9,0.2,41.2,4.8,43.5,7.1v0c3.6,3.5,21.8,2.3,20.5-1.4c-1.6-4.6-15.3-8.3-30.2-8.3 c-6.7,0-12.8-1-13.6-2.3c-1.7-2.7,14.6-5.9,30.1-5.9c5.6,0,12.7-2,15.8-4.3C1380.9,3353.9,1334.5,3361.9,1293.2,3355.8z"/> <path d="M1726.3,3729.2c6.8,2.3,7.6-4,2-16c-3-6.4-5.5-13.7-5.6-16.2c-0.2-6.4-11.8-26.2-11.9-32.1c-0.1-6.7-10.9-18-14-14.7 C1691,3656.2,1717.1,3726,1726.3,3729.2z"/> <path d="M1472.7,3517.6c-23,0-18.4-31.7-28.9-33.7c-4-0.8-4.8,1.4-4.7,11.7c0.2,21.7,18.7,32,18.7,30.7c8.5,3.5,30.8,0.3,37.3-5.4 c5.8-5.1,29.9-55.4,29.8-62.2c-0.1-10.6-9.9,0-19.7,21.5C1491.1,3510.8,1485.2,3517.6,1472.7,3517.6z"/> <path d="M-484.1,2612.9c-16.9,5.5-19.7,11.6-8.7,19.1c0,2.6,28.3,7.3,28.2,2.3c0-1.2-1.3-4-2.8-6.3c-4.4-6.8-0.8-8.5,8.4-4 c12.8,6.3,16.5,2,6.8-7.9C-461.7,2606.5-463.9,2606.3-484.1,2612.9z M-483.7,2627.7c-7.8-0.3,1.5-3.7,3.8-1.5v0 C-479,2627.1-480.7,2627.8-483.7,2627.7z"/> <path d="M1558.2,4218.6c3.7,3.6,10.9,0.4,10.6-4.6c-0.2-2.7-0.7-24.1-1.2-47.6c-0.9-40.6-1.2-42.6-6.7-42.6 c-5.5,0-5.7,1.9-5.2,46.4C1556.1,4218.2,1558.2,4218.3,1558.2,4218.6z"/> <path d="M1468.7,3217.2c1.5,3.7,2.6,4,6.1,1.1c5.7-4.7,5.5-25.6-0.2-25.6C1469.9,3192.7,1465.8,3209.9,1468.7,3217.2L1468.7,3217.2 z"/> <path d="M1299.2,3127.8c8.9,2.3,23.7,2.1,23.7-0.4c0-2.3-19-9-25.6-9C1292.1,3118.4,1293.7,3126.4,1299.2,3127.8z"/> <path d="M1303.8,3150.5c6.7,0.6,14.6,1.3,17.5,1.6c8.2,0.8,4-6-5.2-8.5C1301.1,3139.7,1276.5,3148.1,1303.8,3150.5z"/> <path d="M1281.1,2550.2c-15.5,0-21.6,2.5-17.1,7C1269.4,2562.6,1318.2,2550.3,1281.1,2550.2z"/> <path d="M1215.1,3636.5c-2.4,18.8-17,75.1-20.4,95.9c-25.7,154.6-28.6,166.5-18.4,166.5c4.6,0,5.6-3.1,6.9-22.1 c2.2-30.9,4.5-23.9,12.6-77.5c15.8-103.6,20.5-99.5,28.2-145c2.3-13.2,4.7-24.6,5.4-25.3s-0.1-3.8-1.8-6.8 C1223.1,3613.9,1217.1,3620.6,1215.1,3636.5z"/> <path d="M1307.7,3241.5c-7-1-9.3,6.4-2.8,9C1315.6,3254.7,1317.9,3243,1307.7,3241.5z"/> <path d="M1330.9,4073.9c-5.5,31.1-8.4,122-6.1,122.1c2.1,17.4,2.8,18.9,8.5,18.1c6.8-1,6.8-0.6,1.5-31.8 c-5.4-31.6,2.8-11.4,2.5-45.7c-0.5-56,34.3-202.5,26.5-210C1351.2,3914.2,1346.6,3985.4,1330.9,4073.9z"/> <path d="M1605.2,4917.3c-4.8,6.3-21,28.6-20.9,36.5c0.1,10.3,8,3.2,23.9-21.1c10.1-15.5,15.6-26.6,14-28.2 C1618.7,4901.2,1615.8,4903.5,1605.2,4917.3z"/> <path d="M234.2,4870.4c-4,11.2-23.3,65.5-23.3,67c0,0.6,2,1.1,4.4,1.1c4.1,0,18.2-27.6,18.1-35.3c-0.1-4.9,13.9-30.4,13.8-38.7 C247.1,4855.1,238.2,4859.1,234.2,4870.4z"/> <path d="M163.3,4838.4c-3.8,3.8-4.6,107.6,8.6,86.1c0.9-1.5,1.5-20.7,1.4-42.8C173,4841.4,170.6,4831.1,163.3,4838.4z"/> <path d="M80.8,4863.4c-0.1-4.6-7.6-9.3-10.4-6.4c-2.9,2.9,16.6,58.8,24.6,58.8c4.8,0,3.9-3.6-7-30.3 C84.1,4875.9,80.8,4866,80.8,4863.4z"/> <path d="M643.7,4938.6c-1.1,0-11.2-5.1-22.4-11.3c-22.3-12.4-26.3-13.5-26.2-7.1c0.1,6.4,11.4,14.9,38.2,28.6 c26.8,13.7,27.2,13.9,30,9.2C665.1,4954.8,648.6,4938.6,643.7,4938.6z"/> <path d="M13.9,4902.3c-7.2-9.8-15.1-17.7-17.5-17.7c-5.8,0-5.4,6.2,1,12.9c12.2,12.9,34.4,46.7,41,46.7 C49.6,4944.2,36.3,4932.4,13.9,4902.3z"/> <path d="M434.5,4969c-37.3,12.3-68,26.9-67.9,32.3c0,3.6,10.8,3.2,18.1-0.8c19.3-10.5,66-24.1,61.8-30.6 C444.5,4966.6,442.1,4966.5,434.5,4969z"/> <path d="M-93.8,5000.9c-26.7-3.6-30.9-3.5-29.4,0.7c3.4,9.8,68.3,13.1,68.3,7.9C-55,5006.7-60.9,5005.4-93.8,5000.9z"/> <path d="M571.8,4986.9c-14.4-6.9-21.9-7.4-21.8-1.6c0.2,13.7,92.2,34.6,92.1,23.2C641.9,5002.5,591.8,4996.4,571.8,4986.9z"/> <path d="M322.2,4873.3c-3.6,0-9.4,6.3-17.1,18.6c-17.8,28.5-25.3,42.9-23.3,44.9c4,3.9,9.5,1.4,13.4-6.3 c2.3-4.4,10.5-17.8,18.3-29.7C329.2,4876.9,330.3,4873.3,322.2,4873.3z"/> <path d="M373.4,4915.8c-4.6,0-44.7,41.9-44.6,46.6c0,3.6,1.8,5,1.9,5.3c3.5,3.4,12.4-3.9,29.3-24.1 C376.8,4923.7,380.5,4915.8,373.4,4915.8z"/> <path d="M-79.4,4935c-27.3-15-34.9,11.9,54.8,29.1c19.4,3.7,19.2,5.9,19.6,5.9c2,3.2,9.1,3.2,11-0.1 C10.4,4962.8-58.6,4946.4-79.4,4935z"/> <path d="M-196.7,4970.9c-12.8,3.4-55.8,20.2-58.9,23.1c-0.5,0.5-0.1,2.3,0.9,3.9c2,3.1,14.8,1.3,20.2-2.8 c1.6-1.2,16.3-6.6,32.7-12.1C-162.3,4970-158.5,4960.8-196.7,4970.9z"/> <path d="M-985.9,4893.5c-5.1,1-26.2,29.8-26.2,35.7l0,0c0,7.1,10.8,3.5,14.1-4.7c1.8-4.5,6.4-11.1,10.2-14.7 C-979.9,4902.3-978.7,4892.1-985.9,4893.5z"/> <path d="M-905.8,4924.3c-6.7,0-59.4,37.2-54.2,37.2c0.1,3.8,11.4,3,15.7-1C-930.3,4947.4-886.9,4924.3-905.8,4924.3z"/> <path d="M-855.7,4974.4c-3.4-2-30.9,5.8-48.1,13.7c-8.6,3.9-16.9,7.1-18.4,7.1c-0.3,0-2.8,0.4-2.7,4.3c0.1,5.8,2,5.5,26.2-4.1 c11.6-4.6,26.5-9.7,33.2-11.5C-854.3,4981-850.6,4977.4-855.7,4974.4z"/> <path d="M-625.3,4884.5c-6.7,0-3.9,6.3,9.8,22.2c8.3,9.6,17.4,17.5,20.2,17.5c7.2,0,6.5-2-5.4-15.3 C-619.8,4887.5-622.8,4884.5-625.3,4884.5z"/> <path d="M-702.2,4915.6c-0.1-3.6-14.4-3.6-14.4,0c0.1,5.1,61.5,44.7,60.7,32.1C-656.1,4944.7-702.2,4919.4-702.2,4915.6z"/> <path d="M-538.2,4867.5c-3.9,0-4.3,2.3-2.4,14.7c1.2,8.1,3.4,16.9,5,19.7c3.9,7.1,1.7,13.3,5.8,23.6c0,0.8,3.5,7.3,6.2,7.3 c3.4,0,2.9-5.3-3.3-35.5C-533,4868.7-533.4,4867.5-538.2,4867.5z"/> <path d="M-319.2,4895.2c-4.4,3.1-29.6,33.6-29.6,35.7c0,1,1.8,1.8,3.9,1.8c6.1,0,33-28,32.9-34.2 C-312,4892.8-314.4,4891.7-319.2,4895.2z"/> <path d="M-250.2,4924.3c-7.7,0-55.2,37.1-55.1,43.1c0.1,6.4,7.7,2.7,37.8-18.1C-245.3,4933.9-238.6,4924.3-250.2,4924.3z"/> <path d="M-464.2,4868.1c-3.8,0.7-4.7,5.6-5.1,27.4c-0.3,17.6,0.7,27.9,3.1,30.6l0,0c3.1,3.6,4,3.6,7.6,0 C-452.4,4919.9-457.5,4866.8-464.2,4868.1z"/> <path d="M-387.5,4871c-3.8,1.2-4.2,1.9-16,27.6c-4.6,10-7.7,19.3-6.9,20.6c1.6,0,2.4,11.8,16.7-18 C-383.8,4880.4-381.5,4869-387.5,4871z"/> <path d="M-714.5,4976.5c-42.3-9.8-44.4-10.1-44.4-5.3c0.2,10.2,34.7,12.9,34.7,13.9c28.7,5.1,38.2,5.4,36.6,0.9 C-688.2,4984.1-700.3,4979.8-714.5,4976.5z"/> <path d="M1915,4999.5c-21.4-4.4-43-10.9-48.2-14.4c-6.6-4.5-15.4-5-21.5-1.2c-6.3,4-0.9,7.9,21.9,15.6v0 C1905.7,5012.7,1935.4,5003.7,1915,4999.5z"/> <path d="M1897.5,4931.2c-12,4.6,9.8,17.4,35.3,36.2c0-1.5,17.5,16.4,22.6,8.2C1959.4,4969.1,1905.8,4928,1897.5,4931.2z"/> <path d="M686.2,4880.9c-6.5-8.1-18.3-10.5-16.6-3.4c1.2,5.2,48.3,55.4,53.6,55.4C739.3,4932.9,700.7,4898.9,686.2,4880.9z"/> <path d="M1685.5,4924.4c-4.9,0-11,11.9-28.2,32.6c-21.4,25.9-12.1,25.2-13.4,25.2c1,0.9,2.6,1.7,3.6,1.7c4.7,0,28.5-32.8,37.9-43.5 C1692.6,4932.5,1692.6,4924.4,1685.5,4924.4z"/> <path d="M1957,4867.8c-17.2,0,29.3,41.9,39.2,60.3c5,9.4,11.8,10.2,11.6,1.4C2007.5,4918.1,1966,4867.8,1957,4867.8z"/> <path d="M1554,4865.6c-4.2,1.4-26.8,61.7-25,66.8c3,8.8,11.1-4,19.5-31C1558.5,4869.2,1559.3,4863.8,1554,4865.6z"/> <path d="M2303.8,4876.3c-7,0-37.3,55.9-34.4,63.3c2.9,7.3,9.6,5.6,13.2-3.3c1.8-4.4,8.3-16.2,14.4-26.2 C2308.5,4891.3,2311.5,4876.3,2303.8,4876.3z"/> <path d="M2554.6,5059.5c4.7-5.9,6.3-30.6,6.7-327.8c0.4-287.8,4-1200.5-3.3-2641.3c-1.7-328.9,0.8-1219.6,0.3-1329.7 c-3.7-707.4,15.9-653.8-2.9-682.1C1399.9,49.6-1069.1,78-1597,59.5c-19.7,464.1-6.8,4990.7-6.8,4991 C-1603.4,5050.6,2554.3,5059.5,2554.6,5059.5z M2366,702.9l2.3-11.5l4.5,8.5c9.9,18.5-3.9,133.1,2.7,199.7 c1.1,11.4,10.2,155.7,4.9,159c-4.7,2.9-5.4-0.2-9.7-39.9C2366.1,975.9,2362.3,721.2,2366,702.9z M2385.7,3363.2 c0.8,3.1,1.6,0.3,1.7-6.3c0.2-9.5,1.1-11.7,4.6-10.4c8.8,3.3-1.6,32.2,8.4,43.1c9.3,10.1,2.1,41.3,8.1,94.6 c2.7,23.6,1.6,26.8,1.6,26.3c-0.6,1.2-2.2,2.1-3.5,2.1c-5.2,0-8.5-8.1-10.6-25.7c-3.2-27.3-13.3-53.6-13.7-78.1 c-0.2-9.5-2.2-26.9-4.4-38.6C2372.4,3341.4,2378.5,3335.8,2385.7,3363.2z M2158.2,345.4c1.6,0.5,4,5.4,5.5,10.8 c6.7,24.5,2.3,463.7,21,621.9c5.8,49.1,7.8,142.2,4.3,202.7c-3.7,64.7-0.3,40.9,15.1,174.5c2.2,19.2,0.7,30.5-3.1,23.9 c-2-3.5-10.4-49.9-14.5-79.8c-9-66-13.1,1.6-10.7-122.2c1.8-95.7-0.1-204.9-4.2-237.9C2158.4,834.6,2154.7,344.3,2158.2,345.4z M2142.6,3083.6c1.7,67.4,13.5,108.6,8.8,113.3c-3.3,3.3-5.2-1.9-7.9-22c-7.7-56.9-14.2-33.9-19.7-228.1 c-2.7-95.2-2.6-107.9,1.2-104.9C2134.1,2849.4,2142.2,3068.7,2142.6,3083.6z M2117.3,2638.2c6.3-6.4,7.8,9.4,8.9,94.2 c0.6,50,0.5,91.5-0.2,92.2c-0.7,0.7-2.7-1.1-4.3-4.1C2118.2,2814.2,2114,2641.5,2117.3,2638.2z M1930,3563.6 c6.2,0.1,27,7.8,27.5,10.1v0c0.9,4.4-10.1,4.3-20.3-0.1C1929,3570,1924.2,3563.5,1930,3563.6z M1963.5,4676.8 c-4.3,1.4-7-159.7-12.2-331.3c-2-66.1,0-186.6,3-181.4C1961.2,4176.2,1973.4,4673.5,1963.5,4676.8z M1825.9,3239.4 c8.7,19,57.2,167.7,61.8,189.6c1.2,5.6,0.8,9.3-1,9.3c-4.2,0-4.8-1.4-13.2-33.4c-4.2-16-9.9-33.2-12.5-38.3 c-7-13.2-19.9-52.3-26.9-67.9c-4.1-9.2-8.4-24.6-15.6-55C1815.7,3231.4,1820.9,3228.4,1825.9,3239.4z M1919,3557.6 c2.3,1.1,4.7,3.7,5.4,5.7c1,2.8-1.5,3.2-10.6,1.7c-12.9-2.2-15.9,1.4-5.3,6.4c6.4,3.1,6.4,3.1-1.3,3.3c-4.3,0.1-11.1-1.3-15.1-3.1 c-13.4-6-18.5,4.9,15.1,11.5c9.1,1.8,18.4,4.5,20.7,5.9c8.7,5.5-0.1,6.1-23.5,1.7c-35.4-6.6-26.6-4.4-26.6,1.2 c1.6,4.8,0.6,5.6-6.2,5.4c-12.1-0.4-31.7-7.2-40.6-14c-22.6-17.4-48.2-42.8-54.6-54.1c-14.6-26.2-56.3-89.6-88.1-134 c-74.1-103.5-41.7-76.1-107.3-173.1c-26.9-39.8-45.5-68-47.7-72.5c-1.2-2.3,17.6-13.3,26.5-15.6c16-4,14.2-25.7,35.5,13.5 c18.8,34.6,34.5,53.1,52.3,86.7c107.8,203.7,126.6,213.1,148.1,253.9C1817.7,3529.7,1844.5,3521.1,1919,3557.6z M1916.6,3829.8 c0-0.4,5.5,17.3,4.7,21.2c-1.1,5.3-16.5-27-16.6-34.7C1904.5,3805.5,1911.1,3813,1916.6,3829.8z M1902.9,3791.2 c-2.2-3.5-3.1-110.7-0.9-114.3c5-8.2,7,6.8,7.5,57.4C1908.3,3734.3,1912.9,3807,1902.9,3791.2z M1855.4,3888.6 c-1,12.1-2.9,22-4.2,22c-7.9,0-2.5-17.5-2.7-238.3c0-5.1,1.3-9.3,2.9-9.2C1858.3,3663.1,1856.5,3875.6,1855.4,3888.6z M1793.8,3644.9c0.1,9.4-1.4,15.8-4.1,18.1c-4.6,3.8-5.1,3-16.5-28.2c-5.2-14.3-141.1-279.6-150.3-290.9 c-6.7-8.2-13-24.8-10.8-28.4c1.2-2,1.6-6,0.7-9c-3.6-13.2,5-3.2,17.8,20.5c12.3,22.9,70.4,108.7,83.8,123.8 c6.5,7.3,34,50.7,41.5,65.5c9.3,18.4,22.8,36.2,36.7,48.7c12.3,11,12.8,12.1,9.7,19.9C1795.8,3601.9,1793,3644.9,1793.8,3644.9z M1605.9,3305.7c-0.8,4.2-2.4,3.1-7.5-5.5c-7.7-12.7-7.8-13.3-2.8-13.3C1600.7,3286.9,1607.2,3298.7,1605.9,3305.7z M1785.6,3412.2 c0.1,9.8-7.8-0.7-20.9-27.6c-27-55.6-32.1-67-33.9-75.6c-3-14.1,4.6-8.1,12,9.4C1752.5,3341.5,1785.6,3407.9,1785.6,3412.2z M1716.7,2495c9.8-40.6,17.2,115.8,17.1,105.3c3.8,62.1,1.7,84.7-4.8,50.4C1724,2623.9,1714.5,2504,1716.7,2495z M1548.9,809.7 c2.5-1,5.1-1.2,5.7-0.6c0.6,0.6,5.3,25,10.3,54.2c22.5,130.6,62.3,208,68.3,231.9c0.8,0,2.9,15.6-9.7-2.9 c-20.7-30.4-56.8-142.5-69.2-214.8C1544.3,818.5,1543.7,811.7,1548.9,809.7z M1535.6,2637.6c4.7,2.9,6.9,37.2,26.4,78.7 c3.3,7.1,9.6,20.6,13.9,30c7.3,16,30.5,95.8,37.4,128.7c2.9,14.1,4.1,33.8,4.1,33.5c2.1,36.7-7.2,30.2-10.9-7.6 c-1.2-12.4-5.6-37.4-9.6-55.7c-12.5-55.9-9.3-46.8-37.3-106.5C1543.9,2705.2,1526.6,2632,1535.6,2637.6z M1480.1,2188.4 c12.1-12.1,16.1,69,16,63.5c1.7,24.4,1.4,32.8-1.2,32.8c-1.9,0-4-1.6-4.6-3.6C1487.9,2274,1478.6,2189.9,1480.1,2188.4z M1441.5,2456.6c3.5,8.8,0.7,9.2,1.2,9.2c-0.9,0.9-2.5,1.7-3.4,1.7c-3.7-0.1-18.3-40.6-23.9-66c-11.6-52.8-13.1-71.2-11.9-142 c0.9-54.8,0.3-71.6-3.3-86.6c-16.8-70.2-18.1-77.4-14.9-80.7c2.4-2.5,3.6-2.3,4.6,0.8c24.1,72.6,26.7,89,25.1,160 C1413.4,2333.9,1423.3,2410.3,1441.5,2456.6z M1215.8,1160.7c11.2-18.3,11.4,56.8,60.1,185.6c23.6,62.4,35.6,88.8,77.8,170.8 c17.8,34.7,32.4,65,32.4,67.3c0.1,11.4-12.6-2.9-15.2-10c-0.9-2.4-10.7-19.8-21.8-38.7c-46.7-79.7-107.1-226.1-123.8-300 C1219.5,1209.9,1213.7,1164.2,1215.8,1160.7z M1312.4,2458.8c0,3.7-4.8,3.8-7.2,0C1302.8,2455,1312.4,2455,1312.4,2458.8z M752.7,143c7.2,2.4,24.3,339.7,34.8,408c7,45,9.9,203.4,15,218.6c9.1,27.1,8.6,50,38.7,152.4c7.4,25.2,21.8,55.4,21.8,58.7h0 c0.1,4.9-6.3,0.5-9.2-6.3c-16.4-39.4-15.4-21.8-39.6-110c-42.4-154.6-26.7-189.2-39.9-322.1c-10-100.4-15.4-208.9-23.4-308 C745.4,164.7,745.8,140.7,752.7,143z M-10.8,716.9c6.3-15.4,2-21.2,7.9-35.9c5.7-14.3-1.3-23.9,5-39.4 C14,612.6,39.4,415.4,45.4,372.2c13.5-97.5,20.8-192.9,29.2-192.9c10.1,0-1.4,106.1-2.8,113.8c-21.5,112.1-39.2,314.8-76,442.9 c-2,7-5.2,13.3-7,13.9C-16.2,751.4-15.8,729.4-10.8,716.9z M-408,1328c25.2-28,72.8-99.5,82.7-124.1c13.9-34.6,23.4-67.7,28-97.6 c4.6-30,0.3-109.6,11.9-159.5c10.6-45.2,13.7-85.5,28.2-166.7c20.4-114.9,16.4-136.6,23.2-136.6c19.9,0-12.8,183.2-16.1,202.7 c-10,58.8-15.8,96.7-19,113.5c-15.3,81-3.6,148.6-19.6,202.5c-4.9,16.6-28.7,74.1-37.6,91.2c-12.8,24.5-72.1,93.8-80.3,93.8 c-4.8,0-11.8,11.5-17.4,11.4C-432.1,1358.7-427.4,1349.5-408,1328z M-255.2,1448c-23.5,61.9-85.2,161.6-128,207 c-23.8,25.3-34.3,32.9-34.4,25.1c-0.1-7.6,41.7-42.4,124.3-183.4c37.9-64.8,49.9-141.9,59.3-132.6 C-230.7,1367.3-243.2,1416.3-255.2,1448z M-520.7,2499.4c0.7-6.4,7.8-12.5,7.9-6.7c0,1.4-1.9,5-4.3,8.1 C-521.3,2506.1-521.4,2506.1-520.7,2499.4z M-619,2411.4c13.8-55.4-4.7-97,30.4-174.6c12.1-26.8,12.5-38.5,16.8-46.5 c10.1-18.7,30.4-87.4,30.1-102.3c-0.1-10.1,17.4-25.1,9.7,9.8c-18.5,82.7-26.9,110.2-49.1,160.9c-26.6,60.6-0.1,174.3-71,240.6l0,0 c-6.6,6.2-13.4,7.1-13.3,1.8C-665.3,2494.3-629.2,2452.6-619,2411.4z M-608.8,2664c-1.3,7.2-8,8.1-8.1,1.2 C-617.1,2657-607.7,2657.7-608.8,2664z M-724,2328.6c6.8-33.4,40.2-142.3,45.9-149.5c3.3-4.2,13.6-4.8,13.7-0.8 c0,1.5-1.7,7.7-3.9,13.6c-5.8,15.8-15.4,52.5-18.2,56.6c-3.7,5.4-21.8,68.6-27.3,94.9c-3,14.4-6.9,29.6-8.7,33.6 c0.6,0-5.7,11.6-11.7,5.8C-736.2,2380.8-732.7,2371.5-724,2328.6z M-735.5,2967c22.2-29.9,30.8-73.5,42.6-96.4 c17.5-33.9,6.1-33.5,44.5-41.3c6.8-1.4,7.5-2.4,4.9-7.1c-6.1-11.1-3.7-20.6,8.2-32c12.7-12.1,19.2-13.6,26-5.8 c8.6,9.9,8.9,12.2,2.9,22.1c-4.7,7.6-5.1,9.9-1.9,9.9c7.1,0,13.5-10,13.3-20.9c-0.1-9.2,0.7-10.5,6.9-10.5c8.3,0,12.3,4.9,7.8,9.4 c-4.5,4.5-3.8,13.5,1.1,13.5c6.5,0,23.1-50.6,18.2-55.4c-4.5-4.4-10.9,3.4-12.8,15.5c-1.3,8.5-3.1,11.3-7.3,11.3 c-3,0-5.5-1.2-5.5-2.6c-0.1-4.7-20-9.4-31.6-7.4c-16.1,2.7-36.1,22.6-39.2,39c-1.5,8.2-4,12.7-7.2,13.3 c-16.2,3.1,13.1-32.4,21.1-70.9c7.4-36,18.2-68.6,22.6-68.6c2.4,0,4.1,2.9,4.2,7c0.1,8.5,6.9,15.6,4-1c-2.3-13,3-16.8,6.3-4.5 c1.1,3.9,3.1,7.2,4.5,7.2c3.7,0,2.7-33.5-1.3-39.6c-2.7-4.2-1.6-8.9,5.6-24.3c9-19.2,12.8-21.9,22.7-15.7c8.4,5.2,14,1.4,12.5-8.4 c-0.8-4.7,0.6-12.4,3.1-17.3c2.5-4.8,4.5-9.7,4.4-10.7c0-3.3-8.6,5-8.6,8.4c0,5-10.6,17.7-12.8,15.5c-9.9-9.7,29.8-45.2,29.7-50.8 c-0.1-5.2-5.1-2.9-9.8,4.3c-4.5,7-10.2,9.6-10.3,4.7c-0.1-3.5,10.8-15.9,21.3-36.1c9.3-17.7,8.7-17.2,13.3-13.4 c5.1,4.1,20,2.4,22.8-2.6c4.8-8.6,4.2-17.8,17.7-25.8c19.5-11.5,1.4-15.2-11.4,1.3c-9.2,11.8-13.8,6.9-3.6-2.6 c7.5-7,9.9-12.6,5.4-12.7c-1.2,0-4.4,2.6-7.1,5.7c-9.7,11.4-10.7,5.3-1.8-11.1l9.1-16.8c9.3-0.9,36-3.1,44.6-5.4 c5.8-1.6,6.6-1,5.1,3.1c-1.6,4.3-0.3,4.9,10.1,4.1c7.8-0.6,12.4,0.3,13.3,2.6c1.6,4.4-17.2,4.9-25.2,0.7c-3.7-2-6-1.9-7.3,0.1 c-3.5,5.7,4.8,10.9,17.4,10.9c6.9,0,15.4,1.5,18.9,3.4c3.5,1.8,6.6,2.9,6.9,2.4c11-17,9.1-18.6,17-11.7 c13.8,12.1,54.2,26.5,54.2,32.3c0,1.5-2.4,2.8-5.4,2.8c-6.4,0-10.3,8.2-6,12.5c3.8,3.7,2.8,31.2,2.8,37.6 c-0.8-4.7-7.8-53.7-16.6-57.1c-7-2.7-7.2,7.3-0.5,21.3c5.4,11.1,6.4,16.5,4.9,27c-1.5,10.6-0.9,13.5,2.8,14.9 c2.8,1.1,4.3,4.5,3.9,9c-0.4,4,0.9,7.8,2.8,8.4c5.4,1.9,12.1-14.4,13.8-33.5c2.3-25.5,6.5-16.8,4.8,10.1 c-1.2,19.7-2.5,23.9-9.1,30.5c-14.2,14.3-10.6,25.6-20.4,23.1c-5.7-1.5-5.7-1.3-1,5.7c4.6,6.8,4.6,7.6,0.2,12 c-4.3,4.3-5.2,4.3-9.7,0.3c-2.7-2.4-7.6-4.4-10.9-4.4c-9.4,0-12.4,6.1-9.8,20.2c2.3,12.1,2.8,12.7,12.4,12.7 c8.9,0,10.4-1.1,13.2-10c4.8-15.2,7.8-4.3,6.3,23.1c-1.1,19.9-2.8,25.5-14.2,47c-7.1,13.4-14.6,32-16.7,41.3c-5,22.4-13,33.6-26,36 c-13.4,2.5-36.7-0.4-47.9-5.9c-26.2-12.9-19.5,6.9,5.9,11.7c7.5,1.4,9.2,2.8,7.6,6.5c-1.1,2.6-2.5,9.7-3.2,15.8 c-1.2,11.1-1.1,11.1,7.6,9.4c11.8-2.3,15.7,2.8,13.5,17.7c-1,7.1-0.6,11.7,1.1,11.8c1.6,0,6.3,3.1,10.5,7c7.4,6.8,7.5,7.3,3.7,18.5 c-4.8,13.9-0.3,18.9,7.6,8.5c11.6-15.2,8.9-34.4-5.7-39.9c-6-2.3-7.1-4.1-5.7-9.9c2.3-9.6-3-18.3-13.3-21.9 c-8.2-2.8-10.8-9-6.4-15.5c1.1-1.7,9.7-4,19-5c22.9-2.6,31.4-8.2,37-24.3c6.4-18.4,2.8-17.4,8.7-30.1c3.9-8.5,5.2-9.1,16.5-8.3 c11.3,0.9,13.3-0.1,27-13.7c26.3-26,16.2-36,11.7-64.6c-2.4-15.2-14.5-32.2-23-32.2c-11.5,0,7.5-34.2,12.8-37.8 c5.7-4,12-23.1,9.6-29.1c-0.8-2-0.2-9.2,1.2-16.1c2-9.3,1.7-14.8-1.2-21.2c-9.3-20.6-4.3-28.3-19-36c-15.2-8-15.5-12.1-28.6-16.4 c-5-1.7-11.7-5.5-14.7-8.5c-6.8-6.7-61.2-16.6-79.8-14.5c-18.8,2.1-22.6-1-17.9-14.3c19.9-57.3,28.9-100.9,34.8-120.9 c9.5-32.3,24.6-146.6,23.2-176.1c-0.6-12.6,3.1-54,7.7-86.8c4.4-31.5,4.3-16.4,40.6-51c20.7-19.8,93.6-74.8,118.8-89.6 c15.4-9.1,48.4-42.8,98.1-90.1c41.7-39.7,59.5-61.6,77.7-95.9c8-14.9,16.9-29.8,19.8-32.9c6.8-7.3,22.5-37.8,31-60.2 c7-18.3,20.6-46.4,32.4-67c10.1-17.5,18.2-48.8,50.2-117.9c33-71.2,35.2-89.3,45-102.3c9.8-13,3.2-7.6,13.6-30.5 c16.5-36.1,22.5-51.6,34.1-87.7c6.8-21.1,14-45.7,16.1-54.5c7.9-33.5,34.8-102.5,38.8-133.8c2.5-19.6,16-52.6,24.7-92 c18.6-84.3,25.7-50.4,51-203.9c10.6-64.4,30.8-150.2,41-184.9c15-50.9,17.3-135.7,23.7-161.6c4.7-19.2,10.9-85.2,12.6-133.9 C347.8,182.3,358,93.2,364,83.3c3.5-5.8,213.7-3.7,218.7-2.7c4.8,1,6.5,3.4,6.6,8.9c0.1,4.2,3.5,19.3,7.7,33.6 c9.8,33.6,15.5,65.6,24.5,106.6c6.2,28.4,9.5,110.8,16.8,180c2.6,24.5,4.9,57.6,5.1,73.4c0.8,62.7,31.9,208.3,46.8,269.3 c23.3,95.5,22.1,197.2,61.5,317.3c12.8,39,20.1,106.4,35.3,150.8c14.8,43.4,32,110.1,38.5,125c20.2,46.9,24.3,184.8,116.3,321.3 c21.9,32.5,22,45.7,35.4,64.5c15.2,21.4,20.8,35.8,37.1,50.6c16.3,14.8,14,12.9,65.2,64c60.5,60.4,75.2,69.5,98,92 c20,19.7,70.5,50.7,77.6,56.2c1.4,1.1,19.4,90.3,24.3,211.4c6.1,149,17.5,161.2,17.9,188.9c0.1,7.9,2.3,22,4.8,31.2 c5.5,20.3,4.4,21.5-18.7,19.4c-12.5-1.1-18.2-0.4-23.2,3.1c-3.7,2.6-9.4,4.6-12.8,4.6c-6.6,0-20.6,8.6-33.5,20.6 c-4.4,4.1-12.6,8.5-18.3,9.9c-18.6,4.3-20.8,21.5-3.8,11.5c8.7-5.1,17.4-6.4,17.4-2.5c0,3.5-11.2,24.6-11.2,29c0,1.6-2.1,3-4.6,3 c-4.6,0-4.6-3.3,0.1-15c1.4-3.5,0.7-5-2.6-5c-2.5,0-4.6,1.6-4.7,3.6c0,2.1-1.6,1.5-4-1.5c-3.5-4.5-4.4-4.6-7.8-0.8 c-21.7,24.1-23.9,47.1-6.8,70.9c3.5,4.8,5,10.1,3.9,13.6c-3.1,10,1.4,16.6,14.6,21.6c12.1,4.6,18.9,13.7,19,25.7 c0.1,7.7-57.1,52.6-28.9,49c5.3-0.7,9.2-3.7,11.9-9.3c5.1-10.6,8.7-5,0.4,9.3c-8.9,15.3-4.8,32.6-9.6,35.8c-4,2.7,6.8,13.4,15.1,15 c12.2,2.3,15.2,9.1,23.6,4.6c7.3-3.9,14.9,6.3,23.4,31.5c5.2,15.3,7.8,19.2,15.2,22.4c12.4,5.4,41.1,5.4,59.9,0 c17.7-5.1,24.6-13.3,8.3-9.9c-53.4,11.3-67.5,7.8-73.2-17.9c-1.2-5.2-9-19.4-17.5-31.5c-11.8-16.8-16.7-27.1-20.8-43.7 c-5.2-21.1-5.2-22-0.1-33.3c2.9-6.4,8.1-12.9,11.4-14.4c9.5-4.4,13.6-26.1-8-26.2c-4.6,0-8.4-1.2-8.5-2.6c-0.1-8-8.2-11.7,6.7-11.7 c13.7,0,13.2-4-1.1-8.2c-17.4-5.2-17.1-9,0.6-8.9c11.8,0,16.8-1.3,20.6-5.6c4.9-5.5,4.8-5.7-2.7-8.6c-4.3-1.6-8.9-2.9-10.2-2.9 c-1.3,0-4.5-5.2-7.2-11.6c-8-19.2-15.5-6.5-5.8,11.7c4,7.4,4,8.4,0.2,8.4c-12.8,0-11.8-36.8-17-40.3c-1.4-0.9-1.7-3.8-0.8-6.4 c3.6-9.5,15.7,4,15.5-7c-0.2-15.6,23-45.4,39.3-50.5c6.8-2.1,7.6-4.6,3.1-9.1c-2-2-1.1-4.6,2.8-8.2c5.5-5,6-5,11.4-0.2 c3.1,2.8,6.9,4.2,8.5,3.3c1.6-1,5.1,2,7.9,6.6c4.3,7.1,7.2,8.5,18.9,9.4c13.1,0.9,13.7,0.6,12.1-5.5c-1-3.9-0.4-6.4,1.7-6.4 c5,0,19,36.4,31.7,52.1c4.7,5.8,10.2,14.8,12.2,20c8.4,22.2,22.7,48.1,27.4,49.6c5.5,1.8,6.8,8.4,2.2,11.3c-1.6,1-2.1,3.1-1.1,4.6 c1,1.5,2.8,8.8,4.1,16.2c2.3,13.3,2.4,13.3,5.5,5.6c7.3-18.1,19.6-0.5,11,9c-6.7,7.5-5.5,9.3,4.9,7.4c9.1-1.7,9.5-1.3,17.1,14.9 c11,23.3,11.5,25.7,8.4,34.2c-1.9,5.1-1.9,8.5,0.2,10.5c2,2,3.5,0,4.7-6.2c1.8-9.3,7.4-12,11.6-5.5c2.1,3.3,17.3,49.7,20.8,63.9 c1.4,5.5-0.1,6.2-15.9,8c-17.2,1.9-23.5,5.5-18.5,10.4c4.4,4.3,34-8.4,39.2-3.2c2.7,2.7,8.5,15.9,13,30c2.2,6.9-5.9,13.1-17.2,13.1 c-7.6,0-8.3-0.8-7-7.6c2-11.2-3.4-23.6-11.3-25.5c-12-3-13.6,1.5-4.2,12c11.3,12.7,10.5,8.8,0.6,32.8c-29.8-3-39.2-5.7-45.9,12.1 c-2.3,6.3-2,8,1.8,9.5c4.4,1.7,10.7-3.8,13.2-11.6c1.4-4.4,15.1,0,29.6-6c15.5-6.4,31.3-2.1,38.8-8.9c2.8-2.5,6.9-3.9,9.1-3.1 c4.8,1.8,18.4,35.7,15.5,38.5c-1.1,1.1-5.9-2.5-10.6-8c-8.5-9.9-8.8-10-31.4-10c-12.6,0-22.9,1-22.9,2.2c0,1.2-5,8.6-11.1,16.3 c-18.6,23.7-1.2,18-17.2,34.7c-9.8,10.2-18.4,27.5-15.2,30.5c1.1,1,3.4-0.6,5.2-3.5c1.8-2.9,9.9-12,18.1-20.3 c13.2-13.2,14.7-15.9,13.1-23.6c-1.5-7.2-0.6-9.5,5.5-13.5c15.8-10.4,1.7-15.7,24.7-15.7c15.3,0,22.6,5,38.9,26.8 c8.6,11.5,22.1,44.6,22.3,54.9c0.2,11.2,13,11,11.1,24.8c-0.6,4.4,0,8.7,1.3,9.5c1.3,0.8,2.5,7.9,2.6,15.7 c0.1,12.7,1.4,15.5,11.6,26c11.9,12.2,12.3,16.5,2,25c-5.8,4.8-5.6,8,0.7,9.5c2.8,0.7,2,0.9-1.7,0.5c-9.2-0.9-10.9,5.6-4.7,18.1 c4.6,9.3,26.9,63.2,16.6,63.2c-3.6,0-40.7,17.6-55.7,26.5c-22.5,13.3-25.4,12.7-39.5-6.9c-6.9-9.6-16-24.1-20.2-32.1 c-7.6-14.6-7.7-14.6-1.6-15.5c7.6-1,21.6-7,54.5-23.5c19.5-9.8,26.1-14.5,26.7-19.2c1-7.2-7.3-9.1-9.9-2.2c-0.8,2.2-5,5.4-9.2,7.1 c-11.3,4.5-10.7,5.8-27.6,13.2c-41.3,18-41.8,23.4-47.4,16.8c-2-2.3-3.1-4.7-2.4-5.4c4.1-4.1,90.6-43.9,86.6-50.3 c-2.9-4.5-11.1-2.8-22,4.5c-15.2,10.3-16.3,4.4-30.2,12.8c-6,3.6-11.9,5.1-16.3,4c-5.7-1.4-6.6-0.8-5.4,3.6c1.1,4-0.9,6.2-8.2,8.8 c-5.3,1.9-12.5,3.5-15.9,3.5c-3.4,0-6.2,1.5-6.2,3.4c0,3.3,21.6,37.5,38.3,60.8c24.9,34.8,19.8,44.4,44.2,34.3 c9.8-4.1,19.1-3.3,19.2,1.5c0.1,6,64.6,91,70.8,100.5c5,7.7,5,7.8-0.7,7.8c-3.2,0-6.6-2.3-7.5-5c-0.9-2.7-3.7-9.8-6.3-15.7 c-4.2-9.7-5.6-10.7-15.5-10.7c-7.4,0-13.6-2.3-19.4-7.1c-11-9.1-28.9-9.8-36.4-1.5c-5.5,6.1-25,7.9-32.7,3.1 c-6-3.8-20,2.1-25.4,10.8c-8.3,13.3-19.9,19.2-15.4,23.7c5.1,5,14.6-0.3,21.1-12l6.2-11.2c42.7,4,35.2,5.6,62.3-12.3 c6.9,5.1,16.1,13.3,31.5,15.1c11.1,1.3,13.6,2.8,17.8,11c2.7,5.2,6.9,11.7,9.5,14.5c6.2,6.7,6.5,13.9,0.4,8.8 c-2.4-2-4.4-5.3-4.4-7.4c-0.1-8.4-21.4-13.1-28.2-6.3c-5.6,5.6-3.9,8,6,8c7.7,0,11.5,2.6,21.7,14.6c12.3,14.4,12.4,14.7,11.5,33.7 c-1.1,23.3-4.9,31.5-14.7,31.5c-4.4,0-10.3,3.4-15,8.5c-6.3,6.9-10.3,8.6-21.1,9c-7.5,0.3-15.4-1.1-17.9-3.2c-6.3-5.1-5-20,1.7-20 c2.8,0,5.1-1.9,5.1-4.3c-0.1-5,7.4-7.5,7.3,3.6c0,6.1,1.5,8.1,6.6,8.8c11.3,1.6,20.6-10.9,10.5-10.9c-2.4,0-4.3-1.9-4.4-4.3 c-0.1-5.9,4.8-5.3,12.2,1.4c6.5,6,16.7,7.7,16.6,2.9c0-1.6-2-2.9-4.3-2.9c-5.1,0-5.3-1.4-1.3-8.9c2.2-4.1,2.1-6.8-0.4-9.8 c-8.8-10.4,20.5,0.4-5.6-27.3c-9.2-9.8-13.3-12.1-22.2-12.4c-6-0.2-11.5-1.9-12.1-3.8c-1.7-4.9-12.1-4.3-14,0.8 c-0.9,2.4-4.5,4.3-8.1,4.3c-12.4,0-7.9,10.1-22,7c-12.8-2.8-10.1,4.9,4.2,11.6c8.1,3.8,12.6,8,13.3,12.1c0.5,3.5-0.3,6.3-1.9,6.3 c-6.8,0-12-3.9-12-8.9c-0.1-5.1-0.6-5.2-8.5-1.1c-7.9,4.1-8.7,4-11.5-1.2c-16-29,31.7-50.8,52.4-43c8,3,18.8,1.7,18.8-2.3 c0-1.1-6-3.8-13.2-5.9c-11.5-3.4-15.8-3.2-34.4,1.1c-17.9,4.2-22.3,6.5-28.5,14.6c-13.4,17.7-14.2,24.5-5.2,46.1 c16.1,38.8,15.4,37.7,24.8,37.7c9.5,0,11.6-4.4,3.4-6.9c-6.6-2.1-11.2-17.9-14.5-26.6c-2.6-6.8,7-3.5,10.3,3.6 c2.8,5.9,5.4,7.1,14.7,7.1c12.6,0,18,4.3,9,7.1c-6.7,2.1-6.7,2.1-2.5,17.1c1.8,6.3,6.4,14.4,10.3,18c3.9,3.6,6.4,7.7,5.5,9.2 c-2.9,4.7,6.9,21.6,10,66.6c1.9,27.7,1.7,29.2-5.5,39.9c-4.1,6.1-7.4,12.5-7.4,14.4c0.1,9.4-42.6,38.7-56.2,38.5 c-9.2-0.1-32.3-16.5-34.4-24.5c-4.1-15.5,4.2-46.7-3.1-46.7c-10.1,0-15.9,37.6-8.4,54.9c6.3,14.7,27.5,27.7,45.1,27.8 c26.1,0.1,59.5-23.7,67-47.8c5.6-18,4.6-19.1,3,3.6c-2.9,42.6-1.3,76.8-7.3,143c-4.3,47.8-4.2,99.2,0.2,120.7 c13.6,65.6,27.5,193.4,26.2,241.5c-1.1,42.7,1.9,56.3,14.2,63.5c11,6.4,21.2,19.7,27.5,36.1c6.4,16.6,23.8,39.8,29.7,39.8 c6.5,0,3.5-12.5-9.1-38c-35.8-72.7-20.5-187.1-34-244.9c-6.6-28.5-9.7-68.7-14.5-96.8c-5.9-34.3-9.7-76-8-89.1 c6.4-49.7,24.7-75.2,16-174.3c-9.1,11.7-10.4,9.4-11.4,51.6c-1.8,79.9-23.4,96-14.5,169.1c21,170.7,26.7,105.5,31.2,245.3 c1.9,58.4,3.6,81.2,6.3,83.8c2,2,3.7,6.5,3.7,10.1c0.1,6.4-0.2,6.3-12.6-2.7c-11.5-8.4-12.8-10.5-14-23.4 c-2.8-30,6.4-46.7-2.1-119.5c-20.6-176.4-33.1-161.2-23.4-268.9c6.6-73.2,9-106.8,8.9-121.4c-0.1-12.5,0.7-14.7,7-17.6 c4-1.8,7.1-5.6,7.1-8.6c0-3,2.5-7.2,5.6-9.3c5.4-3.7,5.6-5.4,2.5-36.7c-6.3-63.4-11.1-85.5-18.5-85.5c-3.3,0-3,20.8,0.7,40.1 c3.4,17.9,10.2,77.1,9,78.2c-0.5,0.4-3.6,1.6-6.9,2.6c-5.9,1.8-6.1,1-8-41.7c-1.5-34.7-3.2-47-8.2-60.5c-3.5-9.4-6.3-17.3-6.3-17.6 c0-0.3,5.5-1.4,12.2-2.4c18.8-2.9,21.8-4.2,23.6-10.1c1.2-3.8,4.3-5.5,9.9-5.5c10.8,0,17.2-2.6,17.2-7 c-0.1-5.2,10.5-13.9,14.9-12.2c2.1,0.8,12.6,18.6,23.4,39.5c55.9,108.1,48.5,85.2,60.8,115.1c10.4,25.2,49.9,95.8,49.9,101 c0,1.9,9.2,21.7,20.5,43.9c30.9,61.2,29.7,45.3,16.7,220.9c-3.6,48.6,4.8,319.5,4.2,385.7c-101.5,13.8-144,20.3-190.6,8.2 c-55.9-14.6-91.5-15.2-136.1-2.5c-70.8,20.2-179.9,45.2-180.4,45.2c-21.7,5.2-78.8,7.5-97.5,3.9c-23.2-4.4-51.5-0.7-79-7.2 c-23.2-5.5-36.7-3.3-40.4-6.8c-3.2-3.1-59.9-25.8-64.3-25.8c-3.8,0-15.7-12.5-18.6-15.3c3.2-101.2,3.3-80.7,20.3-172.4 c19.8-107,9.6-44.8,38.2-170.7c8-35.2,10-46.9,29.1-107.1c18.5-58.2,84.7-317.3,142.5-400.4c18.3-26.3,11.9-20.8,45.1-67.3 c31.1-43.6,30.7-43.4,111.1-39.9c32.1,1.4,61.1,1.9,64.5,1c5.2-1.3,6.4-0.1,7.7,7.8c0.8,5.1,0.9,14.8,0.2,21.6 c-1.1,11-2.6,13.1-15.2,20.8c-30.3,18.6-42.4,54.8-32.2,96.4c5.3,21.4,16.6,27.7,54.2,30.2c15,1,28.6,0.8,30.3-0.4 c1.6-1.2,10-11.4,18.7-22.7c15.5-20.2,15.8-21,17.3-44c2-29.7-1.3-34.6-21.2-32.1c-11,1.4-14.7,0.5-22.5-5.2 c-6.6-4.9-8.4-7.8-6.3-9.9c2.2-2.2,1.4-3.6-2.6-4.8c-4.9-1.5-5.9-5.4-7.8-28.1c-3.9-46.9-9.4-55.4-36.4-55.8 c-22.3-0.3-32.9-11.1-53.1-7.3c-17.6,3.3-46.3-0.9-61,3.9c-13.1,4.3-15.4,2.1-9.2-8.6c5.7-9.8,5.5-24,5.8-33.1 c25.3-0.4,27.3-1.1,27.4,5.7c0.1,8.3,11.1,25.3,15.4,23.8c4-1.4,3.7-6.7-1.4-25.5c-7.1-26.1,8.5-21.1,4.1-50.5 c-1.9-12.6-1.1-16.9,5.5-30.5c6.9-14.4,7.5-17.8,5.6-36.3c-1.9-18.3-1.4-21.7,5.1-34c6.9-13.1,7.1-15.1,4.9-44.2 c-1.9-24.9-1.4-32.6,2.3-41.6c2.5-6.1,4.5-16.2,4.4-22.4c-0.1-8.9,2.9-16,14-32.7c8.7-13.2,14.1-24.4,14-29.5 c-0.1-4.5,1.2-8.9,2.8-9.9c4.9-3-1.3-6,11.3-19.4c8.6-9.2,11.3-22.7,5.3-26.3c-4.4-2.7-11.3,4.1-11.3,10.8c0,3.2-4.4,11.3-9.9,18 c-7.5,9.2-9.9,14.8-9.8,23.1c0.3,22.3-26,37.8-27,64.4c-0.3,7.5-3.1,20.7-6.3,29.5c-5.6,15.4-5.7,16.6-0.9,34.7 c12,45.7-3,29.6-8.5,53.4c-2.6,11.2-5.3,12.6-17.9,9.7c-17.3-4-32.1-3.2-32,1.7c0.1,7.1,16.7,2,34.6,8c13,4.4,17.9,19,11.3,33.8 c-10,22.6-11.4,28.6-9.6,43.7c1.3,11.4,0.7,16.3-2.3,18.8c-2.2,1.8-4,6.3-4,9.8c0.1,7.4-1.6,6.4-31,5.7c-8.3-23.7-5.2-15-13.5-38.6 c12.6-36.5,12.9-32.1,7.5-61c-8-42.7,2.1-20.5-0.3-62.9c-0.9-16-0.1-25.3,2.8-31c5-10.1,2.4-22.5-4.6-21.3 c-12.5,2-15.8-10-7.6-28.4c4.1-9.4,4.8-9.9,5.9-4.2c1.3,6.8,9,8.9,10.5,2.9c6.2-24,6.7-29.4,3.2-32.1c-5.2-4.1-12.4-31.4-18.3-39.8 c-11.8-16.5,6.3-26.5,9.6-47.3c3.2-19.8,33.1-25.3,24.3-34c-2.9-2.9-5.8-3.3-9.5-1.5c-9.5,4.6-26.9,26.7-27.8,35.2 c-0.5,4.5-3.6,12.9-6.9,18.6c-4.9,8.4-5.7,13.1-4.1,24.1c1.8,12.6,1.3,14.2-6.5,21.2c-4.6,4.2-10.3,11.2-12.6,15.6 c-7.2,14.1-10.5,53.4-8,94.8c2.4,40.3,1.8,46-10.7,99.3c-7.6,32.5-6.8,43.8,2.5,32.3c3-3.7,5.4-9.5,5.4-12.9 c-0.2-13.7,22.1-69.7,15.4-113.1c-3.8-24.8-1.6-82.9,3.6-94.8c11.3-25.6,20.7-25.2,25.7,0.8c1.6,8.3,0.4,12.6-6.9,24.3 c-11,17.5-13.7,36.1-6.2,44.1c9.1,9.9,11,32.5,4.5,52.4c-3.1,9.6-7,19-8.6,20.9c-5.4,6.5-2.7,22.6,6.7,39.5 c11.7,21.2,10,22.4-2.1,66.4c14.3,27.9,17.1,30.8,16.3,50.3c-1.1,26.7-1.8,31.2-5,33.5c-6,4.2-18,2-23.8-4.3 c-6.2-6.7-20.6-45.9-22.3-60.6c-0.6-5.3-2.6-8.6-5.3-8.6c-7.4,0-11.2,47.1,20,81.1c7.2,7.8,13.2,16.5,13.4,19.3 c0.4,5.6-13.8,29-29.9,49.2c-13.2,16.6-4.7,10.4-28.5,42.6c-19.1,25.9-42.9,71.2-50.2,95.5c-11.7,39.2-28.8,61-66.8,200.8 c-27.7,101.7-73.8,224-96.4,375.5c-3.8,25.8-7.4,47.5-7.9,48.3s-60.2,0.6-132.6-0.5c-261.7-4-783.5,1.1-893.8-7.4 c-18.1-1.4-21.4-2.5-23.6-7.8c-2.5-6-36.8-155.1-36.9-155.4c-9.9-56.7-27.5-100.1-40.9-144.1c-21.5-70.4-34.4-92.2-43.3-120.1 c-4.4-13.9-58.4-113.3-71-139.3c-9.6-19.9-26.7-45.4-42.8-75.6c-19.8-37.1-11.1-15.4-40.5-65c-11.6-19.6-45.9-62.3-55.1-68.6 c-5.1-3.5-5.5-6.1-4.1-22.9c1.5-17.8,10.1-40.5,19.6-51.8c5.5-6.4,3.8-59.5,9.9-78.1c5.5-16.9,2.4-41.8-5.2-41.8 c-2.7,0-2.4-5.8,1.8-32.1c1.2-7.5,0.7-10.7-1.8-10.7c-3.7,0-3.4-3.9,2.6-29.6c2.1-9.2,2.5-32,1.2-67.1c-1.9-50.5-2.4-54-9.9-69.5 c-11.7-23.9-5.7-20.8-14.2-30.7c-5.7-6.7-6.2-6.8-13.6-2.3c-7.1,4.4-7.6,5.9-6.5,21.3c0.6,9.1,3.5,21.1,6.4,26.6 c7.8,14.9,8.3,25.7,12.2,25.7c4.4,0,3-24-1.8-30.2c-2.4-3.1-4.4-10-4.5-15.4c-0.2-8.5,0.3-9.3,3.7-5.7 c10.8,11.4,13.8,27.6,14.5,79.3c0.7,46.8-0.1,58.1-6.7,99.9c-2.8,17.9-6,22.6-6.1,9c-0.1-5.4-2.4-19-5.2-30.4 c-4.9-19.6-4.9-21.4-0.2-37.1c8-26.4,12.1-28.2,7.4-32.9c-5.1-5-1.6-14.2-8.1-20.5c-5.9-5.7-12.6-26.4-22-50.3 c-4.7-11.8-6.3-22.3-6.6-42.9c-0.4-29.8-4.5-48.6-10.6-48.6c-5.1,0-7.4,6.6-4.1,11.7c1.4,2.2,2.8,15.6,3.1,29.7 c0.7,39.1,5,59.5,17.4,83.9c6.1,12,12.8,23.5,14.9,25.6c5.4,5.3,4.9,17.1-1.6,43.7c-5.4,21.7-5.4,23.8-0.9,36.9 c7.8,22.6,8,22.3-18.9,21.4c-13.1-0.4-30.4-1.7-38.5-2.9c-15.9-2.4-21.8,1-15.2,8.7c4.5,5.2,9.3,4.7,79.1,3.8 c5.1,12.9,7.8,17.3,3.9,24.3c-4.6,8.4-10.3,25.2-10.3,30.4c0,2.4,4.1,9.2,9.1,15.1c10.6,12.5,10.3,19.9-1.6,49 c-7.2,17.6-8.7,37-3.3,42.4c3.8,3.7,4.3,18.1,0.7,20.3c-1.4,0.9-7-0.8-12.3-3.8c-12.8-7.2-27.9-9.7-55.8-9.3 c-26.5,0.4-39.5-3-51.9-5.6c-0.4-25.5,1.3-32.7-24.5-35.7c-30-3.4-14.5-12.9-44.3-19.5c-14.5-3.2-15.6-4.1-16-11.9 c-0.2-4.7-1.4-10.7-2.7-13.5c-2.8-6.1-14.6-7-12.2-0.9c2,5,4.7,19.1,5.8,24.5c-58.2-0.1-47.7-3.3-74.7,19.9 c-30.8-92.1-19.3-57.5,19.5-88.2c42.5-33.7,55.5-45,55.6-48.5c0.4-12.3-44.7-63.1-48.1-73.5c-1.1-3.3-6.8-8.1-12.8-10.7 c-16.4-7.1-27.6-18.7-39.2-21C-742.6,2980.6-743.4,2977.6-735.5,2967z M-346.8,2650.1c5.9,10.7,5,42.8-5.6,18.6 c-6.4-14.6-10-44.4-5.1-42.8C-352.5,2627.6-352.1,2640.5-346.8,2650.1z M-346.8,2629.7c3.6-2.2,7,3.2,3.4,5.4 C-347,2637.3-350.4,2631.9-346.8,2629.7z M-353,2693.3c5.9-4.3,7.4,1.5,1.9,7.4c-3.2,3.5-5.9,7.8-5.8,9.7c0,0.6-0.4,3.4-2.6,3.4 C-362.6,2713.8-357,2696.2-353,2693.3z M-358,2677.3c4.4-1.4,5.2,7.9-1,7.9C-364.1,2685.2-363.3,2679.1-358,2677.3z M-365.8,2698.4 c-0.3,0,0.2,5.9-5.6,11.2c-7.2,6.6-7.2,4.1-0.1-7.8C-366.9,2694-365.9,2693.4-365.8,2698.4z M1188.9,2576.5 c-3.4-3.3-10.5-20.9-10.6-26c-0.1-8,7.8,2.5,11.4,15.1C1189.6,2566.8,1195.3,2582.8,1188.9,2576.5z M1195.5,2601 c3.1,8.9-16.7-3.2-13-7C1185.1,2591.4,1193.7,2596.1,1195.5,2601z M1172.6,2536.5c-9.3,28.4-13.1,6.9,1.7-14.6 c4-5.7,6.2-7.8,4.9-4.7S1175,2529,1172.6,2536.5z M1203,2698.9c0.4,30.4-10.5,4.3-7-10.4C1198.7,2677.4,1202.8,2683.6,1203,2698.9z M1194.5,2714.5c0,1.5-5.7,2.4-5.8-1.8C1188.7,2708.6,1194.5,2713.1,1194.5,2714.5z M1514.3,3315.3c1.4,0,3.3,3.5,4.2,7.8 c2,9.7-2.2,15-4.7,5.9C1511.1,3319.8,1511.3,3315.3,1514.3,3315.3z M1507.8,3305.6c-2.5-6.4,6.4-5.7,15.3,1.2h0 c10,7.7,0.8,6.3-1.2,3.1c-0.9-1.4-4-2-7-1.2C1511.7,3309.5,1508.9,3308.3,1507.8,3305.6z M1542.7,3321.8 c-1.8,5.4-10.7,6.1-10.8,0.9C1531.9,3316.6,1544.2,3317.1,1542.7,3321.8z M1539.3,3295.9c4.2-0.6,6.8,1,8.1,5 c3.2,9.6,14.1,2.4,12.6,10.8l0,0c-1,5.5-10.9,8.8-10.9,3.6c0-1.8-4-4.6-8.8-6.2C1530.1,3305.7,1529.5,3297.3,1539.3,3295.9z M1565.8,4623c0.5,14.1,0.2,14.9-6.6,14.9c-8.2,0-7.7,1.1-16.1-32.6c-3.5-14.1-6.9-27.6-7.7-30.2c-1.4-4.9,22.5-22.3,30.8-22.3 c8.6,0,11.2,31.8,3.7,46.3C1565.6,4607.3,1565.3,4623,1565.8,4623z M1417.6,4738.1c-3.1-3-2.4-17,1.1-24.9 c2.8-6.1,5.1-7.2,15.7-7.2c11.2,0,12.4,0.7,12.5,6.8c0.1,9.1-7,22.4-13.3,24.9C1434.2,4737.7,1421.7,4742.1,1417.6,4738.1z M1434.9,4745.9c26.9-0.6,14.7-33.4,37.3-50.4c16.3-12.3,18.7-15.1,33.1-39.2c7.5-12.5,15.9-25.2,18.7-28.2 c3.5-3.8,4.2-6.4,2.1-8.5c-5.1-5-12,1.7-25.9,24.8c-33.3,55.4-47.6,53-67,53c3.5-14.1,12.1-50,16.9-63.9 c17.8-51.1,8.9-66.9,3.2-105c-8.8-58.6-38.3-204.8-41.3-243.6c13.2-4.1,32.1-10.1,47.2-14.8c14.2-4.4,47.5-6.5,50.9-3.1 c2.9,2.8,3.6,75.3,1.2,126.7c-3.4,73-2.9,130.9,1.1,149.1c6.9,31,33.8,107.3,22,137.4c-9.2,23.4,2.1,42.1-15.5,46.1 c-2.6,0.6-4.7-2.1-5.8-7.6c-1.4-7-3.2-8.6-10.3-9.2c-7.2-0.6-10.1,1.3-18.1,12c-20.5,27.6-6.3,31.7-32.2,50.6 c-34.5,25.2-140,88.7-103.2,53.3c18.1-17.4,59.2-62.8,62.7-69.3C1415.8,4749.2,1422.5,4746.2,1434.9,4745.9z M1418.8,4646.8 c-24.9,2.7-98.7,2.7-98.7-0.1c0-3.2,34.5-9.2,61.5-16.4c23.8-6.3,47.6-6.2,51.3-9.8c1.5-1.4,4.2-2.6,6.1-2.6c4.1,0,1.5,7.9-3.2,27 C1416.6,4647.1,1419,4647.1,1418.8,4646.8z M1554.3,4513c9.7,22.5,9.4,24.5-4.3,33.9h0c-16.3,11.2-20.4,10.9-24.7-1.5 c-4.7-13.6-5.8-118.9-1.6-156c3.7-33.4,3-87.6,3-119.3c5.2-0.3,27.3-2.4,30.7,0.9c1.7,1.6,1.4,9.6-0.6,20.8 C1546.5,4349.2,1544.9,4491.3,1554.3,4513z M1273,3285.7c-0.1-7.8,35.7-11.5,90.4-9.4c51.6,2,67.6,3.8,67.6,7.8 c0,3.5-131.2-0.1-147.2,3.5C1275,3289.6,1273,3289.3,1273,3285.7z M1459.3,3465.8c-26.1-3-35.8,0.6-47.4-10.3 c-16.2-15.2-21.1-53.1-9.8-75.3c5.7-11.2,23.6-30.7,28.1-30.7c5.4,0,7.7,8,3.1,10.6c-2.2,1.2-8.6,8.4-14.4,16 c-8.7,11.4-10.4,16.1-10.3,27.3c0.4,36,31.9,51.2,63.2,30.5c13.5-8.9,17.3-16.2,19.6-37.4c1.2-11.1,2.9-15.6,5.9-15.6 c5.9,0,2.2,6.2-1.6,30.2C1492.7,3429.6,1467.9,3466.7,1459.3,3465.8z M1481.5,3395.5c-1.2,13.2-6.9,23.1-17.9,31.4h0 c-17.9,13.5-30,11.7-38.2-6c-13-27.9,3.1-36.9,8.3-52.3c2.3-6.7,5.4-6.3,17.1,2.5C1473.5,3388.2,1483,3379.4,1481.5,3395.5z M1267.1,3092c-2.1-5.3,7.2-25.3,8.5-19.1C1277,3079.5,1269.1,3097.1,1267.1,3092z M-551.2,4630.6c7.5-1.2,15-0.3,21.9,2.5 c14.5,6,16.6,2.3,51.5,8.5c12.7,2.3,23.4,4.2,23.9,4.2c1,0.1-1.8,6-4.6,5.3c-5.9-1.4-63.2-4.6-87.2-4.9 c-35.4-0.4-32.4-1.2-38.2-29.7C-565.5,4630.3-564.1,4632.7-551.2,4630.6z M-570.6,4607.3c13.7-5.3,26.4,19.5,1.9,6 C-575.4,4609.7-575.6,4609.3-570.6,4607.3z M-569.8,4714.6c4.4,7.3,7.3,14,6.3,14.9s-5.3,1.7-9.7,1.7c-6.3,0-10.5-3.2-19.7-14.9 c-6.4-8.2-14.3-16.5-17.6-18.5c-8.7-5.2-15.8-23.6-33.8-34.2c-14.2-8.4-14.9-10.4-9-24.8c8-19.7,9.9-65.6,4.2-102.9 c-5.4-35.8-6.3-69.1-13.2-131.5c-5.3-47.5-6-70.4-7.1-92.4c15.2-2.1,32-6.5,95.6,3.1c10.9,1.6,10.6-0.2,5.4,39.8 c-21.5,164.2-24.3,194.1-23.5,248.1C-590.9,4666.2-586.9,4686.2-569.8,4714.6z M-556.6,4742.5c-5.5,0-7.6-6.4,3.2-5.2 c6.5,0.7,8.4,3,11.7,13.6c2.3,7.6,2.8,13.7,1.3,15.2c-1.4,1.4-8.4,3.2-15.4,4c-10.6,1.2-13.4,0.5-15.8-3.9 c-3.4-6.2,4.2-18.1,11.7-18.1C-554.1,4748.2-550.8,4742.5-556.6,4742.5z M-694.1,4593.4c-5.2-14.5-4.9-29.1,0.8-38.2 c2.1-3.4,4.4-2.9,13.7,3c6.1,3.9,13.3,7.9,16,8.9c4.2,1.5,4.8,5.1,4.2,24c-1.1,33.1-3.2,31.2-3.5,41.3l0,0 c-0.2,6.6-8.3,10.1-18.8,8.1c-8.5-1.6-8.6-1.9-7.8-17C-689.2,4613.7-690.8,4602.6-694.1,4593.4z M-681.9,4477.5 c-6.4-38.5-8.3-77.8-15.8-123c-7.4-44.8-7.6-42.5,2.9-43.5c10.8-1,10.9-0.9,16,49.2c5.6,54.8,8.7,65.7,12,119.4 c3.3,52.6,8.3,72.5,6.1,70.4c-3.1,5.1-8.5-0.3-24.8-13.7C-678.4,4507.4-677,4507.1-681.9,4477.5z M-653.6,4671.7 c20.4,13.8,61.8,61.7,59.4,68.6c-0.7,2,3.2,12,8.7,22.2c10.9,20.2,11.4,20.4,38.2,16.5c17.4-2.5,15.4,4,30.5,13.3 c17,10.6,57.5,39.4,61.8,44l0,0c4.1,4.4,4.4,5.7,1.1,5.7c-6,0-11-6.9-27.1-9.7c-15.4-2.6-53.5-12.9-59.8-16.1 c-2.8-1.4-6.5-2.6-8.2-2.6c-4.4,0-14.6-5.9-35.8-13.4c-13.9-5-14.7-5.8-22.4-24.9c-10-24.8-17.7-33.8-26.6-31 c-6.8,2.1-11.1,7.4-13.6,16.9c-1.8,6.9-8.2,8.5-15,3.6c-4.4-3.1-5.2-9.7-6.4-48.2C-670.1,4665.1-668.8,4661.3-653.6,4671.7z M-581.2,4745.4c-0.1-3.8,9.5-3.8,7.2,0C-576.3,4749.2-581.1,4749.1-581.2,4745.4z M-669.6,4293.7c-78.6,0.9-73.9,16.6-202.8,8.4 c-38.3-2.5-53.5-6.3-59.4-15.2c-5.2-7.8-8.2-544-18.1-573.9c-3.7-11.3-3.5-13.5,3.8-32.8c11.3-29.9,24.7-45.4,27.4-56.5 c1-4,5.6-13,10.2-19.9c4.7-7,8.5-13.6,8.5-14.8c0-3.2,19.7-31.9,19.7-36.3c0-1.6,1.1-3,2.5-3c1.4,0,5.2-5.4,8.5-12.1 c7.5-15.3,5.1-9.2,30-53.4c28.7-50.8,43.4-63.6,43.3-68c0-1.3,3.1-5.2,6.8-8.8c3.8-3.6,8.3-10.1,10.1-14.5c3.2-7.9,3.5-8,24.8-7.1 c18.7,0.8,21.4,0.3,20.5-3.8c-0.7-3.5-4.8-4.9-16.1-5.6c-8.3-0.5-15.1-1.6-15.1-2.5c0-1.7,14.7-24.2,19.7-30.3 c1.6-1.9,6.8-8,11.6-13.5c22.5-26,27.9-46.7,28.3-15.9c0.2,13.9,1.2,16.2,9.1,22.3c5.5,4.2,9.3,9.9,9.9,15.1 c0.6,4.5,2.8,9.1,5,10.2c2.2,1.1,7.6,3.6,12,5.6c8.5,3.9,10.6,8.4,4,8.4c-7.1,0-29.8,28.2-32.8,40.9c-5.8,24.3-11.6,36-22.5,45.9 c-28.7,26-46.8-0.9-18.8-28c40.3-39,49.5-49,49.5-53.7c0-2.8-1.5-5.2-3.3-5.2c-1.9,0-1.3-3,1.6-7.4c3.4-5.2,3.9-8.3,1.7-10.4 c-6.3-6.1-22.3,25.7-66.1,46.1c-14.5,6.7-34.7,24-39.4,33.6c-1.7,3.4-2.9,14.4-2.8,24.4c0.2,15.2,1.7,20.3,8.9,31.4 c10.7,16.4,18.2,20.5,36.5,20.2c20.4-0.4,36.5-7.1,54.6-22.8c18.2-15.7,22-23.2,26.4-50.7c4.8-30.2,13.7-43.8,13.5-54.6 c-0.1-6.5,0.2-6.6,6.9-2.3c19.2,12.4,3.7-18.2-15.2-25c-8.4-3-10.3-5.7-9.2-12.9c0.2-1.2,6-3.9,12.9-6.1c11.9-3.8,13-3.6,19.4,2.3 c7,6.5,11.9,7.4,32.8,6.6c7.6-0.3,14.3-2.6,17.6-6c3-3,7.8-5.9,10.7-6.5c7.4-1.4,3.8-8.3,3.4-37.1c-0.1-8-1.5-10.9-6-12.3 c-3.2-1-5.9-3.7-5.9-6c-0.1-4.1-3.4-5.8-22.8-12.1c-7.9-2.6-12.2-2.1-23.8,2.4c-17.1,6.7-26.4,7-32.5,1c-5.2-5.1-5.8-9.4-2-15.3 c4.9-7.8,7.2,5.3,16.7,1.1c2.8-1.2,14.8-2.6,26.6-3c19.5-0.6,23.1,0.2,37.5,8.1c34.6,19.1,16.6,21.5,27.9,33.7 c4,4.3,4,5.7,0.2,13.1c-2.3,4.6-4.2,11.7-4.1,15.9c0.1,11.3-2.6,16.6-8.6,16.6c-2.9,0-10.4,5.1-16.6,11.4 c-8.9,9-13.4,11.4-21.4,11.4c-6.2,0-11.2-1.7-12.7-4.5c-3.1-5.3-24.1-10.7-27.8-7c-4.9,4.9,1,10.7,14.4,14.1 c12.4,3.1,13.2,3.7,8.3,7.3c-4.4,3.2-4.8,5.3-2.3,12c1.6,4.5,5.4,8.6,8.4,9.1c4.7,0.9,5.2-0.3,3.6-9.2c-1.7-9.8-1.4-10.3,8.7-13.1 c5.8-1.6,11.9-2.9,13.5-2.9c4.3,0,21.3-16.8,25.9-17c1.8-0.1,6.7-2.8,10.9-6.1c7.5-5.9,12.6-5.8,9.1,0 c-3.1,5.1-40.2,28.8-45.1,28.8c-2.6,0-8.2,1.3-12.5,2.9c-5.8,2.2-7,3.8-4.5,6.2c5.3,5.2,23.7,3,34.8-4.1c5.6-3.6,12.8-7.9,16-9.5 c7.2-3.7,26.7-32.2,26.7-38.9c0-7-7.4-6.2-12.7,1.3c-4.3,6.2-4.4,6.2-4.5-4c-0.1-5.7,1.7-14,4-18.5c5.6-10.9,5.2-14-4.2-32.4 c-6-11.8-9.7-16-15.1-16.7c-3.9-0.6-8.9-3.5-11.1-6.5c-4.5-6.3-24.2-16.8-31.5-16.8c-2.7,0-7.3,2.1-10.1,4.7 c-4.8,4.4-5.6,4.4-10.5,0c-10.7-9.5-14.3,1.6-20-15.4c-1.9-5.9-3.2-11-2.8-11.4c0.4-0.4,7.1-1,14.9-1.4c11.4-0.6,14,0.1,13.1,3.6 c-3.5,14.1-3.4,17.1,0.3,17.1c2.2,0,6.1-3.9,8.7-8.6c6-10.7,16.2-11.3,29.2-1.5c5.1,3.9,14.8,7.9,21.4,8.9 c12.4,2,21,10.2,21.2,20.2c0.1,5.3,5.1,21.5,9.8,31.3c1.6,3.3,2.5,12.2,2,19.7c-1,16,5.4,21.7,8.1,7.3l1.7-8.8 c19.6,0,69.9-1.7,96.1,12.5c10.1,5.5,52.7,56,71.4,84.9c54.5,84.1,90.5,157.7,103.9,179.5c95.2,155.3,158.6,478.5,163.1,492.8 c7.1,22.9,7.7,42.9,14.7,71.1c6.5,26.4,9.4,57.1,17.9,90.5c3.3,13,5.3,25.8,4.5,28.5c-1.9,6.3-12.5,12.5-37.4,21.9 c-54,20.5-71,24.2-141.6,31.3l0,0c-51.6,5.2-186.1,7.4-219.8,3.7C-553.2,4310.5-602.9,4293-669.6,4293.7z M-712.9,3277.2 c1.8,4.5-2.5,13.5-10.5,22.1c-2.1,2.2-10.1,12.3-17.8,22.5c-23.5,31-17.6,19.5-41.7,55.6c-25.8,38.8-25.2,29.5-38.8,53.1 c-17.3,30.1-25.3,33.5-43.7,72.3c-26.3,55.4-49,80.8-49,85.1c0.1,3.5-23.5,36.9-33.5,64.3c0.9,0.9-14,34.9-14.4,4.9 c-0.5-36.2-9.5-30.6,7.2-51.7c13.9-17.6,20.2-36.3,19.9-58.7c-0.4-24.8,6.8-54.3,16.6-68.7c37-54,96.3-119.9,126.2-195.6 c24.9-63.1,33.5-70,52.2-96.9c5.1-7.3,8.9-1.9,10.8,15.6c1.2,10.7,5.2,22.9,11.5,34.6c8.8,16.4,9.4,19,6.4,27.5 C-713.3,3268.3-714,3274.6-712.9,3277.2z M-666.5,3297.9c-6.2-1.5-7-0.6-8,8.4c-0.6,5.7,0.6,12.3,2.7,15c2.1,2.6,3.8,5.6,3.9,6.6 c0.2,3.3-7.5,4.8-11.7,2.2c-8.2-5.1-13.9,5.4-14.5-6.8c-1.9-42.1,0.9-26.8,6.3-42.3c2.5-7.1,5.5-6.3,17.5,4.8 C-657.9,3297.4-657,3300.3-666.5,3297.9z M-657.7,3315c7.8-3,9.8-1.9,9.9,5.2c0.1,8.5-2.7,10.6-9.3,6.9 C-663.4,3323.7-663.7,3317.3-657.7,3315z M-690.8,3266.7c0.3-0.1-4.3,9.4-8.1,9.4c-5.3,0-5.3-2.2-0.1-11.4c2.2-3.9,4-13,3.9-20.2 c-0.1-9.8,1.5-14.5,6.3-18.9c9.7-8.9,19-10.9,21-4.6c3.8,12,18.9,31.7,3.4,27.8C-673.7,3246.6-685.9,3254.8-690.8,3266.7z M-749.4,3503.6c-13.7,1.1-15.9,0.4-22.8-6.9c-11.8-12.4-14.3-19.1-14.6-38.3c-0.2-16.9,0.3-18.3,10.5-28 c5.9-5.6,22.3-17.1,36.3-25.4c41-24.3,40.7-27.5,36-18.3c-1.8,3.4-8.7,10-15.4,14.6c-12.9,8.8-32,28.5-40.4,41.5 c-6.2,9.6-9.7,38.8,16.2,38.8c23.2,0,48-26.1,54.1-56.9c4.5-22.4,11.9-30,9.5-9.7C-684.4,3452.5-710,3500.5-749.4,3503.6z M-616.3,3293.8c-2.4-4.3-2-6.5,1.4-9.3c5.6-4.7,14.1-0.1,14.2,7.7C-600.6,3299.8-612.3,3301-616.3,3293.8z M-595.8,3310.5 c6.3,0,6.2,0.6-0.6,14.9v0c-4.3,9-8.3,11.2-14,7.8c-3.3-2-2.8-3.7,2.3-9.2c3.5-3.7,6.3-8.3,6.3-10.1S-599.2,3310.5-595.8,3310.5z M-605.3,3309.1c0.5,0.4-0.4,1.6-1.9,2.5c-3.6,2.2-16.2-10.1-19.3-12.9C-624.6,3299.6-606.5,3308.1-605.3,3309.1z M-624.1,3284.5 c-7.8-0.3,1.5-3.7,3.8-1.5C-619.4,3284-621,3284.7-624.1,3284.5z M-619.4,3313.1c4,2.5,2.4,7.6,2.4,7.1c-1.8,4.9-16.3,6.4-16.3,1.7 c0-1.6,1.3-2.9,2.8-2.9C-624.7,3319-632.2,3305.1-619.4,3313.1z M-624.6,3333.3c6.9,2.2,6.8,2.3-2,2.6c-5.1,0.2-10-1-11-2.6 C-639.6,3330-635,3330-624.6,3333.3z M-642.2,3310.4c-0.1-3.8,8.6-3.8,8.6,0C-633.5,3314.2-642.1,3314.2-642.2,3310.4z M-631.9,3291.7c-1.7,4.6-16.2,6.4-16.3,2c0-1.3,2.6-4.8,5.7-7.6C-636,3280.2-629,3283.9-631.9,3291.7z M-584.4,3324.8 c-0.1-3.8,5.7-3.8,5.8,0C-578.6,3328.5-584.3,3328.5-584.4,3324.8z M-505.9,3279.8c12.6,3.3,78.2,9.8,82.3,12.3 c0.8,0.5,2.9,2.9,2.9,7.3c0.1,6.6-4.7,6.7-23,0.7c-18.6-6.1-83.6-6.4-83.6-9.7c0-1.2-0.8-4.2-1.8-6.5 C-531.2,3278.6-518.9,3276.5-505.9,3279.8z M-401.8,3206.6c0-6.6,4.4-15,6.7-12.7c2.6,2.5-5.5,56.1-14.3,59c-5.5,1.8-4.2-17,2-29.3 C-404.3,3217.5-401.8,3209.8-401.8,3206.6z M-409.2,3144.8c0.6-23.2,7.9-20.3,9.8,3.8c0.6,7.4,0.3,14.2-0.6,15.1 C-403.6,3167.3-409.5,3155.2-409.2,3144.8z M-388.2,3146.5c4.2-2.6,3.8,18.1-1,5.9C-390.1,3150.1-389.7,3147.4-388.2,3146.5z M-655.7,3097.1c-23.9,21.2-58.4,52.9-57.9,42.7c0.1-1.2,10-12.9,22.2-26C-666.8,3087-669.5,3089.8-655.7,3097.1z M-653.1,3076.3 c6.5,0,8.3,13.1,7.7,13.1c0.1,4.2-6.1,5.5-9.6,2.1C-658.6,3088-657.2,3076.3-653.1,3076.3z M-751.8,2995.5 c2.8-7.4,12.7-5.9,25.9,3.7c17.8,13,32.6,15.7,35.1,23.2c1,3,8.9,12.9,17.7,22.1c16.2,17.1,18.4,21.3,12.8,24.7 c-4,2.5-17.1-4.3-17.1-8.9c-0.1-7.2-25.5-34.1-42-44.7c-16.7-10.6-28-14-27.9-8.3c0.1,6.8,46.5,30.3,46.6,35.5 c0.1,3.7,18.4,30.4,20.8,30.4c1.1,0,3,2.2,4,4.8c3,7.4-39.3,46.5-42.6,46.5c-4.7,0-17.8-24.2-39-45.4l-14.9-15 C-769.5,3054.6-754.2,3001.9-751.8,2995.5z M-937.5,2741.7c6.3-59.9,13-87.4,34.8-142.9c19.2-49.1,23.5-57.2,30.3-57.2 c19.5,0-21,35.5-51.1,168.6h0C-933.5,2754.1-940.4,2769.8-937.5,2741.7z M-921,3425.4c59.8-133.4,53.1-105.9,62.4-134.6 c7.5-23,20.3-48,30-74.8c8.6-23.6,17.8-49.5,23.8-63.8c6.2-14.7,1.8-8,13.1-37.8c4.7-12.4,9.8-26,11.4-30.3 c5.2-14.1,7.5-12.1,42.4,36.3c6.9,9.5,12.5,18.7,12.5,20.4c0.1,7.7-54.1,73.4-66.4,107.9c-11,30.7-30.1,71-43.4,91.6 c-20.8,32.2-38.5,59.4-43.8,67c-35,50.8-65.9,72.3-65.1,132c0.3,25.1-4.3,39.4-18.1,56.4c-17.4,21.4-9.5,18-18.4,29.5 c-9,11.5-12.3,5-5.7-11c6.6-15.9,7-21.6,1.6-21.6c-7.9,0-48.2,59.3-59.8,63.1c-4.7,2.9-9.6,5.2-10.8,5.2c-4.3,0-2.1-7.6,4-14.2 c5.7-6.2,5.8-6.6,0.7-4.5c-21.2,8.6-9.5-6.9-17.6-6.9c-5.5,0-4.7-8.6-1.5-8.6c1.4,0,1.9-2.5,1-5.6c-2-7.3,12.3-27.1,26.7-36.9 c6-4.1,13.8-10.4,17.4-14c11.6-12,22.1-8.8,31.8-25.3c13.5-22.9,16.7-15.6,37.9-56.4C-933.8,3447.9-935.8,3458.3-921,3425.4z M-975.8,4351.6c-0.4-3.4,1.1-5.7,3.7-5.7c5.9,0,8.3,37.5,7,112.3c-2.2,131,2.6,220.7-6.9,223.8 C-983.1,4685.7-975.2,4357.4-975.8,4351.6z M-1021.3,4029c1.7,16.7,1,31.5,0.5,32c-2,11.2-7.2,13.8-7.4,3.7 c-0.3-10.2-7.3-76.8-7.6-84.7c-0.4-8.6,3.1-43.8,5.5-55.2c6.4-30.5,7.3-114.4,16.9-99.3c1.9,3-0.7,39-6.7,91.9 C-1024.5,3955.7-1024.9,3994-1021.3,4029z M-1028.6,4139.3c-2.5-3.9-4.7-46.8-2.8-54.3c3.3-13.1,7.2-1.3,8.4,25.4 C-1023,4110.1-1020.2,4152.5-1028.6,4139.3z M-1014.6,3820.6c-3.8,0-3.9-5.7-0.1-5.7C-1010.9,3814.9-1010.8,3820.6-1014.6,3820.6z M-1097.5,1425.6c18.6-27.4,26-41,33.3-60.5c4.2-11.3,8.8-22.2,10.3-24.2c3.6-4.8,8.5-29.4,13.2-46.6 c29.8-110.1,9.1-168.4,34.6-304.5c8.8-47.1,18.9-80.5,24.4-80.5c5.3,0,5.4,9.4,0.2,24.4c-5.5,16-2.3,20.3-8,39.9 c-9.7,33.4-17.1,108.6-16.4,166.7c0.4,29.5-4.6,96.5-9.2,125.3c-8,49.5-51.2,147.4-76.2,172.6h0 C-1103.7,1450.6-1108.2,1441.3-1097.5,1425.6z M-1076.9,3419.9c22.9-28.2,85.5-89,88.5-86.1c9.2,9-84.3,98.8-88.7,103.2 c-17.6,43.6-29.3,72-30.4,72c-4.2,6.8-9.6,8.6-9.6,3.3C-1117.4,3496.1-1092.7,3439.2-1076.9,3419.9z M-1110.3,4439.7 c2.2-34.4,5.2-63.8,6.6-65.3c7.3-7.6,8.6,4.4,6.6,57c-4.9,126.4,6.7,292.5,0.7,292.5c-3,24.8-4.3,27.9-10,24.5 c-6.8-4.1,2.3-77.4-0.4-99.8c-0.7-5.5-2.6-40.6-4.4-78.2C-1113.7,4516.8-1113.5,4488.9-1110.3,4439.7z M-1186,3539.6 c0.3-21.4,7.4-50,28.2-112.4c3.3-10,11.3-17.3,15-13.7c3.7,3.6-31.9,97.2-33.1,126.8c-0.5,12.9-2.1,23.7-2.5,23.6 c-1.9,6.3-6.9,7.6-7.5,2.1C-1186.1,3564-1186.1,3552.2-1186,3539.6z M-1221.8,3915.6c8.2-60.8-5.4-35.8,0.3-120.2 c3.3-49.3,8.3-57.1,9.5-14.9c0.4,14.9,1.9,42.5,3.4,61.3c2.8,36.2-0.1,93-5.6,109C-1220.2,3968.2-1228.3,3963.8-1221.8,3915.6z M-1232.1,4487.4c11.3-81.3,13.9-144.3,11.8-292.4c-1-70.5-1.6-129.8-1.3-131.8c1.4-9.4,5.8,1.4,9.8,24.3 c5.3,30,8.3,229.8,4.4,297.2c-2.3,38.8-13.2,121.8-16.8,127.8h0c-2.4,4-7,3.2-8.9-1.5C-1234,4508.5-1233.6,4498-1232.1,4487.4z M-1351.6,3355.4c9.1-153.2,3.7-205.6,13.9-205.6c8.6,0,9.4,81.2,1.6,168.5c-8.3,93.3-11,131-15.3,135.3 C-1355.4,3457.7-1355.5,3421.1-1351.6,3355.4z M-1356.6,3566.2c1.2-46.5,3.7-59.2,8.3-43.5c3,10.2,2.9,68-0.1,79.4 c0,1.6-3.3,8.7-5.8,9.6C-1357.1,3612.5-1357.6,3603-1356.6,3566.2z M-1431.3,677.5c-9.9-385.8-9-369.6-2.5-369.6 c5.5,0,5.9,2.6,8.4,46.1c7.8,137.2,9.5,630,9.8,630c-2.2,30.6-5.3,40.8-10.2,33.1c-3.3-5.2-4.6-98.2-5.9-107.5 c-0.4-3.2,0.5-15.1,2.1-26.5C-1427.4,868.7-1428,807.6-1431.3,677.5z M2227.1,4948c-20.4-6.7-27-7.6-58.9-7.3 c-19.8,0.2-46.8,1.8-60.1,3.6c-40.6,5.4-91.6,25.1-113.9,43.9c-21.1,17.7-32.3,16.2-43.8,34.4c-7.6,12-8.3,12.4-22.6,12.6 c-19,0.2-231.5,2-253.9,2.2l-0.1-6.1c-0.1-6.6-24.7-29.7-44.8-42.1c-14.9-9.2-61.6-25.9-96.8-34.7c-25.5-6.3-30.3-6.7-60.2-4.3 c-49.2,3.9-73.9,8.2-89.6,15.3c-30.9,14-85.8,37.5-99.9,64.6c-0.3,0.2,0.9-1.6-4,7.8c-260.9-0.7-256,1-256.8-10.8 c-0.9-13.8-40.4-45.5-73.6-59.1c-45.7-18.7-63.4-22.3-110.5-22c-68.3,0.3-108.4,11-146.7,39c-44.1,32.2-44.5,36.7-52.9,50.5 c-41.7-0.4-223.9-2.3-265.7-2.7c-42-44-47.7-52-79.8-63.2c-54.4-19-119.2-26.6-167.8-19.8c-32.7,4.6-37.8,6.3-87,30 C5.3,4995.3-7.4,5003-15.5,5012c-5.8,6.5-10.6,13.5-10.5,15.7c0,2.1-1.6,4.4-3.5,5.1c-2,0.7-56.2,0.7-120.5,0 c-109.2-1.2-117-1.6-117-6.3c-0.2-10.8-37.7-41.6-68.1-55.7c-37.4-17.5-68.7-24.1-121.1-25.7c-41.6-1.3-49.4-0.7-81.7,5.9 c-39.5,8.1-62.1,15.5-85.7,28.2c-39,20.8-39.8,25.7-55.2,53.4c-145.8-1.7-264.2-3.1-264.6-3.2c-0.2,0-2-3.9-4-8.5 c-4.8-11.1-52.6-42.7-79.4-52.6c-10.9-4-23.3-9-27.5-11.2c-12.9-6.5-63.8-15.8-86.7-15.8c-36.7,0-81,8.8-124.7,24.9 c-24.3,8.9-73.8,38.6-81.2,48.7c-14.4,19.6-3.3,18.1-127.2,16.4c-117.6-1.7-116.6-1.5-116.9-14.4c-0.1-4.3,1.1-4.9,6.4-3.1 c20.5,7.1,53.9-3.6,69.4-22c9.3-11.1,22.2-39.2,24.6-53.9c2.4-14.7,6.5-9.4,24.3-20.8c19.8-12.6,39.4-2.1,73.4-19 c16.7-8.3,43.7-30.7,43.6-36.2c0-2,17.5-6,43.5-10c5.8-0.9,22.3-7.4,36.7-14.6c26.1-12.9,26.2-13,59.6-13.6 c50.5-1,30.3-6.5,72.8-9.1l26.6-1.7c16.6,17.1,14.7,17.7,36.2,17.7c10.5,0,26.4-1.4,35.3-3.2c40.7-8.1,54,18.7,78.9,30.1 c4.9,2.3,11.1,7.2,13.6,11c5.5,8.1,14.7,11.1,20.3,6.6c7-5.6-1.6-23.9-2.5-207.8c-0.6-129.6-2.8-273.3-4.1-363.2 c7.1,1.3,13.5,2.5,34.6,6.3c20.9,3.8,135.1,5,163.1,1.7c17.2-2,17.9-1.9,19.2,4.6c10,49,22.2,145.4,22.8,180.1 c0.4,26.1-0.3,30-8.4,47.9c-10.1,22-11.5,42.6-4,59.7c5.4,12.4,5.9,25.6,1.3,33.1c-4.8,7.8-0.4,11.2,17.6,13.3 c8.2,1,14.9,2.1,14.9,2.4c0,0.4-3.3,8-7.3,17c-7.6,16.9-7.7,26.4-1.1,69.1c1.4,9.1,0.7,13.5-2.7,17.3c-5.6,6.2-3,14.5,4.6,14.5 c3,0,5.5,1,5.5,2.3c0,2.8,25.3,12,32.9,11.9c4.6,0,5.2-1.6,3.7-11.3c-2.8-18.8,8.5-24.6,19.6,7c9.1,25.8,12.8,22.9,53.6,39 c38.2,15.1,127.9,39.5,138,37.6c12.7-2.4,25.1,3.9-72.3-64.7c-24.2-17.1-27.8-20.7-29.6-29.9c-3.7-18.9-10.7-33-17.1-34.5 c-11.1-2.6-24.3-36.5-28.2-46.7c-6.1-16-6.9-20.4-4-23.3c7.6-7.5,148.8,6.5,148.7-5c0-1.9-3-6.2-6.6-9.4 c-4.9-4.4-16.5-7.4-46.9-12.3c-46.7-7.5-55.3-10.5-64.2-22.3c-9.5-12.5-27.8-13.2-33-19.4c-3.9-4.6,0.1-77.4,6.5-118.9 c5.5-35.5,7.3-56.4,11-78.2c12.1-72.2,8.8-75,18.4-72.6c17,4.2,51.2,10,85.7,14.5c62.1,8.2,67.5-0.5,115.5,0.7 c26.6,0.7,127.8-7,161.3-12.1c67.6-10.5,99.5-31,128.7-38.4c6.8-1.7,13-4.9,13.8-7.2c2.5-6.8-26-117.4-30.6-153.5 c-0.7-5.5,1-5.7,56.7-5.7c688,0.4,978.4,7.5,981.9,10.6c1.4,1.3,1.2,8.3-0.4,16c-4.3,20.3-7.4,41.3-11.7,61.7 c-3.8,18,2.3,54.4,10.6,63.4c8.1,8.7,56,24.3,69.4,31.3c8.5,4.4,69,15.6,83.9,15.5c36.4-0.3,47.1,15.7,134.8,1.4 c44.1-7.2,57.9-8.1,101.2-20.5c26.1-7.5,36-9.3,37.5-6.8c1.2,1.9,3,11.3,4,20.9c5.3,49.9,42.3,189.4,46.9,257.4 c2.7,39.1,3.6,28.6-18.5,41.2c-6.8,3.9-11.6,3.4-11.6-1.2c0-1.3,3.6-3.8,8.1-5.7c8.6-3.5,21.2-18.2,18.2-21.1 c-5.7-5.6-15.6-0.4-31.2,16.3c-16.7,18-16.9,18.1-43.8,24.3c-48.9,11.3-83.9,23.9-81.9,29.5c2,5.8,145.4,1.8,145.5,5.2 c0,0.3-8.3,37.7-17.1,42.3c-15.7,8.3-13.5,42.1-13.4,53.3c-44.8,49.1-76.5,82.2-76.3,95.1c0.1,6.2,10.1,6,19.6-0.5 c11.3-7.6,32.2-15.9,44.6-24.7c13.7-9.7,22-9.1,42-24c43.5-32.5,46.1-30,51.6-49.5c4.5-16.1,13.7-30.1,17.3-26.5 c1.2,1.2,0.7,5.4-1.1,9.4c-4.4,9.7-4,18.3,0.7,18.3c2.1,0,9-3.7,15.2-8.2c29-20.9,28.2-8.7,29.7-39.2c0.6-12.2,3.1-26.6,5.6-32 c10.3-22.8-1.1-20.4,29.1-24.1c-1.4-20-3.2-29.6,3.7-52.3c5.7-19,5.8-20.6,1.3-37.3c-2.6-9.6-7.2-20.8-10.2-25 c-24.8-34.1-9.7-261.8,3.7-261.7c1.7,0,10.3,1.9,19,4.2c51.6,13.7,180.3-13.8,185.6-8.7c1,0.9,2.8,68.2,4.2,149.5 c4.1,251.1,7.4,83.6-1.9,297.8c-6.9,158.2-8.1,146.3,14.1,143.4c30.2-4.1,54.4-4.3,80.7-13.7c28.4-10.2,50.8-12.3,64.6-6.2 c7.9,3.5,14.4,4.3,23.7,3c11-1.6,15.9-4.9,34.4-23c11.9-11.6,22.8-21.1,24.3-21.1c1.5,0,13.2,5.3,26,11.7 c22.9,11.5,23.8,11.7,53.9,11.9c47.2,0.2,111.4-11.9,118.3-13.7c6.2-1.6,8.5-0.6,12.7,5.6c2.8,4.1,15.9,16.9,29.2,28.3 c20.8,17.9,26.6,21.4,42.6,25.4c10.2,2.5,22,4.6,26.2,4.6c14.7,0,19.1,20.4,40,23.6c9.5,1.4,12.5,3.6,17.2,12 c8.3,15.1,28.4,31.3,41.2,33.4c12.2,1.9,30.3,10.4,39.3,18.4c3.3,2.9,8.3,6.5,11,7.9c9.7,5,34.2,33.4,48.3,38.3 c10.4,3.6,9,3.1,7.6,32.2c-49.5,0.4-154.1,1.2-184.7,1.5c-2.6-6.7-2.3-10.2-27.4-36.3c-17.7-18.4-26.9-25.4-45.3-34.5 C2251.6,4951.8,2261.6,4959.4,2227.1,4948z"/> <path d="M2085.2,4911.8c-3.8-2.3-7.8-30.3-14.5-43.4c-5-9.8-12.1-12.4-12-4.5c0.1,5.3,13.2,44.2,18.3,54.1c1.8,3.5,5,6.4,7.1,6.4 C2088.5,4924.5,2089.3,4914.3,2085.2,4911.8z"/> <path d="M2146.2,4848.6c-2.4,12.2-4.1,59-2.3,61.9c0,1,3.9,2.6,8,2c5.7-0.8,6.2-2.7,6.8-26.4c0.3-14-0.2-29.7-1.2-34.7 C2155.4,4840.9,2148.1,4839,2146.2,4848.6z"/> <path d="M2224.5,4854.1c-9.1,1.3-7.3,6.2-16.6,43.4c-3.3,13.3-4,21.4-2.2,24.7c3.7,6.7,10.3,3.6,12-5.7c3-16.4,9.9-24.1,12.2-48.3 C2231.3,4853.5,2231.1,4853.1,2224.5,4854.1z"/> <path d="M1732.6,4973.9c-6.1-2.3-41.9,15-41.9,20.2c0.1,5.6,11.5,4.7,11.5,1.6c0-1.4,5.8-4.2,13-6.3 C1730.7,4984.8,1739.8,4976.6,1732.6,4973.9z"/> <path d="M1054.5,4932.9c-9.1,0-48.7,42.2-48.7,51.8c-0.3,0,0.5,2.1,5.2,2.1c5,0,17.6-11.8,17.5-16.4c0-3.1,20.6-21.8,26.9-31.1 C1059.5,4933.4,1059.4,4932.9,1054.5,4932.9z"/> <path d="M895.7,4873.6c-8.9,30.2-20,49.3-17.6,55.1c2.3,5.7,6.6,5.3,8.6-0.8c0.9-2.7,4.1-10.7,7.2-17.7 c7.9-17.8,13.6-38.1,20.4-52.5c3.7-8,4-11,1.3-13.6C910.1,4838.9,902.6,4850,895.7,4873.6z"/> <path d="M989.7,4882.4c-9.2,1.3-14.8,20.6-30.6,44.6c-8.8,13.4-10.4,21.6-4.5,23.9c0.1,0.3,4.2,1.6,4.5,1.7 c2.1,0.5,19-44,32.6-59.1C998,4886.4,997.1,4881.3,989.7,4882.4z"/> <path d="M1477.3,4829.4c-2.2,2.2-4.3,79.8-2.6,93.5c0.2,1.5,2.7,0.2,5.7-2.8c4.5-4.7,5.5-11.7,6.6-44.1c1-30.7,0.4-39.6-2.8-44 C1481.5,4828.4,1479.2,4827.5,1477.3,4829.4z"/> <path d="M755.1,4847.8c-4.8,0-4.9,1.1-1.7,12.1c3.9,13.5,19,55.3,18.2,55.3c1.2,4.2,8.7,4.7,11.1,0.8c1.6-2.6-11.9-43.4-16.4-49.7 C762.2,4860.4,762.9,4847.8,755.1,4847.8z"/> <path d="M833,4836.9c-4.7,0.9-5.3,5.1-6.2,38.8c-0.5,20.8-0.4,38.3,0.2,39c3.4,3.3,8.3,0.4,9.4-5.4c0.6-3.6,1.3-21.6,1.5-40 C838.2,4838.3,837.8,4836,833,4836.9z"/> <path d="M1092,4991.4c-48.7,17.3-51.5,19.5-51.4,22.6c0.1,5.9,7.7,5,34.5-4.3c36.5-12.6,42.6-15.3,42.6-19.3 C1117.6,4985.5,1107.5,4985.9,1092,4991.4z"/> <path d="M1334.5,4914c-23.8-22.5-28.9-25.9-28.8-19.4c0.1,5.9,37.7,43.9,42.4,43.9C1357.1,4938.6,1353.4,4931.9,1334.5,4914z"/> <path d="M1392.6,4871.5c-3.5-12.2-6.6-17.9-10.4-18.9c-7.6-2-9.1,2.2-4.3,11.5c6.1,11.6,12.7,36.3,18.6,45.5 c0,0.5,6.8,10.5,10.7,4.2C1409.2,4910.6,1399.9,4896.8,1392.6,4871.5z"/> <path d="M1294.2,4958.4c-4,0-38.2-25.5-44.1-25.5c-9.6,0-2.2,8.1,21.3,23.2C1327.5,4992,1301.1,4958.4,1294.2,4958.4z"/> <path d="M1217.3,4995.3c-23.7,0,44.9,24.3,48.6,12.7C1266.8,5005.4,1228.4,4995.3,1217.3,4995.3z"/> <path d="M-480.2,2594.9c-2.6-2.5-13.8,1.2-13.8,4.6c0,1.5,1.7,2.6,3.6,2.6C-485,2602.1-478,2597.1-480.2,2594.9z"/> <path d="M-548.7,2596.3c4.7-7.6,0.8,11.5,5.6,11.5c7,0,5.9-27.6,10-42.6c1.3-4.8,0.8-6.5-1.6-5.6c-6,2-22.1,35.5-18.6,38.9 C-552.2,2599.6-550.1,2598.6-548.7,2596.3z"/> <path d="M-585,2668.6c2.7-2.9,4.2-43.6,1.7-43.7c-5.8,0-10.9,38.8-5.7,43.9C-587.9,2669.9-586.1,2669.8-585,2668.6z"/> <path d="M-573,2720.4c8.4-8-18,0.8-38.9-9.7c-12.7-6.4-15-5.9-10.5,2.2C-616.9,2722.7-586.2,2732.9-573,2720.4z"/> <path d="M-573.5,2683.5c11.8-8.7,12.2-8.7,10.1-0.7c-1.7,6.2-1.5,6.2,4.1-0.7c3.3-4.1,5.8-11.5,5.7-17.1c0-13.3,4-20.1,6.6-11 c3.1,10.8,2.4,19.3-2,28c-3.2,6.3-3.3,8.5-0.6,9.4c5.9,2-6.2,13.5-14.2,13.5c-9.2,0-7.7,7.4,5.1,6.4c8.2-0.7,9-0.2,5.9,3.6 c-2,2.4-5.4,4.3-7.5,4.3c-2.2,0-3.9,1.4-3.9,3c0.1,3.6,9.9,1,19.2-5.1c21.7-14.2,10.3-39.2,18.1-48.6c6-7.3-3.9-47.9-10.2-41.6 c-2.1,2.1-2,4.8,0.2,8.9c3.9,7,4.6,26.2,1,26.2c-3.2,0-6.2-7.1-6.3-14.7c-0.1-4.6-1.3-5.3-6.5-3.7c-9.2,2.8-16.4,9.9-16.3,16.1 c0,2.9-5.2,11.1-11.6,18.1C-589.8,2692-588.3,2694.5-573.5,2683.5z"/> <path d="M-576.1,2699.6c0-3.1-20.1-5.8-21.8-2.9C-601.4,2702.3-576.1,2703.4-576.1,2699.6z"/> <path d="M-544,2727.8c-0.1-8.3-16.9,5.8-35.8,5.7c-16.2,0-8.1,6.5-8.1,6.8C-582.6,2745.5-543.9,2734.5-544,2727.8z"/> <path d="M1438.2,4716.9c-3.1-5.6-12.7-7.1-15.6-2.4c-1,1.6,0.3,2.8,2.7,2.8c6,0,5.9,11.4,0.3,11.4c-2.4,0-4.3,1.3-4.3,2.8 C1421.4,4739.7,1445.1,4729.5,1438.2,4716.9z"/> <path d="M-563.7,4762.4c0.1,3.8,14.4,3.8,14.4,0C-549.4,4758.7-563.8,4758.7-563.7,4762.4z"/> <path d="M-611.2,2865.5c4.8,5.2,8.8,11.7,8.9,14.6c0.1,4.3,1.1,4.7,5.8,2.1c7.5-4,7.1-8.4-1.7-21.2c-4-5.8-7.4-12.3-7.4-14.5 c-0.1-6.7-6.5-8.4-10.6-2.8C-621.8,2851.4-621,2855-611.2,2865.5z"/> <path d="M-584.1,2868.2c3.2,16.3,19.3,27.8,19.6,41.4c0.2,6.5,1,13.8,7.2,11.8c3.6-1.2,1.9-25.9-1.8-27.2c-1.5-0.5-2.7-2.2-2.7-3.7 c0-1.5-3.3-6.2-7.4-10.5c-5.2-5.4-7.4-10.9-7.5-18.6c-0.2-13.8-4.7-22-11.9-22C-601,2839.3-588.6,2845.2-584.1,2868.2z"/> <path d="M-621.1,2891.9c5.6,1,14.2,5.2,19.2,9.3c9,7.4,27.1,40.3,28.1,51c1,10.9,1.6,12,9,15.3c18.2,8.2,19.6,35.2,4.7,91.5 c-2.2,8.4-3.3,20.3-2.4,26.4c3.3,22.4,19.4,8.1,33.8,35.8c12.1,23.2-0.3,14.6,6.3,37.6c2.9,10.1,2.7,12.6-1.2,16.6 c-4.3,4.3-4.8,3.6-6.9-9.3c-3.3-20.3-10.3-25.5-10.5-38c-0.1-7.6-6.3-14.5-13-14.5c-3.6,0-1,17.9,4.2,29.3 c22.6,49.2,11.2,64,19.9,52.3c4.1-5.5,4.1-5.5,4.2,0.2c0.2,10.7,7.7,11.9,8.1,6c0.1-2,1.7-8.7,3.4-15c3.9-13.9,4.2-49.4,4.5-63.7 c-6.9-8.5-21.5-27.9-31.8-31.5c-11-3.8-14.9-19-7.8-30c5.2-8.1,9.2-29.8,11.2-61.2c1.2-19.3,0.8-21.4-6.5-30.7 c-4.3-5.5-9.5-10-11.6-10c-6.2,0-10.7-7.3-12.1-19.7c-1.4-11.8-6.8-24.2-16.9-38.1c-5.5-7.7-15.8-13.5-32.9-18.6 c-10.7-3.2-16.3-15.8-22.8-27.1c11.4-10.8,24.8-22.1,21.1-25.7c-3.3-3.2-27.3,14.5-30.2,22.4 C-655.8,2868.1-641.1,2888.2-621.1,2891.9z"/> <path d="M-433.8,2541.7c-3.5,26.9,30.2,37.7,29.9,38.1c15.6,6.1,19.1,6.3,21.1,0.9c4.6-12.5-22.8-6.2-34.9-22c-8-10.5-4.6-13,5-3.6 c8.1,7.9,15.3,8.2,13.8,0.6c-0.5-2.5,0.4-5.3,2-6.2c1.8-1.1,1.6-4.3-0.6-9c-2.6-5.5-2.6-7.8-0.1-9.3c3.5-2.2,3.7-22.6,0.2-24.7 c-1.1-0.7-5.4,0.3-9.6,2.3c-9.3,4.3-9.8,13.5-1.5,29.2c7.1,13.6,5.2,17-3.6,6.4C-420.7,2533.9-432.6,2532.5-433.8,2541.7z"/> <path d="M-377.5,2539.4c6,0,7.6-7.9,4.5-22.3c-4.2-20-9-18.1-8.7,3.6C-381.4,2534.4-380.3,2539.4-377.5,2539.4z"/> <path d="M-402.5,2488.8c1.2-2.1,5.4-3.8,9.3-3.8s7-1.3,7-2.9c-0.1-3.6-4.5-3.6-18,0.1c-10.1,2.8-16.5,9.5-16.4,17.1 C-420.4,2503.4-406,2494.9-402.5,2488.8z"/> <path d="M-409.6,2710.4c-12.6-0.7-29.1,0.6-30.9,2.4c-2.1,2.1,12.9,11.7,15.5,18.8c2.6,6.9,10.7,6.4,10.6-0.8c0-3.4,2.9-7.1,7.1-9 C-397,2717.2-398.3,2711-409.6,2710.4z"/> <path d="M-401.2,2680.2c-1.4-6.6-9.2-6.6-10.4,0c-0.6,3.5,0.9,5,5.3,5C-402,2685.2-400.4,2683.7-401.2,2680.2z"/> <path d="M-492.5,2499.3c-0.1-4,13.2-13.5,10.3-16.3c-2.8-2.8-17.4,8.6-18.5,14.4C-501.9,2503.9-492.5,2502.6-492.5,2499.3z"/> <path d="M-437.3,2470.6c7,0,8.2-0.7,4.8-2.8c-5.8-3.7-18.2-3.7-15.9,0C-447.3,2469.4-442.3,2470.6-437.3,2470.6z"/> <path d="M-453.5,2553.1c6.9-12.2,2.7-16.9,9-32.4l4.4-10.7l-7.4,1.8c-16.3,4-15.4-10.9-23.9,4.6c-7.7,14.2-11.3,18.6-13.4,16.6 c-1.1-1,0.1-5.1,2.7-9c3.4-5.3,3.7-7.7,1.1-9.2c-5-3.1-14.5,10.3-12.3,17.3c3.2,10.1-1,19.9,7,24.1c4.5,2.4,7.4,1.2,15.4-6.3 c16.9-15.9,16-25.2,16.3-14.9c0.4,15-19.1,31.6-43.3,36.9c-7.4,1.6-8.2,6.5-7.8,6.3C-505.6,2590.6-463.1,2570.2-453.5,2553.1z M-469.2,2537.7c-12.6,14.5-16,12.5-5-3c10.7-15.1,13.7-17.6,13.8-11.5C-460.4,2525.7-464.4,2532.2-469.2,2537.7z"/> <path d="M-519.9,3073.7c0.7,5.9,14.6,47.7,21.3,71.3c7.5,26.5,13.8,21.1,15.1,48.5c1.1,23.2,4.6,57.3,6.3,62.3h0 c2.1,6.2,7,0.8,6.9-7.6c-0.2-14,12.6-19.5,23.2-10.1c3.2,2.8,7.4,3.8,11.1,2.7c8.3-2.6,7.3-6-3.3-11.3c-10.4-5.1-21.5-5.9-24.1-1.6 c-4.3,7.1-7.2-2.3-7.5-24.8c-0.6-43.4-7.1-20.7-27.1-92.3c-5.5-19.6-10.5-37.4-11.1-39.5C-510.7,3066.2-520.5,3068.4-519.9,3073.7z "/> <path d="M-526.2,3009.2c-3,5.4,1.7,31.7,7.4,42.3c2.9,5.4,7,6.5,9.4,2.6c0.8-1.3-2-13.2-6.2-26.3 C-522,3008.1-523.8,3004.9-526.2,3009.2z"/> <path d="M-1355.7,4959.5c-40.8-9.3-55.7-17.2-55.6-8.4c0.1,4,6.3,6.3,33.2,12.5l0,0C-1347,4970.7-1343.6,4962.2-1355.7,4959.5z"/> <path d="M-1027.6,3614.2c-6,2.3-6.4,12.5-10.3,12.5c-5.5,0-3.3,16.9,11.7-9.2C-1024,3613.7-1024.3,3612.9-1027.6,3614.2z"/> <path d="M2375.3,5015.3c5,3,2.2,4.9,50.3-33.1c8.7-6.9,12.6-18,6.2-18c-4.6,0-56.9,39.5-58.8,44.3 C2372.2,5010.9,2373.2,5014,2375.3,5015.3z"/> <path d="M2338.2,4961.8c3.9-6,11.1-15.2,15.9-20.5c8.9-9.8,11.8-20.9,4.9-19.2c-6.3,1.5-38.8,39.4-38.7,45.1 C2320.4,4976.6,2330.6,4973.5,2338.2,4961.8z"/> <path d="M-1034.1,3599.4c-12.3,7.7-13.4,13.6-18.2,12.5c-5.1-1.2-4.3,17.7-2.1,17.7c2.4,0,21.6-22.3,25.6-29.8 C-1025.8,3594.2-1025.9,3594.2-1034.1,3599.4z"/> <path d="M-553.2,3493.2c14.1,10.6,69.2,6.3,69-5.4c0-1.2-10.7-1.6-23.8-1c-21.2,1.1-25.3,0.4-38.6-6.2c-8.2-4.1-16.8-7.4-19.1-7.4 c-11.4,0-22.7-26-23.1-53.1c-0.2-16.2-0.9-18.2-6-18.2c-3.7,0-6.3,2.5-7.5,7.4c-2.5,10.4,1.9,43.4,7.1,54.1 c4.9,9.9,17.4,20.1,27.9,22.7C-561.6,3487.4-552.9,3493-553.2,3493.2z"/> <path d="M-1237.2,4874.5c-5.5-3.4-6.5,7.7-1.4,16c2.8,4.6,6.7,11.1,8.6,14.6c5.5,9.9,6.1,9.8,5.8,9.8c2.5,3.8,11.9,5.1,10.1,1.4 C-1224.3,4895.1-1234.8,4875.9-1237.2,4874.5z"/> <path d="M-565.7,3443.2c4.8,16.4,9.9,21.5,27.1,27.4c32,10.9,36.9,3.9,7.1-10.3c-18.2-8.7-19.3-10.1-24.2-31.4 c-1.9-8.1-16.1-19.7-19.7-16.1C-580.5,3418.1-571.8,3422.2-565.7,3443.2z"/> <path d="M-1147.7,4858.4c-7.5-7.3-9,1.6-5.3,32.4c0.6-0.6,2,30.5,7.8,30.5c3.5,0,4-5,2.6-29.7 C-1143.5,4873.3-1145.5,4860.6-1147.7,4858.4z"/> <path d="M-1390.4,5005.6c-5.7-5-40.3-11.6-43.6-8.2c-3,3,2.2,7.9,10.7,9.9c3.2,0.8,12.8,1.5,21.5,1.7 C-1388.6,5009.3-1386.8,5008.8-1390.4,5005.6z"/> <path d="M-1321.6,4904.4c-5-2.9-7.9-3.3-10-1.2c-4.8,4.8,19.4,19.2,32.1,31.6c7.3,6.5,17.4,8.7,17.3,3.8 C-1282.2,4935.6-1310.7,4910.9-1321.6,4904.4z"/> <path d="M-1062.9,4871.1c-3.9,1.5-18.6,36.5-18.5,43.9h0c0.1,5.4,8.6,4.1,10.5-1.5C-1062.2,4886.7-1050.3,4866.3-1062.9,4871.1z"/> <path d="M-716.2,3367.4c-0.1-5.1-2-5.7-17.6-5.7c-21.7,0-22.3,6.3-0.8,8.8c7.8,0.9,15.2,1.9,16.4,2.2 C-717.1,3372.9-716.2,3370.6-716.2,3367.4z"/> <path d="M-629.7,3478.8c-3.3,0-4.2,4-4,17.8c0.2,17.1-5.9,84.1-9,99c-0.8,4-6.8,27.7-13.2,52.8c-21.6,84.5-24.4,107.2-21.1,172.4 c4.3,83.9,16.4,114.5,26.1,156.6c5.7,24.7,21.8,27.6,2.9,62c-11.8,21.5-15.3,47.4-18.6,39.3c-5.5-13.7-24.3-109.3-33-168.1 c-16.8-113.6-14.9-161,10.6-267.8c12.3-51.3,42.1-182.5,46.9-223.1c1.5-12.7,1-15-2.9-15c-5.5,0-10.1,11-9.9,23.7 c0.2,16.1-16.3,87.3-30.6,152c-26.7,121.5-46.8,173.1-29.1,312.3c6.3,49.4,24.9,144.9,33.1,170.3c10.3,31.9,16.8,47.2,21.3,50.5 c8.3,6.1,9.6,4.1,7.5-11.6c-1.6-11.8-0.6-19.2,4.3-33.4c3.5-10.1,7.4-19.7,8.7-21.4c5.2-6.9,12.8-36.3,10.5-40.7 c-9-17.4-12.8-30-21-70.1c-45.7-224.1,12.2-244.7,25.5-410C-621.7,3490.1-622.9,3478.8-629.7,3478.8z"/> <path d="M-683.7,3493.9c-3.8-3.7-12.4,8.9-16.7,24.7c-5.4,19.8-25.6,78.3-31.1,90.4c-10.6,23.2-32.5,105.1-38.2,143.4 c-2.5,16.5-5.5,35.7-6.7,42.7c-4.5,26.3-1.5,115-8.8,129.6c-7.4,14.9-23.5,37-26.9,37c-8.7,0-4.6-67,7.7-126.8 c7.9-38.1,9.5-54.2,16.2-72.6c12.1-33.5,11.5-114.9,46.2-188.1c12.3-26,19.5-46.1,17.2-48.4c-4.1-4-9.7-0.7-13.2,7.7 c-2.1,5.1-7.3,16.9-11.4,26.3c-19.3,44-37,107-37,131.2c0,16.1-7.1,28.1-9.5,47c-3.9,31.8-20.7,74.2-24,119.7 c-3.9,52.4-12.4,51.8-5.6,94.8c7.2,45.6,4.7,47.4,5.9,48.6c1.2,6.4,8.1-1.6,13.4-15.8c8.5-22.5,24-47.6,29.6-47.7 c14.1-0.2,2.7-59.8,10.7-119.7c9.7-72.7,17.3-129.4,43.1-198C-693.7,3542.5-679.8,3497.7-683.7,3493.9z"/> <path d="M-694.6,4157.6c-2.4-11.7,0.3-21.4-6-19c-7.6,2.9-2,58.8-1.6,58.8c1.7,15.4,3,19.2,6.6,18.5c3.7-0.7,4.3-5.1,3.3-27 C-693,4174.5-694,4160.4-694.6,4157.6z"/> <path d="M-197,3974.9c2,11.3,6.1,32,6.7,32c1.2,2,12.5,3.2,12.5,1.3c0-0.5-2.7-5.9-6-12.1c-9.2-17.3-0.2-13.6-7.4-48.7 c-5.2-25.3-7.6-32.3-10.9-32.3C-209.7,3915.1-204.1,3935.5-197,3974.9z"/> <path d="M-852.5,3994.6c-7.8,6.5,0.6,28.3-5.4,83.2c-3.5,32.4-1.4,34.8-1.5,35.2c1.5,3.6,2.6,3.8,6,1c2.7-2.3,4.2-8.7,4-18.1 c-0.4-25.5,11.8-73.2,2.5-101C-847.9,3991.6-848.9,3991.6-852.5,3994.6z"/> <path d="M-334.6,3650.1c3.8,0,1.8-12-7.2-43.5c-5.6-19.3-8.3-24.9-12.2-25c-2.8,0-5,1.1-5,2.4 C-359.1,3585.9-341,3650.1-334.6,3650.1z"/> <path d="M-429.8,3403.4c30.8,1.9,40.7,5.8,41,5.8c11.7,5.1,18.7,5.1,18.7,0c-0.2-16.8-68.3-11-75.5-18c-5.8-5.7,48.8-0.7,52.7,0.8 c7.5,2.9,9.1-3.6,1.8-7.4c-8.7-4.6-74.4-8.4-76.6,3.9C-469.7,3398.8-463.2,3401.3-429.8,3403.4z"/> <path d="M-516.8,3368.1c10,6.6,21.1,15.3,24.9,19.3c7.3,7.9,7.2,6.1,2.5,62.2h0c-1.5,18.1,0.7,22.1,7.7,13.6 c1.9-2.3,2.8-5.9,2.1-7.8c-0.8-2,0.2-14.5,2.1-27.8c8.9-60.8-20.7-55.8-44.3-75.7C-537.3,3338.9-554.5,3343.1-516.8,3368.1z"/> <path d="M-528.8,3391.6c7.9,4.2,15,8.7,15.8,10c3,4.7,2.6,22.4-0.8,39.3c-3,14.7-2.9,18.4,0.3,22.2h0c5.7,6.7,10.3,3.6,9.4-6.3 c-0.4-4.8,1-14.1,3.3-20.7c8.4-24.7,1.9-44.8-18.1-55.3c-6.4-3.4-15.3-8.5-19.7-11.5C-554.2,3359-558.9,3375.4-528.8,3391.6z"/> <path d="M-454.1,4183.9c-11.8-79.9-5.2-137-21.8-126.8c-5.9,3.6,0.7,4.2,6.6,77c3.4,41.6,14.3,114.4,18,120.3c-0.3,0,1.6,2,4,0.5 C-440.3,4250.7-449.6,4213.7-454.1,4183.9z"/> <path d="M-455.4,3692.7c-4.4-36.5-11.6-69.2-20.4-119.7c-6.3-36.1-8.9-43.3-14.8-41c-5.6,2.2-5.5,6.7,1.7,41.8 c9.1,44.3,20,118.3,25.5,147.1c1.6,8.5,3,22.1,3.2,30.3c0.2,14.7,6.1,25.3,10.2,18.5c2.9-4.8,6.7-3.5,8.9,3.1v0 c1.5,4.6,2.6,5.1,4.3,2.3c1.3-2.2,0.5-7.1-1.9-11.6C-445,3751.9-451.7,3723.4-455.4,3692.7z"/> </g> </svg>